<?xml version="1.0" encoding="utf-8"?>
<!-- Generator: Adobe Illustrator 24.1.3, SVG Export Plug-In . SVG Version: 6.00 Build 0)  -->
<svg version="1.1" id="Layer_1" xmlns="http://www.w3.org/2000/svg" xmlns:xlink="http://www.w3.org/1999/xlink" x="0px" y="0px"
	 viewBox="0 0 2267.72 2776.8" style="enable-background:new 0 0 2267.72 2776.8;" xml:space="preserve">
<style type="text/css">
	.st0{fill-rule:evenodd;clip-rule:evenodd;fill:#B4D6EF;}
	.st1{fill-rule:evenodd;clip-rule:evenodd;fill:#360202;}
	.st2{fill-rule:evenodd;clip-rule:evenodd;fill:#FFDABD;}
	.st3{fill-rule:evenodd;clip-rule:evenodd;fill:#D6D6D8;}
	.st4{fill:none;stroke:#FF99CC;stroke-width:6.5573;stroke-linecap:round;stroke-linejoin:round;stroke-miterlimit:22.9256;}
	.st5{fill:none;stroke:#360202;stroke-width:22.4221;stroke-linecap:round;stroke-linejoin:round;stroke-miterlimit:22.9256;}
	.st6{fill-rule:evenodd;clip-rule:evenodd;fill:#EDB68B;}
	.st7{fill-rule:evenodd;clip-rule:evenodd;fill:#FFFFFF;}
	.st8{fill:none;stroke:#000000;stroke-width:3.7644;stroke-linecap:round;stroke-linejoin:round;stroke-miterlimit:22.9256;}
	.st9{fill:none;stroke:#000000;stroke-width:3.8411;stroke-linecap:round;stroke-linejoin:round;stroke-miterlimit:22.9256;}
	.st10{fill:none;stroke:#FF99CC;stroke-width:6.5376;stroke-linecap:round;stroke-linejoin:round;stroke-miterlimit:22.9256;}
	.st11{fill-rule:evenodd;clip-rule:evenodd;fill:#909B9C;}
	.st12{fill-rule:evenodd;clip-rule:evenodd;fill:#1A1A1A;}
	.st13{fill-rule:evenodd;clip-rule:evenodd;fill:#FFCFBD;}
	.st14{fill-rule:evenodd;clip-rule:evenodd;fill:#666666;}
	.st15{fill-rule:evenodd;clip-rule:evenodd;fill:#7D3A07;}
	.st16{fill:none;stroke:#7D3A07;stroke-width:5.6055;stroke-linecap:round;stroke-linejoin:round;stroke-miterlimit:22.9256;}
	.st17{fill:none;stroke:#D6D6D8;stroke-width:5.6055;stroke-linecap:round;stroke-linejoin:round;stroke-miterlimit:22.9256;}
	.st18{fill-rule:evenodd;clip-rule:evenodd;fill:#333333;}
	.st19{fill-rule:evenodd;clip-rule:evenodd;}
	.st20{fill-rule:evenodd;clip-rule:evenodd;fill:#A87C39;}
	.st21{fill-rule:evenodd;clip-rule:evenodd;fill:#E8C85D;}
	.st22{fill:none;stroke:#471F00;stroke-width:4.2041;stroke-linecap:round;stroke-linejoin:round;stroke-miterlimit:22.9256;}
</style>
<g>
	<polygon class="st0" points="0,2776.8 2265.24,2776.8 2265.24,0 0,0 0,2776.8 	"/>
	<path class="st1" d="M1130.6,871.18c189.68,0,343.45,138.11,343.45,308.49c0,170.37-153.77,308.49-343.45,308.49
		c-189.68,0-343.45-138.11-343.45-308.49C787.15,1009.3,940.91,871.18,1130.6,871.18L1130.6,871.18z"/>
	<polygon class="st2" points="945.71,1570.54 978.5,1623.82 820.74,1768.03 782.2,1754.17 801.03,1700.1 945.71,1570.54 	"/>
	<path class="st2" d="M1130.6,1443.69c93.3,0,168.93,132.13,168.93,295.12c0,41.81-4.99,81.59-13.97,117.63H975.63
		c-8.98-36.04-13.97-75.81-13.97-117.63C961.66,1575.82,1037.3,1443.69,1130.6,1443.69L1130.6,1443.69z"/>
	<polygon class="st2" points="1276.49,1966.8 1174.51,1965.11 1165.54,2134.28 1246.92,2135.62 1276.49,1966.8 	"/>
	<polygon class="st2" points="648.41,1593.73 615.37,1606.5 782.2,1754.17 802,1699.11 648.41,1593.73 	"/>
	<polygon class="st3" points="919.29,1564.06 801.03,1700.1 725.2,1646.42 694.89,1581.13 613.81,1659.5 687.33,1679.43 
		772.68,1761.62 820.74,1768.03 979.45,1652.92 919.29,1564.06 	"/>
	<path class="st2" d="M1130.6,926.39c170.72,0,309.12,138.4,309.12,309.12s-138.4,309.12-309.12,309.12s-309.12-138.4-309.12-309.12
		S959.87,926.39,1130.6,926.39L1130.6,926.39z"/>
	<path class="st1" d="M1014.65,1286.45c19.05,0,34.49,15.44,34.49,34.49c0,19.05-15.44,34.49-34.49,34.49
		c-19.05,0-34.49-15.44-34.49-34.49C980.16,1301.89,995.6,1286.45,1014.65,1286.45L1014.65,1286.45z"/>
	<polyline class="st4" points="1073.77,1445.66 1129.94,1451.35 1184.61,1445.66 	"/>
	<path class="st5" d="M952.5,1255.39c4.93-6.17,11.16-13.75,17.76-16.01c19.29-6.6,64.45-1.02,85.82,2.44"/>
	<path class="st6" d="M1127.4,1360.06c3.19,1.83,3.2,7.79,0.04,13.31s-8.32,8.52-11.51,6.7c-3.19-1.83-3.2-7.79-0.04-13.31
		C1119.06,1361.23,1124.21,1358.24,1127.4,1360.06L1127.4,1360.06z"/>
	<path class="st6" d="M1136.12,1360.06c-3.19,1.83-3.2,7.79-0.04,13.31s8.32,8.52,11.51,6.7c3.19-1.83,3.2-7.79,0.04-13.31
		C1144.46,1361.23,1139.31,1358.24,1136.12,1360.06L1136.12,1360.06z"/>
	<path class="st7" d="M1004.6,1300.59c9.52,0,17.24,7.72,17.24,17.24c0,9.52-7.72,17.24-17.24,17.24c-9.52,0-17.24-7.72-17.24-17.24
		C987.36,1308.31,995.08,1300.59,1004.6,1300.59L1004.6,1300.59z"/>
	<path class="st2" d="M643.8,1632.6c-17.2,7.78-37.44,0.14-45.22-17.05c-7.78-17.2-0.14-37.44,17.05-45.22
		c17.2-7.78,37.44-0.14,45.22,17.05C668.63,1604.58,661,1624.83,643.8,1632.6L643.8,1632.6z"/>
	<path class="st2" d="M620.94,1576.39c-3.27,2.63-10.3-0.69-15.72-7.41c-5.42-6.72-7.16-14.31-3.89-16.94
		c3.27-2.63,10.3,0.69,15.72,7.41C622.47,1566.17,624.21,1573.76,620.94,1576.39L620.94,1576.39z"/>
	<path class="st6" d="M606.65,1558.46c-1.63,1.31-3.94,1.16-5.15-0.34c-1.21-1.5-0.87-3.79,0.76-5.1c1.63-1.32,3.94-1.16,5.15,0.34
		C608.62,1554.86,608.28,1557.14,606.65,1558.46L606.65,1558.46z"/>
	<path class="st2" d="M611.98,1585.91c-2.44,3.41-10.11,2.11-17.13-2.91c-7.03-5.02-10.74-11.85-8.31-15.26
		c2.44-3.41,10.11-2.11,17.13,2.91S614.42,1582.49,611.98,1585.91L611.98,1585.91z"/>
	<path class="st6" d="M593.38,1572.49c-1.22,1.71-3.48,2.18-5.05,1.06c-1.57-1.12-1.86-3.42-0.64-5.12
		c1.22-1.71,3.48-2.18,5.05-1.06C594.32,1568.49,594.6,1570.78,593.38,1572.49L593.38,1572.49z"/>
	<path class="st2" d="M605.5,1599.77c-1.71,3.83-9.49,4.07-17.37,0.54c-7.88-3.53-12.88-9.49-11.16-13.32
		c1.71-3.83,9.49-4.07,17.37-0.54C602.22,1589.98,607.22,1595.94,605.5,1599.77L605.5,1599.77z"/>
	<path class="st6" d="M584.62,1590.29c-0.86,1.91-2.98,2.82-4.74,2.03c-1.76-0.79-2.5-2.98-1.64-4.89c0.86-1.91,2.98-2.82,4.74-2.03
		C584.74,1586.18,585.48,1588.38,584.62,1590.29L584.62,1590.29z"/>
	<path class="st2" d="M604.44,1613.98c-0.33,3.75-6.86,6.23-14.57,5.55c-7.72-0.68-13.7-4.28-13.37-8.03
		c0.33-3.75,6.86-6.23,14.57-5.55C598.79,1606.64,604.78,1610.23,604.44,1613.98L604.44,1613.98z"/>
	<path class="st2" d="M657.07,1592.77c-4.57,1.1-10.12-5.63-12.39-15.04c-2.27-9.41-0.41-17.94,4.16-19.04
		c4.57-1.1,10.12,5.63,12.39,15.04C663.5,1583.14,661.64,1591.67,657.07,1592.77L657.07,1592.77z"/>
	<path class="st6" d="M583.96,1612.06c-0.17,1.87-1.7,3.27-3.43,3.12c-1.73-0.15-2.99-1.8-2.82-3.67c0.17-1.87,1.7-3.27,3.43-3.12
		C582.86,1608.54,584.12,1610.19,583.96,1612.06L583.96,1612.06z"/>
	<path class="st6" d="M651.15,1567.74c-2.29,0.55-4.55-0.71-5.06-2.81c-0.51-2.11,0.93-4.26,3.22-4.81
		c2.29-0.55,4.55,0.71,5.06,2.81C654.88,1565.03,653.44,1567.19,651.15,1567.74L651.15,1567.74z"/>
	<path class="st2" d="M842.19,1299.46c21.37,0,38.7,17.32,38.7,38.7c0,21.37-17.32,38.7-38.7,38.7c-21.37,0-38.7-17.32-38.7-38.7
		C803.5,1316.79,820.82,1299.46,842.19,1299.46L842.19,1299.46z"/>
	<path class="st2" d="M1423.72,1299.46c21.37,0,38.7,17.32,38.7,38.7c0,21.37-17.32,38.7-38.7,38.7c-21.37,0-38.7-17.32-38.7-38.7
		C1385.02,1316.79,1402.35,1299.46,1423.72,1299.46L1423.72,1299.46z"/>
	<path class="st7" d="M1017.78,1336.6c-2.37,0-4.29-1.92-4.29-4.3c0-2.37,1.92-4.3,4.29-4.3c2.37,0,4.3,1.92,4.3,4.3
		C1022.07,1334.68,1020.15,1336.6,1017.78,1336.6L1017.78,1336.6z"/>
	<line class="st8" x1="977.21" y1="1277.67" x2="991.65" y2="1289.8"/>
	<path class="st9" d="M995.42,1267.38c2.41,4.04,4.81,8.09,7.22,12.13"/>
	<path class="st9" d="M1013.63,1263.49c0,4.04,0,8.09,0,12.13"/>
	<path class="st9" d="M1031.84,1267.22c-2.41,4.04-4.81,8.09-7.22,12.13"/>
	<line class="st8" x1="1050.05" y1="1277.35" x2="1035.61" y2="1289.48"/>
	<path class="st1" d="M1249.39,1286.45c19.05,0,34.49,15.44,34.49,34.49c0,19.05-15.44,34.49-34.49,34.49
		c-19.05,0-34.49-15.44-34.49-34.49C1214.9,1301.89,1230.34,1286.45,1249.39,1286.45L1249.39,1286.45z"/>
	<path class="st7" d="M1239.34,1300.59c9.52,0,17.24,7.72,17.24,17.24c0,9.52-7.72,17.24-17.24,17.24
		c-9.52,0-17.24-7.72-17.24-17.24C1222.1,1308.31,1229.82,1300.59,1239.34,1300.59L1239.34,1300.59z"/>
	<path class="st7" d="M1252.51,1336.6c-2.37,0-4.3-1.92-4.3-4.3c0-2.37,1.92-4.3,4.3-4.3s4.29,1.92,4.29,4.3
		C1256.81,1334.68,1254.89,1336.6,1252.51,1336.6L1252.51,1336.6z"/>
	<line class="st8" x1="1286.83" y1="1277.67" x2="1272.39" y2="1289.8"/>
	<path class="st9" d="M1268.62,1267.38c-2.41,4.04-4.81,8.09-7.22,12.13"/>
	<path class="st9" d="M1250.41,1263.49c0,4.04,0,8.09,0,12.13"/>
	<path class="st9" d="M1232.19,1267.22c2.41,4.04,4.81,8.09,7.22,12.13"/>
	<line class="st8" x1="1213.98" y1="1277.35" x2="1228.42" y2="1289.48"/>
	<polyline class="st10" points="1164.5,1437.82 1142.01,1429.74 1130.96,1436.68 	"/>
	<polygon class="st2" points="995.75,1966.8 1097.73,1965.11 1106.71,2134.28 1025.32,2135.62 995.75,1966.8 	"/>
	<polygon class="st11" points="955.35,1803.82 795.28,2191.91 1091.68,2191.91 1126.65,2191.91 1161.62,2191.91 1458.02,2191.91 
		1297.95,1803.82 1126.65,1803.82 955.35,1803.82 	"/>
	<polygon class="st3" points="1002.72,1528.69 1086.86,1629.86 1137.03,1652.93 1299.77,1777.16 953,1777.16 933.58,1561.58 
		1002.72,1528.69 	"/>
	<polygon class="st12" points="953,1777.16 1305.65,1777.16 1305.65,1803.82 953,1803.82 953,1777.16 	"/>
	<polygon class="st2" points="1323.06,1578.96 1271.81,1614.83 1354.48,1802.37 1402.02,1754.6 1323.06,1578.96 	"/>
	<polygon class="st2" points="1392.3,1956.51 1425.97,1967.5 1401.73,1752.06 1339.12,1766.6 1392.3,1956.51 	"/>
	<path class="st2" d="M1418.6,1935.24c18.24,4.84,29.1,23.55,24.26,41.79c-4.84,18.24-23.55,29.1-41.79,24.26
		c-18.24-4.84-29.1-23.55-24.26-41.79C1381.65,1941.26,1400.36,1930.39,1418.6,1935.24L1418.6,1935.24z"/>
	<path class="st2" d="M1400.78,1993.25c4.19,0.03,7.55,7.05,7.5,15.68c-0.05,8.63-3.5,15.61-7.69,15.58
		c-4.19-0.03-7.55-7.05-7.5-15.68C1393.15,2000.2,1396.59,1993.22,1400.78,1993.25L1400.78,1993.25z"/>
	<path class="st6" d="M1400.53,2016.18c2.1,0.01,3.79,1.59,3.77,3.52c-0.01,1.93-1.72,3.49-3.82,3.47c-2.1-0.01-3.79-1.59-3.77-3.52
		S1398.43,2016.17,1400.53,2016.18L1400.53,2016.18z"/>
	<path class="st2" d="M1413.74,1991.54c4.05-1.1,9.17,4.75,11.44,13.08c2.27,8.33,0.83,15.98-3.21,17.08s-9.17-4.75-11.44-13.08
		C1408.26,2000.29,1409.7,1992.64,1413.74,1991.54L1413.74,1991.54z"/>
	<path class="st6" d="M1419.67,2013.69c2.02-0.55,4.07,0.51,4.58,2.37c0.51,1.86-0.72,3.82-2.74,4.37
		c-2.02,0.55-4.07-0.51-4.58-2.37S1417.65,2014.24,1419.67,2013.69L1419.67,2013.69z"/>
	<path class="st2" d="M1427.52,1984.89c3.75-1.88,9.93,2.85,13.8,10.56c3.87,7.72,3.98,15.5,0.23,17.38
		c-3.75,1.88-9.93-2.85-13.8-10.56C1423.88,1994.55,1423.78,1986.77,1427.52,1984.89L1427.52,1984.89z"/>
	<path class="st6" d="M1437.72,2005.43c1.87-0.94,4.1-0.3,4.96,1.42c0.87,1.73,0.05,3.89-1.82,4.83c-1.87,0.94-4.09,0.3-4.96-1.42
		C1435.03,2008.54,1435.84,2006.37,1437.72,2005.43L1437.72,2005.43z"/>
	<path class="st2" d="M1437.33,1974.55c2.63-2.69,9.25-0.49,14.8,4.91c5.55,5.41,7.91,11.98,5.29,14.67
		c-2.63,2.69-9.25,0.49-14.8-4.91C1437.07,1983.81,1434.7,1977.24,1437.33,1974.55L1437.33,1974.55z"/>
	<path class="st2" d="M1383.15,1957.72c4.24,2.03,4.28,10.76,0.09,19.49c-4.19,8.73-11.02,14.16-15.26,12.12
		c-4.24-2.03-4.28-10.76-0.09-19.49C1372.07,1961.11,1378.91,1955.68,1383.15,1957.72L1383.15,1957.72z"/>
	<path class="st6" d="M1451.99,1988.98c1.31-1.35,3.38-1.46,4.63-0.25c1.24,1.21,1.18,3.28-0.13,4.63
		c-1.31,1.35-3.38,1.46-4.63,0.25C1450.62,1992.4,1450.68,1990.33,1451.99,1988.98L1451.99,1988.98z"/>
	<path class="st6" d="M1371.91,1980.85c2.12,1.02,3.08,3.42,2.14,5.38c-0.94,1.95-3.42,2.71-5.54,1.69
		c-2.12-1.02-3.08-3.42-2.14-5.38C1367.31,1980.59,1369.79,1979.84,1371.91,1980.85L1371.91,1980.85z"/>
	<polygon class="st3" points="1255.92,1528.69 1193.22,1628.44 1094.16,1676.85 958.88,1777.16 1305.65,1777.16 1332.34,1561.09 
		1255.92,1528.69 	"/>
	<path class="st13" d="M1279.98,1372.02c21.37,0,38.7,8.18,38.7,18.27c0,10.09-17.32,18.27-38.7,18.27
		c-21.37,0-38.7-8.18-38.7-18.27C1241.29,1380.21,1258.61,1372.02,1279.98,1372.02L1279.98,1372.02z"/>
	<path class="st13" d="M994.24,1372.02c21.37,0,38.7,8.18,38.7,18.27c0,10.09-17.32,18.27-38.7,18.27c-21.37,0-38.7-8.18-38.7-18.27
		C955.54,1380.21,972.86,1372.02,994.24,1372.02L994.24,1372.02z"/>
	<polyline class="st10" points="1097.41,1437.82 1119.9,1429.74 1130.96,1436.68 	"/>
	<polyline class="st4" points="1107.7,1462.43 1129.94,1464.69 1149.41,1462.66 	"/>
	<path class="st5" d="M1300.66,1253.84c-5.12-6.02-11.56-13.41-18.23-15.47c-19.48-6.03-64.45,0.91-85.71,5.01"/>
	<path class="st1" d="M935.26,926.02c87.52-46.72,170.88-28.19,186.18,41.39c15.3,69.58-43.24,163.86-130.77,210.58
		c-87.52,46.72-170.88,28.19-186.18-41.39C789.19,1067.02,847.74,972.74,935.26,926.02L935.26,926.02z"/>
	<path class="st1" d="M808.26,929.45c41.28,0,74.75,33.46,74.75,74.75c0,41.28-33.46,74.75-74.75,74.75
		c-41.28,0-74.75-33.46-74.75-74.75C733.52,962.92,766.98,929.45,808.26,929.45L808.26,929.45z"/>
	<path class="st1" d="M1121.45,896.64c39.08,0,70.77,20.18,70.77,45.08c0,24.9-31.68,45.08-70.77,45.08s-70.77-20.18-70.77-45.08
		C1050.68,916.82,1082.36,896.64,1121.45,896.64L1121.45,896.64z"/>
	<path class="st1" d="M892.54,930.39c33.31,0,60.31,27,60.31,60.31c0,33.31-27,60.31-60.31,60.31c-33.31,0-60.31-27-60.31-60.31
		C832.23,957.39,859.23,930.39,892.54,930.39L892.54,930.39z"/>
	<path class="st1" d="M811.79,1032.79c33.31,0,60.31,27,60.31,60.31c0,33.31-27,60.31-60.31,60.31c-33.31,0-60.31-27-60.31-60.31
		C751.48,1059.79,778.48,1032.79,811.79,1032.79L811.79,1032.79z"/>
	<path class="st1" d="M1312.49,926.02c-87.52-46.72-170.88-28.19-186.18,41.39c-15.3,69.58,43.24,163.86,130.77,210.58
		c87.52,46.72,170.88,28.19,186.18-41.39C1458.56,1067.02,1400.02,972.74,1312.49,926.02L1312.49,926.02z"/>
	<path class="st1" d="M1439.49,929.45c-41.28,0-74.75,33.46-74.75,74.75c0,41.28,33.47,74.75,74.75,74.75
		c41.28,0,74.75-33.46,74.75-74.75C1514.24,962.92,1480.77,929.45,1439.49,929.45L1439.49,929.45z"/>
	<path class="st1" d="M1355.22,930.39c-33.31,0-60.31,27-60.31,60.31c0,33.31,27,60.31,60.31,60.31c33.31,0,60.31-27,60.31-60.31
		C1415.52,957.39,1388.52,930.39,1355.22,930.39L1355.22,930.39z"/>
	<path class="st1" d="M1435.97,1032.79c-33.31,0-60.31,27-60.31,60.31c0,33.31,27,60.31,60.31,60.31c33.31,0,60.31-27,60.31-60.31
		C1496.27,1059.79,1469.27,1032.79,1435.97,1032.79L1435.97,1032.79z"/>
	<polygon class="st14" points="965.78,1803.82 805.72,2191.91 1102.11,2191.91 834.89,2191.91 969.99,1803.82 965.78,1803.82 	"/>
	<path class="st14" d="M988.69,1803.82c-46.63,129.36-93.25,258.72-139.88,388.09c98.8,0,197.6,0,296.4,0
		c-89.07,0-178.15,0-267.22,0c38.3-129.36,76.6-258.72,114.91-388.09C991.49,1803.82,990.09,1803.82,988.69,1803.82L988.69,1803.82z
		"/>
	<path class="st14" d="M1011.6,1803.82c-39.9,129.36-79.79,258.72-119.69,388.09c98.8,0,197.6,0,296.4,0c-89.07,0-178.15,0-267.22,0
		c31.57-129.36,63.15-258.72,94.72-388.09C1014.4,1803.82,1013,1803.82,1011.6,1803.82L1011.6,1803.82z"/>
	<path class="st14" d="M1034.5,1803.82c-33.17,129.36-66.33,258.72-99.5,388.09c98.8,0,197.6,0,296.4,0c-89.07,0-178.15,0-267.22,0
		c24.84-129.36,49.69-258.72,74.53-388.09C1037.31,1803.82,1035.91,1803.82,1034.5,1803.82L1034.5,1803.82z"/>
	<path class="st14" d="M1057.41,1803.82c-26.44,129.36-52.88,258.72-79.31,388.09c98.8,0,197.6,0,296.4,0
		c-89.07,0-178.15,0-267.22,0c18.11-129.36,36.23-258.72,54.34-388.09C1060.21,1803.82,1058.81,1803.82,1057.41,1803.82
		L1057.41,1803.82z"/>
	<path class="st14" d="M1080.32,1803.82c-19.71,129.36-39.42,258.72-59.12,388.09c98.8,0,197.6,0,296.4,0
		c-89.07,0-178.15,0-267.22,0c11.38-129.36,22.77-258.72,34.15-388.09C1083.12,1803.82,1081.72,1803.82,1080.32,1803.82
		L1080.32,1803.82z"/>
	<path class="st14" d="M1103.23,1803.82c-12.98,129.36-25.96,258.72-38.94,388.09c98.8,0,197.6,0,296.4,0
		c-89.07,0-178.15,0-267.22,0c4.66-129.36,9.31-258.72,13.96-388.09C1106.03,1803.82,1104.63,1803.82,1103.23,1803.82
		L1103.23,1803.82z"/>
	<path class="st14" d="M1126.13,1803.82c-6.25,129.36-12.5,258.72-18.75,388.09c98.8,0,197.6,0,296.4,0c-89.07,0-178.15,0-267.22,0
		c-2.07-129.36-4.15-258.72-6.22-388.09C1128.94,1803.82,1127.54,1803.82,1126.13,1803.82L1126.13,1803.82z"/>
	<path class="st14" d="M1149.04,1803.82c0.48,129.36,0.96,258.72,1.44,388.09c98.8,0,197.6,0,296.4,0c-89.07,0-178.15,0-267.22,0
		c-8.8-129.36-17.61-258.72-26.41-388.09C1151.84,1803.82,1150.44,1803.82,1149.04,1803.82L1149.04,1803.82z"/>
	<path class="st14" d="M1171.95,1803.82c7.21,129.36,14.42,258.72,21.63,388.09c98.8,0,197.6,0,296.4,0c-89.07,0-178.15,0-267.22,0
		c-15.53-129.36-31.07-258.72-46.6-388.09C1174.75,1803.82,1173.35,1803.82,1171.95,1803.82L1171.95,1803.82z"/>
	<path class="st14" d="M1194.86,1803.82c13.94,129.36,27.88,258.72,41.82,388.09c98.8,0,197.6,0,296.4,0c-89.07,0-178.15,0-267.22,0
		c-22.26-129.36-44.53-258.72-66.79-388.09C1197.66,1803.82,1196.26,1803.82,1194.86,1803.82L1194.86,1803.82z"/>
	<path class="st14" d="M1217.76,1803.82c20.67,129.36,41.34,258.72,62,388.09c98.8,0,197.6,0,296.4,0c-89.07,0-178.15,0-267.22,0
		c-28.99-129.36-57.98-258.72-86.98-388.09C1220.57,1803.82,1219.17,1803.82,1217.76,1803.82L1217.76,1803.82z"/>
	<path class="st14" d="M1240.67,1803.82c27.4,129.36,54.8,258.72,82.19,388.09c98.8,0,197.6,0,296.4,0c-89.07,0-178.15,0-267.22,0
		c-35.72-129.36-71.44-258.72-107.17-388.09C1243.47,1803.82,1242.07,1803.82,1240.67,1803.82L1240.67,1803.82z"/>
	<path class="st14" d="M1263.58,1803.82c34.13,129.36,68.25,258.72,102.38,388.09c98.8,0,197.6,0,296.4,0
		c-89.07,0-178.15,0-267.22,0c-42.45-129.36-84.9-258.72-127.35-388.09C1266.38,1803.82,1264.98,1803.82,1263.58,1803.82
		L1263.58,1803.82z"/>
	<polygon class="st14" points="1286.49,1803.82 1409.06,2191.91 1705.45,2191.91 1438.23,2191.91 1290.69,1803.82 1286.49,1803.82 	
		"/>
	<path class="st15" d="M1002.72,1528.69l109.23,148.75c7.1,60.44-22.59,90.48-77.45,99.72l-96.53-18.79l-5.38-116.54l-86.68-26.57
		l73.38-51.19L1002.72,1528.69L1002.72,1528.69z"/>
	<polygon class="st15" points="868.71,1622.25 801.03,1700.1 725.2,1646.42 687.33,1679.43 772.68,1761.62 820.74,1768.03 
		934.79,1689.45 868.71,1622.25 	"/>
	<polygon class="st3" points="1368.04,1595.7 1401.73,1752.06 1417.08,1888.45 1460.93,1927.45 1361.25,1957.28 1374.23,1891.98 
		1349.13,1802.36 1284.75,1617.93 1368.04,1595.7 	"/>
	<path class="st15" d="M1255.93,1528.69l-109.23,148.75c-7.1,60.44,22.59,90.48,77.45,99.72l96.53-18.79l5.38-116.54l86.68-26.57
		l-73.38-51.19L1255.93,1528.69L1255.93,1528.69z"/>
	<polygon class="st15" points="1374.57,1626.04 1402.02,1754.6 1417.08,1888.45 1369.21,1879.02 1345.82,1790.53 1322.05,1728.79 
		1374.57,1626.04 	"/>
	<line class="st16" x1="1108.1" y1="1677.18" x2="1122.04" y2="1752.18"/>
	<line class="st16" x1="1149.91" y1="1677.18" x2="1132.42" y2="1765.53"/>
	<path class="st17" d="M1144.24,1649.88l5,206.55 M1123.91,1644.16l5,206.55"/>
	<path class="st12" d="M1000.59,1780.92l45.63-3.42c6.62-0.5,10.49,4.78,11.4,11.44l8.84,64.84c0.91,6.67-6.05,12.75-12.66,13.25
		l-57.85,4.34c-6.62,0.5-11.74-4.65-11.39-11.44l3.38-65.75C988.28,1787.38,993.98,1781.41,1000.59,1780.92L1000.59,1780.92z"/>
	<path class="st18" d="M1001.14,1782.19l37.92-2.85c5.5-0.41,8.67,1.85,9.38,4.82l6.85,28.9c0.71,2.97-5.12,5.91-10.62,6.32
		l-48.07,3.61c-5.5,0.41-9.72-1.76-9.38-4.82l3.3-29.67C990.86,1785.45,995.64,1782.61,1001.14,1782.19L1001.14,1782.19z"/>
	<path class="st12" d="M1002.46,1784.88l32.34-2.43c4.69-0.35,7.39,1.5,7.99,3.95l5.83,23.78c0.6,2.45-4.37,4.87-9.06,5.23l-41,3.08
		c-4.69,0.35-8.29-1.42-7.99-3.95l2.83-24.43C993.7,1787.58,997.77,1785.23,1002.46,1784.88L1002.46,1784.88z"/>
	<path class="st19" d="M1019.71,1810.69c0.91-0.07,1.75,4.6,1.86,10.42c0.12,5.82-0.53,10.6-1.45,10.67
		c-0.91,0.07-1.75-4.6-1.86-10.42C1018.15,1815.54,1018.79,1810.76,1019.71,1810.69L1019.71,1810.69z"/>
	<polygon class="st20" points="1057.1,2287.04 1123.09,2283.77 1116.23,2191.91 1048.92,2191.91 1057.1,2287.04 	"/>
	<polygon class="st20" points="967.17,2293.42 1040.49,2294.17 1128.99,2283.02 1127.49,2265.71 1121.03,2249.51 1053.71,2247.61 
		1013.09,2265.67 967.17,2293.42 	"/>
	<path class="st20" d="M1005.34,2249.92c20.95-1.85,37.96,12.99,37.93,33.14l-0.02,10.76l-76.08-0.4
		C967.17,2273.27,984.4,2251.77,1005.34,2249.92L1005.34,2249.92z"/>
	<polygon class="st21" points="967.17,2293.42 961.82,2316.21 1066.49,2316.13 1091.8,2300.1 1091.8,2316.13 1130.6,2316.13 
		1128.99,2283.02 1040.49,2294.17 967.17,2293.42 	"/>
	<path class="st22" d="M1048.92,2196.93l11.93,15.66 M1059.94,2196.49l-10.11,16.55 M1050.63,2214.64l11.93,15.66 M1061.65,2214.19
		l-10.11,16.55 M1051.44,2231.58l11.93,15.66 M1062.46,2231.13l-10.11,16.55"/>
	<polygon class="st20" points="1204.09,2287.04 1138.1,2283.77 1144.96,2191.91 1212.27,2191.91 1204.09,2287.04 	"/>
	<polygon class="st20" points="1294.02,2293.42 1220.7,2294.17 1132.2,2283.02 1133.7,2265.71 1140.16,2249.51 1207.48,2247.61 
		1248.1,2265.67 1294.02,2293.42 	"/>
	<path class="st20" d="M1255.85,2249.92c-20.95-1.85-37.96,12.99-37.93,33.14l0.02,10.76l76.08-0.4
		C1294.02,2273.27,1276.79,2251.77,1255.85,2249.92L1255.85,2249.92z"/>
	<polygon class="st21" points="1294.02,2293.42 1299.37,2316.21 1194.7,2316.13 1169.39,2300.1 1169.39,2316.13 1130.6,2316.13 
		1132.2,2283.02 1220.7,2294.17 1294.02,2293.42 	"/>
	<path class="st22" d="M1212.27,2196.93l-11.93,15.66 M1201.25,2196.49l10.11,16.55 M1210.56,2214.64l-11.93,15.66 M1199.54,2214.19
		l10.11,16.55 M1209.75,2231.58l-11.93,15.66 M1198.73,2231.13l10.11,16.55"/>
</g>
</svg>
