<?xml version="1.0" encoding="utf-8"?>
<!-- Generator: Adobe Illustrator 24.1.3, SVG Export Plug-In . SVG Version: 6.00 Build 0)  -->
<svg version="1.1" id="Layer_1" xmlns="http://www.w3.org/2000/svg" xmlns:xlink="http://www.w3.org/1999/xlink" x="0px" y="0px"
	 viewBox="0 0 2291.04 2808.42" style="enable-background:new 0 0 2291.04 2808.42;" xml:space="preserve">
<style type="text/css">
	.st0{fill-rule:evenodd;clip-rule:evenodd;fill:#B4D6EF;}
	.st1{fill-rule:evenodd;clip-rule:evenodd;fill:#B83F02;}
	.st2{fill-rule:evenodd;clip-rule:evenodd;fill:#FFFFFF;}
	.st3{fill-rule:evenodd;clip-rule:evenodd;fill:#824E21;}
	.st4{fill-rule:evenodd;clip-rule:evenodd;fill:#FFDABD;}
	.st5{fill-rule:evenodd;clip-rule:evenodd;fill:#D9A06D;}
	.st6{fill-rule:evenodd;clip-rule:evenodd;fill:#2A4670;}
	.st7{fill-rule:evenodd;clip-rule:evenodd;fill:#FFE5D1;}
	.st8{fill-rule:evenodd;clip-rule:evenodd;fill:#FFF3BF;}
	.st9{fill-rule:evenodd;clip-rule:evenodd;fill:#EDB68B;}
	.st10{fill:none;stroke:#7D3A07;stroke-width:8.2428;stroke-linecap:round;stroke-linejoin:round;stroke-miterlimit:22.9256;}
	.st11{fill-rule:evenodd;clip-rule:evenodd;fill:#406BAB;}
	.st12{fill-rule:evenodd;clip-rule:evenodd;fill:#B83F02;stroke:#873423;stroke-width:4.252;stroke-miterlimit:22.9256;}
	.st13{fill:none;stroke:#4D4D4D;stroke-width:7.0866;stroke-linecap:round;stroke-miterlimit:22.9256;}
	.st14{fill-rule:evenodd;clip-rule:evenodd;fill:#9999BF;}
	.st15{fill:none;stroke:#FF99CC;stroke-width:6.654;stroke-linecap:round;stroke-linejoin:round;stroke-miterlimit:22.9256;}
	.st16{fill:none;stroke:#873423;stroke-width:14.4029;stroke-linecap:round;stroke-linejoin:round;stroke-miterlimit:22.9256;}
	.st17{fill:none;stroke:#000000;stroke-width:3.7926;stroke-linecap:round;stroke-linejoin:round;stroke-miterlimit:22.9256;}
	.st18{fill:none;stroke:#000000;stroke-width:3.8848;stroke-linecap:round;stroke-linejoin:round;stroke-miterlimit:22.9256;}
	.st19{fill:none;stroke:#FF99CC;stroke-width:6.5867;stroke-linecap:round;stroke-linejoin:round;stroke-miterlimit:22.9256;}
	.st20{fill-rule:evenodd;clip-rule:evenodd;fill:#FFCFBD;}
	.st21{fill-rule:evenodd;clip-rule:evenodd;fill:#D65413;}
	.st22{fill-rule:evenodd;clip-rule:evenodd;fill:#FFCC00;}
	.st23{fill:none;stroke:#666666;stroke-width:8.5039;stroke-linecap:round;stroke-linejoin:round;stroke-miterlimit:22.9256;}
</style>
<g>
	<polygon class="st0" points="1.88,2805.69 2292.92,2805.69 2292.92,-2.74 1.88,-2.74 1.88,2805.69 	"/>
	<path class="st1" d="M1110.42,881.09c220,0,398.34,203.92,398.34,455.46c0,85.63,61.06,434.52,25.12,502.94
		c-75.73,144.19-286.43,159.09-416.32,161.66c-133.31,2.64-348.19-10.84-427.07-157.14c-37.42-69.4,21.59-419.94,21.59-507.46
		C712.07,1085,890.42,881.09,1110.42,881.09L1110.42,881.09z"/>
	<path class="st2" d="M1354.06,1890.18c7.62,0,13.8,6.18,13.8,13.8s-6.18,13.8-13.8,13.8s-13.8-6.18-13.8-13.8
		S1346.44,1890.18,1354.06,1890.18L1354.06,1890.18z"/>
	<path class="st2" d="M976.33,1632c17.23,0,31.2,13.97,31.2,31.2c0,17.23-13.97,31.2-31.2,31.2c-17.23,0-31.2-13.97-31.2-31.2
		C945.12,1645.97,959.09,1632,976.33,1632L976.33,1632z"/>
	<polygon class="st3" points="938.79,1533.21 1314.76,1533.21 1373.79,1556.77 1531.49,1910.51 1594.77,2342.51 690.43,2342.51 
		726.9,1900.14 872.94,1561.51 938.79,1533.21 	"/>
	<path class="st4" d="M1126.33,1420.39c94.36,0,170.86,133.63,170.86,298.48c0,42.29-5.04,82.51-14.12,118.97H969.6
		c-9.08-36.45-14.13-76.68-14.13-118.97C955.47,1554.02,1031.97,1420.39,1126.33,1420.39L1126.33,1420.39z"/>
	<path class="st5" d="M1233.53,1486.46c38.82,54.71,63.66,138.48,63.66,232.4c0,42.29-5.04,82.51-14.12,118.97H969.6
		c-9.08-36.45-14.13-76.68-14.13-118.97c0-93.92,24.84-177.69,63.66-232.4c14.83,68.7,57.21,118.3,107.2,118.3
		C1176.32,1604.76,1218.71,1555.16,1233.53,1486.46L1233.53,1486.46z"/>
	<polygon class="st4" points="1275.62,1949.6 1172.47,1947.89 1163.4,2118.98 1245.71,2120.34 1275.62,1949.6 	"/>
	<polygon class="st6" points="731.17,1941.92 761.57,2302.91 908.38,1934.76 854.58,1904.12 731.17,1941.92 	"/>
	<polygon class="st7" points="860.45,1929.6 828.89,1925.73 861.11,1732.42 916.03,1745.17 860.45,1929.6 	"/>
	<polygon class="st4" points="1230.41,2273.48 1152.7,2272.36 1163.4,2118.98 1245.71,2120.34 1230.41,2273.48 	"/>
	<polygon class="st8" points="1336.09,2298.34 1339.88,2308.86 1133.65,2305.34 1134.93,2294.22 1152.42,2268.4 1218.44,2268.96 
		1336.09,2298.34 	"/>
	<path class="st7" d="M836.08,1915.83c-18.23,5.64-28.44,25-22.8,43.23c5.64,18.23,25,28.44,43.23,22.8
		c18.23-5.64,28.44-25,22.8-43.23C873.67,1920.39,854.31,1910.19,836.08,1915.83L836.08,1915.83z"/>
	<path class="st7" d="M856.47,1973.72c-4.24,0.2-7.34,7.43-6.93,16.15c0.41,8.72,4.18,15.63,8.41,15.43
		c4.24-0.2,7.34-7.43,6.93-16.15C864.47,1980.43,860.71,1973.52,856.47,1973.72L856.47,1973.72z"/>
	<path class="st9" d="M857.67,1996.88c-2.12,0.1-3.76,1.76-3.67,3.71s1.88,3.45,4,3.35c2.12-0.1,3.76-1.76,3.67-3.71
		C861.58,1998.28,859.79,1996.78,857.67,1996.88L857.67,1996.88z"/>
	<path class="st7" d="M843.3,1972.52c-4.13-0.95-9.07,5.18-11.02,13.69c-1.96,8.51-0.19,16.18,3.94,17.13
		c4.13,0.95,9.07-5.18,11.02-13.69C849.2,1981.14,847.43,1973.47,843.3,1972.52L843.3,1972.52z"/>
	<path class="st9" d="M838.22,1995.15c-2.07-0.48-4.1,0.68-4.54,2.59s0.88,3.83,2.95,4.31c2.07,0.47,4.1-0.68,4.54-2.59
		C841.61,1997.56,840.29,1995.63,838.22,1995.15L838.22,1995.15z"/>
	<path class="st7" d="M829.1,1966.37c-3.86-1.75-9.91,3.29-13.51,11.24c-3.6,7.96-3.38,15.82,0.48,17.57
		c3.87,1.75,9.92-3.29,13.51-11.24C833.18,1975.98,832.96,1968.12,829.1,1966.37L829.1,1966.37z"/>
	<path class="st9" d="M819.64,1987.55c-1.93-0.87-4.15-0.14-4.96,1.64c-0.8,1.78,0.11,3.93,2.04,4.8c1.93,0.87,4.15,0.14,4.96-1.64
		C822.49,1990.58,821.58,1988.42,819.64,1987.55L819.64,1987.55z"/>
	<path class="st7" d="M818.77,1956.32c-2.77-2.61-9.37-0.12-14.75,5.57c-5.38,5.69-7.5,12.43-4.74,15.04
		c2.77,2.61,9.37,0.12,14.75-5.57C819.41,1965.67,821.53,1958.94,818.77,1956.32L818.77,1956.32z"/>
	<path class="st7" d="M872.83,1937.09c-4.2,2.23-3.88,11.05,0.71,19.7c4.59,8.65,11.72,13.85,15.92,11.62
		c4.2-2.23,3.89-11.05-0.7-19.7C884.16,1940.07,877.03,1934.86,872.83,1937.09L872.83,1937.09z"/>
	<path class="st9" d="M804.54,1971.51c-1.38-1.31-3.48-1.33-4.68-0.06c-1.2,1.27-1.06,3.37,0.32,4.67c1.38,1.31,3.48,1.33,4.68,0.06
		C806.07,1974.91,805.92,1972.82,804.54,1971.51L804.54,1971.51z"/>
	<path class="st9" d="M885.14,1960.01c-2.1,1.11-2.97,3.59-1.95,5.52c1.03,1.94,3.56,2.6,5.66,1.48c2.1-1.11,2.97-3.59,1.94-5.52
		C889.78,1959.56,887.24,1958.89,885.14,1960.01L885.14,1960.01z"/>
	<line class="st10" x1="1155.67" y1="2155.13" x2="1257.45" y2="2097.64"/>
	<line class="st10" x1="1244.38" y1="2155.13" x2="1158.78" y2="2097.64"/>
	<polygon class="st4" points="991.68,1949.6 1094.82,1947.89 1103.9,2118.98 1021.58,2120.34 991.68,1949.6 	"/>
	<polygon class="st4" points="1036.89,2273.48 1114.6,2272.36 1103.9,2118.98 1021.58,2120.34 1036.89,2273.48 	"/>
	<polygon class="st8" points="931.21,2298.34 927.41,2308.86 1133.65,2305.34 1132.37,2294.22 1114.88,2268.4 1048.86,2268.96 
		931.21,2298.34 	"/>
	<line class="st10" x1="1111.63" y1="2155.13" x2="1009.84" y2="2097.64"/>
	<line class="st10" x1="1022.92" y1="2155.13" x2="1108.52" y2="2097.64"/>
	<polygon class="st11" points="948.45,1846.23 827.32,2347.75 1445.59,2347.75 1305.1,1846.23 948.45,1846.23 	"/>
	<polygon class="st6" points="1485.17,2302.91 1507.41,2008.49 1511.82,1950.05 1394.19,1906.79 1347.56,1946.96 1485.17,2302.91 	
		"/>
	<polygon class="st7" points="1388.65,1939.2 1423.72,1950.31 1379.42,1732.42 1317.43,1747.12 1388.65,1939.2 	"/>
	<path class="st7" d="M1416.96,1917.04c18.04,6.24,27.6,25.92,21.36,43.96s-25.92,27.6-43.96,21.36s-27.6-25.92-21.36-43.96
		C1379.24,1920.37,1398.92,1910.8,1416.96,1917.04L1416.96,1917.04z"/>
	<path class="st7" d="M1394.66,1974.23c4.23,0.34,7.09,7.67,6.39,16.37c-0.7,8.7-4.69,15.49-8.92,15.15
		c-4.23-0.34-7.09-7.67-6.39-16.37C1386.44,1980.67,1390.44,1973.89,1394.66,1974.23L1394.66,1974.23z"/>
	<path class="st9" d="M1392.7,1997.34c2.12,0.17,3.7,1.88,3.55,3.83c-0.16,1.95-2,3.39-4.11,3.22c-2.11-0.17-3.7-1.88-3.54-3.83
		C1388.75,1998.61,1390.58,1997.17,1392.7,1997.34L1392.7,1997.34z"/>
	<path class="st7" d="M1407.86,1973.47c4.16-0.81,8.89,5.48,10.56,14.05c1.67,8.57-0.35,16.18-4.51,16.99
		c-4.16,0.81-8.89-5.48-10.56-14.05C1401.68,1981.89,1403.7,1974.28,1407.86,1973.47L1407.86,1973.47z"/>
	<path class="st9" d="M1412.19,1996.26c2.08-0.41,4.07,0.82,4.45,2.74c0.38,1.92-1.01,3.8-3.09,4.21c-2.08,0.41-4.07-0.82-4.45-2.74
		C1408.73,1998.55,1410.11,1996.66,1412.19,1996.26L1412.19,1996.26z"/>
	<path class="st7" d="M1422.26,1967.79c3.92-1.62,9.8,3.61,13.13,11.68c3.33,8.07,2.86,15.92-1.06,17.54
		c-3.92,1.62-9.8-3.61-13.13-11.68C1417.86,1977.26,1418.34,1969.41,1422.26,1967.79L1422.26,1967.79z"/>
	<path class="st9" d="M1431.01,1989.27c1.96-0.81,4.15,0,4.9,1.8c0.75,1.81-0.24,3.92-2.2,4.73c-1.96,0.81-4.15,0-4.9-1.8
		C1428.07,1992.2,1429.05,1990.08,1431.01,1989.27L1431.01,1989.27z"/>
	<path class="st7" d="M1432.92,1958.09c2.85-2.52,9.37,0.19,14.56,6.06c5.19,5.87,7.09,12.67,4.24,15.19s-9.37-0.19-14.56-6.06
		C1431.97,1967.41,1430.07,1960.61,1432.92,1958.09L1432.92,1958.09z"/>
	<path class="st7" d="M1379.52,1937.08c4.13,2.37,3.52,11.17-1.36,19.67s-12.17,13.46-16.29,11.09c-4.13-2.37-3.52-11.17,1.36-19.67
		C1368.1,1939.68,1375.39,1934.71,1379.52,1937.08L1379.52,1937.08z"/>
	<path class="st9" d="M1446.63,1973.74c1.43-1.26,3.52-1.22,4.68,0.09c1.16,1.31,0.95,3.4-0.48,4.66c-1.43,1.26-3.52,1.22-4.68-0.09
		C1445,1977.09,1445.21,1975,1446.63,1973.74L1446.63,1973.74z"/>
	<path class="st9" d="M1366.46,1959.58c2.06,1.18,2.85,3.68,1.76,5.58c-1.09,1.9-3.65,2.48-5.71,1.3c-2.06-1.18-2.85-3.68-1.76-5.58
		C1361.84,1958.98,1364.4,1958.4,1366.46,1959.58L1366.46,1959.58z"/>
	<path class="st11" d="M998.73,1506.5c43.75,97.41,10.69,137.53,149.24,266.15l151.19,73.58H948.45l-9.65-313.02
		C958.77,1524.31,978.76,1515.41,998.73,1506.5L998.73,1506.5z"/>
	<path class="st11" d="M1254.82,1506.5c-58.62,91.23,0.69,178.52-128.48,245.41l-8.69,94.32h187.46l9.65-313.02L1254.82,1506.5
		L1254.82,1506.5z"/>
	<polygon class="st11" points="1326.32,1783.64 1347.56,1946.96 1394.19,1906.79 1511.82,1950.05 1381.6,1734.42 1314.76,1533.21 
		1308.65,1731.16 1326.32,1783.64 	"/>
	<polygon class="st11" points="911.87,1776.58 908.38,1934.76 854.58,1904.12 731.17,1941.92 859.87,1735.46 938.79,1533.21 
		944.16,1707.22 911.87,1776.58 	"/>
	<polygon class="st3" points="1177.5,2347.75 1121.05,2347.75 1126.31,1754.62 1177.5,2347.75 	"/>
	<polygon class="st5" points="1121.05,2347.75 1071.47,2347.75 1126.33,1751.91 1121.05,2347.75 	"/>
	<path class="st12" d="M1415.51,1063.58c6.64,1.06,16.67,39.86,1.78,73.21c-14.88,33.35-49.55,50.3-55.68,47.56
		s-16.66-39.86-1.78-73.21C1374.71,1077.79,1408.87,1062.53,1415.51,1063.58L1415.51,1063.58z"/>
	<path class="st12" d="M1415.51,1140.92c6.64,1.06,16.67,39.86,1.78,73.21c-14.88,33.35-49.55,50.3-55.68,47.56
		s-16.66-39.86-1.78-73.21S1408.87,1139.86,1415.51,1140.92L1415.51,1140.92z"/>
	<path class="st12" d="M1415.51,1220.59c6.64,1.06,16.67,39.86,1.78,73.21c-14.88,33.35-49.55,50.3-55.68,47.56
		c-6.13-2.73-16.66-39.86-1.78-73.21S1408.87,1219.53,1415.51,1220.59L1415.51,1220.59z"/>
	<path class="st12" d="M1415.51,1289.9c6.64,1.06,16.67,39.86,1.78,73.21c-14.88,33.35-49.55,50.3-55.68,47.56
		c-6.13-2.74-16.66-39.86-1.78-73.21C1374.71,1304.11,1408.87,1288.84,1415.51,1289.9L1415.51,1289.9z"/>
	<path class="st1" d="M1354.01,1231.06c-56.39-52.48-147.64-37.17-203.81,34.2c-56.17,71.37-55.99,171.78,0.4,224.26
		c56.39,52.48,147.64,37.17,203.81-34.2S1410.41,1283.54,1354.01,1231.06L1354.01,1231.06z"/>
	<path class="st1" d="M862.38,1231.06c56.39-52.48,147.64-37.17,203.81,34.2c56.17,71.37,55.99,171.78-0.4,224.26
		c-56.39,52.48-147.64,37.17-203.81-34.2C805.8,1383.94,805.99,1283.54,862.38,1231.06L862.38,1231.06z"/>
	<path class="st4" d="M1119.21,907.69c172.67,0,312.64,139.97,312.64,312.64s-139.97,312.64-312.64,312.64
		S806.57,1393,806.57,1220.33S946.54,907.69,1119.21,907.69L1119.21,907.69z"/>
	<path class="st13" d="M1001.94,1271.85c19.26,0,34.88,15.62,34.88,34.88c0,19.26-15.62,34.88-34.88,34.88
		c-19.27,0-34.88-15.62-34.88-34.88C967.06,1287.47,982.68,1271.85,1001.94,1271.85L1001.94,1271.85z"/>
	<path class="st14" d="M1001.94,1271.85c19.26,0,34.88,15.62,34.88,34.88c0,19.26-15.62,34.88-34.88,34.88
		c-19.27,0-34.88-15.62-34.88-34.88C967.06,1287.47,982.68,1271.85,1001.94,1271.85L1001.94,1271.85z"/>
	<polyline class="st15" points="1061.74,1438.38 1118.55,1444.13 1173.84,1438.38 	"/>
	<path class="st16" d="M947.79,1242.34c4.84-1.32,17.22-11.44,22.13-12.36c22.29-4.17,45.3-4.18,69.06,0.1"/>
	<path class="st9" d="M1115.98,1346.31c3.22,1.85,3.24,7.88,0.04,13.46c-3.21,5.59-8.42,8.62-11.64,6.77s-3.24-7.88-0.04-13.46
		C1107.54,1347.49,1112.75,1344.46,1115.98,1346.31L1115.98,1346.31z"/>
	<path class="st9" d="M1124.8,1346.31c-3.22,1.85-3.24,7.88-0.04,13.46c3.21,5.59,8.41,8.62,11.64,6.77
		c3.22-1.85,3.24-7.88,0.04-13.46C1133.23,1347.49,1128.03,1344.46,1124.8,1346.31L1124.8,1346.31z"/>
	<path class="st2" d="M991.78,1286.15c9.63,0,17.44,7.81,17.44,17.44c0,9.63-7.81,17.44-17.44,17.44c-9.63,0-17.44-7.81-17.44-17.44
		C974.35,1293.96,982.15,1286.15,991.78,1286.15L991.78,1286.15z"/>
	<path class="st4" d="M827.52,1285.02c21.62,0,39.14,17.52,39.14,39.14s-17.52,39.14-39.14,39.14c-21.61,0-39.13-17.52-39.13-39.14
		S805.91,1285.02,827.52,1285.02L827.52,1285.02z"/>
	<path class="st4" d="M1415.67,1285.02c21.61,0,39.13,17.52,39.13,39.14s-17.52,39.14-39.13,39.14c-21.62,0-39.14-17.52-39.14-39.14
		S1394.06,1285.02,1415.67,1285.02L1415.67,1285.02z"/>
	<path class="st2" d="M1005.11,1322.58c-2.4,0-4.34-1.94-4.34-4.34c0-2.4,1.95-4.34,4.34-4.34c2.4,0,4.34,1.94,4.34,4.34
		C1009.45,1320.63,1007.51,1322.58,1005.11,1322.58L1005.11,1322.58z"/>
	<line class="st17" x1="964.07" y1="1262.97" x2="978.68" y2="1275.24"/>
	<path class="st18" d="M982.5,1252.57c2.43,4.09,4.87,8.18,7.3,12.27"/>
	<path class="st18" d="M1000.91,1248.63c0,4.09,0,8.18,0,12.27"/>
	<path class="st18" d="M1019.33,1252.41c-2.44,4.09-4.87,8.18-7.3,12.27"/>
	<line class="st17" x1="1037.75" y1="1262.65" x2="1023.14" y2="1274.92"/>
	<path class="st13" d="M1239.35,1271.85c19.26,0,34.88,15.62,34.88,34.88c0,19.26-15.62,34.88-34.88,34.88s-34.88-15.62-34.88-34.88
		C1204.47,1287.47,1220.09,1271.85,1239.35,1271.85L1239.35,1271.85z"/>
	<path class="st14" d="M1239.35,1271.85c19.26,0,34.88,15.62,34.88,34.88c0,19.26-15.62,34.88-34.88,34.88s-34.88-15.62-34.88-34.88
		C1204.47,1287.47,1220.09,1271.85,1239.35,1271.85L1239.35,1271.85z"/>
	<path class="st2" d="M1229.19,1286.15c9.63,0,17.44,7.81,17.44,17.44c0,9.63-7.8,17.44-17.44,17.44c-9.63,0-17.44-7.81-17.44-17.44
		C1211.75,1293.96,1219.56,1286.15,1229.19,1286.15L1229.19,1286.15z"/>
	<path class="st2" d="M1242.52,1322.58c-2.4,0-4.34-1.94-4.34-4.34c0-2.4,1.95-4.34,4.34-4.34s4.34,1.94,4.34,4.34
		C1246.86,1320.63,1244.92,1322.58,1242.52,1322.58L1242.52,1322.58z"/>
	<line class="st17" x1="1277.22" y1="1262.97" x2="1262.62" y2="1275.24"/>
	<path class="st18" d="M1258.8,1252.57c-2.44,4.09-4.87,8.18-7.3,12.27"/>
	<path class="st18" d="M1240.38,1248.63c0,4.09,0,8.18,0,12.27"/>
	<path class="st18" d="M1221.97,1252.41c2.43,4.09,4.87,8.18,7.3,12.27"/>
	<line class="st17" x1="1203.54" y1="1262.65" x2="1218.15" y2="1274.92"/>
	<polyline class="st19" points="1153.5,1424.94 1130.75,1416.78 1119.58,1423.8 	"/>
	<path class="st20" d="M1270.3,1358.4c21.62,0,39.14,8.27,39.14,18.48c0,10.21-17.52,18.48-39.14,18.48
		c-21.61,0-39.13-8.27-39.13-18.48C1231.16,1366.68,1248.68,1358.4,1270.3,1358.4L1270.3,1358.4z"/>
	<path class="st20" d="M981.3,1358.4c21.62,0,39.14,8.27,39.14,18.48c0,10.21-17.52,18.48-39.14,18.48
		c-21.61,0-39.13-8.27-39.13-18.48C942.16,1366.68,959.69,1358.4,981.3,1358.4L981.3,1358.4z"/>
	<polyline class="st19" points="1085.65,1424.94 1108.4,1416.78 1119.57,1423.8 	"/>
	<polyline class="st15" points="1096.05,1461.65 1118.55,1463.93 1138.24,1461.88 	"/>
	<path class="st16" d="M1294.12,1242.34c-4.84-1.32-17.22-11.44-22.13-12.36c-22.29-4.17-45.3-4.18-69.06,0.1"/>
	<path class="st1" d="M867.92,999.36l-46.83,106.74c73.3,63.85,179.16,85.42,246.54,47.38c23.41-13.22,39.32-32.03,47.77-54.03
		c8.44,21.99,24.36,40.81,47.77,54.03c70.78,39.97,184.01,14.15,257.37-57.35l-83.62-125.43
		C1292.15,875.59,926.25,860.11,867.92,999.36L867.92,999.36z"/>
	<path class="st1" d="M1147.55,900.58c-54.93,54.02-43.66,145.85,25.16,205.12c68.82,59.27,169.13,63.52,224.06,9.51
		c54.92-54.02,43.66-145.85-25.16-205.12C1302.79,850.82,1202.47,846.56,1147.55,900.58L1147.55,900.58z"/>
	<path class="st1" d="M1084.9,900.58c54.92,54.02,43.66,145.85-25.16,205.12c-68.82,59.27-169.13,63.52-224.06,9.51
		c-54.92-54.02-43.66-145.85,25.16-205.12C929.66,850.82,1029.97,846.56,1084.9,900.58L1084.9,900.58z"/>
	<path class="st21" d="M1061.44,1072.33c-18.22,42.95-70.49,65.9-126.74,52.36c-64.57-15.54-109.93-73.27-101.32-128.94
		c2.92-18.9,11.69-35.12,24.53-47.71c-2.7,6.35-4.65,13.13-5.76,20.3c-8.61,55.67,36.75,113.39,101.31,128.94
		C996.12,1107.54,1036.47,1096.82,1061.44,1072.33L1061.44,1072.33z"/>
	<path class="st21" d="M1167.81,1072.33c18.22,42.95,70.49,65.9,126.74,52.36c64.56-15.54,109.93-73.27,101.31-128.94
		c-2.92-18.9-11.69-35.12-24.53-47.71c2.69,6.35,4.65,13.13,5.76,20.3c8.61,55.67-36.75,113.39-101.32,128.94
		C1233.13,1107.54,1192.78,1096.82,1167.81,1072.33L1167.81,1072.33z"/>
	<polygon class="st22" points="1096.13,1769.71 1142.29,1769.71 1142.29,1778.15 1096.13,1778.15 1096.13,1769.71 	"/>
	<polygon class="st22" points="1096.13,1798.27 1142.29,1798.27 1142.29,1806.71 1096.13,1806.71 1096.13,1798.27 	"/>
	<path class="st22" d="M1096.44,1761.21c6.9,0,12.5,5.71,12.5,12.75s-5.6,12.75-12.5,12.75s-12.5-5.71-12.5-12.75
		S1089.53,1761.21,1096.44,1761.21L1096.44,1761.21z"/>
	<path class="st22" d="M1142.29,1761.21c6.9,0,12.5,5.71,12.5,12.75s-5.6,12.75-12.5,12.75c-6.9,0-12.5-5.71-12.5-12.75
		S1135.39,1761.21,1142.29,1761.21L1142.29,1761.21z"/>
	<path class="st22" d="M1096.44,1790.46c6.9,0,12.5,5.71,12.5,12.75c0,7.04-5.6,12.75-12.5,12.75s-12.5-5.71-12.5-12.75
		C1083.94,1796.17,1089.53,1790.46,1096.44,1790.46L1096.44,1790.46z"/>
	<path class="st22" d="M1142.29,1790.46c6.9,0,12.5,5.71,12.5,12.75c0,7.04-5.6,12.75-12.5,12.75c-6.9,0-12.5-5.71-12.5-12.75
		C1129.79,1796.17,1135.39,1790.46,1142.29,1790.46L1142.29,1790.46z"/>
	<polygon class="st3" points="1034.5,1618.67 722.43,1910.51 872.94,1561.51 977.99,1515.75 1034.5,1618.67 	"/>
	<polygon class="st3" points="1219.43,1618.67 1531.49,1910.51 1380.98,1561.51 1275.93,1515.75 1219.43,1618.67 	"/>
	<path class="st23" d="M1035.35,1618.67l273.3,73.13 M1222.12,1618.67l-273.3,73.13"/>
	<polygon class="st5" points="1034.5,1618.67 872.94,1561.51 914.04,1525.01 977.99,1515.75 1034.5,1618.67 	"/>
	<polygon class="st5" points="1220.43,1618.67 1381.98,1561.51 1340.88,1525.01 1276.94,1515.75 1220.43,1618.67 	"/>
	<polygon class="st11" points="948.45,1846.23 827.32,2347.75 1035.59,2347.75 1117.65,1846.23 948.45,1846.23 	"/>
	<polygon class="st11" points="1248.22,2342.51 1217.96,2347.75 1177.9,1958.73 1248.22,2342.51 	"/>
</g>
</svg>
