<?xml version="1.0" encoding="utf-8"?>
<!-- Generator: Adobe Illustrator 24.2.3, SVG Export Plug-In . SVG Version: 6.00 Build 0)  -->
<svg version="1.1" id="Layer_1" xmlns="http://www.w3.org/2000/svg" xmlns:xlink="http://www.w3.org/1999/xlink" x="0px" y="0px"
	 viewBox="0 0 2293.5 2808.4" style="enable-background:new 0 0 2293.5 2808.4;" xml:space="preserve">
<style type="text/css">
	.st0{fill-rule:evenodd;clip-rule:evenodd;fill:#B4D6EF;}
	.st1{fill-rule:evenodd;clip-rule:evenodd;fill:#FFFFFF;}
	.st2{fill-rule:evenodd;clip-rule:evenodd;fill:#FFFFFF;stroke:#E6E6E6;stroke-width:4.252;stroke-miterlimit:22.9256;}
	.st3{fill-rule:evenodd;clip-rule:evenodd;fill:#FFDABD;}
	.st4{fill-rule:evenodd;clip-rule:evenodd;fill:#6F0DBF;}
	.st5{fill:none;stroke:#FF99CC;stroke-width:6.654;stroke-linecap:round;stroke-linejoin:round;stroke-miterlimit:22.9256;}
	.st6{fill:none;stroke:#873423;stroke-width:14.4029;stroke-linecap:round;stroke-linejoin:round;stroke-miterlimit:22.9256;}
	.st7{fill-rule:evenodd;clip-rule:evenodd;fill:#EDB68B;}
	.st8{fill:none;stroke:#000000;stroke-width:3.7926;stroke-linecap:round;stroke-linejoin:round;stroke-miterlimit:22.9256;}
	.st9{fill:none;stroke:#000000;stroke-width:3.8848;stroke-linecap:round;stroke-linejoin:round;stroke-miterlimit:22.9256;}
	.st10{fill:none;stroke:#FF99CC;stroke-width:6.5867;stroke-linecap:round;stroke-linejoin:round;stroke-miterlimit:22.9256;}
	.st11{fill-rule:evenodd;clip-rule:evenodd;fill:#7D3A07;}
	.st12{fill:none;stroke:#7D3A07;stroke-width:8.0654;stroke-linecap:round;stroke-linejoin:round;stroke-miterlimit:22.9256;}
	.st13{fill:none;stroke:#7D3A07;stroke-width:8.2428;stroke-linecap:round;stroke-linejoin:round;stroke-miterlimit:22.9256;}
	.st14{fill-rule:evenodd;clip-rule:evenodd;fill:#00CCFF;}
	.st15{fill-rule:evenodd;clip-rule:evenodd;fill:#09BFED;}
	.st16{fill-rule:evenodd;clip-rule:evenodd;fill:#FFCC00;}
	.st17{fill-rule:evenodd;clip-rule:evenodd;fill:#C29B00;}
	.st18{fill:none;stroke:#C29B00;stroke-width:4.252;stroke-miterlimit:22.9256;}
	.st19{fill-rule:evenodd;clip-rule:evenodd;fill:#C29B00;stroke:#C29B00;stroke-width:0.5669;stroke-miterlimit:22.9256;}
	.st20{fill-rule:evenodd;clip-rule:evenodd;fill:#FFCC00;stroke:#C29B00;stroke-width:0.5669;stroke-miterlimit:22.9256;}
	.st21{fill-rule:evenodd;clip-rule:evenodd;fill:#FFCFBD;}
</style>
<g>
	<polygon class="st0" points="0,2809.9 2307.6,2809.9 2307.6,0 0,0 	"/>
	<path class="st1" d="M1012.8,919.7c144.7-58.1,269.3-44.4,278.3,30.5c9,74.9-101,182.8-245.7,240.8c-20.3,8.2-40.3,14.9-59.5,20.3
		c2.2,9.3,3.4,19,3.4,29c0,39.8-18.8,75.3-47.9,98c13.5,19.9,21.5,43.9,21.5,69.8c0,36.4-15.7,69.2-40.7,92c3.2,10.2,5,21,5,32.3
		c0,10.4-1.5,20.4-4.3,29.9c16.4,20.9,26.1,47.3,26.1,75.9c0,44.2-23.2,82.9-58.1,104.7c0.4,3.8,0.6,7.6,0.6,11.4
		c0,33.6-16.2,63.3-41.2,81.9c15.5,6.2,28.5,17.4,36.9,31.6c13.3-12.2,31.1-19.6,50.6-19.6c41.5,0,75.1,33.6,75.1,75.1
		s-33.6,75.1-75.1,75.1c-27.5,0-51.6-14.8-64.7-36.8c-13.3,12.2-31.1,19.6-50.6,19.6c-41.5,0-75.1-33.6-75.1-75.1
		c0-2.3,0.1-4.7,0.3-6.9c-34-1.8-61-29.9-61-64.3c0-13.4,4.1-25.8,11.1-36.1c-6.5-13.4-10.1-28.4-10.1-44.3
		c0-25.5,9.4-48.8,24.8-66.7c-6.6-15.1-10.3-31.8-10.3-49.4c0-24.5,7.2-47.4,19.5-66.6c-4.8-12.2-7.5-25.4-7.5-39.3
		c0-22.1,6.7-42.5,18.2-59.5c-11.5-18.9-18.2-41-18.2-64.8c0-26.6,8.4-51.3,22.6-71.5c-3.1-7.5-4.8-15.8-4.8-24.5
		c0-14.6,4.9-28.1,13-38.9c-2.9-10.5-4.4-21.6-4.4-33c0-29.1,10-55.9,26.8-77.1c-0.1-0.9-0.3-1.8-0.4-2.7
		C758.1,1085.7,868.1,977.8,1012.8,919.7L1012.8,919.7z M1548.3,1899.2c34-1.8,61-29.9,61-64.3c0-13.4-4.1-25.8-11.1-36.1
		c6.5-13.4,10.1-28.4,10.1-44.3c0-25.5-9.4-48.8-24.8-66.7c6.6-15.1,10.3-31.8,10.3-49.4c0-24.5-7.2-47.4-19.5-66.6
		c4.8-12.2,7.5-25.4,7.5-39.3c0-22.1-6.7-42.5-18.2-59.5c11.5-18.9,18.2-41,18.2-64.8c0-26.6-8.4-51.3-22.6-71.5
		c3.1-7.5,4.8-15.8,4.8-24.5c0-14.6-4.9-28.1-13.1-38.9c2.9-10.5,4.4-21.6,4.4-33c0-68.6-55.6-124.3-124.3-124.3
		c-68.6,0-124.3,55.6-124.3,124.3c0,39.8,18.8,75.3,47.9,98c-13.5,19.9-21.5,43.9-21.5,69.8c0,36.4,15.7,69.2,40.7,92
		c-3.2,10.2-5,21-5,32.3c0,10.4,1.5,20.4,4.3,29.9c-16.4,20.9-26.1,47.3-26.1,75.9c0,44.2,23.2,82.9,58.1,104.7
		c-0.4,3.8-0.6,7.6-0.6,11.4c0,33.5,16.2,63.3,41.2,81.9c-15.5,6.2-28.5,17.4-36.9,31.6c-13.3-12.2-31.1-19.6-50.6-19.6
		c-41.5,0-75.1,33.6-75.1,75.1s33.6,75.1,75.1,75.1c27.5,0,51.6-14.8,64.7-36.8c13.3,12.2,31.1,19.6,50.6,19.6
		c41.5,0,75.1-33.6,75.1-75.1C1548.6,1903.8,1548.5,1901.4,1548.3,1899.2L1548.3,1899.2z"/>
	<path class="st1" d="M1141.2,880.8c220,0,398.3,203.9,398.3,455.5c0,85.6,61.1,434.5,25.1,502.9
		c-75.7,144.2-286.4,159.1-416.3,161.7c-133.3,2.6-348.2-10.8-427.1-157.1c-37.4-69.4,21.6-419.9,21.6-507.5
		C742.8,1084.7,921.2,880.8,1141.2,880.8L1141.2,880.8z"/>
	<path class="st2" d="M1395.4,1377.8c4.2,0.7,10.6,25.4,1.1,46.6c-9.5,21.2-31.5,32-35.4,30.3s-10.6-25.4-1.1-46.6
		C1369.4,1386.8,1391.1,1377.1,1395.4,1377.8L1395.4,1377.8z"/>
	<path class="st2" d="M1395.4,1440.2c4.2,0.7,10.6,25.4,1.1,46.6c-9.5,21.2-31.5,32-35.4,30.3s-10.6-25.4-1.1-46.6
		C1369.4,1449.3,1391.1,1439.6,1395.4,1440.2L1395.4,1440.2z"/>
	<path class="st2" d="M1395.4,1502.3c4.2,0.7,10.6,25.4,1.1,46.6c-9.5,21.2-31.5,32-35.4,30.3c-3.9-1.7-10.6-25.4-1.1-46.6
		C1369.4,1511.3,1391.1,1501.6,1395.4,1502.3L1395.4,1502.3z"/>
	<path class="st2" d="M1395.4,1563.5c4.2,0.7,10.6,25.4,1.1,46.6c-9.5,21.2-31.5,32-35.4,30.3s-10.6-25.4-1.1-46.6
		C1369.4,1572.6,1391.1,1562.8,1395.4,1563.5L1395.4,1563.5z"/>
	<path class="st2" d="M1395.4,1625c4.2,0.7,10.6,25.4,1.1,46.6c-9.5,21.2-31.5,32-35.4,30.3s-10.6-25.4-1.1-46.6
		C1369.4,1634,1391.1,1624.3,1395.4,1625L1395.4,1625z"/>
	<path class="st2" d="M1395.4,1686.7c4.2,0.7,10.6,25.4,1.1,46.6c-9.5,21.2-31.5,32-35.4,30.3s-10.6-25.4-1.1-46.6
		C1369.4,1695.8,1391.1,1686.1,1395.4,1686.7L1395.4,1686.7z"/>
	<path class="st2" d="M1449.6,1252.7c-4.2,0.7-10.6,25.4-1.1,46.6c9.5,21.2,31.5,32,35.4,30.3s10.6-25.4,1.1-46.6
		C1475.6,1261.8,1453.8,1252,1449.6,1252.7L1449.6,1252.7z"/>
	<path class="st2" d="M1449.6,1315.2c-4.2,0.7-10.6,25.4-1.1,46.6c9.5,21.2,31.5,32,35.4,30.3s10.6-25.4,1.1-46.6
		C1475.6,1324.2,1453.8,1314.5,1449.6,1315.2L1449.6,1315.2z"/>
	<path class="st2" d="M1449.6,1377.2c-4.2,0.7-10.6,25.4-1.1,46.6c9.5,21.2,31.5,32,35.4,30.3s10.6-25.4,1.1-46.6
		C1475.6,1386.2,1453.8,1376.5,1449.6,1377.2L1449.6,1377.2z"/>
	<path class="st2" d="M1449.6,1438.4c-4.2,0.7-10.6,25.4-1.1,46.6c9.5,21.2,31.5,32,35.4,30.3s10.6-25.4,1.1-46.6
		C1475.6,1447.5,1453.8,1437.8,1449.6,1438.4L1449.6,1438.4z"/>
	<path class="st2" d="M1449.6,1499.9c-4.2,0.7-10.6,25.4-1.1,46.6c9.5,21.2,31.5,32,35.4,30.3s10.6-25.4,1.1-46.6
		C1475.6,1508.9,1453.8,1499.2,1449.6,1499.9L1449.6,1499.9z"/>
	<path class="st2" d="M1449.6,1561.7c-4.2,0.7-10.6,25.4-1.1,46.6c9.5,21.2,31.5,32,35.4,30.3s10.6-25.4,1.1-46.6
		C1475.6,1570.7,1453.8,1561,1449.6,1561.7L1449.6,1561.7z"/>
	<path class="st2" d="M870.6,1357.4c4.2,0.7,10.6,25.4,1.1,46.6c-9.5,21.2-31.5,32-35.4,30.3s-10.6-25.4-1.1-46.6
		C844.6,1366.5,866.4,1356.8,870.6,1357.4L870.6,1357.4z"/>
	<path class="st2" d="M870.6,1419.9c4.2,0.7,10.6,25.4,1.1,46.6c-9.5,21.2-31.5,32-35.4,30.3c-3.9-1.7-10.6-25.4-1.1-46.6
		C844.6,1428.9,866.4,1419.2,870.6,1419.9L870.6,1419.9z"/>
	<path class="st2" d="M870.6,1481.9c4.2,0.7,10.6,25.4,1.1,46.6c-9.5,21.2-31.5,32-35.4,30.3c-3.9-1.7-10.6-25.4-1.1-46.6
		C844.6,1490.9,866.4,1481.2,870.6,1481.9L870.6,1481.9z"/>
	<path class="st2" d="M870.6,1543.1c4.2,0.7,10.6,25.4,1.1,46.6c-9.5,21.2-31.5,32-35.4,30.3c-3.9-1.7-10.6-25.4-1.1-46.6
		C844.6,1552.2,866.4,1542.5,870.6,1543.1L870.6,1543.1z"/>
	<path class="st2" d="M870.6,1604.6c4.2,0.7,10.6,25.4,1.1,46.6c-9.5,21.2-31.5,32-35.4,30.3c-3.9-1.7-10.6-25.4-1.1-46.6
		C844.6,1613.7,866.4,1603.9,870.6,1604.6L870.6,1604.6z"/>
	<path class="st2" d="M870.6,1666.4c4.2,0.7,10.6,25.4,1.1,46.6c-9.5,21.2-31.5,32-35.4,30.3c-3.9-1.7-10.6-25.4-1.1-46.6
		C844.6,1675.4,866.4,1665.7,870.6,1666.4L870.6,1666.4z"/>
	<polygon class="st3" points="956.1,1596.9 1007.9,1633.2 924.3,1822.9 874.3,1774 	"/>
	<path class="st3" d="M1143.5,1460.1c94.4,0,170.9,133.6,170.9,298.5c0,42.3-5,82.5-14.1,119H986.7c-9.1-36.4-14.1-76.7-14.1-119
		C972.6,1593.8,1049.1,1460.1,1143.5,1460.1L1143.5,1460.1z"/>
	<polygon class="st3" points="1291,1989.2 1187.9,1987.5 1178.8,2158.6 1261.1,2159.9 	"/>
	<polygon class="st3" points="886.1,1978.8 852,1989.9 876.5,1772 939.8,1786.7 	"/>
	<polygon class="st3" points="1245.8,2313.1 1168.1,2312 1178.8,2158.6 1261.1,2159.9 	"/>
	<polygon class="st3" points="1351.5,2337.9 1355.3,2348.5 1149.1,2344.9 1150.3,2333.8 1167.8,2308 1233.8,2308.6 	"/>
	<path class="st3" d="M1143.5,936.9c172.7,0,312.6,140,312.6,312.6s-140,312.6-312.6,312.6s-312.6-140-312.6-312.6
		C830.8,1076.9,970.8,936.9,1143.5,936.9L1143.5,936.9z"/>
	<path class="st1" d="M1023.1,904.8c120.5-39.1,213.2,3.2,207.1,94.4c-6.1,91.2-108.7,196.8-229.2,235.9
		c-120.5,39.1-213.2-3.2-207.1-94.4C800,1049.5,902.6,943.9,1023.1,904.8L1023.1,904.8z"/>
	<path class="st4" d="M1026.2,1301.1c19.3,0,34.9,15.6,34.9,34.9s-15.6,34.9-34.9,34.9s-34.9-15.6-34.9-34.9
		C991.3,1316.7,1006.9,1301.1,1026.2,1301.1L1026.2,1301.1z"/>
	<polyline class="st5" points="1086,1462.1 1142.8,1467.9 1198.1,1462.1 	"/>
	<path class="st6" d="M962.8,1264.2c25.6-10.7,53.1-15.5,82.6-14.1"/>
	<path class="st7" d="M1140.2,1375.6c3.2,1.8,3.2,7.9,0,13.5c-3.2,5.6-8.4,8.6-11.6,6.8c-3.2-1.8-3.2-7.9,0-13.5
		C1131.8,1376.7,1137,1373.7,1140.2,1375.6L1140.2,1375.6z"/>
	<path class="st7" d="M1149.1,1375.6c-3.2,1.8-3.2,7.9,0,13.5c3.2,5.6,8.4,8.6,11.6,6.8c3.2-1.8,3.2-7.9,0-13.5
		C1157.5,1376.7,1152.3,1373.7,1149.1,1375.6L1149.1,1375.6z"/>
	<path class="st1" d="M1016,1315.4c9.6,0,17.4,7.8,17.4,17.4c0,9.6-7.8,17.4-17.4,17.4s-17.4-7.8-17.4-17.4
		C998.6,1323.2,1006.4,1315.4,1016,1315.4L1016,1315.4z"/>
	<path class="st3" d="M857.6,1951.3c-18.5,4.9-29.4,23.8-24.5,42.3c4.9,18.4,23.8,29.4,42.3,24.5c18.5-4.9,29.4-23.8,24.5-42.3
		C895,1957.4,876,1946.4,857.6,1951.3L857.6,1951.3z"/>
	<path class="st3" d="M875.6,2009.9c-4.2,0-7.6,7.1-7.6,15.9s3.5,15.8,7.8,15.8c4.2,0,7.6-7.1,7.6-15.9
		C883.3,2017,879.9,2009.9,875.6,2009.9L875.6,2009.9z"/>
	<path class="st7" d="M875.9,2033.1c-2.1,0-3.8,1.6-3.8,3.6c0,1.9,1.7,3.5,3.9,3.5c2.1,0,3.8-1.6,3.8-3.6S878,2033.1,875.9,2033.1
		L875.9,2033.1z"/>
	<path class="st3" d="M862.5,2008.2c-4.1-1.1-9.3,4.8-11.6,13.2c-2.3,8.4-0.8,16.2,3.3,17.3c4.1,1.1,9.3-4.8,11.6-13.2
		C868.1,2017.1,866.6,2009.3,862.5,2008.2L862.5,2008.2z"/>
	<path class="st7" d="M856.5,2030.6c-2-0.6-4.1,0.5-4.6,2.4s0.7,3.9,2.8,4.4c2,0.6,4.1-0.5,4.6-2.4
		C859.8,2033.2,858.6,2031.2,856.5,2030.6L856.5,2030.6z"/>
	<path class="st3" d="M848.6,2001.5c-3.8-1.9-10,2.9-14,10.7s-4,15.7-0.2,17.6c3.8,1.9,10-2.9,14-10.7
		C852.3,2011.3,852.4,2003.4,848.6,2001.5L848.6,2001.5z"/>
	<path class="st7" d="M838.3,2022.3c-1.9-0.9-4.1-0.3-5,1.4s0,3.9,1.8,4.9c1.9,0.9,4.1,0.3,5-1.4
		C841,2025.4,840.2,2023.2,838.3,2022.3L838.3,2022.3z"/>
	<path class="st3" d="M838.7,1991c-2.7-2.7-9.4-0.5-15,5s-8,12.1-5.3,14.8c2.7,2.7,9.4,0.5,15-5S841.3,1993.8,838.7,1991L838.7,1991
		z"/>
	<path class="st3" d="M893.5,1974c-4.3,2.1-4.3,10.9-0.1,19.7s11.2,14.3,15.4,12.3c4.3-2.1,4.3-10.9,0.1-19.7
		C904.7,1977.4,897.8,1972,893.5,1974L893.5,1974z"/>
	<path class="st7" d="M823.8,2005.6c-1.3-1.4-3.4-1.5-4.7-0.3c-1.3,1.2-1.2,3.3,0.1,4.7c1.3,1.4,3.4,1.5,4.7,0.3
		C825.2,2009.1,825.2,2007,823.8,2005.6L823.8,2005.6z"/>
	<path class="st7" d="M904.8,1997.4c-2.1,1-3.1,3.5-2.2,5.4s3.5,2.7,5.6,1.7c2.1-1,3.1-3.5,2.2-5.4
		C909.5,1997.2,907,1996.4,904.8,1997.4L904.8,1997.4z"/>
	<path class="st1" d="M1354.6,953c-90.8-43-164.5-10.1-164.5,73.6s73.6,186.3,164.5,229.3s164.5,10.1,164.5-73.6
		C1519,1098.7,1445.4,996,1354.6,953L1354.6,953z"/>
	<path class="st3" d="M851.8,1314.3c21.6,0,39.1,17.5,39.1,39.1s-17.5,39.1-39.1,39.1c-21.6,0-39.1-17.5-39.1-39.1
		S830.2,1314.3,851.8,1314.3L851.8,1314.3z"/>
	<path class="st3" d="M1439.9,1314.3c21.6,0,39.1,17.5,39.1,39.1s-17.5,39.1-39.1,39.1c-21.6,0-39.1-17.5-39.1-39.1
		S1418.3,1314.3,1439.9,1314.3L1439.9,1314.3z"/>
	<path class="st1" d="M1029.4,1351.8c-2.4,0-4.3-1.9-4.3-4.3s1.9-4.3,4.3-4.3c2.4,0,4.3,1.9,4.3,4.3S1031.8,1351.8,1029.4,1351.8
		L1029.4,1351.8z"/>
	<line class="st8" x1="988.3" y1="1292.2" x2="1002.9" y2="1304.5"/>
	<path class="st9" d="M1006.8,1281.8c2.4,4.1,4.9,8.2,7.3,12.3"/>
	<path class="st9" d="M1025.2,1277.9c0,4.1,0,8.2,0,12.3"/>
	<path class="st9" d="M1043.6,1281.7c-2.4,4.1-4.9,8.2-7.3,12.3"/>
	<line class="st8" x1="1062" y1="1291.9" x2="1047.4" y2="1304.2"/>
	<path class="st4" d="M1263.6,1301.1c19.3,0,34.9,15.6,34.9,34.9s-15.6,34.9-34.9,34.9s-34.9-15.6-34.9-34.9
		S1244.3,1301.1,1263.6,1301.1L1263.6,1301.1z"/>
	<path class="st6" d="M1327,1264.2c-25.6-10.7-53.1-15.5-82.6-14.1"/>
	<path class="st1" d="M1253.5,1315.4c9.6,0,17.4,7.8,17.4,17.4c0,9.6-7.8,17.4-17.4,17.4s-17.4-7.8-17.4-17.4
		C1236,1323.2,1243.8,1315.4,1253.5,1315.4L1253.5,1315.4z"/>
	<path class="st1" d="M1266.8,1351.8c-2.4,0-4.3-1.9-4.3-4.3s1.9-4.3,4.3-4.3c2.4,0,4.3,1.9,4.3,4.3S1269.2,1351.8,1266.8,1351.8
		L1266.8,1351.8z"/>
	<line class="st8" x1="1301.5" y1="1292.2" x2="1286.9" y2="1304.5"/>
	<path class="st9" d="M1283.1,1281.8c-2.4,4.1-4.9,8.2-7.3,12.3"/>
	<path class="st9" d="M1264.7,1277.9c0,4.1,0,8.2,0,12.3"/>
	<path class="st9" d="M1246.2,1281.7c2.4,4.1,4.9,8.2,7.3,12.3"/>
	<line class="st8" x1="1227.8" y1="1291.9" x2="1242.4" y2="1304.2"/>
	<polyline class="st10" points="1177.8,1454.2 1155,1446 1143.8,1453.1 	"/>
	<path class="st2" d="M1253.7,1078.3c-3.9,0-13.1,21.4-7.5,41.9c5.6,20.5,24.1,33.3,27.8,32.2s13.1-21.4,7.5-41.9
		C1275.8,1090,1257.6,1078.3,1253.7,1078.3L1253.7,1078.3z"/>
	<path class="st2" d="M1277.6,1115.9c-3.6,0.6-8.9,21.6-0.8,39.6s26.9,27.1,30.2,25.6c3.3-1.5,8.9-21.6,0.8-39.6
		S1281.2,1115.3,1277.6,1115.9L1277.6,1115.9z"/>
	<path class="st2" d="M1306.2,1149.6c-3.3,1.1-4.8,21.7,5.8,37.2c10.6,15.5,29.7,20.9,32.5,19c2.8-1.9,4.8-21.7-5.8-37.2
		C1328.1,1153,1309.4,1148.4,1306.2,1149.6L1306.2,1149.6z"/>
	<path class="st2" d="M1338.9,1178.5c-2.9,1.7-0.6,21.8,12.4,34.8c13.1,13,32.5,14.7,34.9,12.3c2.4-2.4,0.6-21.8-12.4-34.8
		C1360.7,1177.8,1341.8,1176.8,1338.9,1178.5L1338.9,1178.5z"/>
	<path class="st2" d="M1375.4,1201.4c-2.6,2.3,3.5,21.9,19,32.5c15.5,10.5,35.3,8.6,37.2,5.7c1.9-2.8-3.5-21.9-19-32.5
		C1397.1,1196.6,1378,1199.1,1375.4,1201.4L1375.4,1201.4z"/>
	<path class="st2" d="M1415.2,1215.9c-2.3,2.8,7.7,22.1,25.7,30.1c18,8.1,38.1,2.4,39.6-0.9c1.5-3.3-7.7-22.1-25.7-30.1
		C1436.8,1206.9,1417.5,1213.1,1415.2,1215.9L1415.2,1215.9z"/>
	<path class="st2" d="M1456.5,1217c-2,3.4,11.8,22.2,32.3,27.8c20.5,5.6,40.9-3.8,41.9-7.6c1-3.8-11.8-22.2-32.3-27.8
		C1477.9,1203.9,1458.5,1213.6,1456.5,1217L1456.5,1217z"/>
	<path class="st2" d="M1113.2,1004.4c-2.4-2.6-22.4,4.2-32.8,20.4c-10.4,16.2-7.8,36.4-4.9,38.3c3,1.9,22.4-4.2,32.8-20.4
		C1118.8,1026.5,1115.6,1007,1113.2,1004.4L1113.2,1004.4z"/>
	<path class="st2" d="M1081.9,1030.1c-1.9-2.7-21.4,1.5-32.9,15.5s-11.3,33.2-8.7,35.3s21.4-1.5,32.9-15.5
		C1084.7,1051.4,1083.9,1032.8,1081.9,1030.1L1081.9,1030.1z"/>
	<path class="st2" d="M1049,1053.1c-1.5-2.8-20.4-1.3-33,10.6c-12.6,11.9-14.8,30-12.6,32.3s20.4,1.3,33-10.6
		C1049,1073.6,1050.5,1055.9,1049,1053.1L1049,1053.1z"/>
	<path class="st2" d="M1014.7,1073.3c-1.1-2.9-19.5-4-33.2,5.7c-13.7,9.7-18.3,26.8-16.5,29.3c1.8,2.5,19.5,4,33.2-5.7
		C1011.9,1093,1015.7,1076.2,1014.7,1073.3L1014.7,1073.3z"/>
	<path class="st2" d="M979.2,1090.8c-0.6-3-18.5-6.7-33.3,0.8s-21.7,23.6-20.4,26.3s18.5,6.7,33.3-0.8
		C973.7,1109.6,979.8,1093.8,979.2,1090.8L979.2,1090.8z"/>
	<path class="st2" d="M942.8,1105c-0.2-3.1-17.5-9.4-33.4-4.1c-15.9,5.3-25.2,20.4-24.2,23.4s17.5,9.4,33.4,4.1
		C934.5,1123.1,943,1108.1,942.8,1105L942.8,1105z"/>
	<path class="st2" d="M905.5,1115.4c0.3-3.2-16.5-12.1-33.5-9s-28.7,17.2-28.1,20.4s16.5,12.1,33.5,9
		C894.4,1132.6,905.3,1118.6,905.5,1115.4L905.5,1115.4z"/>
	<path class="st2" d="M867.8,1120.6c0.7-3.3-15.5-14.8-33.7-13.9c-18.1,1-32.2,14-32,17.4s15.5,14.8,33.7,13.9
		C853.9,1137,867.1,1123.9,867.8,1120.6L867.8,1120.6z"/>
	<path class="st2" d="M830.6,1118.2c1.1-3.4-14.5-17.6-33.8-18.8c-19.2-1.2-35.6,10.8-35.9,14.4s14.5,17.6,33.8,18.8
		C813.9,1133.8,829.4,1121.6,830.6,1118.2L830.6,1118.2z"/>
	<path class="st2" d="M1282.4,1001.5c-3.6-0.1-12.4,19.2-7.8,38c4.6,18.8,21.2,30.9,24.6,30.1s12.4-19.2,7.8-38.1
		S1286,1001.5,1282.4,1001.5L1282.4,1001.5z"/>
	<path class="st2" d="M1303.4,1036.4c-3.3,0.4-8.7,19.4-1.7,36.1c7,16.6,23.8,25.3,26.9,24.1c3.1-1.3,8.7-19.4,1.7-36.1
		C1323.3,1043.8,1306.6,1035.9,1303.4,1036.4L1303.4,1036.4z"/>
	<path class="st2" d="M1328.7,1067.7c-3,1-4.9,19.7,4.4,34.1s26.6,19.8,29.2,18.1c2.6-1.7,4.9-19.7-4.4-34.1
		C1348.6,1071.4,1331.7,1066.8,1328.7,1067.7L1328.7,1067.7z"/>
	<path class="st2" d="M1357.8,1094.8c-2.7,1.5-1.1,19.9,10.5,32.1c11.6,12.2,29.3,14.2,31.5,12.1s1.1-19.9-10.5-32.1
		C1377.7,1094.7,1360.5,1093.4,1357.8,1094.8L1357.8,1094.8z"/>
	<path class="st2" d="M1390.6,1116.6c-2.4,2,2.7,20.1,16.6,30.1c13.9,10,32,8.6,33.8,6.1c1.8-2.6-2.7-20.1-16.6-30.1
		C1410.4,1112.7,1393,1114.6,1390.6,1116.6L1390.6,1116.6z"/>
	<path class="st2" d="M1426.5,1130.7c-2.2,2.5,6.5,20.3,22.7,28.1s34.7,3.1,36.1,0.1c1.4-3-6.5-20.3-22.7-28.1
		C1446.4,1123,1428.7,1128.2,1426.5,1130.7L1426.5,1130.7z"/>
	<path class="st2" d="M1464.1,1132.8c-1.9,3,10.2,20.5,28.8,26.1c18.6,5.6,37.4-2.5,38.4-5.9c1-3.4-10.2-20.5-28.8-26.1
		C1484,1121.3,1466,1129.7,1464.1,1132.8L1464.1,1132.8z"/>
	<path class="st2" d="M1173.7,1037.1c-2.9-3.1-26.5,5.4-38.5,24.8c-12,19.4-8.6,43.3-5.1,45.5c3.6,2.2,26.5-5.4,38.5-24.8
		C1180.6,1063.2,1176.6,1040.2,1173.7,1037.1L1173.7,1037.1z"/>
	<path class="st2" d="M1137,1068.1c-2.4-3.2-25.4,2.1-38.7,19s-12.8,39.6-9.7,42c3.1,2.5,25.4-2.1,38.7-19
		C1140.7,1093.3,1139.4,1071.3,1137,1068.1L1137,1068.1z"/>
	<path class="st2" d="M1098.4,1096c-1.8-3.3-24.2-1.1-39,13.2s-17,35.8-14.4,38.6c2.6,2.7,24.2,1.1,39-13.2
		S1100.3,1099.3,1098.4,1096L1098.4,1096z"/>
	<path class="st2" d="M1058.1,1120.6c-1.3-3.4-23.1-4.3-39.2,7.4s-21.2,32.1-19,35.1c2.2,2.9,23.1,4.3,39.2-7.4
		C1055.2,1143.9,1059.4,1124,1058.1,1120.6L1058.1,1120.6z"/>
	<path class="st2" d="M1016.4,1141.8c-0.8-3.5-22-7.6-39.4,1.6c-17.4,9.2-25.3,28.4-23.7,31.6c1.7,3.2,22,7.6,39.4-1.6
		C1010.2,1164.3,1017.2,1145.4,1016.4,1141.8L1016.4,1141.8z"/>
	<path class="st2" d="M973.5,1159.4c-0.3-3.7-20.9-10.8-39.7-4.2c-18.8,6.6-29.5,24.7-28.3,28.1s20.9,10.8,39.7,4.2
		C964,1180.9,973.8,1163,973.5,1159.4L973.5,1159.4z"/>
	<path class="st2" d="M929.5,1172.3c0.2-3.8-19.8-14.1-39.9-10c-20.1,4-33.7,20.9-32.9,24.6c0.7,3.7,19.8,14.1,39.9,10
		C916.7,1192.9,929.3,1176.1,929.5,1172.3L929.5,1172.3z"/>
	<path class="st2" d="M884.9,1179.2c0.8-3.9-18.7-17.3-40.1-15.8c-21.5,1.5-37.9,17.2-37.6,21.2c0.3,3.9,18.7,17.3,40.1,15.8
		C868.8,1198.9,884.1,1183.1,884.9,1179.2L884.9,1179.2z"/>
	<path class="st2" d="M840.8,1177c1.3-4-17.5-20.5-40.4-21.6s-42,13.5-42.2,17.7c-0.2,4.2,17.5,20.5,40.4,21.6
		S839.5,1181,840.8,1177L840.8,1177z"/>
	<polygon class="st11" points="1149.1,2343.2 1352.7,2343.2 1352.7,2355.3 1149.1,2355.3 	"/>
	<polygon class="st11" points="1312,2315.8 1325.3,2315.8 1292,2355.3 1278.8,2355.3 	"/>
	<polygon class="st11" points="1305.8,2315.8 1292.5,2315.8 1325.8,2355.3 1339,2355.3 	"/>
	<polygon class="st11" points="1270,2305.3 1253.2,2305.3 1295.3,2355.3 1312,2355.3 	"/>
	<polygon class="st11" points="1163.5,2303.3 1160.2,2309.7 1183.5,2355.3 1196.7,2355.3 	"/>
	<line class="st12" x1="1160.2" y1="2309.7" x2="1260.7" y2="2252.2"/>
	<line class="st12" x1="1262.6" y1="2309.7" x2="1162.1" y2="2252.2"/>
	<line class="st12" x1="1171.1" y1="2194.7" x2="1260.7" y2="2252.2"/>
	<line class="st12" x1="1259.8" y1="2194.7" x2="1162.1" y2="2252.2"/>
	<line class="st13" x1="1171.1" y1="2194.7" x2="1272.9" y2="2137.2"/>
	<line class="st13" x1="1259.8" y1="2194.7" x2="1174.2" y2="2137.2"/>
	<polygon class="st3" points="1007.1,1989.2 1110.2,1987.5 1119.3,2158.6 1037,2159.9 	"/>
	<polygon class="st3" points="1052.3,2313.1 1130,2312 1119.3,2158.6 1037,2159.9 	"/>
	<polygon class="st3" points="946.6,2337.9 942.8,2348.5 1149.1,2344.9 1147.8,2333.8 1130.3,2308 1064.3,2308.6 	"/>
	<polygon class="st11" points="1149.1,2343.2 945.4,2343.2 945.4,2355.3 1149.1,2355.3 	"/>
	<polygon class="st11" points="986.1,2315.8 972.8,2315.8 1006.1,2355.3 1019.4,2355.3 	"/>
	<polygon class="st11" points="992.4,2315.8 1005.6,2315.8 972.4,2355.3 959.1,2355.3 	"/>
	<polygon class="st11" points="1028.1,2305.3 1044.9,2305.3 1002.9,2355.3 986.1,2355.3 	"/>
	<polygon class="st11" points="1134.6,2303.3 1137.9,2309.7 1114.7,2355.3 1101.4,2355.3 	"/>
	<line class="st12" x1="1137.9" y1="2309.7" x2="1037.4" y2="2252.2"/>
	<line class="st12" x1="1035.5" y1="2309.7" x2="1136.1" y2="2252.2"/>
	<line class="st12" x1="1127" y1="2194.7" x2="1037.4" y2="2252.2"/>
	<line class="st12" x1="1038.3" y1="2194.7" x2="1136.1" y2="2252.2"/>
	<line class="st13" x1="1127" y1="2194.7" x2="1025.3" y2="2137.2"/>
	<line class="st13" x1="1038.3" y1="2194.7" x2="1123.9" y2="2137.2"/>
	<polygon class="st14" points="966.2,1885.8 912.3,2235.3 1104.1,2235.3 1182.8,2235.3 1374.6,2235.3 1320.5,1885.8 	"/>
	<polygon class="st15" points="1014.2,1546.1 1041.2,1674.4 1145.4,1762.3 1314.6,1797.4 963.9,1797.4 954.2,1565.9 	"/>
	<polygon class="st16" points="963.9,1797.4 1320.5,1797.4 1320.5,1885.8 963.9,1885.8 	"/>
	<polygon class="st17" points="963.9,1876 1320.5,1876 1320.5,1885.8 963.9,1885.8 	"/>
	<polygon class="st3" points="1315.3,1596.9 1263.4,1633.2 1347.1,1822.9 1397,1774 	"/>
	<polygon class="st3" points="1385.3,1978.8 1419.4,1989.9 1394.8,1772 1331.5,1786.7 	"/>
	<path class="st3" d="M1413.8,1951.3c18.4,4.9,29.4,23.8,24.5,42.3c-4.9,18.4-23.8,29.4-42.3,24.5c-18.4-4.9-29.4-23.8-24.5-42.3
		C1376.4,1957.4,1395.3,1946.4,1413.8,1951.3L1413.8,1951.3z"/>
	<path class="st3" d="M1395.7,2009.9c4.2,0,7.6,7.1,7.6,15.9s-3.5,15.8-7.8,15.8s-7.6-7.1-7.6-15.9S1391.5,2009.9,1395.7,2009.9
		L1395.7,2009.9z"/>
	<path class="st7" d="M1395.5,2033.1c2.1,0,3.8,1.6,3.8,3.6c0,1.9-1.7,3.5-3.9,3.5c-2.1,0-3.8-1.6-3.8-3.6
		S1393.4,2033.1,1395.5,2033.1L1395.5,2033.1z"/>
	<path class="st3" d="M1408.8,2008.2c4.1-1.1,9.3,4.8,11.6,13.2c2.3,8.4,0.8,16.2-3.3,17.3c-4.1,1.1-9.3-4.8-11.6-13.2
		C1403.3,2017.1,1404.8,2009.3,1408.8,2008.2L1408.8,2008.2z"/>
	<path class="st7" d="M1414.8,2030.6c2.1-0.6,4.1,0.5,4.6,2.4c0.5,1.9-0.7,3.9-2.8,4.4s-4.1-0.5-4.6-2.4
		C1411.6,2033.2,1412.8,2031.2,1414.8,2030.6L1414.8,2030.6z"/>
	<path class="st3" d="M1422.8,2001.5c3.8-1.9,10,2.9,14,10.7c3.9,7.8,4,15.7,0.2,17.6c-3.8,1.9-10-2.9-14-10.7
		C1419.1,2011.3,1419,2003.4,1422.8,2001.5L1422.8,2001.5z"/>
	<path class="st7" d="M1433.1,2022.3c1.9-0.9,4.1-0.3,5,1.4s0.1,3.9-1.8,4.9c-1.9,0.9-4.1,0.3-5-1.4
		C1430.4,2025.4,1431.2,2023.2,1433.1,2022.3L1433.1,2022.3z"/>
	<path class="st3" d="M1432.7,1991c2.7-2.7,9.4-0.5,15,5s8,12.1,5.3,14.8s-9.4,0.5-15-5S1430,1993.8,1432.7,1991L1432.7,1991z"/>
	<path class="st3" d="M1377.9,1974c4.3,2.1,4.3,10.9,0.1,19.7s-11.2,14.3-15.4,12.3s-4.3-10.9-0.1-19.7
		C1366.7,1977.4,1373.6,1972,1377.9,1974L1377.9,1974z"/>
	<path class="st7" d="M1447.5,2005.6c1.3-1.4,3.4-1.5,4.7-0.3c1.3,1.2,1.2,3.3-0.1,4.7c-1.3,1.4-3.4,1.5-4.7,0.3
		C1446.1,2009.1,1446.2,2007,1447.5,2005.6L1447.5,2005.6z"/>
	<path class="st7" d="M1366.5,1997.4c2.2,1,3.1,3.5,2.2,5.4c-0.9,2-3.4,2.7-5.6,1.7s-3.1-3.5-2.2-5.4
		C1361.9,1997.2,1364.4,1996.4,1366.5,1997.4L1366.5,1997.4z"/>
	<polygon class="st14" points="1270.2,1546.1 1252.8,1645 1116.6,1779.9 969.8,1797.4 1320.5,1797.4 1330.2,1565.9 	"/>
	<polyline class="st18" points="1027.2,1539.9 1142.2,1621.5 1259.7,1539.9 	"/>
	<path class="st19" d="M1142.2,1621.5c10.7,0,19.4,8.7,19.4,19.4s-8.7,19.4-19.4,19.4s-19.4-8.7-19.4-19.4
		S1131.4,1621.5,1142.2,1621.5L1142.2,1621.5z"/>
	<path class="st20" d="M1142.2,1630.8c5.6,0,10.1,4.5,10.1,10.1s-4.5,10.1-10.1,10.1s-10.1-4.5-10.1-10.1
		S1136.6,1630.8,1142.2,1630.8L1142.2,1630.8z"/>
	<path class="st2" d="M1450,1622.7c-4.2,0.7-10.6,25.4-1.1,46.6c9.5,21.2,31.5,32,35.4,30.3c3.9-1.7,10.6-25.4,1.1-46.6
		C1475.9,1631.8,1454.2,1622.1,1450,1622.7L1450,1622.7z"/>
	<path class="st2" d="M1450,1685.2c-4.2,0.7-10.6,25.4-1.1,46.6c9.5,21.2,31.5,32,35.4,30.3s10.6-25.4,1.1-46.6
		C1475.9,1694.2,1454.2,1684.5,1450,1685.2L1450,1685.2z"/>
	<path class="st2" d="M1450,1747.2c-4.2,0.7-10.6,25.4-1.1,46.6c9.5,21.2,31.5,32,35.4,30.3c3.9-1.7,10.6-25.4,1.1-46.6
		C1475.9,1756.2,1454.2,1746.5,1450,1747.2L1450,1747.2z"/>
	<path class="st2" d="M1450,1808.4c-4.2,0.7-10.6,25.4-1.1,46.6c9.5,21.2,31.5,32,35.4,30.3s10.6-25.4,1.1-46.6
		C1475.9,1817.5,1454.2,1807.8,1450,1808.4L1450,1808.4z"/>
	<path class="st21" d="M1294.6,1387.7c21.6,0,39.1,8.3,39.1,18.5s-17.5,18.5-39.1,18.5s-39.1-8.3-39.1-18.5
		S1272.9,1387.7,1294.6,1387.7L1294.6,1387.7z"/>
	<path class="st21" d="M1005.6,1387.7c21.6,0,39.1,8.3,39.1,18.5s-17.5,18.5-39.1,18.5c-21.6,0-39.1-8.3-39.1-18.5
		C966.4,1395.9,984,1387.7,1005.6,1387.7L1005.6,1387.7z"/>
	<polyline class="st10" points="1109.9,1454.2 1132.7,1446 1143.8,1453 	"/>
	<polyline class="st5" points="1120.3,1479.1 1142.8,1481.4 1162.5,1479.3 	"/>
	<polygon class="st17" points="963.9,1856.3 1320.5,1856.3 1320.5,1866.2 963.9,1866.2 	"/>
	<polygon class="st17" points="963.9,1836.7 1320.5,1836.7 1320.5,1846.5 963.9,1846.5 	"/>
	<polygon class="st17" points="963.9,1817.1 1320.5,1817.1 1320.5,1826.9 963.9,1826.9 	"/>
	<polygon class="st17" points="963.9,1797.4 1320.5,1797.4 1320.5,1807.2 963.9,1807.2 	"/>
</g>
</svg>
