<?xml version="1.0" encoding="utf-8"?>
<!-- Generator: Adobe Illustrator 24.1.3, SVG Export Plug-In . SVG Version: 6.00 Build 0)  -->
<svg version="1.1" id="_x2018_ëîé_x5F_1" xmlns="http://www.w3.org/2000/svg" xmlns:xlink="http://www.w3.org/1999/xlink"
	 x="0px" y="0px" viewBox="0 0 2291.04 2808.42" style="enable-background:new 0 0 2291.04 2808.42;" xml:space="preserve">
<style type="text/css">
	.st0{fill-rule:evenodd;clip-rule:evenodd;fill:#B4D6EF;}
	.st1{fill-rule:evenodd;clip-rule:evenodd;fill:#1A1A1A;}
	.st2{fill-rule:evenodd;clip-rule:evenodd;fill:#333333;}
	.st3{fill-rule:evenodd;clip-rule:evenodd;}
	.st4{fill:none;stroke:#000000;stroke-width:3.0358;stroke-linecap:round;stroke-miterlimit:22.9256;}
	.st5{fill-rule:evenodd;clip-rule:evenodd;fill:#333333;stroke:#1A1A1A;stroke-width:0.216;stroke-miterlimit:22.9256;}
	.st6{fill:none;stroke:#1A1A1A;stroke-width:4.5907;stroke-linecap:round;stroke-linejoin:round;stroke-miterlimit:22.9256;}
	.st7{fill-rule:evenodd;clip-rule:evenodd;fill:#666666;}
	.st8{fill-rule:evenodd;clip-rule:evenodd;fill:#4D4D4D;}
	.st9{fill:none;stroke:#000000;stroke-width:2.295;stroke-linecap:round;stroke-linejoin:round;stroke-miterlimit:22.9256;}
	.st10{fill:none;stroke:#000000;stroke-width:2.2951;stroke-linecap:round;stroke-linejoin:round;stroke-miterlimit:22.9256;}
	.st11{fill-rule:evenodd;clip-rule:evenodd;fill:#FFDABD;}
	.st12{fill:none;stroke:#000000;stroke-width:6.8854;stroke-linecap:round;stroke-linejoin:round;stroke-miterlimit:22.9256;}
	.st13{fill:none;stroke:#000000;stroke-width:18.3615;stroke-linecap:round;stroke-linejoin:round;stroke-miterlimit:22.9256;}
	.st14{fill-rule:evenodd;clip-rule:evenodd;fill:#C98E60;}
	.st15{fill:none;stroke:#000000;stroke-width:4.5905;stroke-linecap:round;stroke-linejoin:round;stroke-miterlimit:22.9256;}
	.st16{fill:none;stroke:#000000;stroke-width:4.5908;stroke-linecap:round;stroke-linejoin:round;stroke-miterlimit:22.9256;}
	.st17{fill:none;stroke:#000000;stroke-width:4.5901;stroke-linecap:round;stroke-linejoin:round;stroke-miterlimit:22.9256;}
	.st18{fill:none;stroke:#000000;stroke-width:4.5907;stroke-linecap:round;stroke-linejoin:round;stroke-miterlimit:22.9256;}
	.st19{fill-rule:evenodd;clip-rule:evenodd;fill:#FFFFFF;}
	.st20{fill:none;stroke:#000000;stroke-width:18.3612;stroke-linecap:round;stroke-linejoin:round;stroke-miterlimit:22.9256;}
	.st21{fill:none;stroke:#000000;stroke-width:6.8855;stroke-linecap:round;stroke-linejoin:round;stroke-miterlimit:22.9256;}
	.st22{fill-rule:evenodd;clip-rule:evenodd;fill:#E6E6E6;}
	.st23{fill-rule:evenodd;clip-rule:evenodd;fill:#EDB68B;}
</style>
<g>
	<polygon class="st0" points="4.77,2805.63 2295.81,2805.63 2295.81,-2.79 4.77,-2.79 4.77,2805.63 	"/>
	<polygon class="st1" points="767.08,1474.66 1549.17,1474.66 1683.79,2436.3 629.03,2436.3 767.08,1474.66 	"/>
	<polygon class="st2" points="695.46,1472.78 831.15,1496.74 760.49,1783.46 594.27,1791.55 695.46,1472.78 	"/>
	<polygon class="st3" points="976.36,1985.04 1107.85,1982.87 1119.42,2200.98 1014.48,2202.72 976.36,1985.04 	"/>
	<polygon class="st3" points="699.43,1460.3 891.42,1399.1 914.15,1699.8 699.43,1460.3 	"/>
	<polygon class="st3" points="1607.89,1460.3 1415.9,1399.1 1393.16,1699.8 1607.89,1460.3 	"/>
	<path class="st3" d="M1156.41,1281.36c202.21,0,366.14,189.06,366.14,422.28c0,59.83-10.81,116.74-30.27,168.31H820.54
		c-19.46-51.57-30.27-108.48-30.27-168.31C790.27,1470.42,954.2,1281.36,1156.41,1281.36L1156.41,1281.36z"/>
	<polygon class="st2" points="1552.4,1474.66 1469.91,1591.29 1526.85,1785.65 1675.13,1791.52 1552.4,1474.66 	"/>
	<polygon class="st3" points="1338.33,1985.04 1206.84,1982.87 1195.27,2200.98 1300.21,2202.72 1338.33,1985.04 	"/>
	<path class="st2" d="M1464.34,1999.94c-0.42-34.95-9.46-68.2-25.44-98.39H873.92c-15.98,30.2-25.02,63.44-25.44,98.39H1464.34
		L1464.34,1999.94z"/>
	<path class="st3" d="M1522.53,1964.33c-0.5-22.3-11.26-43.51-30.25-62.77H820.54c-19,19.26-29.75,40.48-30.25,62.77H1522.53
		L1522.53,1964.33z"/>
	<polygon class="st4" points="820.54,1871.95 1492.28,1871.95 1492.28,1901.55 820.54,1901.55 820.54,1871.95 	"/>
	<polygon class="st1" points="820.54,1871.95 1492.28,1871.95 1492.28,1901.55 820.54,1901.55 820.54,1871.95 	"/>
	<path class="st5" d="M1110.13,1496.37c7.22,0,13.07,5.85,13.07,13.08c0,7.22-5.86,13.08-13.07,13.08
		c-7.22,0-13.08-5.85-13.08-13.08C1097.05,1502.22,1102.91,1496.37,1110.13,1496.37L1110.13,1496.37z"/>
	<path class="st5" d="M1202.69,1496.37c7.22,0,13.08,5.85,13.08,13.08c0,7.22-5.85,13.08-13.08,13.08
		c-7.22,0-13.08-5.85-13.08-13.08C1189.62,1502.22,1195.47,1496.37,1202.69,1496.37L1202.69,1496.37z"/>
	<path class="st5" d="M1110.13,1564.16c7.22,0,13.07,5.85,13.07,13.08c0,7.22-5.86,13.08-13.07,13.08
		c-7.22,0-13.08-5.85-13.08-13.08C1097.05,1570.01,1102.91,1564.16,1110.13,1564.16L1110.13,1564.16z"/>
	<path class="st5" d="M1202.69,1564.16c7.22,0,13.08,5.85,13.08,13.08c0,7.22-5.85,13.08-13.08,13.08
		c-7.22,0-13.08-5.85-13.08-13.08C1189.62,1570.01,1195.47,1564.16,1202.69,1564.16L1202.69,1564.16z"/>
	<path class="st5" d="M1110.13,1631.6c7.22,0,13.07,5.85,13.07,13.08c0,7.22-5.86,13.08-13.07,13.08c-7.22,0-13.08-5.85-13.08-13.08
		C1097.05,1637.46,1102.91,1631.6,1110.13,1631.6L1110.13,1631.6z"/>
	<path class="st5" d="M1202.69,1631.6c7.22,0,13.08,5.85,13.08,13.08c0,7.22-5.85,13.08-13.08,13.08c-7.22,0-13.08-5.85-13.08-13.08
		C1189.62,1637.46,1195.47,1631.6,1202.69,1631.6L1202.69,1631.6z"/>
	<path class="st5" d="M1110.13,1696.99c7.22,0,13.07,5.85,13.07,13.08c0,7.22-5.86,13.08-13.07,13.08
		c-7.22,0-13.08-5.85-13.08-13.08C1097.05,1702.84,1102.91,1696.99,1110.13,1696.99L1110.13,1696.99z"/>
	<path class="st5" d="M1202.69,1696.99c7.22,0,13.08,5.85,13.08,13.08c0,7.22-5.85,13.08-13.08,13.08
		c-7.22,0-13.08-5.85-13.08-13.08C1189.62,1702.84,1195.47,1696.99,1202.69,1696.99L1202.69,1696.99z"/>
	<line class="st6" x1="1110.13" y1="1509.45" x2="1202.52" y2="1582.75"/>
	<line class="st6" x1="1203.68" y1="1510.97" x2="1108.96" y2="1581.23"/>
	<line class="st6" x1="1110.13" y1="1578.46" x2="1202.52" y2="1651.76"/>
	<line class="st6" x1="1203.68" y1="1579.98" x2="1108.96" y2="1650.25"/>
	<line class="st6" x1="1110.13" y1="1643.26" x2="1202.52" y2="1716.56"/>
	<line class="st6" x1="1203.68" y1="1644.78" x2="1108.96" y2="1715.04"/>
	<path class="st5" d="M1110.13,1771.31c7.22,0,13.07,5.85,13.07,13.08s-5.86,13.08-13.07,13.08c-7.22,0-13.08-5.85-13.08-13.08
		S1102.91,1771.31,1110.13,1771.31L1110.13,1771.31z"/>
	<path class="st5" d="M1202.69,1771.31c7.22,0,13.08,5.85,13.08,13.08s-5.85,13.08-13.08,13.08c-7.22,0-13.08-5.85-13.08-13.08
		S1195.47,1771.31,1202.69,1771.31L1202.69,1771.31z"/>
	<path class="st7" d="M1138.86,1871.95h37.85c7,0,12.73,5.73,12.73,12.73v23.39c0,7-5.73,12.73-12.73,12.73h-37.85
		c-7.01,0-12.73-5.73-12.73-12.73v-23.39C1126.13,1877.68,1131.86,1871.95,1138.86,1871.95L1138.86,1871.95z M1160.54,1892.6h15.82
		v-3.09c0-4.11-3.36-7.47-7.47-7.47h-8.35V1892.6L1160.54,1892.6z M1176.37,1901.55h-15.82v9.17h8.35c4.11,0,7.47-3.36,7.47-7.47
		V1901.55L1176.37,1901.55z M1148.15,1910.72v-28.67h-1.48c-4.11,0-7.47,3.36-7.47,7.47v13.73c0,4.11,3.36,7.47,7.47,7.47H1148.15
		L1148.15,1910.72z"/>
	<polygon class="st2" points="1226.97,1786.98 1215.96,1709.25 1644.41,1712.21 1675.13,1791.52 1583.68,1858.2 1226.97,1786.98 	
		"/>
	<polygon class="st2" points="1083.73,1730.9 1085.13,1812.82 681.89,1855.44 594.27,1791.55 706.3,1678.35 1083.73,1730.9 	"/>
	<polygon class="st3" points="1030.46,2311.92 1131.77,2320.26 1119.42,2200.98 1014.48,2202.72 1030.46,2311.92 	"/>
	<line class="st6" x1="1203.68" y1="1711.75" x2="1108.96" y2="1782.01"/>
	<line class="st6" x1="1110.13" y1="1710.23" x2="1202.52" y2="1783.53"/>
	<polygon class="st3" points="1284.23,2311.92 1182.92,2320.26 1195.27,2200.98 1300.21,2202.72 1284.23,2311.92 	"/>
	<polygon class="st3" points="1292.57,2311.24 1182.92,2320.26 1181.28,2391.47 1265.44,2392.18 1292.57,2311.24 	"/>
	<polygon class="st3" points="1415.43,2429.64 1420.26,2443.04 1157.34,2438.55 1158.98,2424.39 1181.28,2391.47 1265.44,2392.18 
		1415.43,2429.64 	"/>
	<polygon class="st8" points="1275.43,2385.23 1173.3,2383.24 1173.05,2394.35 1280.7,2397.95 1275.43,2385.23 	"/>
	<polygon class="st8" points="1271.64,2370.54 1178.41,2380.03 1181.63,2396.51 1274.17,2380.35 1271.64,2370.54 	"/>
	<path class="st1" d="M653.39,1544.54c-30.07-10.32-51.58-37.87-51.58-70.24c0-27,14.97-50.65,37.39-63.74
		c0-33.91,28.69-61.4,64.08-61.4c2.64,0,5.25,0.15,7.8,0.45c10.45-14.33,27.12-24.18,46.26-25.97
		c12.45-12.34,29.9-20.01,49.22-20.01c12.23,0,23.72,3.08,33.66,8.47c7.54-4.94,16.66-7.83,26.48-7.83c9.35,0,18.07,2.62,25.39,7.13
		c5.49-1.47,11.27-2.25,17.24-2.25c35.39,0,64.08,27.49,64.08,61.41c0,10.8-2.91,20.94-8.02,29.76
		c8.89,10.54,14.22,23.96,14.22,38.57c0,13.75-4.71,26.45-12.68,36.68c14.81,11.25,24.3,28.63,24.3,48.15
		c0,12.06-3.63,23.3-9.89,32.79c2.02,5.97,3.12,12.34,3.12,18.96c0,26.14-17.05,48.46-41.07,57.33
		c-4.47,29.73-31.16,52.57-63.41,52.57c-35.39,0-64.08-27.49-64.08-61.41l0-0.04c-4.1-3.34-7.76-7.16-10.88-11.37
		c-1.14,0.06-2.29,0.09-3.45,0.09c-17.75,0-33.81-6.92-45.41-18.09c-7.86,2.4-16.23,3.69-24.92,3.69
		C695.02,1598.22,664.28,1575.73,653.39,1544.54L653.39,1544.54z"/>
	<path class="st1" d="M1637.14,1547.89c32.09-11.02,55.04-40.42,55.04-74.96c0-28.81-15.98-54.05-39.9-68.02
		c0-36.19-30.61-65.53-68.38-65.53c-2.82,0-5.6,0.16-8.33,0.48c-11.15-15.29-28.94-25.81-49.36-27.71
		c-13.28-13.17-31.9-21.35-52.52-21.35c-13.06,0-25.31,3.29-35.92,9.04c-8.05-5.27-17.78-8.35-28.26-8.35
		c-9.98,0-19.29,2.79-27.1,7.61c-5.86-1.56-12.03-2.4-18.4-2.4c-37.77,0-68.38,29.34-68.38,65.53c0,11.52,3.11,22.35,8.56,31.76
		c-9.49,11.25-15.17,25.57-15.17,41.16c0,14.67,5.04,28.22,13.54,39.14c-15.8,12-25.94,30.56-25.94,51.38
		c0,12.87,3.87,24.86,10.55,34.99c-2.16,6.37-3.32,13.17-3.32,20.23c0,27.9,18.19,51.72,43.82,61.17
		c4.77,31.72,33.25,56.1,67.67,56.1c37.77,0,68.38-29.34,68.38-65.53l0-0.05c4.38-3.56,8.28-7.64,11.61-12.14
		c1.22,0.06,2.45,0.09,3.68,0.09c18.94,0,36.08-7.38,48.46-19.3c8.39,2.56,17.32,3.94,26.59,3.94
		C1592.72,1605.18,1625.52,1581.19,1637.14,1547.89L1637.14,1547.89z"/>
	<line class="st9" x1="1262.38" y1="1398.28" x2="1191.63" y2="1469"/>
	<line class="st10" x1="1262.37" y1="1469" x2="1191.63" y2="1398.27"/>
	<line class="st9" x1="1262.38" y1="1398.28" x2="1333.12" y2="1469"/>
	<line class="st10" x1="1262.38" y1="1469" x2="1333.12" y2="1398.27"/>
	<line class="st9" x1="979.4" y1="1398.28" x2="1050.14" y2="1469"/>
	<line class="st10" x1="979.4" y1="1469" x2="1050.14" y2="1398.27"/>
	<path class="st11" d="M1148.04,675.32c212.42,0,384.61,180.54,384.61,403.25s-172.2,403.25-384.61,403.25
		s-384.61-180.54-384.61-403.25S935.62,675.32,1148.04,675.32L1148.04,675.32z"/>
	<path class="st3" d="M1000.72,1086.74c18.66,0,33.78,15.13,33.78,33.78c0,18.66-15.13,33.78-33.78,33.78
		c-18.66,0-33.79-15.13-33.79-33.78C966.94,1101.86,982.06,1086.74,1000.72,1086.74L1000.72,1086.74z"/>
	<path class="st3" d="M1297.34,1086.74c18.66,0,33.79,15.13,33.79,33.78c0,18.66-15.13,33.78-33.79,33.78
		c-18.66,0-33.78-15.13-33.78-33.78C1263.56,1101.86,1278.69,1086.74,1297.34,1086.74L1297.34,1086.74z"/>
	<line class="st12" x1="1076.95" y1="1281.34" x2="1219.85" y2="1281.34"/>
	<line class="st13" x1="907.35" y1="1090.67" x2="1001.99" y2="1041.22"/>
	<path class="st14" d="M1144.26,1182.26c5.46,3.13,5.48,13.33,0.06,22.78c-5.42,9.46-14.24,14.58-19.69,11.46
		c-5.45-3.13-5.48-13.33-0.06-22.78C1129.99,1184.26,1138.8,1179.13,1144.26,1182.26L1144.26,1182.26z"/>
	<path class="st14" d="M1159.19,1182.26c-5.46,3.13-5.48,13.33-0.06,22.78c5.42,9.46,14.23,14.58,19.69,11.46
		c5.45-3.13,5.48-13.33,0.06-22.78C1173.46,1184.26,1164.64,1179.13,1159.19,1182.26L1159.19,1182.26z"/>
	<path class="st15" d="M838.11,1308.54c5.48,8.12,10.96,16.23,16.44,24.34 M863.67,1329.35c4.93,8.11,9.87,16.23,14.8,24.34
		 M890.96,1348.22c4.39,8.12,8.78,16.23,13.16,24.35 M919.6,1365.32c3.84,8.12,7.68,16.24,11.53,24.35 M949.61,1380.27
		c3.3,8.12,6.6,16.24,9.89,24.36 M980.71,1393.2c2.75,8.12,5.5,16.24,8.26,24.36 M1012.78,1403.91c2.21,8.12,4.41,16.25,6.62,24.37
		 M1045.64,1412.36c1.66,8.12,3.32,16.25,4.98,24.37 M1079.09,1418.54c1.12,8.13,2.23,16.25,3.35,24.38 M1112.95,1422.34
		c0.57,8.13,1.14,16.25,1.71,24.38 M1147.03,1423.86c0.02,8.13,0.05,16.26,0.07,24.39 M1181.12,1423.04
		c-0.52,8.13-1.04,16.26-1.56,24.39 M1215.07,1419.91c-1.06,8.13-2.13,16.26-3.2,24.39 M1248.66,1414.45
		c-1.61,8.13-3.22,16.27-4.83,24.4 M1281.72,1406.68c-2.16,8.13-4.31,16.27-6.47,24.4 M1314.04,1396.61
		c-2.7,8.14-5.4,16.27-8.11,24.41 M1345.48,1384.4c-3.25,8.14-6.5,16.27-9.74,24.41 M1375.79,1369.95
		c-3.79,8.14-7.58,16.28-11.38,24.42 M1404.94,1353.6c-4.34,8.14-8.68,16.28-13.01,24.42 M1432.55,1335.13
		c-4.88,8.14-9.77,16.28-14.65,24.42 M1458.71,1314.95c-5.43,8.14-10.86,16.29-16.29,24.43"/>
	<line class="st15" x1="858.56" y1="1371.29" x2="880.09" y2="1392.03"/>
	<path class="st16" d="M891.97,1396.22c6.49,6.91,12.99,13.83,19.48,20.74 M915.63,1407.38c5.81,6.91,11.62,13.83,17.43,20.74
		 M940.08,1417.47c5.13,6.92,10.25,13.83,15.38,20.74 M965.23,1426.48c4.45,6.91,8.89,13.83,13.33,20.74 M991.03,1434.35
		c3.76,6.91,7.52,13.83,11.28,20.74 M1017.44,1440.88c3.08,6.91,6.15,13.83,9.23,20.74 M1044.3,1446.23
		c2.39,6.91,4.79,13.83,7.18,20.74 M1071.52,1450.36c1.71,6.91,3.42,13.83,5.12,20.74 M1098.99,1453.27
		c1.03,6.91,2.05,13.83,3.08,20.74 M1126.66,1454.88c0.34,6.91,0.68,13.83,1.03,20.74 M1154.39,1455.17
		c-0.34,6.91-0.68,13.83-1.03,20.74 M1182.1,1454.24c-1.03,6.91-2.05,13.83-3.07,20.74 M1209.7,1452.08
		c-1.71,6.91-3.42,13.83-5.13,20.74 M1237.09,1448.69c-2.39,6.91-4.79,13.83-7.18,20.74 M1264.16,1444.02
		c-3.08,6.91-6.15,13.83-9.22,20.74 M1290.79,1438.03c-3.76,6.91-7.52,13.83-11.28,20.74 M1316.93,1430.87
		c-4.44,6.91-8.89,13.83-13.33,20.74 M1342.48,1422.56c-5.13,6.91-10.26,13.83-15.38,20.74 M1367.36,1413.1
		c-5.81,6.91-11.62,13.83-17.43,20.74 M1391.38,1402.42c-6.49,6.92-12.99,13.83-19.48,20.74"/>
	<line class="st15" x1="1425.61" y1="1380.81" x2="1404.08" y2="1401.55"/>
	<line class="st17" x1="826.93" y1="1337.04" x2="845" y2="1363.09"/>
	<line class="st17" x1="1462.15" y1="1344.8" x2="1444.23" y2="1370.95"/>
	<path class="st18" d="M882.29,1320.86c4.7,4.93,9.4,9.86,14.1,14.79 M904.22,1333.5c4.23,4.93,8.46,9.86,12.69,14.79
		 M927.62,1344.97c3.76,4.93,7.53,9.86,11.29,14.79 M952.18,1355.35c3.29,4.93,6.59,9.86,9.89,14.79 M977.92,1364.44
		c2.83,4.93,5.66,9.87,8.48,14.8 M1004.58,1372.3c2.36,4.93,4.72,9.87,7.08,14.8 M1032.1,1378.8c1.89,4.94,3.79,9.87,5.68,14.8
		 M1060.28,1383.93c1.42,4.94,2.85,9.87,4.27,14.81 M1088.96,1387.69c0.96,4.94,1.91,9.87,2.87,14.81 M1118,1390
		c0.49,4.94,0.98,9.87,1.47,14.81 M1147.22,1390.92c0.02,4.94,0.04,9.88,0.06,14.81 M1176.46,1390.42
		c-0.45,4.94-0.89,9.88-1.34,14.82 M1205.58,1388.52c-0.91,4.94-1.83,9.88-2.74,14.82 M1234.39,1385.2
		c-1.38,4.94-2.76,9.88-4.14,14.82 M1262.74,1380.48c-1.85,4.94-3.7,9.88-5.55,14.82 M1290.46,1374.37
		c-2.32,4.94-4.63,9.89-6.96,14.83 M1317.42,1366.95c-2.79,4.94-5.57,9.89-8.36,14.83 M1343.41,1358.17
		c-3.25,4.94-6.5,9.89-9.76,14.83 M1368.41,1348.24c-3.72,4.95-7.44,9.89-11.16,14.83 M1392.09,1337.01
		c-4.19,4.95-8.38,9.89-12.56,14.84 M1414.52,1324.75c-4.66,4.95-9.31,9.89-13.97,14.84 M1032.1,1339.77
		c1.89,4.94,3.79,9.87,5.68,14.8 M1060.28,1344.9c1.42,4.94,2.85,9.87,4.27,14.81 M1088.96,1348.66c0.96,4.94,1.91,9.87,2.87,14.81
		 M1118,1350.97c0.49,4.94,0.98,9.87,1.47,14.81 M1147.22,1351.89c0.02,4.94,0.04,9.88,0.06,14.81 M1176.46,1351.4
		c-0.45,4.94-0.89,9.88-1.34,14.82 M1205.58,1349.49c-0.91,4.94-1.83,9.88-2.74,14.82 M1234.39,1346.17
		c-1.38,4.94-2.76,9.88-4.14,14.82 M1262.74,1341.46c-1.85,4.94-3.7,9.88-5.55,14.82"/>
	<path class="st19" d="M983.83,1103.63c9.33,0,16.89,7.56,16.89,16.89c0,9.33-7.56,16.89-16.89,16.89
		c-9.33,0-16.89-7.56-16.89-16.89C966.94,1111.19,974.5,1103.63,983.83,1103.63L983.83,1103.63z"/>
	<path class="st19" d="M1280.98,1103.63c9.33,0,16.89,7.56,16.89,16.89c0,9.33-7.56,16.89-16.89,16.89
		c-9.33,0-16.89-7.56-16.89-16.89C1264.09,1111.19,1271.65,1103.63,1280.98,1103.63L1280.98,1103.63z"/>
	<line class="st20" x1="1056.78" y1="1065.64" x2="1001.99" y2="1041.22"/>
	<path class="st18" d="M1032.1,1263.72c1.89-4.94,3.79-9.87,5.68-14.8 M1060.28,1258.59c1.42-4.94,2.85-9.87,4.27-14.81
		 M1088.96,1254.83c0.96-4.94,1.91-9.87,2.87-14.81 M1118,1252.52c0.49-4.94,0.98-9.87,1.47-14.81 M1147.22,1251.6
		c0.02-4.94,0.04-9.88,0.06-14.81 M1176.46,1252.1c-0.45-4.94-0.89-9.88-1.34-14.82 M1205.58,1254c-0.91-4.94-1.83-9.88-2.74-14.82
		 M1234.39,1257.32c-1.38-4.94-2.76-9.88-4.14-14.82 M1262.74,1262.04c-1.85-4.94-3.7-9.88-5.55-14.82"/>
	<path class="st18" d="M962.68,1310.08c-0.07-5.28-0.14-10.57-0.21-15.85 M986.95,1294.87c-0.51-5.11-1.02-10.22-1.52-15.33
		 M1012.2,1280.74c-0.94-4.94-1.88-9.88-2.82-14.82"/>
	<path class="st18" d="M1325.83,1310.08c0.07-5.29,0.14-10.57,0.21-15.85 M1301.56,1294.87c0.51-5.11,1.02-10.22,1.52-15.34
		 M1276.31,1280.74c0.94-4.94,1.88-9.88,2.82-14.82"/>
	<line class="st21" x1="1126.39" y1="1300.98" x2="1170.41" y2="1300.98"/>
	<line class="st13" x1="1385.43" y1="1090.66" x2="1290.79" y2="1041.22"/>
	<line class="st20" x1="1242.65" y1="1063.22" x2="1290.79" y2="1041.22"/>
	<path class="st3" d="M779.61,1206.22c16.88,0,30.57,13.69,30.57,30.57s-13.69,30.57-30.57,30.57c-16.88,0-30.57-13.69-30.57-30.57
		S762.73,1206.22,779.61,1206.22L779.61,1206.22z"/>
	<path class="st3" d="M1532.65,1175.65c16.88,0,30.57,13.69,30.57,30.57s-13.69,30.57-30.57,30.57c-16.88,0-30.57-13.69-30.57-30.57
		S1515.77,1175.65,1532.65,1175.65L1532.65,1175.65z"/>
	<path class="st3" d="M1532.65,1191.26c25.25,0,45.73,20.47,45.73,45.73s-20.47,45.73-45.73,45.73c-25.25,0-45.72-20.47-45.72-45.73
		S1507.4,1191.26,1532.65,1191.26L1532.65,1191.26z"/>
	<path class="st3" d="M1469.99,610.36c25.25,0,45.73,20.47,45.73,45.73c0,25.25-20.47,45.73-45.73,45.73s-45.73-20.47-45.73-45.73
		C1424.27,630.83,1444.74,610.36,1469.99,610.36L1469.99,610.36z"/>
	<path class="st3" d="M1529.23,657.77c29.96,0,54.25,24.29,54.25,54.25c0,29.96-24.29,54.25-54.25,54.25
		c-29.96,0-54.25-24.29-54.25-54.25C1474.98,682.06,1499.27,657.77,1529.23,657.77L1529.23,657.77z"/>
	<path class="st3" d="M1006.86,490.65c29.96,0,54.25,24.29,54.25,54.25c0,29.96-24.29,54.25-54.25,54.25
		c-29.97,0-54.26-24.29-54.26-54.25C952.61,514.94,976.9,490.65,1006.86,490.65L1006.86,490.65z"/>
	<path class="st3" d="M710.63,749.4c29.96,0,54.25,24.29,54.25,54.25c0,29.96-24.29,54.25-54.25,54.25
		c-29.96,0-54.25-24.29-54.25-54.25C656.38,773.69,680.66,749.4,710.63,749.4L710.63,749.4z"/>
	<path class="st3" d="M988.73,831.62c29.96,0,54.25,24.29,54.25,54.25c0,29.96-24.29,54.25-54.25,54.25
		c-29.96,0-54.26-24.29-54.26-54.25C934.47,855.91,958.76,831.62,988.73,831.62L988.73,831.62z"/>
	<path class="st3" d="M875.89,1043.19c-27.71,0-50.18-22.47-50.18-50.18c0-27.71,22.47-50.18,50.18-50.18
		c27.71,0,50.18,22.47,50.18,50.18C926.07,1020.73,903.6,1043.19,875.89,1043.19L875.89,1043.19z"/>
	<path class="st3" d="M859.83,1027.79c-15.36,0-27.81-12.45-27.81-27.81c0-15.36,12.45-27.81,27.81-27.81
		c15.36,0,27.81,12.45,27.81,27.81C887.64,1015.34,875.19,1027.79,859.83,1027.79L859.83,1027.79z"/>
	<path class="st3" d="M822.67,1048.41c-15.36,0-27.81-12.45-27.81-27.81c0-15.36,12.45-27.81,27.81-27.81
		c15.36,0,27.81,12.45,27.81,27.81C850.48,1035.96,838.03,1048.41,822.67,1048.41L822.67,1048.41z"/>
	<path class="st3" d="M797.72,1095.84c-18.94,0-34.3-15.35-34.3-34.29c0-18.94,15.36-34.3,34.3-34.3c18.94,0,34.3,15.35,34.3,34.3
		C832.02,1080.49,816.66,1095.84,797.72,1095.84L797.72,1095.84z"/>
	<path class="st3" d="M1162.68,490.65c41.71,0,79.85,15.29,109.11,40.58c17.93-6.93,37.41-10.73,57.79-10.73
		c85.6,0,155.54,67.04,160.18,151.48c38.02,10.08,67.85,40.28,77.39,78.52c51.96,7.36,91.91,52.01,91.91,106
		c0,16.18-3.59,31.52-10.02,45.27c44.66,14.1,77.04,55.85,77.04,105.16c0,48-30.67,88.82-73.48,103.97
		c0.67,4.46,1.02,9.03,1.02,13.68c0,33.2-17.79,62.23-44.37,78.1c0.25,2.18,0.39,4.4,0.39,6.64c0,26.54-18.21,48.82-42.82,55.03
		c-1.62,19.06-17.6,34.02-37.07,34.02c-20.55,0-37.2-16.66-37.2-37.2c0-9.85,3.83-18.8,10.07-25.46c-4.15-7.88-6.5-16.86-6.5-26.39
		c0-6.81,1.2-13.34,3.4-19.4c-17.09-16.53-27.71-39.69-27.71-65.34c0-32.08,16.62-60.28,41.71-76.46
		c-5.13-12.73-7.96-26.63-7.96-41.19c0-17.67,4.16-34.37,11.55-49.17c-33.33-11.48-59.22-38.96-68.49-73.26
		c-32.52-3.97-60.59-22.33-77.66-48.52c-13.2,3.52-27.07,5.4-41.39,5.4c-36.25,0-69.68-12.03-96.54-32.3
		c-21.38,9.95-45.22,15.51-70.36,15.51c-4.9,0-9.76-0.21-14.56-0.63c0.01,0.52,0.02,1.04,0.02,1.56c0,42.24-34.24,76.48-76.48,76.48
		c-9.9,0-19.36-1.88-28.04-5.31c-10.43,7.68-23.32,12.21-37.26,12.21c-2.08,0-4.13-0.1-6.16-0.3c4.1,8.28,6.41,17.61,6.41,27.47
		c0,34.21-27.73,61.94-61.94,61.94c-12.56,0-24.24-3.74-34-10.16c-9.97,8.35-22.31,13.95-35.87,15.66c0.13,1.36,0.21,2.74,0.21,4.14
		c0,22.35-17.59,40.6-39.68,41.66c-2.89,13.12-11.96,23.93-24.01,29.2c2.48,8.29,3.82,17.07,3.82,26.16
		c0,28.74-13.33,54.36-34.13,71.04c6.51,8.56,10.38,19.25,10.38,30.84c0,8.18-1.93,15.91-5.36,22.77c5.97,6.6,9.61,15.35,9.61,24.95
		c0,20.55-16.66,37.2-37.2,37.2c-20.55,0-37.21-16.66-37.21-37.2l0.01-0.43c-18.69-7.57-31.87-25.89-31.87-47.29
		c0-5.84,0.98-11.44,2.79-16.67c-34.47-12.95-59.01-46.21-59.01-85.21c0-37.33,22.49-69.41,54.65-83.44
		c-35.71-18.25-60.16-55.39-60.16-98.24c0-54.82,40.01-100.29,92.42-108.82c-6.5-16.4-10.08-34.29-10.08-53
		c0-79.47,64.43-143.9,143.9-143.9c4.88,0,9.69,0.25,14.44,0.72c22.2-39.16,64.25-65.58,112.47-65.58c16.15,0,31.6,2.97,45.85,8.38
		C1056.9,518.34,1106.56,490.65,1162.68,490.65L1162.68,490.65z"/>
	<polygon class="st3" points="1022.12,2311.24 1131.77,2320.26 1133.41,2391.47 1049.25,2392.18 1022.12,2311.24 	"/>
	<polygon class="st3" points="899.26,2429.64 894.43,2443.04 1157.34,2438.55 1155.71,2424.39 1133.41,2391.47 1049.25,2392.18 
		899.26,2429.64 	"/>
	<polygon class="st8" points="1039.26,2385.23 1141.38,2383.24 1141.64,2394.35 1033.99,2397.95 1039.26,2385.23 	"/>
	<polygon class="st8" points="1043.05,2370.54 1136.28,2380.03 1133.06,2396.51 1040.52,2380.35 1043.05,2370.54 	"/>
	<polygon class="st22" points="1108.89,1878.71 1187.68,1878.76 1187.18,2438.76 1147.73,2494.59 1108.38,2438.71 1108.89,1878.71 	
		"/>
	<polygon class="st7" points="1146.7,1907.39 1149.83,1907.39 1149.32,2473.92 1146.18,2473.92 1146.7,1907.39 	"/>
	<path class="st8" d="M1081.35,1859.13l47.05,0.03l0.42-111.74c0.02-3.54,3.58-6.43,7.95-6.43l24.42,0.01c4.37,0,7.95,2.9,7.94,6.44
		l-0.42,111.74l46.76,0.03l0.01-10.1c0-1.85,1.87-3.36,4.15-3.35l3.63,0c2.28,0,4.14,1.51,4.14,3.36l-0.02,17.89
		c0,0.1,0,0.2-0.02,0.3c0.01,0.13,0.02,0.27,0.02,0.4l0,5.3c0,3.33-3.37,6.05-7.48,6.05l-143-0.08c-4.11,0-7.48-2.73-7.47-6.06
		l0-5.3c0-0.14,0.01-0.27,0.02-0.4c-0.01-0.1-0.02-0.2-0.02-0.3l0.02-17.89c0-1.85,1.87-3.36,4.14-3.35l3.63,0
		c2.28,0,4.14,1.51,4.14,3.36L1081.35,1859.13L1081.35,1859.13z"/>
	<path class="st11" d="M1063.13,1774.26c1.59,27.53,25.2,48.55,52.72,46.96c27.53-1.59,48.55-25.2,46.96-52.72
		s-25.2-48.55-52.72-46.96C1082.56,1723.13,1061.54,1746.73,1063.13,1774.26L1063.13,1774.26z"/>
	<path class="st11" d="M1151.38,1765.73c-1.19,6.01,7.88,12.87,20.25,15.32c12.37,2.45,23.37-0.44,24.56-6.45
		c1.19-6.01-7.88-12.87-20.25-15.32C1163.56,1756.83,1152.57,1759.72,1151.38,1765.73L1151.38,1765.73z"/>
	<path class="st23" d="M1184.27,1772.07c-0.59,3,1.17,5.88,3.94,6.43c2.77,0.55,5.49-1.44,6.09-4.45c0.59-3-1.17-5.88-3.94-6.43
		C1187.59,1767.08,1184.87,1769.07,1184.27,1772.07L1184.27,1772.07z"/>
	<path class="st11" d="M1145.13,1783.78c-2.76,5.47,4.12,14.51,15.38,20.2c11.26,5.69,22.62,5.87,25.39,0.4
		c2.76-5.47-4.12-14.51-15.38-20.2C1159.26,1778.49,1147.9,1778.31,1145.13,1783.78L1145.13,1783.78z"/>
	<path class="st23" d="M1175.11,1798.75c-1.38,2.73-0.46,5.98,2.06,7.25c2.52,1.27,5.68,0.09,7.06-2.64
		c1.38-2.73,0.46-5.98-2.06-7.25C1179.65,1794.83,1176.49,1796.02,1175.11,1798.75L1175.11,1798.75z"/>
	<path class="st11" d="M1131.59,1801.56c-3.79,4.81,1.17,15.04,11.08,22.84c9.91,7.8,21.01,10.23,24.8,5.41
		c3.79-4.81-1.17-15.04-11.08-22.84C1146.48,1799.17,1135.38,1796.75,1131.59,1801.56L1131.59,1801.56z"/>
	<path class="st23" d="M1158.01,1822.16c-1.89,2.41-1.63,5.77,0.58,7.52c2.22,1.75,5.55,1.21,7.45-1.2
		c1.89-2.41,1.63-5.77-0.58-7.52C1163.24,1819.22,1159.91,1819.75,1158.01,1822.16L1158.01,1822.16z"/>
	<path class="st11" d="M1113.91,1812.57c-4.62,2.97-3.41,13.1,2.7,22.62c6.12,9.52,14.83,14.83,19.45,11.86s3.41-13.1-2.7-22.62
		C1127.25,1814.91,1118.54,1809.6,1113.91,1812.57L1113.91,1812.57z"/>
	<path class="st11" d="M1105.68,1730.09c1.67,6.66,14.15,9.28,27.87,5.84c13.72-3.44,23.49-11.63,21.82-18.3
		c-1.67-6.66-14.15-9.28-27.87-5.84C1113.78,1715.23,1104.01,1723.42,1105.68,1730.09L1105.68,1730.09z"/>
	<path class="st23" d="M1130.29,1837.78c-2.31,1.49-3.08,4.42-1.71,6.55c1.37,2.13,4.35,2.65,6.67,1.17s3.08-4.42,1.71-6.55
		C1135.58,1836.82,1132.6,1836.3,1130.29,1837.78L1130.29,1837.78z"/>
	<path class="st23" d="M1142.09,1720.77c0.84,3.33,4,5.41,7.07,4.64c3.07-0.77,4.88-4.1,4.05-7.43c-0.84-3.33-4-5.41-7.07-4.64
		C1143.06,1714.11,1141.25,1717.44,1142.09,1720.77L1142.09,1720.77z"/>
	<path class="st11" d="M1246.28,1756.99c-5.66,26.99-32.12,44.27-59.11,38.61c-26.98-5.66-44.27-32.12-38.61-59.11
		s32.12-44.27,59.11-38.61C1234.65,1703.54,1251.94,1730.01,1246.28,1756.99L1246.28,1756.99z"/>
	<path class="st11" d="M1160.27,1735.46c0.28,6.12-9.7,11.56-22.3,12.14c-12.6,0.59-23.04-3.9-23.33-10.02
		c-0.28-6.12,9.7-11.56,22.3-12.14S1159.99,1729.34,1160.27,1735.46L1160.27,1735.46z"/>
	<path class="st23" d="M1126.8,1736.85c0.14,3.06-2.03,5.65-4.84,5.78c-2.82,0.13-5.22-2.24-5.36-5.3
		c-0.14-3.06,2.03-5.65,4.85-5.78C1124.25,1731.42,1126.65,1733.79,1126.8,1736.85L1126.8,1736.85z"/>
	<path class="st11" d="M1163.77,1754.24c1.92,5.82-6.23,13.74-18.2,17.7c-11.98,3.96-23.24,2.45-25.16-3.37
		c-1.92-5.82,6.23-13.74,18.2-17.7C1150.58,1746.91,1161.84,1748.42,1163.77,1754.24L1163.77,1754.24z"/>
	<path class="st23" d="M1131.9,1764.59c0.96,2.91-0.43,5.98-3.11,6.87c-2.68,0.88-5.63-0.76-6.59-3.66
		c-0.96-2.91,0.43-5.98,3.11-6.87C1127.99,1760.04,1130.94,1761.68,1131.9,1764.59L1131.9,1764.59z"/>
	<path class="st11" d="M1174.53,1773.83c3.03,5.32-3.39,14.7-14.35,20.95c-10.96,6.25-22.3,6.99-25.33,1.67
		c-3.04-5.32,3.39-14.7,14.35-20.95C1160.15,1769.26,1171.49,1768.51,1174.53,1773.83L1174.53,1773.83z"/>
	<path class="st23" d="M1145.34,1790.28c1.52,2.66,0.76,5.95-1.69,7.35c-2.45,1.4-5.67,0.37-7.19-2.29
		c-1.52-2.66-0.76-5.95,1.69-7.35C1140.6,1786.6,1143.82,1787.62,1145.34,1790.28L1145.34,1790.28z"/>
	<path class="st11" d="M1190.37,1787.34c4.13,3.62,1.43,13.46-6.03,21.97c-7.46,8.51-16.86,12.47-21,8.84
		c-4.13-3.62-1.43-13.46,6.03-21.97C1176.84,1787.67,1186.24,1783.71,1190.37,1787.34L1190.37,1787.34z"/>
	<path class="st11" d="M1210.75,1706.99c-2.64,6.34-15.37,7.08-28.43,1.64s-21.5-14.99-18.86-21.33c2.64-6.34,15.37-7.08,28.43-1.64
		C1204.94,1691.1,1213.39,1700.65,1210.75,1706.99L1210.75,1706.99z"/>
	<path class="st23" d="M1170.44,1809.84c2.07,1.81,2.39,4.82,0.72,6.73c-1.67,1.9-4.7,1.98-6.77,0.17
		c-2.07-1.81-2.39-4.82-0.72-6.73C1165.34,1808.11,1168.37,1808.03,1170.44,1809.84L1170.44,1809.84z"/>
	<path class="st23" d="M1176.13,1692.38c-1.32,3.17-4.76,4.76-7.68,3.54c-2.92-1.22-4.22-4.77-2.9-7.94
		c1.32-3.17,4.76-4.76,7.68-3.54C1176.15,1685.65,1177.45,1689.21,1176.13,1692.38L1176.13,1692.38z"/>
</g>
</svg>
