<?xml version="1.0" encoding="utf-8"?>
<!-- Generator: Adobe Illustrator 24.1.3, SVG Export Plug-In . SVG Version: 6.00 Build 0)  -->
<svg version="1.1" id="Layer_1" xmlns="http://www.w3.org/2000/svg" xmlns:xlink="http://www.w3.org/1999/xlink" x="0px" y="0px"
	 viewBox="0 0 2291.04 2808.42" style="enable-background:new 0 0 2291.04 2808.42;" xml:space="preserve">
<style type="text/css">
	.st0{fill-rule:evenodd;clip-rule:evenodd;fill:#B4D6EF;}
	.st1{fill-rule:evenodd;clip-rule:evenodd;fill:#910016;}
	.st2{fill-rule:evenodd;clip-rule:evenodd;fill:#D60024;}
	.st3{fill-rule:evenodd;clip-rule:evenodd;fill:#FFDABD;}
	.st4{fill-rule:evenodd;clip-rule:evenodd;fill:#FFE5D1;}
	.st5{fill-rule:evenodd;clip-rule:evenodd;fill:#630817;}
	.st6{fill-rule:evenodd;clip-rule:evenodd;fill:#FFF3BF;}
	.st7{fill-rule:evenodd;clip-rule:evenodd;fill:#FC0D0D;}
	.st8{fill:none;stroke:#B50E0E;stroke-width:6.654;stroke-linecap:round;stroke-linejoin:round;stroke-miterlimit:22.9256;}
	.st9{fill:none;stroke:#B50E0E;stroke-width:14.4029;stroke-linecap:round;stroke-linejoin:round;stroke-miterlimit:22.9256;}
	.st10{fill-rule:evenodd;clip-rule:evenodd;fill:#EDB68B;}
	.st11{fill-rule:evenodd;clip-rule:evenodd;fill:#FFFFFF;}
	.st12{fill:none;stroke:#000000;stroke-width:3.7926;stroke-linecap:round;stroke-linejoin:round;stroke-miterlimit:22.9256;}
	.st13{fill:none;stroke:#000000;stroke-width:3.8848;stroke-linecap:round;stroke-linejoin:round;stroke-miterlimit:22.9256;}
	.st14{fill:none;stroke:#B50E0E;stroke-width:6.5867;stroke-linecap:round;stroke-linejoin:round;stroke-miterlimit:22.9256;}
	.st15{fill:none;stroke:#7D3A07;stroke-width:8.2428;stroke-linecap:round;stroke-linejoin:round;stroke-miterlimit:22.9256;}
	.st16{fill-rule:evenodd;clip-rule:evenodd;fill:#750719;}
	.st17{fill-rule:evenodd;clip-rule:evenodd;fill:#1A1A1A;}
	.st18{fill-rule:evenodd;clip-rule:evenodd;fill:#CF0808;}
	.st19{fill:none;stroke:#FFFFFF;stroke-width:2.126;stroke-linecap:round;stroke-linejoin:round;stroke-miterlimit:22.9256;}
	.st20{fill:none;stroke:#850000;stroke-width:2.126;stroke-linecap:round;stroke-linejoin:round;stroke-miterlimit:22.9256;}
</style>
<polygon class="st0" points="3.58,2810.63 2294.63,2810.63 2294.63,2.21 3.58,2.21 3.58,2810.63 "/>
<g>
	<path class="st1" d="M1141.19,841.22c220,0,398.34,203.92,398.34,455.46c0,85.63,61.06,434.52,25.12,502.94
		c-75.73,144.19-286.43,159.09-416.32,161.66c-133.31,2.64-348.19-10.84-427.07-157.14c-37.42-69.41,21.59-419.94,21.59-507.46
		C742.85,1045.14,921.19,841.22,1141.19,841.22L1141.19,841.22z"/>
	<path class="st2" d="M1107.53,951.22c25.33,0,50.01,3.12,73.8,8.99c-10.86-1.17-21.87-1.79-33-1.79
		c-192.29,0-348.18,178.24-348.18,398.11c0,76.5-51.58,382.89-18.87,443.55c38.17,70.8,112.79,106,191.56,122.94
		c-92.87-13.09-187.63-47.17-232.36-130.14c-32.71-60.67,18.88-367.06,18.88-443.55C759.35,1129.46,915.23,951.22,1107.53,951.22
		L1107.53,951.22z"/>
	<polygon class="st3" points="956.09,1557.34 1007.93,1593.62 924.31,1783.3 875.32,1735.36 956.09,1557.34 	"/>
	<path class="st4" d="M1142.72,1420.39c94.36,0,170.86,133.63,170.86,298.48c0,42.29-5.05,82.52-14.12,118.97H985.99
		c-9.08-36.45-14.12-76.68-14.12-118.97C971.86,1554.02,1048.36,1420.39,1142.72,1420.39L1142.72,1420.39z"/>
	<polygon class="st3" points="1291.03,1949.6 1187.89,1947.89 1178.81,2118.98 1261.12,2120.34 1291.03,1949.6 	"/>
	<polygon class="st5" points="746.58,1941.92 776.98,2302.91 923.79,1934.76 869.99,1904.12 746.58,1941.92 	"/>
	<polygon class="st4" points="875.86,1929.6 844.3,1925.73 876.52,1732.42 931.44,1745.17 875.86,1929.6 	"/>
	<polygon class="st3" points="1245.82,2273.48 1168.11,2272.36 1178.81,2118.98 1261.12,2120.34 1245.82,2273.48 	"/>
	<polygon class="st6" points="1351.51,2298.34 1355.3,2308.86 1149.06,2305.34 1150.34,2294.22 1167.83,2268.4 1233.85,2268.96 
		1351.51,2298.34 	"/>
	<path class="st4" d="M1143.47,897.34c172.67,0,312.64,139.97,312.64,312.64c0,172.67-139.97,312.64-312.64,312.64
		c-172.67,0-312.64-139.97-312.64-312.64C830.83,1037.31,970.8,897.34,1143.47,897.34L1143.47,897.34z"/>
	<path class="st1" d="M965.68,832.8c114.56-40.43,204.11,4.98,200.02,101.43s-100.28,207.41-214.84,247.84
		c-114.56,40.43-204.11-4.98-200.02-101.42C754.93,984.19,851.12,873.23,965.68,832.8L965.68,832.8z"/>
	<path class="st7" d="M1026.21,1261.5c19.26,0,34.88,15.62,34.88,34.88s-15.62,34.88-34.88,34.88s-34.88-15.62-34.88-34.88
		S1006.94,1261.5,1026.21,1261.5L1026.21,1261.5z"/>
	<line class="st8" x1="1095.9" y1="1424.03" x2="1192.4" y2="1424.63"/>
	<path class="st9" d="M955,1235.39c0.41-8.49,11.85-11.48,21.1-13.76c17.67-4.34,51.15-2.49,70.46-1.57"/>
	<path class="st10" d="M1140.24,1335.95c3.22,1.85,3.24,7.88,0.04,13.46c-3.2,5.59-8.41,8.62-11.64,6.77
		c-3.22-1.85-3.24-7.88-0.04-13.46C1131.81,1337.14,1137.02,1334.1,1140.24,1335.95L1140.24,1335.95z"/>
	<path class="st10" d="M1149.06,1335.95c-3.22,1.85-3.24,7.88-0.04,13.46c3.2,5.59,8.41,8.62,11.64,6.77
		c3.22-1.85,3.24-7.88,0.04-13.46C1157.5,1337.14,1152.29,1334.1,1149.06,1335.95L1149.06,1335.95z"/>
	<path class="st11" d="M1016.05,1275.8c9.63,0,17.44,7.81,17.44,17.44c0,9.63-7.81,17.44-17.44,17.44
		c-9.63,0-17.44-7.81-17.44-17.44C998.6,1283.61,1006.41,1275.8,1016.05,1275.8L1016.05,1275.8z"/>
	<path class="st4" d="M851.49,1915.83c-18.23,5.64-28.44,25-22.8,43.23c5.64,18.23,25,28.44,43.23,22.8
		c18.24-5.64,28.44-25,22.8-43.23C889.08,1920.39,869.72,1910.19,851.49,1915.83L851.49,1915.83z"/>
	<path class="st4" d="M871.88,1973.72c-4.24,0.2-7.34,7.43-6.93,16.15c0.41,8.72,4.18,15.63,8.41,15.43
		c4.24-0.2,7.34-7.43,6.93-16.15C879.88,1980.43,876.12,1973.52,871.88,1973.72L871.88,1973.72z"/>
	<path class="st10" d="M873.08,1996.88c-2.12,0.1-3.76,1.76-3.67,3.71c0.09,1.95,1.88,3.45,4,3.35c2.12-0.1,3.76-1.76,3.67-3.71
		C876.99,1998.28,875.2,1996.78,873.08,1996.88L873.08,1996.88z"/>
	<path class="st4" d="M858.71,1972.52c-4.13-0.95-9.07,5.18-11.02,13.69c-1.95,8.51-0.19,16.18,3.95,17.13
		c4.13,0.95,9.07-5.18,11.02-13.69C864.61,1981.14,862.85,1973.47,858.71,1972.52L858.71,1972.52z"/>
	<path class="st10" d="M853.63,1995.15c-2.07-0.47-4.1,0.68-4.53,2.59c-0.44,1.9,0.88,3.83,2.95,4.31c2.07,0.47,4.1-0.68,4.53-2.59
		C857.02,1997.56,855.7,1995.63,853.63,1995.15L853.63,1995.15z"/>
	<path class="st4" d="M844.51,1966.37c-3.86-1.75-9.91,3.29-13.51,11.24c-3.6,7.96-3.38,15.82,0.48,17.57
		c3.86,1.75,9.91-3.29,13.51-11.24C848.59,1975.98,848.38,1968.12,844.51,1966.37L844.51,1966.37z"/>
	<path class="st10" d="M835.06,1987.55c-1.93-0.87-4.15-0.14-4.96,1.64c-0.8,1.78,0.11,3.93,2.04,4.8c1.93,0.87,4.15,0.14,4.96-1.64
		C837.9,1990.58,836.99,1988.42,835.06,1987.55L835.06,1987.55z"/>
	<path class="st4" d="M834.18,1956.32c-2.77-2.62-9.37-0.12-14.75,5.57c-5.38,5.69-7.5,12.43-4.74,15.04
		c2.77,2.61,9.37,0.12,14.75-5.57C834.82,1965.67,836.95,1958.94,834.18,1956.32L834.18,1956.32z"/>
	<path class="st4" d="M888.25,1937.09c-4.2,2.23-3.89,11.05,0.71,19.7s11.72,13.85,15.92,11.62c4.2-2.23,3.89-11.05-0.71-19.7
		C899.57,1940.06,892.45,1934.86,888.25,1937.09L888.25,1937.09z"/>
	<path class="st10" d="M819.95,1971.51c-1.38-1.31-3.48-1.33-4.68-0.06s-1.06,3.37,0.32,4.67c1.38,1.31,3.48,1.33,4.68,0.06
		C821.48,1974.91,821.34,1972.82,819.95,1971.51L819.95,1971.51z"/>
	<path class="st10" d="M900.55,1960.01c-2.1,1.11-2.97,3.59-1.94,5.52c1.03,1.94,3.56,2.6,5.66,1.49c2.1-1.11,2.97-3.59,1.94-5.52
		C905.19,1959.56,902.65,1958.89,900.55,1960.01L900.55,1960.01z"/>
	<path class="st4" d="M851.79,1274.66c21.61,0,39.14,17.52,39.14,39.14c0,21.61-17.52,39.14-39.14,39.14
		c-21.61,0-39.14-17.52-39.14-39.14C812.65,1292.18,830.17,1274.66,851.79,1274.66L851.79,1274.66z"/>
	<path class="st4" d="M1439.93,1274.66c21.61,0,39.14,17.52,39.14,39.14c0,21.61-17.52,39.14-39.14,39.14
		c-21.61,0-39.14-17.52-39.14-39.14C1400.8,1292.18,1418.32,1274.66,1439.93,1274.66L1439.93,1274.66z"/>
	<path class="st11" d="M1029.37,1312.22c-2.4,0-4.34-1.95-4.34-4.34s1.94-4.34,4.34-4.34c2.4,0,4.34,1.95,4.34,4.34
		S1031.77,1312.22,1029.37,1312.22L1029.37,1312.22z"/>
	<line class="st12" x1="988.34" y1="1252.62" x2="1002.94" y2="1264.89"/>
	<path class="st13" d="M1006.75,1242.22c2.43,4.09,4.87,8.18,7.3,12.27"/>
	<path class="st13" d="M1025.17,1238.28c0,4.09,0,8.18,0,12.27"/>
	<path class="st13" d="M1043.59,1242.05c-2.43,4.09-4.87,8.18-7.3,12.27"/>
	<line class="st12" x1="1062.01" y1="1252.29" x2="1047.41" y2="1264.56"/>
	<path class="st7" d="M1263.61,1261.5c19.26,0,34.88,15.62,34.88,34.88s-15.62,34.88-34.88,34.88s-34.88-15.62-34.88-34.88
		S1244.35,1261.5,1263.61,1261.5L1263.61,1261.5z"/>
	<path class="st11" d="M1253.46,1275.8c9.63,0,17.44,7.81,17.44,17.44c0,9.63-7.81,17.44-17.44,17.44s-17.44-7.81-17.44-17.44
		C1236.01,1283.61,1243.82,1275.8,1253.46,1275.8L1253.46,1275.8z"/>
	<path class="st11" d="M1266.78,1312.22c-2.4,0-4.34-1.95-4.34-4.34s1.94-4.34,4.34-4.34c2.4,0,4.34,1.95,4.34,4.34
		S1269.18,1312.22,1266.78,1312.22L1266.78,1312.22z"/>
	<line class="st12" x1="1301.48" y1="1252.62" x2="1286.88" y2="1264.89"/>
	<path class="st13" d="M1283.07,1242.22c-2.43,4.09-4.87,8.18-7.3,12.27"/>
	<path class="st13" d="M1264.65,1238.28c0,4.09,0,8.18,0,12.27"/>
	<path class="st13" d="M1246.23,1242.05c2.43,4.09,4.87,8.18,7.3,12.27"/>
	<line class="st12" x1="1227.81" y1="1252.29" x2="1242.41" y2="1264.56"/>
	<polyline class="st14" points="1177.76,1414.59 1155.01,1406.42 1143.84,1413.45 	"/>
	<line class="st15" x1="1171.08" y1="2155.13" x2="1272.87" y2="2097.64"/>
	<line class="st15" x1="1259.79" y1="2155.13" x2="1174.19" y2="2097.64"/>
	<polygon class="st3" points="1007.1,1949.6 1110.24,1947.89 1119.31,2118.98 1037,2120.34 1007.1,1949.6 	"/>
	<polygon class="st3" points="1052.3,2273.48 1130.01,2272.36 1119.31,2118.98 1037,2120.34 1052.3,2273.48 	"/>
	<polygon class="st6" points="946.62,2298.34 942.83,2308.86 1149.06,2305.34 1147.78,2294.22 1130.29,2268.4 1064.27,2268.96 
		946.62,2298.34 	"/>
	<line class="st15" x1="1127.04" y1="2155.13" x2="1025.26" y2="2097.64"/>
	<line class="st15" x1="1038.33" y1="2155.13" x2="1123.93" y2="2097.64"/>
	<polygon class="st16" points="963.86,1846.23 842.74,2347.75 1461.01,2347.75 1320.52,1846.23 963.86,1846.23 	"/>
	<polygon class="st3" points="1315.27,1557.34 1263.43,1593.62 1347.05,1783.3 1397.01,1734.42 1315.27,1557.34 	"/>
	<polygon class="st5" points="1500.58,2302.91 1527.23,1950.05 1409.6,1906.79 1362.97,1946.96 1500.58,2302.91 	"/>
	<polygon class="st4" points="1404.06,1939.2 1439.13,1950.31 1394.83,1732.42 1332.84,1747.12 1404.06,1939.2 	"/>
	<path class="st4" d="M1432.37,1917.04c18.04,6.24,27.6,25.92,21.36,43.96c-6.24,18.04-25.92,27.6-43.96,21.36
		s-27.6-25.92-21.36-43.96C1394.65,1920.37,1414.33,1910.8,1432.37,1917.04L1432.37,1917.04z"/>
	<path class="st4" d="M1410.08,1974.23c4.23,0.34,7.09,7.67,6.39,16.37c-0.7,8.7-4.69,15.48-8.92,15.15
		c-4.23-0.34-7.09-7.67-6.39-16.37C1401.86,1980.67,1405.85,1973.89,1410.08,1974.23L1410.08,1974.23z"/>
	<path class="st10" d="M1408.11,1997.34c2.11,0.17,3.7,1.89,3.54,3.83c-0.16,1.95-2,3.39-4.11,3.22c-2.11-0.17-3.7-1.88-3.54-3.83
		C1404.16,1998.61,1406,1997.17,1408.11,1997.34L1408.11,1997.34z"/>
	<path class="st4" d="M1423.28,1973.47c4.16-0.81,8.89,5.48,10.56,14.05s-0.35,16.18-4.51,16.99c-4.16,0.81-8.89-5.48-10.56-14.05
		C1417.09,1981.89,1419.11,1974.28,1423.28,1973.47L1423.28,1973.47z"/>
	<path class="st10" d="M1427.61,1996.26c2.08-0.41,4.07,0.82,4.45,2.74c0.37,1.92-1.01,3.8-3.09,4.21
		c-2.08,0.41-4.07-0.82-4.45-2.74C1424.14,1998.55,1425.53,1996.66,1427.61,1996.26L1427.61,1996.26z"/>
	<path class="st4" d="M1437.67,1967.79c3.92-1.62,9.8,3.61,13.13,11.68c3.33,8.07,2.86,15.92-1.06,17.54
		c-3.92,1.62-9.8-3.61-13.13-11.68S1433.75,1969.41,1437.67,1967.79L1437.67,1967.79z"/>
	<path class="st10" d="M1446.42,1989.27c1.96-0.81,4.15,0,4.9,1.8c0.75,1.81-0.24,3.93-2.2,4.74c-1.96,0.81-4.15,0-4.9-1.8
		S1444.46,1990.08,1446.42,1989.27L1446.42,1989.27z"/>
	<path class="st4" d="M1448.33,1958.09c2.85-2.52,9.37,0.19,14.56,6.06c5.19,5.87,7.09,12.67,4.24,15.19
		c-2.85,2.52-9.37-0.19-14.56-6.06C1447.38,1967.41,1445.48,1960.61,1448.33,1958.09L1448.33,1958.09z"/>
	<path class="st4" d="M1394.93,1937.08c4.13,2.37,3.52,11.17-1.36,19.67c-4.87,8.49-12.17,13.46-16.3,11.09
		c-4.13-2.37-3.52-11.17,1.36-19.67C1383.51,1939.68,1390.81,1934.71,1394.93,1937.08L1394.93,1937.08z"/>
	<path class="st10" d="M1462.05,1973.74c1.42-1.26,3.52-1.22,4.68,0.09s0.95,3.4-0.48,4.66c-1.42,1.26-3.52,1.22-4.68-0.09
		C1460.41,1977.09,1460.62,1975,1462.05,1973.74L1462.05,1973.74z"/>
	<path class="st10" d="M1381.87,1959.58c2.06,1.18,2.85,3.68,1.76,5.58s-3.65,2.48-5.71,1.3c-2.06-1.18-2.85-3.68-1.76-5.58
		C1377.25,1958.98,1379.81,1958.4,1381.87,1959.58L1381.87,1959.58z"/>
	<polyline class="st14" points="1109.91,1414.59 1132.66,1406.42 1143.84,1413.45 	"/>
	<polyline class="st8" points="1120.31,1439.49 1142.81,1441.77 1162.5,1439.72 	"/>
	<path class="st17" d="M1102.3,1537.97l-9.67,8.07l-9.67,8.07v16.14v16.14l9.67,8.07l9.67,8.07l9.67-8.07l9.67-8.07v-16.14v-16.14
		l-9.67-8.07L1102.3,1537.97L1102.3,1537.97z M1102.3,1545.73l-7.35,6.13l-7.35,6.13v12.26v12.26l7.35,6.13l7.35,6.13l7.35-6.13
		l7.35-6.13v-12.26V1558l-7.35-6.13L1102.3,1545.73L1102.3,1545.73z"/>
	<path class="st17" d="M1063.61,1521.83l9.67,8.07l9.67,8.07v16.14v16.14l-9.67,8.07l-9.67,8.07l-9.67-8.07l-9.67-8.07v-16.14
		v-16.14l9.67-8.07L1063.61,1521.83L1063.61,1521.83z M1063.61,1529.59l7.35,6.13l7.35,6.13v12.26v12.26l-7.35,6.13l-7.35,6.13
		l-7.35-6.13l-7.35-6.13v-12.26v-12.26l7.35-6.13L1063.61,1529.59L1063.61,1529.59z"/>
	<path class="st17" d="M1024.92,1505.69l-9.67,8.07l-9.67,8.07v16.14v16.14l9.67,8.07l9.67,8.07l9.67-8.07l9.67-8.07v-16.14v-16.14
		l-9.67-8.07L1024.92,1505.69L1024.92,1505.69z M1024.92,1513.45l-7.35,6.13l-7.35,6.13v12.26v12.26l7.35,6.13l7.35,6.13l7.35-6.13
		l7.35-6.13v-12.26v-12.26l-7.35-6.13L1024.92,1513.45L1024.92,1513.45z"/>
	<path class="st17" d="M1184.34,1537.97l9.67,8.07l9.67,8.07v16.14v16.14l-9.67,8.07l-9.67,8.07l-9.67-8.07l-9.67-8.07v-16.14
		v-16.14l9.67-8.07L1184.34,1537.97L1184.34,1537.97z M1184.34,1545.73l7.35,6.13l7.35,6.13v12.26v12.26l-7.35,6.13l-7.35,6.13
		l-7.35-6.13l-7.35-6.13v-12.26V1558l7.35-6.13L1184.34,1545.73L1184.34,1545.73z"/>
	<path class="st17" d="M1223.04,1521.83l-9.67,8.07l-9.67,8.07v16.14v16.14l9.67,8.07l9.67,8.07l9.67-8.07l9.67-8.07v-16.14v-16.14
		l-9.67-8.07L1223.04,1521.83L1223.04,1521.83z M1223.04,1529.59l-7.35,6.13l-7.35,6.13v12.26v12.26l7.35,6.13l7.35,6.13l7.35-6.13
		l7.35-6.13v-12.26v-12.26l-7.35-6.13L1223.04,1529.59L1223.04,1529.59z"/>
	<path class="st17" d="M1261.73,1505.69l9.67,8.07l9.67,8.07v16.14v16.14l-9.67,8.07l-9.67,8.07l-9.67-8.07l-9.67-8.07v-16.14
		v-16.14l9.67-8.07L1261.73,1505.69L1261.73,1505.69z M1261.73,1513.45l7.35,6.13l7.35,6.13v12.26v12.26l-7.35,6.13l-7.35,6.13
		l-7.35-6.13l-7.35-6.13v-12.26v-12.26l7.35-6.13L1261.73,1513.45L1261.73,1513.45z"/>
	<polygon class="st18" points="1143.32,1542.56 1155.55,1552.48 1167.78,1562.41 1167.78,1582.25 1167.78,1602.1 1155.55,1612.03 
		1143.32,1621.95 1131.1,1612.03 1118.87,1602.1 1118.87,1582.25 1118.87,1562.41 1131.1,1552.48 1143.32,1542.56 	"/>
	<polygon class="st7" points="1142.66,1555.87 1150.57,1562.46 1158.48,1569.06 1158.48,1582.25 1158.48,1595.45 1150.57,1602.05 
		1142.66,1608.64 1134.75,1602.05 1126.85,1595.45 1126.85,1582.25 1126.85,1569.06 1134.75,1562.46 1142.66,1555.87 	"/>
	<polyline class="st19" points="1142.66,1555.87 1126.85,1569.06 1126.85,1595.45 	"/>
	<polyline class="st20" points="1158.48,1569.06 1158.48,1595.45 1142.66,1608.64 	"/>
	<path class="st9" d="M1321.15,1235.39c-0.41-8.49-11.84-11.48-21.1-13.76c-17.67-4.34-51.15-2.49-70.46-1.57"/>
	<path class="st1" d="M1316.92,832.8c-114.56-40.43-204.11,4.98-200.02,101.43s100.28,207.41,214.84,247.84
		c114.56,40.43,204.11-4.98,200.02-101.42C1527.67,984.19,1431.49,873.23,1316.92,832.8L1316.92,832.8z"/>
	<path class="st5" d="M1014.14,1506.5c43.75,97.41,10.69,137.53,149.24,266.14l151.19,73.58H963.86l-9.65-313.02
		C974.19,1524.31,994.17,1515.41,1014.14,1506.5L1014.14,1506.5z"/>
	<path class="st16" d="M1270.23,1506.5c-58.62,91.23-24.81,193.52-153.98,260.41l-146.45,79.31h350.72l9.65-313.02L1270.23,1506.5
		L1270.23,1506.5z"/>
	<polygon class="st16" points="1341.73,1783.64 1362.97,1946.96 1409.6,1906.79 1527.23,1950.05 1397.01,1734.42 1330.17,1533.21 
		1324.06,1731.16 1341.73,1783.64 	"/>
	<polygon class="st16" points="927.28,1776.58 923.79,1934.76 869.99,1904.12 746.58,1941.92 875.28,1735.46 954.21,1533.21 
		959.57,1707.22 927.28,1776.58 	"/>
	<polygon class="st5" points="887.14,2347.75 1007.79,2347.75 1046.33,1846.23 887.14,2347.75 	"/>
	<polygon class="st5" points="1411.91,2347.75 1308.06,2347.75 1252.73,1846.23 1411.91,2347.75 	"/>
	<polygon class="st5" points="1231.91,2347.75 1136.46,2347.75 1157.93,1806.63 1231.91,2347.75 	"/>
	<path class="st7" d="M1103.91,882.59c13.79,15.45,21.2,36.6,20.11,62.39c-3.23,75.98-79,163.39-169.24,195.24
		c-76.8,27.1-139.32,5.23-154.26-48.71c26.84,30.07,77.84,38.55,137.46,17.51c90.25-31.85,166.02-119.26,169.24-195.24
		C1107.7,902.46,1106.53,892.04,1103.91,882.59L1103.91,882.59z"/>
	<path class="st2" d="M1165.34,882.59c-13.79,15.45-21.2,36.6-20.11,62.39c3.23,75.98,79,163.39,169.24,195.24
		c76.8,27.1,139.31,5.23,154.26-48.71c-26.83,30.07-77.84,38.55-137.46,17.51c-90.25-31.85-166.02-119.26-169.24-195.24
		C1161.55,902.46,1162.72,892.04,1165.34,882.59L1165.34,882.59z"/>
	<polygon class="st2" points="1136.46,2347.75 1114.88,2347.75 1157.93,1806.63 1136.46,2347.75 	"/>
	<polygon class="st2" points="940.86,2347.75 887.14,2347.75 1043.46,1855.25 940.86,2347.75 	"/>
	<polygon class="st2" points="1308.06,2347.75 1286.73,2347.75 1252.73,1846.23 1308.06,2347.75 	"/>
	<polyline class="st19" points="1143.32,1542.56 1118.41,1562.96 1118.87,1602.1 	"/>
	<polyline class="st20" points="1167.78,1562.41 1167.78,1602.1 1143.32,1621.95 	"/>
</g>
</svg>
