<?xml version="1.0" encoding="utf-8"?>
<!-- Generator: Adobe Illustrator 24.1.3, SVG Export Plug-In . SVG Version: 6.00 Build 0)  -->
<svg version="1.1" id="_x2018_ëîé_x5F_1" xmlns="http://www.w3.org/2000/svg" xmlns:xlink="http://www.w3.org/1999/xlink"
	 x="0px" y="0px" viewBox="0 0 2291.04 2808.42" style="enable-background:new 0 0 2291.04 2808.42;" xml:space="preserve">
<style type="text/css">
	.st0{fill-rule:evenodd;clip-rule:evenodd;fill:#B4D6EF;}
	.st1{fill-rule:evenodd;clip-rule:evenodd;fill:#401F02;}
	.st2{fill-rule:evenodd;clip-rule:evenodd;fill:#FFFFFF;stroke:#E6E6E6;stroke-width:4.252;stroke-miterlimit:22.9256;}
	.st3{fill-rule:evenodd;clip-rule:evenodd;fill:#401F02;stroke:#401F02;stroke-width:4.252;stroke-miterlimit:22.9256;}
	.st4{fill-rule:evenodd;clip-rule:evenodd;fill:#8D9EB0;}
	.st5{fill-rule:evenodd;clip-rule:evenodd;fill:#424852;}
	.st6{fill-rule:evenodd;clip-rule:evenodd;fill:#C9AC82;}
	.st7{fill-rule:evenodd;clip-rule:evenodd;fill:#3B4A54;}
	.st8{fill:none;stroke:#963A43;stroke-width:7.9401;stroke-linecap:round;stroke-linejoin:round;stroke-miterlimit:22.9256;}
	.st9{fill:none;stroke:#873423;stroke-width:17.1867;stroke-linecap:round;stroke-linejoin:round;stroke-miterlimit:22.9256;}
	.st10{fill-rule:evenodd;clip-rule:evenodd;fill:#EDB68B;}
	.st11{fill-rule:evenodd;clip-rule:evenodd;fill:#FFFFFF;}
	.st12{fill:none;stroke:#000000;stroke-width:4.5257;stroke-linecap:round;stroke-linejoin:round;stroke-miterlimit:22.9256;}
	.st13{fill:none;stroke:#000000;stroke-width:4.6357;stroke-linecap:round;stroke-linejoin:round;stroke-miterlimit:22.9256;}
	.st14{fill:none;stroke:#963A43;stroke-width:7.8597;stroke-linecap:round;stroke-linejoin:round;stroke-miterlimit:22.9256;}
	.st15{fill-rule:evenodd;clip-rule:evenodd;fill:#2C3D61;}
	.st16{fill-rule:evenodd;clip-rule:evenodd;fill:#FF8CA4;}
	.st17{fill-rule:evenodd;clip-rule:evenodd;fill:#393F4A;}
	.st18{fill-rule:evenodd;clip-rule:evenodd;}
	.st19{fill-rule:evenodd;clip-rule:evenodd;fill:#E6E6E6;stroke:#999999;stroke-width:4.252;stroke-miterlimit:22.9256;}
	.st20{fill:#401F02;}
	.st21{font-family:'MyriadPro-Regular';}
	.st22{font-size:12px;}
	.st23{stroke:#401F02;stroke-miterlimit:22.9256;}
</style>
<g>
	<polygon class="st0" points="-10.88,2789.12 2280.16,2789.12 2280.16,-19.3 -10.88,-19.3 -10.88,2789.12 	"/>
	<path class="st1" d="M984.17,746.37c172.65-69.32,321.31-53.04,332.04,36.37c10.73,89.41-120.54,218.08-293.19,287.4
		c-24.26,9.74-48.04,17.79-71.03,24.18c2.66,11.11,4.07,22.69,4.07,34.61c0,47.54-22.37,89.85-57.16,116.98
		c16.16,23.75,25.61,52.43,25.61,83.31c0,43.49-18.72,82.61-48.55,109.73c3.87,12.16,5.97,25.11,5.97,38.55
		c0,12.39-1.78,24.37-5.09,35.7c19.54,24.98,31.19,56.43,31.19,90.61c0,52.68-27.68,98.89-69.29,124.9
		c0.5,4.48,0.77,9.03,0.77,13.64c0,40.03-19.34,75.54-49.19,97.7c18.51,7.36,33.98,20.71,44.04,37.66
		c15.93-14.5,37.1-23.35,60.34-23.35c49.51,0,89.65,40.14,89.65,89.65c0,49.51-40.14,89.65-89.65,89.65
		c-32.83,0-61.54-17.65-77.15-43.98c-15.93,14.5-37.1,23.35-60.34,23.35c-49.51,0-89.65-40.14-89.65-89.65c0-2.8,0.13-5.57,0.38-8.3
		c-40.56-2.11-72.8-35.66-72.8-76.75c0-15.99,4.88-30.83,13.24-43.13c-7.73-15.98-12.06-33.91-12.06-52.85
		c0-30.42,11.17-58.23,29.63-79.56c-7.91-18.06-12.31-38.01-12.31-58.99c0-29.26,8.54-56.52,23.25-79.44
		c-5.76-14.5-8.93-30.31-8.93-46.87c0-26.31,8-50.75,21.7-71.02c-13.76-22.5-21.7-48.96-21.7-77.26c0-31.78,10-61.22,27.02-85.35
		c-3.7-9-5.74-18.85-5.74-29.19c0-17.42,5.8-33.49,15.57-46.38c-3.45-12.54-5.3-25.74-5.3-39.38c0-34.74,11.95-66.68,31.96-91.96
		c-0.17-1.06-0.34-2.13-0.47-3.21C680.25,944.37,811.51,815.69,984.17,746.37L984.17,746.37z M1623.13,1915.1
		c40.57-2.11,72.8-35.66,72.8-76.75c0-15.99-4.88-30.83-13.24-43.13c7.73-15.98,12.06-33.91,12.06-52.85
		c0-30.42-11.17-58.23-29.63-79.56c7.91-18.06,12.31-38.01,12.31-58.99c0-29.26-8.54-56.52-23.25-79.44
		c5.76-14.5,8.93-30.31,8.93-46.87c0-26.31-8-50.75-21.7-71.02c13.76-22.5,21.7-48.95,21.7-77.26c0-31.78-10-61.22-27.02-85.35
		c3.7-9,5.74-18.85,5.74-29.19c0-17.42-5.8-33.49-15.57-46.38c3.45-12.54,5.3-25.74,5.3-39.38c0-81.89-66.39-148.28-148.28-148.28
		c-81.89,0-148.29,66.39-148.29,148.28c0,47.54,22.38,89.85,57.16,116.98c-16.16,23.75-25.61,52.43-25.61,83.32
		c0,43.49,18.72,82.61,48.55,109.73c-3.87,12.16-5.97,25.11-5.97,38.55c0,12.39,1.78,24.37,5.1,35.7
		c-19.54,24.98-31.19,56.43-31.19,90.61c0,52.68,27.68,98.89,69.29,124.9c-0.5,4.48-0.77,9.03-0.77,13.64
		c0,40.03,19.35,75.54,49.19,97.7c-18.51,7.36-33.98,20.71-44.04,37.66c-15.93-14.5-37.1-23.35-60.34-23.35
		c-49.52,0-89.65,40.14-89.65,89.65c0,49.51,40.14,89.65,89.65,89.65c32.83,0,61.53-17.65,77.15-43.98
		c15.93,14.5,37.1,23.35,60.34,23.35c49.51,0,89.65-40.14,89.65-89.65C1623.51,1920.6,1623.38,1917.83,1623.13,1915.1
		L1623.13,1915.1z"/>
	<path class="st1" d="M1137.37,699.95c262.52,0,475.34,243.33,475.34,543.5c0,102.18,72.86,518.5,29.97,600.15
		c-90.37,172.06-341.79,189.84-496.79,192.9c-159.08,3.14-415.49-12.93-509.62-187.52c-44.65-82.82,25.77-501.11,25.77-605.54
		C662.04,943.28,874.85,699.95,1137.37,699.95L1137.37,699.95z"/>
	<path class="st2" d="M1440.67,1292.99c5.04,0.8,12.65,30.27,1.35,55.59c-11.3,25.32-37.63,38.19-42.28,36.11
		c-4.66-2.08-12.66-30.27-1.35-55.59S1435.63,1292.18,1440.67,1292.99L1440.67,1292.99z"/>
	<path class="st3" d="M1440.67,1367.49c5.04,0.8,12.65,30.27,1.35,55.59c-11.3,25.32-37.63,38.19-42.28,36.11
		c-4.66-2.08-12.66-30.27-1.35-55.59S1435.63,1366.69,1440.67,1367.49L1440.67,1367.49z"/>
	<path class="st3" d="M1440.67,1441.5c5.04,0.8,12.65,30.27,1.35,55.59c-11.3,25.32-37.63,38.19-42.28,36.12
		c-4.66-2.08-12.66-30.27-1.35-55.59C1409.69,1452.29,1435.63,1440.69,1440.67,1441.5L1440.67,1441.5z"/>
	<path class="st3" d="M1440.67,1514.59c5.04,0.8,12.65,30.27,1.35,55.59c-11.3,25.32-37.63,38.19-42.28,36.11
		c-4.66-2.08-12.66-30.27-1.35-55.59S1435.63,1513.78,1440.67,1514.59L1440.67,1514.59z"/>
	<path class="st3" d="M1440.67,1587.94c5.04,0.8,12.65,30.27,1.35,55.59c-11.3,25.32-37.63,38.19-42.28,36.11
		c-4.66-2.08-12.66-30.27-1.35-55.59C1409.69,1598.73,1435.63,1587.13,1440.67,1587.94L1440.67,1587.94z"/>
	<path class="st3" d="M1440.67,1661.64c5.04,0.8,12.65,30.27,1.35,55.59c-11.3,25.32-37.63,38.19-42.28,36.11
		c-4.66-2.08-12.66-30.27-1.35-55.59C1409.69,1672.43,1435.63,1660.83,1440.67,1661.64L1440.67,1661.64z"/>
	<path class="st3" d="M1505.42,1143.73c-5.04,0.8-12.65,30.27-1.35,55.59s37.63,38.19,42.28,36.11c4.65-2.08,12.65-30.27,1.35-55.59
		C1536.4,1154.52,1510.46,1142.92,1505.42,1143.73L1505.42,1143.73z"/>
	<path class="st3" d="M1505.42,1218.24c-5.04,0.8-12.65,30.27-1.35,55.59s37.63,38.19,42.28,36.11c4.65-2.08,12.65-30.27,1.35-55.59
		C1536.4,1229.03,1510.46,1217.43,1505.42,1218.24L1505.42,1218.24z"/>
	<path class="st3" d="M1505.42,1292.24c-5.04,0.8-12.65,30.27-1.35,55.59c11.3,25.32,37.63,38.19,42.28,36.11
		c4.65-2.08,12.65-30.27,1.35-55.59C1536.4,1303.03,1510.46,1291.43,1505.42,1292.24L1505.42,1292.24z"/>
	<path class="st3" d="M1505.42,1365.33c-5.04,0.8-12.65,30.27-1.35,55.59c11.3,25.32,37.63,38.19,42.28,36.11
		c4.65-2.08,12.65-30.27,1.35-55.59C1536.4,1376.12,1510.46,1364.52,1505.42,1365.33L1505.42,1365.33z"/>
	<path class="st3" d="M1505.42,1438.68c-5.04,0.8-12.65,30.27-1.35,55.59s37.63,38.19,42.28,36.11c4.65-2.08,12.65-30.27,1.35-55.59
		C1536.4,1449.47,1510.46,1437.88,1505.42,1438.68L1505.42,1438.68z"/>
	<path class="st3" d="M1505.42,1512.38c-5.04,0.8-12.65,30.27-1.35,55.59c11.3,25.32,37.63,38.19,42.28,36.11
		c4.65-2.08,12.65-30.27,1.35-55.59C1536.4,1523.17,1510.46,1511.57,1505.42,1512.38L1505.42,1512.38z"/>
	<path class="st3" d="M814.46,1268.68c5.04,0.8,12.66,30.27,1.35,55.59s-37.63,38.19-42.28,36.11c-4.66-2.08-12.65-30.27-1.35-55.59
		C783.49,1279.47,809.42,1267.88,814.46,1268.68L814.46,1268.68z"/>
	<path class="st3" d="M814.46,1343.19c5.04,0.8,12.66,30.27,1.35,55.59c-11.3,25.32-37.63,38.19-42.28,36.11
		c-4.66-2.08-12.65-30.27-1.35-55.59C783.49,1353.98,809.42,1342.39,814.46,1343.19L814.46,1343.19z"/>
	<path class="st3" d="M814.46,1417.19c5.04,0.8,12.66,30.27,1.35,55.59s-37.63,38.19-42.28,36.11c-4.66-2.08-12.65-30.27-1.35-55.59
		C783.49,1427.99,809.42,1416.39,814.46,1417.19L814.46,1417.19z"/>
	<path class="st3" d="M814.46,1490.28c5.04,0.8,12.66,30.27,1.35,55.59c-11.3,25.32-37.63,38.19-42.28,36.11
		c-4.66-2.08-12.65-30.27-1.35-55.59C783.49,1501.07,809.42,1489.48,814.46,1490.28L814.46,1490.28z"/>
	<path class="st3" d="M814.46,1563.63c5.04,0.8,12.66,30.27,1.35,55.59c-11.3,25.32-37.63,38.19-42.28,36.11
		c-4.66-2.08-12.65-30.27-1.35-55.59C783.49,1574.43,809.42,1562.83,814.46,1563.63L814.46,1563.63z"/>
	<path class="st3" d="M814.46,1637.33c5.04,0.8,12.66,30.27,1.35,55.59c-11.3,25.32-37.63,38.19-42.28,36.11
		c-4.66-2.08-12.65-30.27-1.35-55.59C783.49,1648.12,809.42,1636.53,814.46,1637.33L814.46,1637.33z"/>
	<polygon class="st4" points="623.65,2444.16 1635.48,2444.16 1399.74,1533.2 1352.1,1500.88 1302.27,1513.96 974.85,1513.96 
		921.71,1502.53 882.48,1530.45 623.65,2444.16 	"/>
	<polygon class="st5" points="916.49,1554.48 978.35,1597.78 878.57,1824.11 818.96,1765.78 916.49,1554.48 	"/>
	<path class="st6" d="M1140.09,1391.24c112.61,0,203.88,159.46,203.88,356.17c0,50.46-6.02,98.46-16.86,141.96H953.07
		c-10.84-43.5-16.85-91.5-16.85-141.96C936.21,1550.7,1027.49,1391.24,1140.09,1391.24L1140.09,1391.24z"/>
	<polygon class="st7" points="1316.17,2022.56 1193.09,2020.52 1161.75,2330.08 1254.6,2320.67 1316.17,2022.56 	"/>
	<polygon class="st6" points="832.93,2010.14 792.29,2023.41 821.05,1767.83 897.12,1780.94 832.93,2010.14 	"/>
	<path class="st6" d="M1140.09,766.91c206.04,0,373.07,167.03,373.07,373.07c0,206.04-167.03,373.07-373.07,373.07
		c-206.04,0-373.07-167.03-373.07-373.07C767.02,933.94,934.05,766.91,1140.09,766.91L1140.09,766.91z"/>
	<path class="st1" d="M996.43,728.57c143.76-46.63,254.41,3.8,247.16,112.66c-7.26,108.85-129.68,234.9-273.44,281.53
		c-143.76,46.63-254.41-3.8-247.16-112.66C730.25,901.25,852.68,775.2,996.43,728.57L996.43,728.57z"/>
	<path class="st1" d="M1000.16,1201.46c22.99,0,41.62,18.64,41.62,41.62c0,22.99-18.63,41.62-41.62,41.62
		c-22.99,0-41.62-18.63-41.62-41.62C958.54,1220.1,977.17,1201.46,1000.16,1201.46L1000.16,1201.46z"/>
	<polyline class="st8" points="1071.51,1393.61 1139.3,1400.48 1205.27,1393.61 	"/>
	<path class="st9" d="M924.5,1157.42c30.59-12.82,63.4-18.53,98.51-16.86"/>
	<path class="st10" d="M1136.24,1290.3c3.85,2.21,3.87,9.4,0.04,16.07s-10.04,10.29-13.89,8.08c-3.85-2.21-3.87-9.4-0.04-16.07
		S1132.39,1288.1,1136.24,1290.3L1136.24,1290.3z"/>
	<path class="st10" d="M1146.76,1290.3c-3.85,2.21-3.87,9.4-0.04,16.07s10.04,10.29,13.89,8.08c3.85-2.21,3.87-9.4,0.04-16.07
		S1150.61,1288.1,1146.76,1290.3L1146.76,1290.3z"/>
	<path class="st11" d="M988.04,1218.53c11.49,0,20.81,9.32,20.81,20.81c0,11.49-9.32,20.81-20.81,20.81
		c-11.5,0-20.81-9.32-20.81-20.81C967.23,1227.84,976.54,1218.53,988.04,1218.53L988.04,1218.53z"/>
	<path class="st6" d="M798.96,1977.3c-22.02,5.84-35.12,28.43-29.28,50.44c5.84,22.02,28.43,35.12,50.44,29.28
		c22.02-5.84,35.13-28.43,29.28-50.44C843.56,1984.57,820.98,1971.46,798.96,1977.3L798.96,1977.3z"/>
	<path class="st6" d="M820.47,2047.32c-5.06,0.03-9.11,8.5-9.04,18.92c0.06,10.42,4.22,18.84,9.28,18.81
		c5.06-0.03,9.11-8.5,9.05-18.92C829.69,2055.7,825.54,2047.28,820.47,2047.32L820.47,2047.32z"/>
	<path class="st10" d="M820.78,2074.99c-2.53,0.02-4.57,1.92-4.55,4.25c0.02,2.33,2.08,4.21,4.61,4.19
		c2.53-0.02,4.57-1.92,4.55-4.25C825.38,2076.85,823.31,2074.98,820.78,2074.99L820.78,2074.99z"/>
	<path class="st6" d="M804.83,2045.25c-4.88-1.33-11.06,5.74-13.8,15.79c-2.74,10.05-1.01,19.28,3.87,20.61
		c4.89,1.33,11.07-5.74,13.81-15.79C811.45,2055.81,809.71,2046.58,804.83,2045.25L804.83,2045.25z"/>
	<path class="st10" d="M797.68,2071.99c-2.44-0.67-4.91,0.62-5.53,2.87c-0.61,2.25,0.87,4.61,3.31,5.28
		c2.44,0.67,4.92-0.62,5.53-2.87C801.6,2075.02,800.12,2072.65,797.68,2071.99L797.68,2071.99z"/>
	<path class="st6" d="M788.2,2037.23c-4.52-2.27-11.98,3.44-16.65,12.75c-4.68,9.31-4.8,18.7-0.28,20.97
		c4.53,2.27,11.98-3.44,16.65-12.75C792.6,2048.89,792.72,2039.5,788.2,2037.23L788.2,2037.23z"/>
	<path class="st10" d="M775.9,2062.02c-2.26-1.14-4.94-0.37-5.99,1.72c-1.05,2.08-0.06,4.69,2.2,5.83c2.26,1.14,4.94,0.37,5.99-1.72
		C779.14,2065.77,778.16,2063.16,775.9,2062.02L775.9,2062.02z"/>
	<path class="st6" d="M776.37,2024.75c-3.17-3.25-11.17-0.6-17.86,5.93c-6.69,6.53-9.55,14.45-6.38,17.71
		c3.17,3.25,11.17,0.6,17.86-5.93C776.68,2035.92,779.54,2028,776.37,2024.75L776.37,2024.75z"/>
	<path class="st6" d="M841.76,2004.44c-5.12,2.46-5.17,12.99-0.11,23.52c5.05,10.54,13.3,17.08,18.42,14.63
		c5.12-2.46,5.17-12.99,0.11-23.52C855.12,2008.53,846.88,2001.98,841.76,2004.44L841.76,2004.44z"/>
	<path class="st10" d="M758.67,2042.17c-1.58-1.63-4.09-1.76-5.58-0.3c-1.5,1.46-1.43,3.96,0.16,5.59s4.08,1.76,5.58,0.3
		C760.32,2046.3,760.25,2043.8,758.67,2042.17L758.67,2042.17z"/>
	<path class="st10" d="M855.32,2032.36c-2.56,1.23-3.72,4.13-2.59,6.49c1.13,2.36,4.12,3.27,6.68,2.04
		c2.56-1.23,3.72-4.13,2.59-6.49S857.88,2031.13,855.32,2032.36L855.32,2032.36z"/>
	<path class="st1" d="M1391.96,786.09c-108.38-51.32-196.24-12.01-196.24,87.8c0,99.81,87.86,222.33,196.24,273.65
		c108.38,51.32,196.24,12.01,196.24-87.8C1588.21,959.93,1500.35,837.41,1391.96,786.09L1391.96,786.09z"/>
	<path class="st6" d="M792.03,1217.17c25.79,0,46.7,20.91,46.7,46.7s-20.91,46.7-46.7,46.7c-25.79,0-46.7-20.91-46.7-46.7
		S766.24,1217.17,792.03,1217.17L792.03,1217.17z"/>
	<path class="st6" d="M1493.85,1217.17c25.8,0,46.7,20.91,46.7,46.7s-20.91,46.7-46.7,46.7c-25.79,0-46.7-20.91-46.7-46.7
		S1468.06,1217.17,1493.85,1217.17L1493.85,1217.17z"/>
	<path class="st11" d="M1003.94,1261.99c-2.86,0-5.18-2.32-5.18-5.18s2.32-5.18,5.18-5.18c2.86,0,5.18,2.32,5.18,5.18
		S1006.8,1261.99,1003.94,1261.99L1003.94,1261.99z"/>
	<line class="st12" x1="954.97" y1="1190.86" x2="972.4" y2="1205.5"/>
	<path class="st13" d="M976.95,1178.45c2.9,4.88,5.81,9.76,8.71,14.64"/>
	<path class="st13" d="M998.93,1173.75c0,4.88,0,9.76,0,14.64"/>
	<path class="st13" d="M1020.91,1178.25c-2.9,4.88-5.81,9.76-8.71,14.64"/>
	<line class="st12" x1="1042.89" y1="1190.48" x2="1025.46" y2="1205.12"/>
	<path class="st1" d="M1283.46,1201.46c22.99,0,41.62,18.64,41.62,41.62c0,22.99-18.63,41.62-41.62,41.62
		c-22.98,0-41.62-18.63-41.62-41.62C1241.84,1220.1,1260.47,1201.46,1283.46,1201.46L1283.46,1201.46z"/>
	<path class="st9" d="M1359.12,1157.41c-30.59-12.82-63.4-18.53-98.51-16.86"/>
	<path class="st11" d="M1271.33,1218.53c11.49,0,20.81,9.32,20.81,20.81c0,11.49-9.32,20.81-20.81,20.81s-20.81-9.32-20.81-20.81
		C1250.52,1227.84,1259.84,1218.53,1271.33,1218.53L1271.33,1218.53z"/>
	<path class="st11" d="M1287.23,1261.99c-2.86,0-5.18-2.32-5.18-5.18s2.32-5.18,5.18-5.18c2.87,0,5.19,2.32,5.19,5.18
		S1290.1,1261.99,1287.23,1261.99L1287.23,1261.99z"/>
	<line class="st12" x1="1328.65" y1="1190.86" x2="1311.22" y2="1205.5"/>
	<path class="st13" d="M1306.67,1178.45c-2.91,4.88-5.81,9.76-8.71,14.64"/>
	<path class="st13" d="M1284.69,1173.75c0,4.88,0,9.76,0,14.64"/>
	<path class="st13" d="M1262.71,1178.26c2.9,4.88,5.81,9.76,8.71,14.64"/>
	<line class="st12" x1="1240.73" y1="1190.48" x2="1258.16" y2="1205.12"/>
	<polyline class="st14" points="1181.01,1384.14 1153.87,1374.4 1140.53,1382.78 	"/>
	<path class="st3" d="M1271.56,935.58c-4.66,0.03-15.62,25.58-8.91,50.02c6.7,24.43,28.7,39.7,33.19,38.47
		c4.49-1.23,15.62-25.58,8.91-50.02C1298.05,949.61,1276.23,935.55,1271.56,935.58L1271.56,935.58z"/>
	<path class="st3" d="M1300.13,980.5c-4.28,0.7-10.67,25.73-1.01,47.2c9.66,21.47,32.05,32.33,35.99,30.55
		c3.95-1.78,10.66-25.73,1-47.2C1326.46,989.59,1304.41,979.81,1300.13,980.5L1300.13,980.5z"/>
	<path class="st3" d="M1334.25,1020.65c-3.89,1.36-5.71,25.87,6.9,44.38c12.62,18.51,35.39,24.96,38.79,22.64
		c3.4-2.32,5.71-25.87-6.9-44.38C1360.43,1024.78,1338.15,1019.29,1334.25,1020.65L1334.25,1020.65z"/>
	<path class="st3" d="M1373.3,1055.16c-3.51,2.03-0.77,26.02,14.81,41.56c15.58,15.54,38.74,17.59,41.6,14.72
		c2.86-2.86,0.76-26.02-14.81-41.56C1399.32,1054.34,1376.81,1053.13,1373.3,1055.16L1373.3,1055.16z"/>
	<path class="st3" d="M1416.88,1082.48c-3.12,2.7,4.19,26.17,22.72,38.75c18.53,12.58,42.09,10.22,44.4,6.81
		c2.31-3.41-4.18-26.17-22.72-38.75S1420,1079.78,1416.88,1082.48L1416.88,1082.48z"/>
	<path class="st3" d="M1464.39,1099.75c-2.73,3.36,9.14,26.31,30.63,35.93c21.49,9.62,45.43,2.85,47.2-1.1s-9.14-26.31-30.63-35.93
		C1490.09,1089.03,1467.12,1096.39,1464.39,1099.75L1464.39,1099.75z"/>
	<path class="st3" d="M1513.63,1101.13c-2.35,4.03,14.09,26.46,38.54,33.11c24.45,6.65,48.78-4.52,50-9.02s-14.09-26.46-38.54-33.11
		C1539.18,1085.46,1515.98,1097.1,1513.63,1101.13L1513.63,1101.13z"/>
	<path class="st3" d="M1184.1,883.88c-3.44-3.66-31.59,6.4-45.95,29.55c-14.36,23.16-10.3,51.66-6.05,54.3
		c4.26,2.64,31.59-6.4,45.95-29.55C1192.4,915.02,1187.53,887.54,1184.1,883.88L1184.1,883.88z"/>
	<path class="st3" d="M1132.42,923.44c-2.81-3.8-30.26,2.54-46.23,22.63c-15.96,20.1-15.29,47.21-11.59,50.15
		c3.69,2.93,30.26-2.54,46.22-22.63C1136.79,953.49,1135.23,927.24,1132.42,923.44L1132.42,923.44z"/>
	<path class="st3" d="M1086.34,956.68c-2.2-3.94-28.93-1.33-46.5,15.72c-17.57,17.04-20.27,42.77-17.14,46
		c3.13,3.23,28.93,1.33,46.5-15.72C1086.77,985.63,1088.53,960.61,1086.34,956.68L1086.34,956.68z"/>
	<path class="st3" d="M1038.25,986.01c-1.57-4.08-27.6-5.19-46.78,8.8c-19.18,13.98-25.25,38.32-22.68,41.84
		c2.57,3.52,27.6,5.19,46.78-8.8C1034.74,1013.87,1039.82,990.09,1038.25,986.01L1038.25,986.01z"/>
	<path class="st3" d="M988.49,1011.4c-0.95-4.22-26.26-9.05-47.05,1.88c-20.79,10.93-30.23,33.87-28.23,37.69
		c2.01,3.82,26.27,9.05,47.05-1.88C981.06,1038.17,989.45,1015.62,988.49,1011.4L988.49,1011.4z"/>
	<path class="st3" d="M937.28,1032.35c-0.33-4.36-24.93-12.91-47.33-5.04c-22.4,7.87-35.21,29.43-33.77,33.54
		c1.45,4.11,24.93,12.91,47.33,5.04C925.91,1058.03,937.62,1036.71,937.28,1032.35L937.28,1032.35z"/>
	<path class="st3" d="M884.81,1047.8c0.29-4.5-23.6-16.78-47.61-11.96c-24,4.81-40.2,24.98-39.31,29.39
		c0.88,4.41,23.6,16.78,47.6,11.96C869.5,1072.38,884.52,1052.29,884.81,1047.8L884.81,1047.8z"/>
	<path class="st3" d="M831.55,1056.01c0.91-4.64-22.27-20.64-47.88-18.88c-25.61,1.76-45.18,20.54-44.85,25.24
		c0.32,4.71,22.27,20.64,47.88,18.88C812.3,1079.5,830.64,1060.65,831.55,1056.01L831.55,1056.01z"/>
	<path class="st3" d="M778.91,1053.42c1.53-4.78-20.94-24.5-48.16-25.8c-27.21-1.3-50.16,16.09-50.4,21.09
		c-0.24,5,20.94,24.5,48.16,25.8C755.73,1075.81,777.39,1058.19,778.91,1053.42L778.91,1053.42z"/>
	<polygon class="st7" points="977.36,2022.56 1100.43,2020.52 1118.43,2330.08 1025.58,2320.67 977.36,2022.56 	"/>
	<polygon class="st15" points="984.73,1793.6 848.97,2262.06 1100.24,2262.06 1129.89,2262.06 1159.53,2262.06 1410.8,2262.06 
		1275.11,1793.69 1142.11,1596.78 1134.58,1596.91 984.73,1793.6 	"/>
	<polygon class="st5" points="925.76,1793.69 783.14,2306.64 1066.17,2212.16 1110.38,1828.29 925.76,1793.69 	"/>
	<polygon class="st5" points="974.85,1513.96 1134.64,1596.84 1139.13,1793.69 1110.38,1828.29 925.76,1793.69 914.62,1526.28 
		974.85,1513.96 	"/>
	<polygon class="st5" points="1345.1,1554.48 1283.24,1597.78 1383.02,1824.11 1442.64,1765.78 1345.1,1554.48 	"/>
	<polygon class="st6" points="1428.66,2010.14 1469.3,2023.41 1440.54,1767.83 1364.47,1780.94 1428.66,2010.14 	"/>
	<path class="st6" d="M1462.62,1977.3c22.02,5.84,35.12,28.43,29.28,50.44c-5.84,22.02-28.43,35.12-50.44,29.28
		c-22.02-5.84-35.12-28.43-29.28-50.44C1418.03,1984.57,1440.61,1971.46,1462.62,1977.3L1462.62,1977.3z"/>
	<path class="st6" d="M1441.12,2047.32c5.06,0.03,9.11,8.5,9.04,18.92c-0.06,10.42-4.22,18.84-9.28,18.81
		c-5.06-0.03-9.11-8.5-9.04-18.92C1431.9,2055.7,1436.05,2047.28,1441.12,2047.32L1441.12,2047.32z"/>
	<path class="st6" d="M1440.81,2074.99c2.53,0.02,4.57,1.92,4.55,4.25c-0.02,2.33-2.08,4.21-4.61,4.19
		c-2.53-0.02-4.57-1.92-4.56-4.25C1436.21,2076.85,1438.28,2074.98,1440.81,2074.99L1440.81,2074.99z"/>
	<path class="st6" d="M1456.76,2045.25c4.88-1.33,11.06,5.74,13.81,15.79c2.74,10.05,1.01,19.28-3.88,20.61
		c-4.88,1.33-11.06-5.74-13.81-15.79C1450.14,2055.81,1451.88,2046.58,1456.76,2045.25L1456.76,2045.25z"/>
	<path class="st10" d="M1463.91,2071.99c2.44-0.67,4.92,0.62,5.53,2.87c0.61,2.25-0.87,4.61-3.31,5.28s-4.92-0.62-5.53-2.87
		C1459.99,2075.02,1461.47,2072.65,1463.91,2071.99L1463.91,2071.99z"/>
	<path class="st6" d="M1473.39,2037.23c4.52-2.27,11.98,3.44,16.65,12.75c4.68,9.31,4.8,18.7,0.28,20.97
		c-4.52,2.27-11.98-3.44-16.65-12.75C1468.99,2048.89,1468.87,2039.5,1473.39,2037.23L1473.39,2037.23z"/>
	<path class="st10" d="M1485.69,2062.02c2.26-1.14,4.94-0.37,5.99,1.72c1.05,2.08,0.06,4.69-2.2,5.83
		c-2.26,1.14-4.94,0.37-5.99-1.72C1482.44,2065.77,1483.43,2063.16,1485.69,2062.02L1485.69,2062.02z"/>
	<path class="st6" d="M1485.22,2024.75c3.17-3.25,11.17-0.6,17.86,5.93c6.69,6.53,9.55,14.45,6.38,17.71
		c-3.17,3.25-11.17,0.6-17.86-5.93C1484.91,2035.92,1482.05,2028,1485.22,2024.75L1485.22,2024.75z"/>
	<path class="st6" d="M1419.83,2004.44c5.12,2.46,5.17,12.99,0.11,23.52c-5.05,10.54-13.3,17.08-18.42,14.63s-5.17-12.99-0.11-23.52
		C1406.47,2008.53,1414.71,2001.98,1419.83,2004.44L1419.83,2004.44z"/>
	<path class="st10" d="M1502.92,2042.17c1.59-1.63,4.08-1.76,5.58-0.3c1.5,1.46,1.43,3.96-0.16,5.59s-4.09,1.76-5.58,0.3
		C1501.27,2046.3,1501.34,2043.8,1502.92,2042.17L1502.92,2042.17z"/>
	<path class="st10" d="M1406.27,2032.36c2.56,1.23,3.72,4.13,2.59,6.49c-1.13,2.36-4.12,3.27-6.68,2.04
		c-2.56-1.23-3.72-4.13-2.59-6.49C1400.71,2032.05,1403.71,2031.13,1406.27,2032.36L1406.27,2032.36z"/>
	<path class="st3" d="M1505.84,1585.27c-5.04,0.8-12.65,30.27-1.35,55.59c11.3,25.32,37.63,38.19,42.28,36.11
		c4.65-2.08,12.65-30.27,1.35-55.59C1536.82,1596.06,1510.88,1584.47,1505.84,1585.27L1505.84,1585.27z"/>
	<path class="st3" d="M1505.84,1659.78c-5.04,0.8-12.65,30.27-1.35,55.59c11.3,25.32,37.63,38.19,42.28,36.12
		c4.65-2.08,12.65-30.27,1.35-55.59C1536.82,1670.57,1510.88,1658.98,1505.84,1659.78L1505.84,1659.78z"/>
	<path class="st3" d="M1505.84,1733.78c-5.04,0.8-12.65,30.27-1.35,55.59c11.3,25.32,37.63,38.19,42.28,36.12
		c4.65-2.08,12.65-30.27,1.35-55.59S1510.88,1732.98,1505.84,1733.78L1505.84,1733.78z"/>
	<path class="st3" d="M1505.84,1806.87c-5.04,0.8-12.65,30.27-1.35,55.59c11.3,25.32,37.63,38.19,42.28,36.12
		c4.65-2.08,12.65-30.27,1.35-55.59C1536.82,1817.66,1510.88,1806.07,1505.84,1806.87L1505.84,1806.87z"/>
	<path class="st16" d="M1320.38,1304.74c25.79,0,46.7,9.87,46.7,22.05c0,12.18-20.91,22.05-46.7,22.05s-46.7-9.87-46.7-22.05
		C1273.68,1314.61,1294.59,1304.74,1320.38,1304.74L1320.38,1304.74z"/>
	<path class="st16" d="M975.52,1304.74c25.79,0,46.7,9.87,46.7,22.05c0,12.18-20.91,22.05-46.7,22.05c-25.79,0-46.7-9.87-46.7-22.05
		C928.82,1314.61,949.73,1304.74,975.52,1304.74L975.52,1304.74z"/>
	<polyline class="st14" points="1100.05,1384.14 1127.19,1374.4 1140.53,1382.78 	"/>
	<polyline class="st8" points="1112.46,1413.85 1139.3,1416.57 1162.8,1414.13 	"/>
	<polygon class="st17" points="1254.6,2320.67 1161.75,2330.08 1160.36,2404.37 1231.63,2405.11 1254.6,2320.67 	"/>
	<polygon class="st17" points="1358.64,2444.18 1362.73,2458.16 1140.09,2453.48 1141.47,2438.7 1160.36,2404.37 1231.63,2405.11 
		1358.64,2444.18 	"/>
	<polygon class="st18" points="1240.09,2397.85 1153.61,2395.78 1153.39,2407.37 1244.55,2411.12 1240.09,2397.85 	"/>
	<polygon class="st18" points="1236.88,2382.53 1157.93,2392.43 1160.66,2409.62 1239.02,2392.77 1236.88,2382.53 	"/>
	<polygon class="st17" points="1025.58,2320.67 1118.43,2330.08 1119.83,2404.37 1048.56,2405.11 1025.58,2320.67 	"/>
	<polygon class="st17" points="921.54,2444.18 917.45,2458.16 1140.09,2453.48 1138.71,2438.7 1119.83,2404.37 1048.56,2405.11 
		921.54,2444.18 	"/>
	<polygon class="st18" points="1040.1,2397.85 1126.58,2395.78 1126.79,2407.37 1035.64,2411.12 1040.1,2397.85 	"/>
	<polygon class="st18" points="1043.31,2382.53 1122.25,2392.43 1119.53,2409.62 1041.17,2392.77 1043.31,2382.53 	"/>
	<polygon class="st5" points="1351.36,1793.69 1493.98,2306.64 1210.95,2212.16 1166.74,1828.29 1351.36,1793.69 	"/>
	<polygon class="st17" points="974.85,1513.96 1134.64,1596.84 1084.24,1501.32 984.64,1486.52 974.85,1513.96 	"/>
	<polygon class="st5" points="1302.27,1513.96 1142.01,1596.8 1139.13,1793.69 1166.74,1828.29 1351.36,1793.69 1362.5,1526.28 
		1302.27,1513.96 	"/>
	<polygon class="st17" points="1302.27,1513.96 1142.01,1596.8 1192.89,1501.32 1292.47,1486.52 1302.27,1513.96 	"/>
	<polygon class="st17" points="924.24,1757.17 914.62,1526.28 818.48,1538.77 924.24,1757.17 	"/>
	<polygon class="st17" points="1352.88,1757.17 1362.5,1526.28 1458.63,1538.77 1352.88,1757.17 	"/>
	<polygon class="st5" points="818.96,1765.78 897.12,1780.94 847.47,1963.46 737.72,1948.95 818.96,1765.78 	"/>
	<polygon class="st5" points="1442.64,1765.78 1364.47,1780.94 1414.12,1963.46 1523.87,1948.95 1442.64,1765.78 	"/>
	<path class="st19" d="M1387.27,1896.06c1.59-1.85-4.73-14.92-16.65-20.65c-11.93-5.73-25.48-2.3-26.53-0.11s4.73,14.92,16.66,20.65
		C1372.66,1901.69,1385.68,1897.91,1387.27,1896.06L1387.27,1896.06z"/>
	<path class="st19" d="M1360.06,1875.45c1.65-1.75-3.97-14.92-15.45-21.12c-11.48-6.2-24.99-3.44-26.13-1.33
		c-1.14,2.11,3.97,14.92,15.45,21.12C1345.41,1880.32,1358.41,1877.2,1360.06,1875.45L1360.06,1875.45z"/>
	<path class="st19" d="M1332.85,1854.84c1.71-1.65-3.21-14.91-14.25-21.58c-11.04-6.67-24.5-4.59-25.73-2.56
		c-1.22,2.03,3.21,14.91,14.24,21.58C1318.15,1858.95,1331.13,1856.49,1332.85,1854.84L1332.85,1854.84z"/>
	<path class="st19" d="M1305.63,1834.23c1.77-1.54-2.44-14.91-13.04-22.04c-10.59-7.13-24.01-5.73-25.32-3.79
		s2.44,14.91,13.04,22.04C1290.9,1837.58,1303.86,1835.78,1305.63,1834.23L1305.63,1834.23z"/>
	<path class="st19" d="M1278.42,1813.62c1.84-1.44-1.68-14.9-11.83-22.5c-10.15-7.6-23.53-6.88-24.92-5.01
		c-1.39,1.86,1.68,14.9,11.83,22.5S1276.59,1815.07,1278.42,1813.62L1278.42,1813.62z"/>
	<path class="st19" d="M1251.21,1793.02c1.9-1.34-0.92-14.9-10.62-22.96c-9.71-8.06-23.04-8.02-24.52-6.24
		c-1.48,1.78,0.92,14.9,10.62,22.96C1236.39,1794.84,1249.31,1794.36,1251.21,1793.02L1251.21,1793.02z"/>
	<path class="st19" d="M1224,1772.41c1.96-1.24-0.16-14.89-9.42-23.42c-9.26-8.53-22.55-9.17-24.12-7.47
		c-1.57,1.7,0.16,14.89,9.42,23.42C1209.14,1773.47,1222.04,1773.65,1224,1772.41L1224,1772.41z"/>
	<path class="st19" d="M1196.78,1751.8c2.02-1.14,0.61-14.89-8.21-23.89c-8.82-9-22.06-10.32-23.71-8.7
		c-1.65,1.62-0.6,14.89,8.21,23.89C1181.89,1752.1,1194.76,1752.94,1196.78,1751.8L1196.78,1751.8z"/>
	<path class="st19" d="M1169.57,1731.19c2.08-1.04,1.37-14.88-7-24.35c-8.37-9.46-21.57-11.46-23.31-9.92s-1.37,14.88,7,24.35
		C1154.63,1730.73,1167.49,1732.23,1169.57,1731.19L1169.57,1731.19z"/>
	<path class="st19" d="M1142.36,1710.58c2.14-0.94,2.13-14.88-5.8-24.81c-7.93-9.93-21.09-12.61-22.91-11.15
		c-1.82,1.46-2.13,14.88,5.8,24.81C1127.38,1709.36,1140.22,1711.52,1142.36,1710.58L1142.36,1710.58z"/>
	<path class="st19" d="M1115.15,1689.97c2.2-0.84,2.89-14.87-4.59-25.27c-7.48-10.4-20.59-13.75-22.5-12.38s-2.89,14.87,4.59,25.27
		C1100.13,1687.99,1112.94,1690.8,1115.15,1689.97L1115.15,1689.97z"/>
	<path class="st19" d="M1087.94,1669.36c2.27-0.73,3.65-14.87-3.38-25.73c-7.04-10.86-20.11-14.9-22.1-13.6
		c-2,1.29-3.65,14.87,3.38,25.73C1072.87,1666.62,1085.67,1670.09,1087.94,1669.36L1087.94,1669.36z"/>
	<path class="st19" d="M1060.72,1648.75c2.33-0.63,4.41-14.86-2.18-26.19c-6.59-11.33-19.62-16.04-21.7-14.83
		c-2.08,1.21-4.42,14.86,2.18,26.19C1045.62,1645.25,1058.39,1649.38,1060.72,1648.75L1060.72,1648.75z"/>
	<path class="st19" d="M1033.51,1628.14c2.39-0.53,5.18-14.86-0.97-26.66c-6.15-11.79-19.13-17.19-21.3-16.06
		c-2.17,1.13-5.18,14.86,0.97,26.65C1018.37,1623.88,1031.12,1628.67,1033.51,1628.14L1033.51,1628.14z"/>
	<path class="st19" d="M1006.3,1607.53c2.46-0.43,5.94-14.85,0.23-27.12c-5.71-12.26-18.64-18.33-20.9-17.29
		c-2.25,1.05-5.94,14.86-0.23,27.12C991.11,1602.51,1003.85,1607.96,1006.3,1607.53L1006.3,1607.53z"/>
	<path class="st19" d="M979.09,1586.92c2.51-0.33,6.7-14.85,1.44-27.58c-5.26-12.73-18.15-19.48-20.49-18.51
		c-2.34,0.97-6.7,14.85-1.44,27.58C963.86,1581.14,976.57,1587.25,979.09,1586.92L979.09,1586.92z"/>
	<path class="st19" d="M951.88,1566.31c2.58-0.23,7.46-14.85,2.65-28.04c-4.82-13.19-17.67-20.63-20.09-19.74
		c-2.43,0.88-7.46,14.85-2.64,28.04C936.6,1559.77,949.3,1566.54,951.88,1566.31L951.88,1566.31z"/>
	<text transform="matrix(1 0 0 1 892.7393 1492.3945)" class="st20 st21 st22">401F02</text>
	<text transform="matrix(1 0 0 1 892.7393 1492.3945)" class="st23 st21 st22">401F02</text>
</g>
</svg>
