<?xml version="1.0" encoding="utf-8"?>
<!-- Generator: Adobe Illustrator 24.3.0, SVG Export Plug-In . SVG Version: 6.00 Build 0)  -->
<svg version="1.1" id="Layer_1" xmlns="http://www.w3.org/2000/svg" xmlns:xlink="http://www.w3.org/1999/xlink" x="0px" y="0px"
	 viewBox="0 0 288 285" style="enable-background:new 0 0 288 285;" xml:space="preserve">
<style type="text/css">
	.st0{fill:#353130;}
	.st1{fill:#8E8E8E;}
</style>
<rect class="st0" width="288" height="285"/>
<g>
	<path class="st1" d="M222.7,144.5c0.2,0,0.4,0.1,0.6,0.1c0-0.2,0-0.5,0-0.7s0-0.5,0-0.7c0-0.5,0-1,0-1.5c-0.2,0-0.4,0-0.6-0.1l0,0
		c-0.9-0.2-1.8-1-2.2-2c-0.2-0.4-0.3-0.8-0.3-1.3c-0.1-1.2-0.2-2.4-0.4-3.6l-0.2-1.5l-0.1-0.7c0-0.2-0.1-0.5-0.1-0.7l0,0
		c-0.6-0.5-1.1-1.3-1.3-2.1c-0.1-0.4-0.2-0.8-0.3-1.2c-0.2,0.3-0.3,0.6-0.5,0.8c-0.1,0.2-0.1,0.3-0.2,0.5s-0.1,0.3-0.1,0.5
		c-0.2,0.6-0.2,1.3-0.1,1.9c0,0.2,0.1,0.5,0.1,0.7l0.1,0.7l0.2,1.4c0.2,1.1,0.3,2.3,0.4,3.5c0.1,1.6,0.8,3.1,1.7,4.2
		c0.2,0.3,0.5,0.5,0.8,0.8C221,144,221.8,144.4,222.7,144.5L222.7,144.5z"/>
	<path class="st1" d="M220.3,147.4l-0.1,1.5l0,0.7c0,0.2,0,0.5-0.1,0.7c0.4-0.2,0.8-0.4,1.2-0.5c0.4-0.1,0.8-0.2,1.2-0.2l0.1-2
		c0-0.2,0-0.3,0-0.5v-0.5l0-1c-0.8-0.1-1.6-0.5-2.4-1l0,1.5C220.3,146.4,220.3,146.9,220.3,147.4z"/>
	<path class="st1" d="M225.2,156.1L225.2,156.1C225.2,156.1,225.2,156.1,225.2,156.1c0.1-0.1,0.1-0.2,0.2-0.4
		c0.1-0.1,0.1-0.3,0.2-0.4c0.1-0.3,0.2-0.5,0.2-0.8l0.2-1.2l0-0.3l0-0.3l0.1-0.6l0.1-1.4l0-0.3c0-0.1,0-0.2,0-0.3l0-0.7l0.1-1.4
		c0-0.2,0-0.5,0-0.7l0-0.7l0-1.4l0-0.7c0-0.2,0-0.5,0-0.7c0-0.9,0-1.9-0.1-2.8c0-0.6-0.2-1.1-0.4-1.6c-0.2-0.4-0.4-0.7-0.7-1
		c-0.6-0.7-1.4-1-2.2-0.9c-0.8,0.1-1.6,0.6-2.1,1.3c0.2,1,0.9,1.8,1.7,2.1c0.1-0.3,0.3-0.5,0.6-0.5c0.2,0,0.5,0.2,0.6,0.4
		c0.1,0.1,0.1,0.2,0.1,0.4c0,0.8,0.1,1.6,0.1,2.4c0,0.8,0,1.6,0,2.4l0,1.2c0,0.4,0,0.8-0.1,1.2l-0.1,1.2l0,0.3c0,0.1,0,0.2,0,0.3
		l-0.1,0.6l-0.1,1.5l0,0.4l0,0.2l0,0.2l-0.1,0.7l-0.1,0.5c0,0.1-0.1,0.3-0.1,0.4c-0.2,0.2-0.4,0.4-0.6,0.4c-0.2,0-0.5-0.2-0.5-0.5
		c-0.4,0.1-0.8,0.3-1.1,0.7c-0.3,0.3-0.6,0.8-0.7,1.3c0.4,0.8,1.1,1.3,2,1.5c0.8,0.2,1.7-0.2,2.3-0.8
		C224.8,156.8,225,156.4,225.2,156.1z"/>
	<path class="st1" d="M215.8,162.1l-0.2,0.8c0,0,0,0.1,0,0.1c-0.1,0.4-0.2,0.8-0.2,1.1c0,0.2,0,0.4,0,0.6c0,0.2,0,0.4,0,0.6
		c0,0.4,0.1,0.7,0.2,1.1c0.1,0.4,0.2,0.7,0.3,1v0c0.1-0.2,0.2-0.5,0.2-0.7l0.2-0.7c0.1-0.3,0.2-0.5,0.3-0.7c0.1-0.2,0.2-0.5,0.4-0.7
		c0.3-0.4,0.6-0.8,1-1.1l0,0l0.2-0.9c0-0.2,0.1-0.3,0.1-0.4l0.1-0.4l0.4-1.8l0.4-1.8c0.1-0.3,0.1-0.6,0.2-0.9l0.2-0.9
		c0,0,0-0.1,0-0.1c0.1-0.4,0.2-0.8,0.4-1.2c0.1-0.1,0.1-0.2,0.2-0.4c0.1-0.1,0.2-0.2,0.2-0.3c0.2-0.2,0.3-0.4,0.5-0.5
		c0.4-0.3,0.8-0.5,1.3-0.6c0.2,0,0.4,0,0.6,0l0.1-0.7c0-0.2,0-0.5,0.1-0.7l0.1-1.4v0c-0.2,0-0.4,0-0.6,0l0,0
		c-0.9,0.1-1.7,0.4-2.4,0.9c-0.3,0.2-0.6,0.5-0.8,0.7c-0.5,0.5-1,1.1-1.3,1.8c-0.1,0.2-0.2,0.3-0.2,0.5c0,0.1-0.1,0.2-0.1,0.3
		s-0.1,0.2-0.1,0.3c-0.1,0.4-0.2,0.7-0.3,1.1l0,0.2l-0.1,0.9c-0.1,0.3-0.1,0.6-0.2,0.8l-0.3,1.7l-0.4,1.7l-0.1,0.4
		C215.8,161.9,215.8,162,215.8,162.1z"/>
	<path class="st1" d="M227.6,155.8c0-0.2-0.1-0.4-0.1-0.6c-0.2-0.8-0.4-1.6-0.8-2.2v0c-0.1,0.5-0.1,1.1-0.2,1.6
		c0,0.3-0.1,0.6-0.2,0.8c0,0.1-0.1,0.3-0.1,0.4c0,0.1-0.1,0.3-0.2,0.4c-0.2,0.5-0.5,0.9-0.8,1.3l-0.2,1c-0.1,0.3-0.1,0.6-0.2,1
		l-0.4,1.9l-0.5,1.9c-0.1,0.3-0.2,0.6-0.2,0.9l-0.3,0.9l0,0c0,0,0,0,0,0.1c-0.1,0.5-0.3,0.9-0.6,1.3c-0.2,0.2-0.4,0.5-0.5,0.7
		c-0.2,0.2-0.4,0.4-0.6,0.5c-0.5,0.3-0.9,0.4-1.4,0.4c-0.2,0-0.4,0-0.6-0.1c-0.1,0.2-0.1,0.5-0.2,0.7l-0.2,0.7l-0.5,1.4l0,0
		c0.2,0.1,0.4,0.1,0.5,0.2c0.4,0.1,0.9,0.1,1.3,0.1c0.4-0.1,0.9-0.2,1.3-0.3c0.4-0.2,0.7-0.3,1-0.6c0.3-0.2,0.6-0.5,0.9-0.8
		c0.3-0.3,0.5-0.6,0.8-0.9c0.1-0.2,0.2-0.4,0.3-0.5c0.1-0.2,0.2-0.4,0.3-0.6c0.2-0.4,0.3-0.8,0.5-1.3c0-0.1,0-0.1,0-0.2l0.3-1
		c0-0.2,0.1-0.3,0.1-0.5l0.1-0.5l0.5-2l0.4-2c0.1-0.3,0.1-0.7,0.2-1l0.2-1l0-0.2c0.1-0.5,0.1-0.9,0.1-1.3c0-0.1,0-0.2,0-0.3
		C227.7,156,227.7,155.9,227.6,155.8z"/>
	<path class="st1" d="M219.1,179.6c-0.1-0.4-0.2-0.8-0.3-1.1c-0.4-0.8-0.9-1.5-1.7-2l0,0c-0.2-0.1-0.3-0.2-0.5-0.3l-0.6,1.3
		c-0.2,0.4-0.4,0.9-0.6,1.3c0.2,0.1,0.3,0.2,0.5,0.3c0.4,0.3,0.6,0.8,0.8,1.3c0.1,0.5,0.2,1.1,0.1,1.7c-0.1,0.5-0.3,0.9-0.5,1.4l0,0
		l-0.5,0.8c-0.1,0.2-0.2,0.3-0.2,0.4l-0.2,0.4l-1,1.7l-0.9,1.3l-0.4,0.7l-0.2,0.3c-0.1,0.1-0.2,0.2-0.2,0.3c0.1,0.9-0.2,1.8-0.8,2.6
		l-0.8,1.1c0.3-0.1,0.7-0.2,1-0.3c0.3-0.1,0.6-0.3,0.9-0.5c0.6-0.4,1.1-0.9,1.6-1.5c0.1-0.1,0.2-0.2,0.2-0.3l0.2-0.3l0.5-0.7
		l0.9-1.4l1-1.7l0.3-0.4c0.1-0.2,0.2-0.3,0.2-0.4l0.5-0.9c0.2-0.4,0.4-0.8,0.6-1.3c0.1-0.2,0.2-0.4,0.2-0.6c0.1-0.2,0.1-0.4,0.1-0.6
		c0.1-0.4,0.1-0.8,0.1-1.2c0-0.2,0-0.4,0-0.6C219.1,180,219.1,179.8,219.1,179.6z"/>
	<path class="st1" d="M212,176.6l0.2-0.3c-0.2,0.1-0.3,0.2-0.5,0.2c-0.2,0.1-0.3,0.2-0.5,0.3c-0.3,0.2-0.6,0.4-0.9,0.7
		c-0.1,0.1-0.3,0.3-0.4,0.4s-0.2,0.3-0.4,0.5c-0.2,0.3-0.5,0.6-0.7,1l-0.4,0.8c-0.1,0.1-0.2,0.2-0.2,0.4l-0.2,0.4l-0.9,1.5l-0.8,1.2
		l-0.4,0.6l-0.2,0.3c-0.1,0.1-0.1,0.2-0.2,0.3c-0.4,0.5-0.6,1.1-0.8,1.8c-0.1,0.3-0.1,0.6-0.1,1c0,0.3,0,0.6,0.1,1
		c0.1,0.3,0.1,0.7,0.2,1c0.1,0.4,0.3,0.8,0.5,1.1c0.2,0.4,0.5,0.7,0.8,1l0,0c0.1,0.1,0.3,0.3,0.4,0.4l0.2-0.2l0.2-0.2l0.4-0.5
		l0.7-0.9c-0.2-0.1-0.3-0.3-0.4-0.4l0,0c-0.3-0.4-0.5-0.8-0.6-1.2c-0.1-0.5-0.1-0.9,0-1.4c0.1-0.4,0.2-0.7,0.4-1
		c0.1-0.1,0.2-0.2,0.2-0.3l0.2-0.3l0.4-0.6l0.8-1.2l0.9-1.5l0.2-0.4c0.1-0.1,0.2-0.3,0.2-0.4l0.4-0.8l0,0c0-0.5,0-1,0.1-1.5
		c0-0.1,0.1-0.2,0.1-0.4c0-0.1,0.1-0.2,0.1-0.4c0.1-0.2,0.2-0.5,0.3-0.7l0.3-0.7L212,176.6z"/>
	<path class="st1" d="M219.1,171.7l-0.8,1.9c-0.3,0.6-0.5,1.3-0.8,1.9c0.4,0.2,0.7,0.5,1,0.8c0.3,0.3,0.6,0.7,0.8,1.1
		c0.1-0.2,0.2-0.5,0.3-0.7l0.3-0.7c0.2-0.5,0.4-1,0.6-1.4l0.6-1.5l0.3-0.7c0-0.1,0.1-0.2,0.1-0.4l0.1-0.4
		C220.8,171.9,219.9,171.9,219.1,171.7z"/>
	<path class="st1" d="M218.1,170.3l0.5-1.4l0.2-0.7l0.2-0.7l0.2-0.5c0-0.1,0.1-0.2,0.2-0.3c0.2-0.2,0.5-0.3,0.7-0.2
		c0.2,0.1,0.4,0.3,0.4,0.6c0.4,0,0.9-0.2,1.3-0.5c0.1-0.1,0.2-0.2,0.3-0.2c0.1-0.1,0.2-0.2,0.2-0.3c0.2-0.2,0.3-0.5,0.4-0.7
		c-0.3-0.8-1-1.4-1.8-1.6c-0.8-0.2-1.7,0-2.4,0.5c-0.3,0.2-0.6,0.5-0.8,0.8c0,0,0,0,0,0c-0.2,0.2-0.3,0.4-0.4,0.6
		c-0.1,0.2-0.2,0.5-0.3,0.7l-0.3,1.1c-0.1,0.4-0.2,0.7-0.4,1.1c-1.1,3.3-2.5,6.4-4,9.5c-0.2,0.5-0.4,1-0.5,1.5c-0.1,0.4,0,0.8,0,1.1
		c0.2,0.8,0.6,1.6,1.4,2c0.7,0.4,1.6,0.4,2.4,0.1c0.1-0.3,0.2-0.5,0.2-0.8c0-0.2,0.1-0.5,0-0.8c-0.1-0.5-0.2-0.9-0.5-1.2
		c-0.2,0.2-0.5,0.2-0.7,0.1c-0.2-0.1-0.3-0.4-0.3-0.7c0-0.1,0-0.3,0.1-0.4C215.8,176.2,217,173.3,218.1,170.3z"/>
	<path class="st1" d="M201.4,193.7c0.8,0.2,1.6,0.5,2.3,1l1.1-1.2l1-1.3c-0.6-0.6-1.1-1.3-1.4-2.1l-1.5,1.8L201.4,193.7z"/>
	<path class="st1" d="M199.5,200c0.3,0.3,0.6,0.5,1,0.7c0.4,0.2,0.8,0.2,1.1,0.2c0.3,0,0.7-0.1,1-0.2l0,0c0,0,0,0,0,0
		c0.4-0.2,0.8-0.4,1.1-0.8l1.4-1.5c2-2.2,4-4.6,5.8-7c0.3-0.4,0.5-0.8,0.5-1.3c0.1-0.4,0.1-0.7,0-1c-0.1-0.4-0.2-0.8-0.4-1.1
		c-0.2-0.3-0.5-0.6-0.8-0.9c-0.4-0.2-0.7-0.4-1.1-0.5c-0.4-0.1-0.8-0.1-1.2,0c-0.4,0.8-0.3,1.7,0.2,2.4c0.2-0.1,0.5-0.1,0.7,0.1
		c0.2,0.2,0.3,0.4,0.3,0.6c0,0.1-0.1,0.2-0.1,0.3c-0.8,1-1.6,2.1-2.4,3.1l-0.6,0.8c-0.1,0.1-0.2,0.3-0.3,0.4l-0.3,0.4l-1.3,1.5
		c-0.1,0.2-0.3,0.3-0.4,0.5l-0.4,0.4l-0.8,0.9l-0.3,0.3c-0.1,0.1-0.2,0.1-0.3,0.2c-0.2,0.1-0.5,0-0.7-0.2c-0.2-0.2-0.2-0.4-0.2-0.7
		c-0.8-0.4-1.7-0.4-2.4,0.2c0,0.4,0.1,0.8,0.2,1.1C199,199.4,199.2,199.7,199.5,200z"/>
	<path class="st1" d="M197.4,198l0.3-0.2c0.1-0.1,0.2-0.2,0.3-0.3c0,0,0,0,0.1-0.1c0.3-0.2,0.6-0.4,0.9-0.6c0.4-0.2,0.9-0.2,1.4-0.2
		c0.5,0,0.9,0.2,1.3,0.4c0.2,0.1,0.3,0.2,0.5,0.3l0.8-0.8l0.4-0.4l0.2-0.2c0.1-0.1,0.1-0.2,0.2-0.2l0,0c-0.2-0.1-0.3-0.2-0.5-0.3
		l0,0c-0.4-0.2-0.7-0.5-1.1-0.6c-0.4-0.2-0.8-0.3-1.2-0.3c-0.3-0.1-0.7-0.1-1-0.1c-0.3,0-0.6,0-0.9,0.1c-0.3,0.1-0.6,0.2-0.9,0.3
		c-0.6,0.2-1.1,0.5-1.6,1l-0.1,0.1c-0.1,0.1-0.2,0.2-0.2,0.2l-0.3,0.2l-0.5,0.5l-1,1l-1.1,0.9l-0.5,0.5l-0.3,0.2l-0.3,0.2
		c0,0-0.1,0-0.1,0.1c-0.5,0.4-0.9,0.9-1.2,1.5c0,0.1-0.1,0.2-0.1,0.2c0,0.1-0.1,0.1-0.1,0.2c-0.1,0.2-0.1,0.3-0.2,0.4
		c-0.1,0.3-0.2,0.6-0.2,0.9l0,0l1-0.7c0.7-0.5,1.5-0.8,2.3-0.8l0,0l0.3-0.2l0.3-0.2l0.5-0.5l1.1-1l1.1-1L197.4,198z"/>
	<path class="st1" d="M204.4,200.5c-0.7,0.7-1.5,1.1-2.4,1.2c-0.1,0.1-0.2,0.2-0.3,0.3l-0.3,0.3l-0.6,0.5l-1.2,1.1l-1.2,1l-0.6,0.5
		l-0.3,0.3l-0.3,0.2l0,0c0,0,0,0,0,0c-0.3,0.2-0.6,0.4-1,0.5c-0.5,0.2-1,0.2-1.4,0.1c-0.5-0.1-0.9-0.3-1.3-0.6
		c-0.2-0.1-0.3-0.2-0.4-0.4l-0.9,0.7l-0.5,0.4l-0.2,0.2l-0.2,0.2l0,0c0.1,0.2,0.2,0.3,0.4,0.4c0.3,0.3,0.6,0.6,1,0.8
		c0.4,0.2,0.8,0.4,1.1,0.5c0.3,0.1,0.7,0.2,1,0.2c0.3,0,0.7,0,1,0c0.2,0,0.3,0,0.5-0.1c0.1,0,0.2,0,0.3-0.1c0.1,0,0.2,0,0.2-0.1
		c0.7-0.2,1.3-0.5,1.9-1c0,0,0.1-0.1,0.1-0.1l0.3-0.3l0.3-0.3l0.6-0.5l1.2-1.1l1.2-1.1l0.6-0.5l0.3-0.3c0.1-0.1,0.2-0.2,0.3-0.3
		l0.1-0.1c0.5-0.5,0.9-1.1,1.2-1.8c0.1-0.3,0.2-0.7,0.3-1c0.1-0.3,0.1-0.7,0.1-1l0,0L204.4,200.5z"/>
	<path class="st1" d="M187.5,210.2c-0.1-0.2-0.2-0.3-0.3-0.5c-0.2,0.1-0.3,0.2-0.5,0.3l-0.5,0.3l-1,0.6c0.1,0.2,0.2,0.3,0.2,0.5
		c0.2,0.5,0.2,1,0.1,1.4c-0.1,0.5-0.3,0.9-0.6,1.3c-0.2,0.3-0.5,0.5-0.9,0.8l0,0c-0.1,0.1-0.2,0.1-0.3,0.2l-0.4,0.2l-0.7,0.4
		l-1.4,0.7l-1.4,0.7c-0.2,0.1-0.5,0.2-0.7,0.3l-0.7,0.3c-0.2,0.4-0.5,0.7-0.8,1c-0.3,0.3-0.7,0.5-1.2,0.7l-0.6,0.2l-0.3,0.1
		l-0.3,0.1c0.2,0.1,0.3,0.1,0.5,0.2c0.2,0,0.3,0.1,0.5,0.1c0.3,0.1,0.7,0.1,1.1,0.1c0.4,0,0.7,0,1.1-0.1c0.4-0.1,0.7-0.2,1.1-0.4
		l0.8-0.3c0.2-0.1,0.5-0.2,0.7-0.3l1.5-0.7l1.5-0.7l0.7-0.4l0.4-0.2c0.1-0.1,0.2-0.1,0.4-0.2c0.7-0.4,1.2-0.8,1.7-1.4
		c0.1-0.1,0.2-0.3,0.3-0.4s0.2-0.3,0.3-0.5c0.2-0.3,0.3-0.6,0.4-1c0.1-0.3,0.2-0.7,0.2-1C188.1,211.9,187.9,211,187.5,210.2
		L187.5,210.2z"/>
	<path class="st1" d="M191,207.9l-1.4,1l-1.4,0.9c0.4,0.8,0.6,1.6,0.6,2.4l2.1-1.4l2.1-1.5C192.3,209,191.6,208.6,191,207.9z"/>
	<path class="st1" d="M196.6,205.5c0.1-0.4,0-0.8-0.1-1.2c-0.1-0.4-0.3-0.8-0.6-1.1c-0.3-0.3-0.6-0.6-0.9-0.8
		c-0.4-0.2-0.7-0.3-1.1-0.3c-0.3,0-0.7,0-1,0.1c0,0,0,0,0,0c-0.4,0.1-0.8,0.3-1.1,0.5l-1.5,1.1c-2.3,1.7-4.6,3.2-7,4.6
		c-0.4,0.2-0.7,0.5-0.9,0.9c-0.2,0.3-0.3,0.6-0.4,0.9c-0.1,0.4-0.2,0.8-0.1,1.2c0,0.4,0.2,0.8,0.3,1.2c0.2,0.4,0.5,0.7,0.8,0.9
		c0.3,0.2,0.7,0.4,1.1,0.5c0.7-0.5,1.1-1.4,0.8-2.3c-0.2,0-0.5-0.1-0.6-0.3c-0.1-0.2-0.1-0.5,0-0.7c0.1-0.1,0.1-0.2,0.2-0.2l1.7-1
		l0.4-0.2l0.2-0.1l0.2-0.1l0.8-0.5l0.8-0.5l0.4-0.3l0.4-0.3l1.6-1.1c0.1-0.1,0.2-0.1,0.2-0.2l0.2-0.2l0.5-0.4l0.9-0.7l0.4-0.3
		c0.1-0.1,0.2-0.1,0.3-0.1c0.2,0,0.5,0,0.6,0.2c0.2,0.2,0.2,0.5,0.1,0.7C194.9,206,195.8,206,196.6,205.5z"/>
	<path class="st1" d="M175.9,212.2l0.7-0.3c0.2-0.1,0.4-0.2,0.7-0.3l1.3-0.6l1.3-0.7l0.7-0.3l0.3-0.2c0.1-0.1,0.2-0.1,0.3-0.2l0,0
		c0.3-0.8,0.8-1.5,1.6-1.9l1.1-0.6c-0.3-0.1-0.6-0.1-1-0.2c-0.2,0-0.3,0-0.5,0c-0.2,0-0.3,0-0.5,0c-0.6,0.1-1.3,0.2-1.8,0.6
		c-0.1,0.1-0.2,0.1-0.3,0.2l-0.3,0.2l-0.6,0.3l-1.3,0.6l-1.3,0.6c-0.2,0.1-0.4,0.2-0.6,0.3l-0.6,0.3c-0.3,0.1-0.6,0.3-0.8,0.5
		c-0.3,0.2-0.5,0.4-0.7,0.6c-0.2,0.2-0.4,0.5-0.6,0.8c-0.1,0.1-0.2,0.3-0.2,0.4c-0.1,0.2-0.2,0.3-0.2,0.4c-0.1,0.3-0.2,0.6-0.3,1
		c-0.2,0.8-0.2,1.7,0,2.5l0,0c0,0.2,0.1,0.4,0.2,0.5l1.1-0.4c0.4-0.1,0.7-0.3,1.1-0.4c-0.1-0.2-0.1-0.4-0.1-0.6l0,0
		c-0.2-1,0.2-1.9,0.8-2.6C175.3,212.6,175.6,212.4,175.9,212.2z"/>
	<path class="st1" d="M169.7,217.1c0.5-0.2,1-0.4,1.6-0.5c-0.1-0.4-0.2-0.8-0.2-1.2c0-0.4,0-0.8,0.1-1.2c-0.2,0.1-0.4,0.1-0.5,0.2
		l-0.5,0.2c-0.4,0.1-0.7,0.3-1.1,0.4l-1.1,0.3c-0.4,0.1-0.8,0.2-1.1,0.3c0.6,0.6,1.1,1.3,1.4,2.1L169.7,217.1z"/>
	<path class="st1" d="M177.2,217.9c0.2-0.3,0.4-0.6,0.6-0.9c0.3-0.7,0.3-1.6,0-2.4c-0.3-0.8-1-1.3-1.7-1.6c-0.2,0.1-0.3,0.2-0.5,0.4
		c-0.1,0.2-0.2,0.3-0.3,0.5c-0.2,0.4-0.3,0.8-0.2,1.2c0.2,0,0.5,0.2,0.6,0.4c0.1,0.2,0,0.5-0.1,0.7c-0.1,0.1-0.2,0.2-0.3,0.2
		c-2.4,1-4.9,1.8-7.5,2.6l-1.2,0.3c-0.2,0.1-0.4,0.1-0.6,0.2l-0.6,0.2l-0.4,0.1c-0.1,0-0.2,0-0.3,0c-0.2-0.1-0.4-0.2-0.5-0.5
		c-0.1-0.2,0-0.5,0.2-0.7c-0.2-0.4-0.5-0.7-0.9-0.9c-0.4-0.2-0.8-0.3-1.2-0.3c-0.4,0.7-0.6,1.5-0.4,2.3c0.2,0.8,0.7,1.5,1.3,1.9
		c0.3,0.2,0.6,0.3,1,0.4l0,0c0,0,0,0,0,0c0.2,0.1,0.5,0.1,0.7,0.1c0.2,0,0.5,0,0.7-0.1l1-0.2c0.3-0.1,0.6-0.2,1-0.3
		c2.9-0.8,5.8-1.8,8.6-2.9C176.5,218.5,176.9,218.3,177.2,217.9z"/>
	<path class="st1" d="M158.9,217.4c0.5-0.1,1-0.2,1.4-0.3l0.7-0.1l0.7-0.2c0,0,0.1,0,0.1,0c0.4-0.1,0.7-0.1,1.1,0
		c0.2,0,0.5,0.1,0.7,0.2c0.2,0.1,0.4,0.2,0.6,0.3c0.4,0.3,0.7,0.6,0.9,1.1c0.1,0.2,0.2,0.3,0.2,0.5l0.6-0.1l0.6-0.2l1.1-0.3h0
		c-0.1-0.2-0.1-0.4-0.2-0.5l0,0c-0.3-0.8-0.9-1.5-1.5-2c-0.3-0.2-0.5-0.4-0.8-0.6c-0.5-0.3-1.1-0.6-1.8-0.7c-0.2,0-0.3-0.1-0.5-0.1
		c-0.1,0-0.2,0-0.2,0c-0.1,0-0.2,0-0.2,0c-0.3,0-0.6,0-1,0.1l-0.1,0l-0.7,0.2l-0.7,0.1l-1.4,0.3l-1.4,0.2c-0.2,0-0.5,0.1-0.7,0.1
		l-0.7,0.1c0,0-0.1,0-0.1,0c-0.3,0.1-0.6,0.1-0.9,0.2s-0.6,0.2-0.8,0.4c-0.3,0.2-0.5,0.3-0.8,0.5c-0.2,0.2-0.5,0.4-0.7,0.7h0
		c0.2,0,0.4,0,0.6-0.1l0.6-0.1c0.2,0,0.4,0,0.6,0c0.2,0,0.4,0.1,0.6,0.1c0.4,0.1,0.8,0.3,1.1,0.5l0,0l0.7-0.1c0.2,0,0.5-0.1,0.7-0.1
		L158.9,217.4z"/>
	<path class="st1" d="M165.7,222.9c-0.2,0.1-0.5,0.1-0.7,0.1s-0.5,0-0.7,0c-0.5-0.1-0.9-0.2-1.3-0.4l-0.8,0.2l-0.8,0.2l-1.6,0.3
		l-1.6,0.2c-0.3,0-0.5,0.1-0.8,0.1l-0.8,0.1l0,0c0,0,0,0-0.1,0c-0.4,0-0.8,0-1.1-0.1c-0.2-0.1-0.5-0.2-0.7-0.3
		c-0.2-0.1-0.4-0.3-0.6-0.4c-0.3-0.3-0.6-0.7-0.8-1.2c-0.1-0.2-0.1-0.4-0.1-0.6c-0.2,0-0.4,0-0.6,0.1l-0.6,0l-1.2,0.1h0
		c0,0.2,0,0.4,0.1,0.6c0.1,0.4,0.2,0.8,0.4,1.2c0.2,0.4,0.4,0.7,0.7,1.1c0.2,0.3,0.5,0.5,0.8,0.7c0.3,0.2,0.5,0.4,0.8,0.5
		c0.3,0.2,0.6,0.3,1,0.4c0.3,0.1,0.7,0.2,1,0.2s0.7,0,1.1,0c0,0,0.1,0,0.1,0l0.8-0.1c0.3,0,0.5-0.1,0.8-0.1l1.6-0.3
		c0.5-0.1,1.1-0.2,1.6-0.3l0.8-0.2l0.8-0.2l0.2,0c0.4-0.1,0.7-0.2,1-0.3c0.1,0,0.2-0.1,0.2-0.1c0.1,0,0.2-0.1,0.2-0.1
		c0.2-0.1,0.3-0.2,0.4-0.3c0.6-0.4,1-0.9,1.4-1.5h0C166.6,222.7,166.1,222.8,165.7,222.9z"/>
	<path class="st1" d="M146.3,221.5c-0.8,0-1.6,0-2.4,0c0,0.2,0,0.4-0.1,0.6c-0.1,0.5-0.4,0.9-0.7,1.2c-0.3,0.3-0.7,0.6-1.2,0.8
		c-0.4,0.1-0.8,0.2-1.2,0.2l0,0c-1.1-0.1-2.1-0.2-3.1-0.3l-1.6-0.2l-0.8-0.1c-0.3,0-0.5-0.1-0.8-0.1c-0.8,0.4-1.7,0.6-2.6,0.5
		c-0.5-0.1-0.9-0.2-1.3-0.3c0.2,0.3,0.4,0.5,0.7,0.8c0.1,0.1,0.3,0.2,0.4,0.3c0.2,0.1,0.3,0.2,0.5,0.3c0.6,0.4,1.3,0.6,2.1,0.7
		c0.3,0,0.5,0.1,0.8,0.1l0.8,0.1l1.6,0.2c1.1,0.1,2.2,0.2,3.2,0.3c1.5,0.1,3-0.4,4-1.3c0.3-0.2,0.5-0.5,0.7-0.8
		c0.5-0.7,0.8-1.5,0.9-2.4l0,0C146.3,221.9,146.3,221.7,146.3,221.5z"/>
	<path class="st1" d="M150.4,222l-1.7,0.1c-0.3,0-0.6,0-0.8,0l-0.8,0c-0.1,0.8-0.4,1.7-0.8,2.4l1.3,0h0.6c0.2,0,0.4,0,0.6,0l1.3-0.1
		c0.4,0,0.8,0,1.3-0.1c-0.2-0.3-0.4-0.7-0.6-1.1C150.6,222.8,150.5,222.4,150.4,222z"/>
	<path class="st1" d="M154.4,221.6c0.2,0.4,0.4,0.7,0.8,1s0.8,0.4,1.2,0.4c0.5-0.6,0.7-1.4,0.6-2.3c-0.1-0.8-0.6-1.5-1.2-2
		c-0.3-0.2-0.5-0.4-0.9-0.5c0,0,0,0,0,0c-0.2-0.1-0.4-0.1-0.6-0.2c-0.2,0-0.4,0-0.7,0l-0.9,0.1c-0.3,0-0.6,0-0.9,0.1l-1.1,0.1
		l-0.3,0l-0.3,0l-0.5,0c-0.7,0-1.4,0.1-2.1,0.1c-0.7,0-1.4,0-2.1,0c-0.7,0-1.4,0-2.1,0c-0.5,0-0.9,0.1-1.3,0.2
		c-0.3,0.1-0.6,0.3-0.8,0.5c-0.6,0.5-1,1.3-1,2.1c-0.1,0.8,0.2,1.6,0.8,2.2c0.9-0.1,1.7-0.7,1.9-1.5c-0.2-0.1-0.3-0.4-0.3-0.6
		c0-0.2,0.2-0.5,0.4-0.6c0.1-0.1,0.2-0.1,0.3-0.1c1.3,0,2.6,0.1,3.9,0l1,0c0.2,0,0.3,0,0.5,0l0.5,0l1,0l0.5,0l0.5,0l1.2-0.1l0.6,0
		l0.6-0.1l0.5,0c0.1,0,0.2,0,0.3,0.1c0.2,0.1,0.4,0.3,0.4,0.6C154.7,221.2,154.6,221.5,154.4,221.6z"/>
	<path class="st1" d="M132,220c0-0.2,0.1-0.4,0.2-0.5l0,0c0.2-0.5,0.5-0.8,0.8-1.1c0.4-0.3,0.8-0.5,1.2-0.6c0.4-0.1,0.7-0.1,1.1,0
		c0.2,0,0.5,0.1,0.7,0.1l0.7,0.1l1.5,0.2c1,0.1,1.9,0.2,2.9,0.2l0,0c0.7-0.5,1.5-0.8,2.4-0.7c0.4,0,0.8,0,1.2,0
		c-0.9-0.9-2.1-1.6-3.4-1.7c-0.9-0.1-1.9-0.2-2.8-0.2l-1.4-0.2l-0.7-0.1c-0.2,0-0.5-0.1-0.7-0.1c-0.7-0.1-1.3-0.1-1.9,0.1
		c-0.2,0-0.3,0.1-0.5,0.2c-0.2,0.1-0.3,0.1-0.5,0.2c-0.3,0.1-0.6,0.3-0.8,0.5c-0.3,0.2-0.5,0.4-0.8,0.6c-0.6,0.6-1.1,1.3-1.4,2.1
		l0,0c-0.1,0.2-0.1,0.4-0.2,0.5C130.5,219.7,131.2,219.9,132,220z"/>
	<path class="st1" d="M126.7,218.2c0.3,0.1,0.5,0.2,0.8,0.2l1.6,0.4c0.3-0.8,0.7-1.5,1.2-2.1l-2.3-0.5c-0.2,0-0.4-0.1-0.6-0.2
		l-0.6-0.2l-1.1-0.3c0.2,0.8,0.2,1.6,0.1,2.5L126.7,218.2z"/>
	<path class="st1" d="M133.4,223.1c0.3-0.1,0.7-0.2,0.9-0.4c0.6-0.5,1.1-1.2,1.2-2c0.1-0.8-0.1-1.6-0.6-2.3c-0.8,0-1.6,0.5-2,1.3
		c0.2,0.2,0.3,0.4,0.2,0.6c0,0.2-0.2,0.5-0.5,0.5c-0.1,0-0.2,0.1-0.3,0c-0.6-0.1-1.3-0.2-1.9-0.4c-0.3-0.1-0.6-0.1-1-0.2l-1-0.2
		l-1-0.2c-0.3-0.1-0.6-0.2-1-0.2l-1.9-0.5c-0.2-0.1-0.4-0.1-0.6-0.2l-0.6-0.2l-1.1-0.4l-0.4-0.1c-0.1,0-0.2-0.1-0.3-0.2
		c-0.2-0.2-0.2-0.5-0.2-0.7c0.1-0.2,0.3-0.4,0.5-0.5c0-0.9-0.4-1.7-1.2-2.1c-0.7,0.3-1.3,0.9-1.6,1.7c-0.3,0.8-0.2,1.6,0.1,2.3
		c0.2,0.3,0.4,0.6,0.6,0.8l0,0l0,0c0.2,0.2,0.3,0.3,0.5,0.4c0.1,0.1,0.2,0.1,0.3,0.2c0.1,0.1,0.2,0.1,0.3,0.1l1.9,0.6
		c2.9,0.9,5.8,1.6,8.8,2.1C132.5,223.3,132.9,223.2,133.4,223.1z"/>
	<path class="st1" d="M124.9,215.3c-0.1-0.3-0.2-0.6-0.4-0.9c-0.3-0.6-0.7-1.1-1.1-1.5c-0.5-0.4-1-0.8-1.6-1l-0.1,0l-0.3-0.1
		c-0.1,0-0.2-0.1-0.3-0.1l-0.7-0.3l-1.3-0.5c-0.2-0.1-0.4-0.2-0.7-0.3l-0.6-0.3c-0.4-0.2-0.9-0.4-1.3-0.6c0,0-0.1,0-0.1,0
		c-0.6-0.3-1.2-0.4-1.8-0.4c-0.2,0-0.3,0-0.5,0c-0.2,0-0.3,0-0.5,0c-0.3,0-0.6,0.1-0.9,0.2l0,0l0.5,0.3c0.2,0.1,0.4,0.2,0.5,0.3
		c0.8,0.4,1.4,1,1.7,1.8l0,0c0.5,0.2,0.9,0.4,1.3,0.6l0.7,0.3c0.2,0.1,0.5,0.2,0.7,0.3l1.4,0.5l0.7,0.3c0.1,0,0.2,0.1,0.3,0.1
		l0.3,0.1c0,0,0,0,0.1,0c0.3,0.1,0.6,0.3,0.9,0.5c0.2,0.2,0.3,0.3,0.5,0.5c0.1,0.2,0.2,0.4,0.3,0.6c0.2,0.4,0.2,0.9,0.2,1.4
		c0,0.2-0.1,0.4-0.1,0.6l1.1,0.3l0.6,0.2c0.2,0.1,0.4,0.1,0.6,0.2h0c0.1-0.2,0.1-0.4,0.1-0.6l0,0
		C125.3,216.9,125.2,216.1,124.9,215.3z"/>
	<path class="st1" d="M121,221.2c-0.1,0-0.2-0.1-0.3-0.1c-0.1-0.1-0.2-0.1-0.3-0.2c-0.2-0.1-0.4-0.2-0.6-0.4c-0.4-0.3-0.7-0.6-0.9-1
		c-0.2-0.1-0.5-0.2-0.8-0.3l-0.7-0.3l-1.5-0.6c-0.2-0.1-0.5-0.2-0.7-0.3l-0.7-0.3c-0.5-0.2-1-0.4-1.5-0.6l0,0c0,0,0,0,0,0
		c-0.4-0.2-0.7-0.4-0.9-0.7c-0.7-0.7-1-1.7-0.7-2.7c0-0.2,0.1-0.4,0.2-0.5l-2.1-1.1l0,0c-0.1,0.2-0.2,0.3-0.2,0.5
		c-0.2,0.4-0.3,0.8-0.3,1.2c0,0.4,0,0.8,0,1.3c0.1,0.3,0.1,0.7,0.3,1c0.1,0.3,0.3,0.6,0.4,0.9c0.1,0.2,0.2,0.3,0.3,0.4
		s0.2,0.3,0.3,0.4c0.5,0.5,1.1,0.9,1.7,1.3c0,0,0.1,0,0.1,0.1c0.5,0.2,1,0.4,1.5,0.7l0.8,0.3c0.2,0.1,0.5,0.2,0.8,0.3l1.5,0.6
		l0.8,0.3c0.1,0.1,0.2,0.1,0.4,0.1l0.4,0.1l0.1,0.1c0.7,0.2,1.4,0.3,2.1,0.3c0.7-0.1,1.4-0.2,2-0.5h0L121,221.2z"/>
	<path class="st1" d="M104.9,210.2L104.9,210.2c0.1-0.2,0.2-0.3,0.3-0.5c-0.3-0.2-0.7-0.4-1-0.6l-1-0.7c-0.1,0.2-0.2,0.3-0.4,0.4
		c-0.4,0.3-0.8,0.6-1.2,0.7c-0.5,0.1-0.9,0.1-1.4,0c-0.4-0.1-0.7-0.2-1.1-0.5l0,0l-0.3-0.2l-0.3-0.2l-0.6-0.5l-1.3-1l-1.2-1
		l-0.6-0.5l-0.3-0.2l-0.3-0.3c-0.9,0-1.8-0.4-2.5-1l-1-0.9c0,0.3,0.1,0.7,0.2,1c0.1,0.3,0.2,0.7,0.4,1c0.3,0.6,0.8,1.2,1.4,1.7
		l0.3,0.3l0.3,0.3l0.6,0.5l1.3,1l1.3,1l0.6,0.5l0.3,0.2l0.3,0.2c0.6,0.5,1.3,0.8,2,0.9c0.1,0,0.2,0,0.3,0.1c0.1,0,0.2,0,0.3,0
		c0.2,0,0.4,0,0.5,0c0.4,0,0.7,0,1-0.1c0.3-0.1,0.7-0.2,1-0.3c0.4-0.2,0.8-0.4,1.1-0.6C104.3,210.9,104.6,210.6,104.9,210.2z"/>
	<path class="st1" d="M107,211.5c-0.1-0.1-0.2-0.1-0.4-0.2l-0.4-0.2l-0.7-0.4c-0.5,0.7-1.2,1.2-1.9,1.6l1.1,0.7l0.5,0.3
		c0.2,0.1,0.4,0.2,0.5,0.3l2.2,1.2c0-0.8,0.1-1.7,0.5-2.5L107,211.5z"/>
	<path class="st1" d="M112.1,214.1c-0.2,0.8,0.2,1.7,1,2.2c0.2-0.1,0.4-0.2,0.5-0.2c0.2-0.1,0.3-0.2,0.5-0.4c0.3-0.3,0.5-0.6,0.7-1
		c0.2-0.4,0.3-0.8,0.3-1.2c0-0.2,0-0.4,0-0.6c0-0.2-0.1-0.4-0.2-0.6c-0.1-0.3-0.3-0.6-0.5-0.9l0,0c-0.3-0.3-0.6-0.6-1-0.8
		c-0.1-0.1-0.3-0.1-0.4-0.2l-0.4-0.2l-0.8-0.4l-0.5-0.2c-0.2-0.1-0.3-0.2-0.5-0.2l-0.9-0.5l-0.9-0.5l-0.2-0.1l-0.2-0.1l-0.5-0.3
		l-0.9-0.5c-0.3-0.2-0.6-0.4-0.9-0.5l-1.8-1.1c-0.1-0.1-0.2-0.1-0.3-0.2c-0.1-0.1-0.2-0.1-0.3-0.1c-0.2-0.1-0.4-0.1-0.6-0.2
		c-0.3-0.1-0.7-0.1-1,0c-0.4,0.1-0.8,0.2-1.1,0.4c-0.3,0.2-0.6,0.5-0.9,0.8c-0.2,0.3-0.4,0.7-0.5,1.1c-0.1,0.4-0.1,0.8,0,1.2
		c0.8,0.4,1.8,0.3,2.4-0.2c-0.1-0.2-0.1-0.5,0-0.7c0.2-0.2,0.4-0.3,0.6-0.3c0.1,0,0.2,0.1,0.3,0.1l1.6,1.1l0.4,0.3
		c0.1,0.1,0.3,0.2,0.4,0.2l0.8,0.5l0.8,0.5l0.2,0.1c0.1,0,0.1,0.1,0.2,0.1l0.4,0.2l1.7,0.9l2.1,1.1c0.1,0.1,0.3,0.1,0.4,0.2
		c0.1,0.1,0.2,0.1,0.2,0.2c0.1,0.2,0.2,0.5,0.1,0.7C112.6,214,112.3,214.1,112.1,214.1z"/>
	<path class="st1" d="M92.5,199.5l0.2,0.2l0.4,0.4l0.9,0.8c0.1-0.1,0.3-0.3,0.4-0.4l0,0c0.4-0.3,0.8-0.4,1.3-0.5
		c0.5-0.1,0.9,0,1.4,0.1c0.3,0.1,0.7,0.3,1,0.5l0.3,0.2l0.3,0.2l0.6,0.5l1.1,0.9l1.2,0.9l0.6,0.5l0.3,0.2l0.3,0.2l0,0
		c0.4,0,0.8,0,1.2,0.1c0.2,0.1,0.4,0.1,0.6,0.2c0.1,0,0.2,0.1,0.3,0.2c0.1,0.1,0.2,0.1,0.3,0.2l1,0.7c-0.1-0.3-0.2-0.6-0.3-0.9
		c-0.1-0.2-0.1-0.3-0.2-0.4c0-0.1-0.1-0.1-0.1-0.2c0-0.1-0.1-0.2-0.1-0.2c-0.3-0.5-0.8-1-1.3-1.4l-0.3-0.2l-0.3-0.2l-0.6-0.4
		l-1.1-0.9l-1.1-0.9l-0.5-0.5l-0.3-0.2l-0.3-0.2c-0.5-0.4-1.1-0.8-1.7-0.9c-0.3-0.1-0.6-0.2-0.9-0.2c-0.3,0-0.6-0.1-1-0.1
		c-0.3,0-0.7,0.1-1,0.1c-0.4,0.1-0.8,0.2-1.2,0.4c-0.4,0.2-0.8,0.4-1.1,0.7l0,0c-0.2,0.1-0.3,0.2-0.4,0.4L92.5,199.5z"/>
	<path class="st1" d="M92.1,198.3c0.7-0.5,1.4-0.9,2.2-1.1l-1.7-1.7l-1.6-1.7c-0.3,0.8-0.7,1.5-1.2,2.1l1.1,1.2L92.1,198.3z"/>
	<path class="st1" d="M93.5,204.3c0.3,0.1,0.7,0.2,1,0.1c0.4,0,0.8-0.1,1.1-0.3c0.4-0.2,0.7-0.4,1-0.8c0.3-0.3,0.5-0.7,0.6-1.1
		c0.1-0.4,0.2-0.8,0.2-1.2c-0.7-0.5-1.6-0.5-2.4,0c0.1,0.2,0,0.5-0.1,0.7c-0.2,0.2-0.4,0.3-0.7,0.2c-0.1,0-0.2-0.1-0.3-0.2
		c-1-0.9-1.9-1.8-2.8-2.7l-0.7-0.7c-0.1-0.1-0.2-0.2-0.3-0.4l-0.3-0.4l-1.3-1.5c-0.1-0.2-0.3-0.3-0.4-0.5l-0.4-0.5l-0.8-0.9
		l-0.3-0.3c-0.1-0.1-0.1-0.2-0.1-0.3c0-0.2,0-0.5,0.2-0.7c0.2-0.2,0.5-0.2,0.7-0.1c0.5-0.7,0.5-1.6,0.1-2.4
		c-0.8-0.1-1.6,0.1-2.3,0.6c-0.7,0.5-1.1,1.3-1.1,2.1c0,0.3,0,0.7,0.1,1l0,0c0,0,0,0,0,0c0.1,0.4,0.3,0.8,0.6,1.2l1.3,1.5
		c2,2.3,4.1,4.4,6.3,6.5C92.6,203.9,93,204.2,93.5,204.3z"/>
	<path class="st1" d="M90.7,192.1c0-0.3,0-0.6,0-0.9c0-0.3-0.1-0.6-0.2-0.9c-0.2-0.6-0.4-1.2-0.8-1.7l-0.1-0.1
		c-0.2-0.2-0.3-0.4-0.4-0.6l-0.4-0.6c-0.3-0.4-0.6-0.8-0.8-1.1l-0.8-1.2l-0.4-0.6c-0.1-0.1-0.1-0.2-0.2-0.3l-0.2-0.3
		c0,0,0-0.1-0.1-0.1c-0.4-0.5-0.8-1-1.4-1.3c-0.1-0.1-0.3-0.2-0.4-0.2c-0.1-0.1-0.3-0.2-0.4-0.2c-0.3-0.1-0.6-0.2-0.9-0.3l0,0l0.6,1
		c0,0,0.1,0.1,0.1,0.1c0,0,0.1,0.1,0.1,0.1c0.1,0.1,0.1,0.2,0.1,0.3c0.1,0.2,0.1,0.4,0.2,0.6c0.1,0.4,0.1,0.8,0.1,1.2l0,0l0.2,0.3
		c0.1,0.1,0.1,0.2,0.2,0.3l0.4,0.6l0.8,1.2c0.3,0.4,0.6,0.8,0.9,1.2l0.4,0.6c0.2,0.2,0.3,0.4,0.5,0.6c0,0,0,0,0,0.1
		c0.2,0.3,0.4,0.6,0.5,0.9c0.1,0.5,0.2,0.9,0.1,1.4c0,0.2-0.1,0.5-0.2,0.7c-0.1,0.2-0.2,0.4-0.4,0.6c-0.1,0.2-0.2,0.3-0.4,0.4
		l0.8,0.9l0.4,0.4c0.1,0.2,0.2,0.3,0.4,0.4l0,0c0.1-0.1,0.3-0.3,0.4-0.4l0,0c0.6-0.7,1-1.4,1.2-2.2
		C90.6,192.8,90.6,192.5,90.7,192.1z"/>
	<path class="st1" d="M84,196.1c-0.6-0.8-0.9-1.6-0.9-2.5c-0.2-0.2-0.3-0.4-0.5-0.6l-0.5-0.6c-0.3-0.4-0.6-0.8-0.9-1.3l-0.9-1.3
		l-0.5-0.7c-0.1-0.1-0.2-0.2-0.2-0.3l-0.2-0.3l0,0c0,0,0,0,0,0c-0.2-0.3-0.3-0.7-0.4-1.1c-0.1-0.5-0.1-1,0.1-1.4
		c0.1-0.5,0.4-0.9,0.7-1.2c0.1-0.1,0.3-0.3,0.5-0.4l-0.6-1c-0.2-0.3-0.4-0.7-0.6-1l0,0c-0.2,0.1-0.3,0.2-0.5,0.3
		c-0.4,0.3-0.7,0.6-0.9,0.9c-0.3,0.3-0.5,0.7-0.7,1.1c-0.1,0.3-0.2,0.7-0.3,1c-0.1,0.3-0.1,0.7-0.1,1c0,0.2,0,0.3,0,0.5
		c0,0.2,0,0.3,0.1,0.5c0.1,0.7,0.4,1.4,0.8,2c0,0,0,0.1,0.1,0.1l0.2,0.3c0.1,0.1,0.2,0.2,0.2,0.3l0.5,0.7l0.9,1.3
		c0.3,0.4,0.6,0.9,1,1.3l0.5,0.7c0.2,0.2,0.3,0.4,0.5,0.6l0.1,0.1c0.5,0.6,1,1,1.6,1.4c0.3,0.2,0.6,0.3,0.9,0.4s0.7,0.2,1,0.2l0,0
		L84,196.1z"/>
	<path class="st1" d="M76.2,178.3L76.2,178.3c0.2-0.1,0.4-0.1,0.5-0.2c-0.1-0.2-0.2-0.4-0.3-0.5l-0.2-0.5l-0.5-1.1
		c-0.2,0.1-0.4,0.1-0.5,0.2c-0.2,0-0.5,0.1-0.7,0.1c-0.2,0-0.5-0.1-0.7-0.1c-0.5-0.2-0.9-0.4-1.2-0.8c-0.3-0.3-0.5-0.6-0.7-1l0,0
		c-0.1-0.1-0.1-0.2-0.2-0.4l-0.1-0.4l-0.3-0.7l-0.6-1.5l-0.5-1.5c-0.2-0.5-0.3-1-0.5-1.5c-0.4-0.2-0.7-0.6-0.9-0.9
		c-0.1-0.2-0.2-0.4-0.4-0.6c-0.1-0.2-0.2-0.4-0.2-0.7l-0.2-0.7c-0.1-0.2-0.1-0.4-0.2-0.7c-0.2,0.3-0.3,0.6-0.4,1
		c-0.1,0.3-0.2,0.7-0.2,1s0,0.7,0,1.1c0,0.4,0.1,0.7,0.2,1.1c0.2,0.5,0.3,1,0.5,1.5l0.5,1.5l0.6,1.5l0.3,0.8l0.2,0.4
		c0.1,0.1,0.1,0.2,0.2,0.4c0.3,0.7,0.7,1.3,1.2,1.8c0.1,0.1,0.2,0.2,0.4,0.4c0.1,0.1,0.3,0.2,0.4,0.3c0.3,0.2,0.6,0.4,0.9,0.5
		c0.3,0.1,0.7,0.2,1,0.3C74.5,178.6,75.3,178.6,76.2,178.3z"/>
	<path class="st1" d="M78.1,182c-0.3-0.5-0.5-1-0.8-1.5l-0.8-1.5c-0.8,0.3-1.6,0.4-2.5,0.3l1.1,2.3c0.4,0.8,0.8,1.5,1.2,2.2
		C76.8,183.1,77.4,182.5,78.1,182z"/>
	<path class="st1" d="M80.9,185.4c-0.2,0.1-0.5,0.1-0.7,0c-0.6,0.6-0.7,1.6-0.3,2.4c0.4,0.1,0.8,0.1,1.2,0c0.4-0.1,0.8-0.2,1.1-0.5
		s0.6-0.5,0.8-0.9c0.2-0.3,0.4-0.7,0.5-1.1c0.1-0.3,0.1-0.7,0.1-1c0,0,0,0,0,0c0-0.2-0.1-0.4-0.2-0.6c0-0.1-0.1-0.2-0.1-0.3
		c0-0.1-0.1-0.1-0.1-0.2c0-0.1-0.1-0.1-0.1-0.2l-1-1.6c-1.4-2.4-2.7-4.9-3.8-7.5c-0.2-0.4-0.4-0.8-0.8-1c-0.2-0.2-0.5-0.4-0.8-0.5
		c-0.4-0.2-0.8-0.2-1.1-0.2c-0.4,0-0.8,0.1-1.2,0.2s-0.7,0.4-1,0.7c-0.3,0.3-0.5,0.6-0.6,1c0.5,0.8,1.3,1.2,2.2,1.1
		c0-0.2,0.2-0.5,0.4-0.6c0.2-0.1,0.5-0.1,0.7,0.1c0.1,0.1,0.2,0.2,0.2,0.3l0.8,1.8l0.2,0.4l0.1,0.2c0,0.1,0.1,0.2,0.1,0.2l0.4,0.9
		l0.4,0.9l0.2,0.4c0.1,0.2,0.2,0.3,0.2,0.4l0.9,1.7l0.2,0.3l0.2,0.3l0.3,0.5l0.6,1l0.2,0.4c0.1,0.1,0.1,0.2,0.1,0.3
		C81.2,185,81.1,185.3,80.9,185.4z"/>
	<path class="st1" d="M71.7,164c0.1,0.2,0.1,0.4,0.2,0.6c0.2,0,0.4-0.1,0.6-0.1l0,0c0.5,0,1,0.1,1.4,0.3c0.2,0.1,0.4,0.2,0.6,0.4
		c0.2,0.1,0.4,0.3,0.5,0.5c0.2,0.3,0.4,0.6,0.5,1c0.2,0.5,0.3,0.9,0.5,1.4l0.5,1.4l0.5,1.4l0.3,0.7l0.1,0.3c0,0.1,0.1,0.2,0.1,0.3
		l0,0c0.8,0.4,1.4,1,1.7,1.8l0.5,1.1c0.1-0.3,0.2-0.6,0.3-0.9c0-0.2,0.1-0.3,0.1-0.5c0-0.2,0-0.3,0-0.5c0-0.6-0.1-1.3-0.4-1.9
		c0-0.1-0.1-0.2-0.1-0.3l-0.1-0.3l-0.2-0.7l-0.5-1.3l-0.5-1.3l-0.4-1.3c-0.1-0.3-0.2-0.6-0.4-0.9c-0.2-0.3-0.3-0.5-0.5-0.8
		c-0.2-0.2-0.4-0.5-0.7-0.7c-0.2-0.2-0.5-0.4-0.8-0.5c-0.3-0.2-0.6-0.3-0.9-0.4c-0.8-0.3-1.6-0.4-2.5-0.3l0,0
		c-0.2,0-0.4,0.1-0.6,0.1c0.1,0.4,0.2,0.8,0.3,1.1L71.7,164z"/>
	<path class="st1" d="M71.3,159.8l0.2,0.8c0.1,0.3,0.1,0.5,0.2,0.8c0.8-0.1,1.7,0,2.5,0.2c-0.4-1.5-0.7-3.1-0.9-4.6
		c-0.6,0.5-1.4,0.9-2.2,1.2l0.2,0.8C71.2,159.3,71.2,159.5,71.3,159.8z"/>
	<path class="st1" d="M67.5,159.9l0.1,0.5l0.2,1.1l0.3,1.1l0.1,0.5l0.1,0.5l0.3,1.1l0.3,1.1c0.1,0.2,0.2,0.5,0.3,0.7
		c0.1,0.2,0.2,0.4,0.4,0.6c0.2,0.3,0.5,0.5,0.8,0.7c0.7,0.4,1.5,0.5,2.3,0.2c0.8-0.3,1.4-0.8,1.8-1.5c-0.2-0.4-0.5-0.7-0.8-0.9
		c-0.2-0.1-0.4-0.2-0.6-0.2c-0.2-0.1-0.4-0.1-0.6-0.1c-0.1,0.2-0.2,0.4-0.5,0.5c-0.2,0.1-0.5,0-0.7-0.2c-0.1-0.1-0.1-0.2-0.2-0.3
		c-0.7-2.5-1.3-5.1-1.7-7.7l-0.2-1.2l-0.1-0.3l0-0.3l-0.1-0.6l-0.1-0.5c0-0.1,0-0.2,0-0.3c0.1-0.2,0.3-0.4,0.5-0.4
		c0.2,0,0.5,0.1,0.6,0.3c0.8-0.3,1.3-1.1,1.3-2c-0.6-0.5-1.4-0.8-2.2-0.7c-0.8,0.1-1.6,0.5-2.1,1.1c-0.2,0.3-0.4,0.6-0.5,0.9l0,0
		c0,0,0,0,0,0c-0.1,0.2-0.1,0.4-0.1,0.7c0,0.1,0,0.2,0,0.4c0,0.1,0,0.2,0,0.4c0.1,0.7,0.2,1.3,0.3,2l0.2,1.1l0.2,1.1L67.5,159.9z"/>
	<path class="st1" d="M73.7,155.4c0.4-0.5,0.7-1.1,0.8-1.7c0.1-0.3,0.2-0.6,0.2-0.9c0-0.3,0-0.6,0-1l0-0.1c-0.2-1.9-0.3-3.8-0.4-5.6
		c0,0,0-0.1,0-0.1c0-0.3-0.1-0.6-0.1-0.9c-0.1-0.3-0.2-0.6-0.3-0.9c-0.1-0.3-0.3-0.6-0.5-0.8c-0.2-0.3-0.4-0.5-0.6-0.7v0l0,0.6v0.6
		c0,0.4-0.1,0.8-0.2,1.2c-0.1,0.2-0.2,0.4-0.3,0.6c-0.1,0.2-0.2,0.4-0.4,0.5l0,0c0,2,0.2,3.9,0.4,5.8c0,0,0,0.1,0,0.1
		c0,0.4,0,0.7-0.1,1c-0.1,0.4-0.4,0.8-0.7,1.2c-0.3,0.3-0.7,0.6-1.1,0.8c-0.2,0.1-0.4,0.1-0.5,0.2c0.1,0.8,0.2,1.5,0.4,2.3v0
		c0.2,0,0.4-0.1,0.5-0.1l0,0c0.8-0.3,1.6-0.7,2.2-1.3C73.3,155.9,73.5,155.6,73.7,155.4z"/>
	<path class="st1" d="M66.1,146.3C66.1,146.3,66.1,146.2,66.1,146.3c0-0.5,0.1-0.8,0.2-1.2c0.3-0.9,1.1-1.6,2.1-1.8
		c0.2,0,0.4-0.1,0.6-0.1l0-1.2c0-0.4,0-0.8,0-1.2v0c-0.2,0-0.4,0-0.6,0c-0.4,0-0.9,0.1-1.3,0.3c-0.4,0.2-0.8,0.3-1.1,0.6
		c-0.3,0.2-0.6,0.4-0.8,0.7c-0.2,0.2-0.5,0.5-0.6,0.8c-0.2,0.3-0.3,0.6-0.5,0.9s-0.2,0.7-0.3,1c-0.1,0.4-0.1,0.7-0.1,1.1
		c0,0,0,0.1,0,0.1c0.1,2.2,0.2,4.3,0.4,6.5l0,0.2c0,0.4,0.1,0.7,0.2,1.1c0.1,0.3,0.3,0.7,0.4,1c0.3,0.6,0.8,1.1,1.3,1.5v0l-0.2-1.3
		c0-0.1,0-0.2,0-0.4s0-0.2,0-0.4c0-0.2,0-0.5,0.1-0.7c0.1-0.2,0.1-0.4,0.2-0.6c0.1-0.2,0.2-0.4,0.3-0.6
		C66.3,150.5,66.1,148.4,66.1,146.3L66.1,146.3z"/>
	<path class="st1" d="M66.5,134.7c0.6,0.6,1.4,1,2.2,1.2l0,0c0.2,0,0.4,0.1,0.6,0.1c0-0.4,0.1-0.8,0.1-1.2c0.1-0.4,0.1-0.8,0.2-1.2
		c-0.2,0-0.4-0.1-0.5-0.2c-0.5-0.2-0.8-0.5-1.1-0.8c-0.3-0.4-0.5-0.8-0.6-1.3c-0.1-0.4-0.1-0.8,0-1.2l0,0c0.2-1,0.4-2.1,0.6-3.1
		l0.4-1.5l0.2-0.8c0.1-0.3,0.1-0.5,0.2-0.8c-0.3-0.8-0.4-1.7-0.2-2.7l0.4-1.3c-0.3,0.2-0.6,0.4-0.8,0.6c-0.1,0.1-0.3,0.2-0.4,0.4
		c-0.1,0.1-0.2,0.3-0.3,0.4c-0.4,0.6-0.8,1.2-1,2c-0.1,0.3-0.1,0.5-0.2,0.8l-0.2,0.8l-0.4,1.6c-0.2,1.1-0.4,2.1-0.6,3.2
		c-0.3,1.5,0.1,3,0.9,4.1C66.1,134.2,66.3,134.5,66.5,134.7z"/>
	<path class="st1" d="M66.1,140.8c0.7-0.4,1.5-0.6,2.4-0.7c0.1-1.1,0.2-2.2,0.2-3.4c-0.8-0.2-1.6-0.5-2.3-1
		C66.3,137.4,66.1,139.1,66.1,140.8z"/>
	<path class="st1" d="M69.8,141c0,0.4,0,0.8,0,1.2c0,0.4,0,0.8,0,1.2v0.5c0,0.1,0,0.2-0.1,0.3c-0.1,0.2-0.3,0.4-0.6,0.4
		c-0.2,0-0.5-0.2-0.6-0.4c-0.8,0.2-1.5,1-1.5,1.9c0.6,0.6,1.3,0.9,2.2,0.9c0.8,0,1.6-0.4,2.1-0.9c0.2-0.2,0.4-0.5,0.6-0.8
		c0,0,0,0,0,0c0.2-0.4,0.3-0.8,0.3-1.2c0-0.3,0-0.6,0-0.9c0-0.3,0-0.6,0-0.9c0.1-2.8,0.3-5.6,0.7-8.3c0.1-0.4,0-0.9-0.1-1.3
		c-0.1-0.3-0.2-0.6-0.5-0.9c-0.5-0.6-1.1-1.1-2-1.3c-0.8-0.2-1.7,0.1-2.3,0.5c0,0.9,0.5,1.7,1.3,2.1c0.2-0.2,0.4-0.3,0.6-0.3
		c0.2,0,0.5,0.2,0.5,0.5c0,0.1,0.1,0.2,0,0.3C70.1,135.8,69.9,138.4,69.8,141z"/>
	<path class="st1" d="M74.2,126.3L74,127l-0.3,1.4c-0.2,1-0.4,1.9-0.6,2.9l0,0c0.2,0.4,0.4,0.8,0.5,1.1c0.1,0.4,0.1,0.8,0,1.3
		l-0.1,0.6l-0.1,0.6c1-0.8,1.8-1.9,2-3.2c0.2-0.9,0.3-1.9,0.5-2.8l0.3-1.4l0.2-0.7c0.1-0.2,0.1-0.5,0.2-0.7c0.2-0.6,0.2-1.3,0.1-1.9
		c0-0.2-0.1-0.3-0.1-0.5c0-0.2-0.1-0.3-0.1-0.5c-0.1-0.3-0.2-0.6-0.4-0.9c-0.2-0.3-0.3-0.6-0.6-0.8c-0.5-0.6-1.2-1.2-2-1.6l0,0
		c-0.2-0.1-0.3-0.2-0.5-0.2c-0.2,0.8-0.5,1.5-0.7,2.2c0.2,0.1,0.4,0.2,0.5,0.2l0,0c0.2,0.1,0.4,0.3,0.6,0.4c0.1,0.1,0.2,0.2,0.2,0.2
		c0.1,0.1,0.2,0.2,0.2,0.3c0.3,0.4,0.4,0.8,0.5,1.3c0.1,0.4,0,0.7-0.1,1.1C74.3,125.8,74.2,126,74.2,126.3z"/>
	<path class="st1" d="M74.6,117.3c-0.1,0.1-0.1,0.3-0.2,0.4l-0.5,1.6c0.8,0.4,1.5,0.9,2,1.5l0.8-2.2c0.1-0.2,0.1-0.4,0.2-0.5
		l0.2-0.5l0.4-1.1c-0.8,0.1-1.6,0.1-2.5-0.2l-0.3,0.8L74.6,117.3z"/>
	<path class="st1" d="M69.5,124c0.2,0.3,0.5,0.7,0.8,0.9c0.3,0.2,0.7,0.4,1.1,0.5c0.4,0.1,0.8,0.1,1.2,0.1c0.4-0.1,0.8-0.2,1.1-0.4
		c0.1-0.8-0.3-1.7-1-2.1c-0.2,0.2-0.4,0.2-0.7,0.2c-0.2-0.1-0.4-0.3-0.5-0.5c0-0.1,0-0.2,0-0.3l0.6-1.9l0.2-0.5
		c0.1-0.2,0.1-0.3,0.2-0.5l0.3-0.9l0.3-0.9c0.1-0.3,0.2-0.6,0.3-0.9l0.7-1.8c0.2-0.4,0.3-0.8,0.5-1.1l0.5-1.1l0.2-0.4
		c0-0.1,0.1-0.2,0.2-0.3c0.2-0.2,0.5-0.2,0.7-0.1s0.4,0.3,0.4,0.6c0.8,0.1,1.7-0.2,2.2-0.9c-0.3-0.7-0.8-1.4-1.5-1.8
		c-0.8-0.4-1.6-0.4-2.3-0.1c-0.3,0.1-0.6,0.3-0.9,0.5l0,0c0,0,0,0,0,0c-0.2,0.2-0.3,0.3-0.5,0.5c-0.2,0.2-0.3,0.4-0.4,0.6l-0.8,1.8
		c-1.2,2.8-2.2,5.6-3.1,8.5c-0.1,0.5-0.2,0.9-0.1,1.4C69.2,123.4,69.3,123.7,69.5,124z"/>
	<path class="st1" d="M76.3,113.2c-0.2,0-0.4-0.1-0.5-0.2l-0.5,1.1l-0.2,0.5c0,0.1-0.1,0.2-0.1,0.3l-0.1,0.3v0
		c0.2,0.1,0.4,0.1,0.5,0.2l0,0c0.4,0.1,0.8,0.2,1.3,0.2c0.4,0,0.8,0,1.3-0.1c0.3-0.1,0.7-0.2,1-0.3c0.6-0.2,1.1-0.5,1.6-1
		c0.5-0.4,0.9-0.9,1.2-1.5l0.1-0.1c0.2-0.4,0.4-0.8,0.6-1.3l0.7-1.3l0.1-0.2l0.1-0.2l0.2-0.3l0.4-0.6l0.4-0.6l0.2-0.3l0.1-0.2
		l0.1-0.2c0,0,0-0.1,0.1-0.1c0.3-0.6,0.5-1.2,0.6-1.8c0-0.2,0-0.3,0-0.5c0-0.2,0-0.3,0-0.5c0-0.3-0.1-0.6-0.1-0.9l0,0
		c-0.2,0.3-0.5,0.7-0.7,1c-0.5,0.7-1.1,1.2-1.9,1.5l0,0l-0.1,0.2l-0.1,0.2l-0.2,0.3l-0.4,0.6l-0.4,0.6l-0.2,0.3l-0.1,0.2l-0.1,0.2
		l-0.7,1.3c-0.2,0.4-0.5,0.9-0.7,1.3c0,0,0,0,0,0.1c-0.2,0.3-0.4,0.6-0.6,0.8c-0.3,0.3-0.8,0.5-1.2,0.6
		C77.2,113.3,76.7,113.3,76.3,113.2z"/>
	<path class="st1" d="M71.8,112.2l0.5-1.2c0.1-0.2,0.2-0.4,0.3-0.6c0.1-0.2,0.3-0.4,0.4-0.5c0.3-0.3,0.7-0.6,1.1-0.8
		c0.2-0.5,0.5-0.9,0.7-1.4l0.7-1.4l0.1-0.2l0.1-0.2l0.2-0.3l0.4-0.7l0.4-0.7l0.2-0.3l0.1-0.2l0.1-0.2l0,0c0,0,0,0,0,0
		c0.2-0.3,0.5-0.6,0.8-0.8c0.4-0.3,0.8-0.5,1.3-0.6c0.5-0.1,1,0,1.4,0.1c0.2,0.1,0.4,0.2,0.5,0.2c0.4-0.6,0.9-1.3,1.3-1.9l0,0
		c-0.2-0.1-0.3-0.2-0.5-0.3c-0.4-0.2-0.8-0.3-1.2-0.4c-0.4-0.1-0.8-0.1-1.3-0.1c-0.4,0-0.7,0.1-1,0.2c-0.3,0.1-0.6,0.2-1,0.3
		c-0.2,0.1-0.3,0.2-0.5,0.2c-0.2,0.1-0.3,0.2-0.4,0.3c-0.6,0.4-1.1,0.9-1.5,1.6c0,0,0,0.1-0.1,0.1l-0.1,0.2l-0.1,0.2l-0.2,0.4
		l-0.4,0.7l-0.4,0.7l-0.2,0.4l-0.1,0.2l-0.1,0.2l-0.8,1.5c-0.2,0.5-0.5,1-0.7,1.5l-0.1,0.1c-0.3,0.7-0.5,1.4-0.5,2.1
		C71.5,110.9,71.6,111.6,71.8,112.2L71.8,112.2z"/>
	<path class="st1" d="M83.8,93.9c0.1,0.4,0.3,0.8,0.5,1.2c0.2,0.4,0.5,0.7,0.8,1l0,0c0.1,0.1,0.3,0.3,0.4,0.4
		c0.2-0.3,0.5-0.6,0.7-0.9l0.8-0.9c-0.2-0.1-0.3-0.3-0.4-0.4c-0.3-0.4-0.5-0.8-0.5-1.3c-0.1-0.5,0-0.9,0.2-1.4
		c0.1-0.4,0.3-0.7,0.6-1l0,0l0.3-0.3l0.3-0.3l0.5-0.6l1.1-1.1l1.1-1.1l0.6-0.5l0.3-0.3l0.3-0.3c0.1-0.8,0.6-1.7,1.3-2.3l1-0.9
		c-0.3,0-0.7,0-1,0.1c-0.3,0.1-0.7,0.1-1,0.3c-0.7,0.3-1.3,0.6-1.9,1.2l-0.3,0.3L89,84.9l-0.6,0.6l-1.1,1.1l-1.1,1.2l-0.6,0.6
		l-0.3,0.3L85,88.9c-0.5,0.6-0.9,1.2-1.1,1.9c-0.1,0.2-0.1,0.3-0.2,0.5c0,0.2-0.1,0.3-0.1,0.5c0,0.3-0.1,0.7,0,1
		C83.6,93.2,83.7,93.6,83.8,93.9z"/>
	<path class="st1" d="M83.5,98.1c0.3-0.5,0.7-0.9,1-1.3c-0.6-0.6-1.1-1.3-1.4-2.1c-0.5,0.7-1,1.3-1.5,2l-1.5,2.1
		c0.8,0.1,1.6,0.3,2.4,0.7L83.5,98.1z"/>
	<path class="st1" d="M87.9,94.8l-1.2,1.5l-0.3,0.4c-0.1,0.1-0.2,0.3-0.3,0.4l-0.6,0.8c-0.8,1-1.5,2.1-2.3,3.1
		c-0.4,0.7-0.9,1.3-1.3,2c-0.1,0.1-0.2,0.2-0.2,0.4c-0.1,0.1-0.1,0.2-0.2,0.2c-0.2,0.1-0.5,0.1-0.7,0c-0.2-0.1-0.3-0.4-0.3-0.6
		c-0.8-0.2-1.7,0.1-2.3,0.8c0.2,0.8,0.7,1.5,1.4,1.9c0.7,0.4,1.6,0.5,2.3,0.3c0.3-0.1,0.6-0.2,0.9-0.4c0,0,0,0,0,0
		c0.4-0.2,0.7-0.5,0.9-0.9c0.3-0.5,0.7-1,1-1.5c1.6-2.3,3.2-4.6,5-6.7c0.3-0.3,0.5-0.7,0.6-1.1c0.1-0.3,0.1-0.7,0.1-1
		c0-0.4-0.1-0.8-0.3-1.1c-0.2-0.4-0.4-0.7-0.7-1c-0.3-0.3-0.7-0.5-1.1-0.6c-0.4-0.1-0.8-0.2-1.2-0.2c-0.5,0.8-0.5,1.7,0,2.4
		c0.2-0.1,0.5-0.1,0.7,0.1c0.2,0.2,0.3,0.4,0.2,0.7C88,94.6,88,94.7,87.9,94.8z"/>
	<path class="st1" d="M95.2,90.3L95,90.6l-0.3,0.3l-0.5,0.5l-1,1l-1,1.1L91.6,94l-0.2,0.3l-0.2,0.3l0,0c0,0.8-0.3,1.6-0.9,2.3
		l-0.8,0.9c0.3,0,0.6-0.1,1-0.2c0.2,0,0.3-0.1,0.5-0.2c0.2-0.1,0.3-0.1,0.5-0.2c0.6-0.3,1.1-0.7,1.6-1.1l0.2-0.3l0.2-0.3l0.5-0.5
		l1-1l1-1l0.5-0.5l0.2-0.2l0.3-0.2c0.5-0.5,0.9-1,1.1-1.6c0.1-0.3,0.2-0.6,0.3-0.9c0.1-0.3,0.1-0.6,0.2-1c0-0.3,0-0.7,0-1
		c-0.1-0.4-0.1-0.8-0.3-1.2c-0.1-0.4-0.3-0.8-0.5-1.2l0,0c-0.1-0.2-0.2-0.3-0.3-0.5c-0.3,0.2-0.6,0.5-0.9,0.8l-0.9,0.8
		c0.1,0.2,0.2,0.3,0.3,0.5l0,0c0.2,0.4,0.3,0.9,0.4,1.4c0,0.5-0.1,0.9-0.3,1.4C95.7,89.8,95.5,90.1,95.2,90.3z"/>
	<path class="st1" d="M100.8,82.7l-1.3,1c-0.4,0.3-0.9,0.7-1.3,1c0.5,0.7,0.8,1.5,0.9,2.3c0.6-0.5,1.2-1,1.8-1.5l1.9-1.4
		C102.1,83.8,101.4,83.3,100.8,82.7z"/>
	<path class="st1" d="M92.2,85.4c-0.1,0.3-0.2,0.7-0.2,1c0,0.4,0,0.8,0.2,1.2c0.1,0.4,0.4,0.7,0.7,1c0.3,0.3,0.6,0.5,1,0.7
		c0.4,0.2,0.8,0.2,1.1,0.3c0.5-0.7,0.6-1.6,0.2-2.4c-0.2,0.1-0.5,0-0.7-0.2c-0.2-0.2-0.2-0.5-0.1-0.7c0-0.1,0.1-0.2,0.2-0.3
		c1-0.8,2-1.7,3-2.5c1-0.8,2.1-1.6,3.1-2.4c0.7-0.5,1.3-0.9,2-1.4c0.1-0.1,0.2-0.2,0.4-0.3c0.1-0.1,0.2-0.1,0.3-0.1
		c0.2,0,0.5,0.1,0.6,0.3c0.1,0.2,0.1,0.5,0,0.7c0.7,0.6,1.6,0.7,2.4,0.4c0.2-0.8,0.1-1.6-0.4-2.3c-0.4-0.7-1.1-1.2-1.9-1.4
		c-0.3-0.1-0.7-0.1-1,0l0,0c0,0,0,0,0,0c-0.5,0.1-0.9,0.2-1.3,0.5c-0.5,0.4-1.1,0.8-1.7,1.1c-2.5,1.8-4.8,3.6-7.1,5.6
		C92.6,84.6,92.3,85,92.2,85.4z"/>
	<path class="st1" d="M103.6,83.6c0.3,0.1,0.6,0.2,1,0.3c0.3,0.1,0.6,0.1,0.9,0.1c0.2,0,0.3,0,0.5,0c0.2,0,0.3,0,0.5-0.1
		c0.6-0.1,1.2-0.3,1.8-0.6l0.1-0.1c0.1-0.1,0.2-0.1,0.3-0.2l0.3-0.2l0.6-0.4l0.6-0.4l0.3-0.2l0.2-0.1l0.2-0.1l1.2-0.7
		c0.4-0.2,0.8-0.5,1.2-0.7c0,0,0.1,0,0.1-0.1c0.6-0.3,1.1-0.7,1.5-1.2c0.4-0.5,0.7-1,0.9-1.6h0l-1.1,0.5c-0.2,0.1-0.4,0.2-0.6,0.2
		c-0.2,0.1-0.4,0.1-0.6,0.1c-0.4,0-0.8,0-1.2-0.1l0,0c-0.4,0.2-0.9,0.5-1.3,0.7l-1.3,0.7l-0.2,0.1l-0.2,0.1l-0.3,0.2l-0.6,0.4
		l-0.6,0.4l-0.3,0.2c-0.1,0.1-0.2,0.1-0.3,0.2c0,0,0,0-0.1,0c-0.3,0.2-0.6,0.3-1,0.4c-0.5,0.1-0.9,0-1.4-0.1
		c-0.2-0.1-0.4-0.2-0.6-0.3c-0.2-0.1-0.4-0.2-0.6-0.4c-0.1-0.1-0.3-0.3-0.4-0.4c-0.6,0.5-1.3,0.9-1.9,1.3l0,0
		c0.1,0.2,0.2,0.3,0.4,0.4l0,0C102.1,82.8,102.8,83.3,103.6,83.6z"/>
	<path class="st1" d="M101.3,76.8c0.8-0.5,1.7-0.7,2.6-0.6l0.2-0.1l0.2-0.1l0.3-0.2l0.7-0.4l0.7-0.4l0.3-0.2
		c0.1-0.1,0.2-0.1,0.3-0.2l1.4-0.8c0.5-0.2,0.9-0.5,1.4-0.8l0,0c0,0,0,0,0,0c0.4-0.2,0.7-0.3,1.1-0.3c0.5,0,1,0,1.4,0.2
		c0.4,0.2,0.8,0.5,1.1,0.9c0.1,0.2,0.2,0.3,0.3,0.5l1.1-0.5c0.4-0.2,0.7-0.3,1.1-0.5l0,0c-0.1-0.2-0.2-0.3-0.3-0.5
		c-0.2-0.4-0.5-0.7-0.8-1c-0.3-0.3-0.6-0.5-1-0.8c-0.3-0.2-0.6-0.3-1-0.4c-0.6-0.2-1.3-0.3-2-0.3c-0.7,0.1-1.4,0.2-2.1,0.6
		c0,0-0.1,0-0.1,0.1c-0.5,0.2-1,0.5-1.4,0.8l-1.4,0.8l-0.2,0.1l-0.2,0.1l-0.4,0.2l-0.7,0.4l-0.7,0.4l-0.4,0.2
		c-0.1,0.1-0.2,0.1-0.3,0.2l-0.1,0.1c-0.6,0.4-1.1,0.9-1.5,1.5c-0.1,0.2-0.2,0.3-0.3,0.4c-0.1,0.2-0.2,0.3-0.2,0.5
		c-0.1,0.3-0.2,0.6-0.3,1l0,0C100.6,77.3,100.9,77.1,101.3,76.8z"/>
	<path class="st1" d="M119.9,71c0,0.2,0.1,0.4,0.2,0.5c0.1,0,0.2-0.1,0.3-0.1l0.3-0.1l0.6-0.2l1.1-0.4c-0.1-0.2-0.1-0.4-0.1-0.6
		c0-0.2,0-0.5,0-0.7c0-0.1,0-0.2,0.1-0.3c0-0.1,0.1-0.2,0.1-0.3c0.2-0.4,0.5-0.8,0.9-1.1c0.3-0.2,0.7-0.4,1.1-0.5l0,0
		c0.2-0.1,0.5-0.2,0.8-0.2l0.8-0.2l1.5-0.4c0.5-0.1,1-0.2,1.5-0.4l0.8-0.2l0.8-0.2c0.6-0.7,1.4-1.1,2.3-1.3c0.5-0.1,0.9-0.2,1.3-0.2
		c-1.1-0.8-2.6-1.1-4.1-0.8l-0.8,0.2l-0.8,0.2c-0.5,0.1-1.1,0.2-1.6,0.4l-1.6,0.4l-0.8,0.2c-0.3,0.1-0.5,0.1-0.8,0.2
		c-0.7,0.2-1.4,0.6-2,1c-0.1,0.1-0.3,0.2-0.4,0.3c-0.1,0.1-0.2,0.3-0.4,0.4c-0.2,0.3-0.4,0.6-0.6,0.9c-0.2,0.3-0.3,0.6-0.4,1
		C119.7,69.3,119.7,70.1,119.9,71L119.9,71z"/>
	<path class="st1" d="M126.6,75.1c0.2-0.1,0.5-0.1,0.7-0.2l0.7-0.2l1.4-0.4c0.5-0.1,0.9-0.2,1.4-0.3l0.7-0.2l0.7-0.1
		c1.3-0.3,2.4-1,3.2-2.1c0.2-0.3,0.4-0.6,0.5-0.9c0.4-0.8,0.6-1.6,0.6-2.5l0,0c0-0.2,0-0.4,0-0.6c-0.4,0-0.8,0.1-1.2,0.2
		c-0.4,0.1-0.8,0.1-1.2,0.2c0,0.2,0,0.4,0,0.6l0,0c0,0.5-0.2,0.9-0.4,1.3c-0.2,0.4-0.5,0.7-0.9,1c-0.3,0.2-0.6,0.3-1,0.4l-0.7,0.2
		l-0.7,0.2c-0.5,0.1-0.9,0.2-1.4,0.3l-1.4,0.4l-0.7,0.2c-0.2,0.1-0.5,0.1-0.7,0.2l0,0c-0.5,0.7-1.1,1.2-2,1.5l-1.2,0.4
		c0.3,0.2,0.6,0.3,0.9,0.4c0.2,0,0.3,0.1,0.5,0.1c0.2,0,0.3,0.1,0.5,0.1C125.3,75.4,125.9,75.3,126.6,75.1z"/>
	<path class="st1" d="M116,72.5l0.8-0.3l0.4-0.2c0.1-0.1,0.3-0.1,0.4-0.2l1.6-0.6c-0.2-0.8-0.2-1.7-0.1-2.5l-2.4,0.9
		c-0.2,0.1-0.4,0.2-0.6,0.2l-0.6,0.2l-1.2,0.5C115,71.1,115.6,71.7,116,72.5z"/>
	<path class="st1" d="M117.6,73.3l-1.8,0.8c-0.4,0.2-0.7,0.3-1.1,0.5l-1.1,0.5l-0.4,0.2c-0.1,0.1-0.2,0.1-0.3,0.1
		c-0.2,0-0.5-0.2-0.6-0.4c-0.1-0.2-0.1-0.5,0.1-0.7c-0.6-0.6-1.5-0.9-2.4-0.6c-0.3,0.8-0.2,1.6,0.2,2.3c0.4,0.7,1.1,1.3,1.8,1.5
		c0.3,0.1,0.6,0.2,1,0.2c0,0,0,0,0,0c0.2,0,0.4,0,0.6-0.1c0.2-0.1,0.4-0.1,0.6-0.2l1.7-0.8c2.6-1.1,5.2-2.1,7.8-3
		c0.4-0.1,0.8-0.3,1.1-0.6c0.2-0.2,0.5-0.5,0.6-0.8c0.2-0.3,0.3-0.7,0.4-1.1c0.1-0.4,0-0.8-0.1-1.2c-0.1-0.4-0.3-0.8-0.5-1.1
		c-0.2-0.3-0.6-0.6-0.9-0.8c-0.8,0.4-1.3,1.2-1.3,2c0.2,0.1,0.5,0.2,0.5,0.5c0.1,0.2,0,0.5-0.2,0.7c-0.1,0.1-0.2,0.1-0.3,0.2
		l-1.8,0.6l-0.5,0.2c-0.2,0.1-0.3,0.1-0.5,0.2l-0.9,0.3l-0.9,0.3C118.2,73.1,117.9,73.2,117.6,73.3z"/>
	<path class="st1" d="M137.1,68.3c0,0.8-0.2,1.7-0.5,2.4c1.5-0.2,3.1-0.4,4.7-0.5c-0.4-0.7-0.8-1.5-0.9-2.3
		C139.3,68.1,138.2,68.2,137.1,68.3z"/>
	<path class="st1" d="M131.6,65.7c-0.3,0.2-0.5,0.5-0.7,0.7c-0.5,0.7-0.6,1.5-0.5,2.3c0.2,0.8,0.7,1.5,1.3,1.9
		c0.4-0.1,0.8-0.4,1-0.7c0.3-0.3,0.4-0.7,0.5-1.1c-0.2-0.1-0.4-0.3-0.5-0.5c0-0.2,0.1-0.5,0.2-0.6c0.1-0.1,0.2-0.1,0.3-0.1
		c2.6-0.4,5.2-0.7,7.8-0.9c0.8-0.1,1.6-0.1,2.4-0.1c0.2,0,0.3,0,0.5,0c0.1,0,0.2,0,0.3,0.1c0.2,0.1,0.4,0.3,0.4,0.6
		c0,0.2-0.1,0.5-0.3,0.6c0.1,0.4,0.4,0.8,0.7,1s0.7,0.5,1.1,0.5c0.5-0.5,0.9-1.3,0.9-2.1s-0.3-1.6-0.9-2.2c-0.2-0.2-0.5-0.4-0.8-0.6
		l0,0c0,0,0,0,0,0c-0.4-0.2-0.9-0.3-1.4-0.3c-0.7,0-1.3,0-2,0.1c-3,0.2-6,0.5-9,1C132.4,65.2,132,65.4,131.6,65.7z"/>
	<path class="st1" d="M146.4,70.1c-0.4,0-0.7-0.1-1-0.2c-0.4-0.2-0.8-0.5-1.1-0.8c-0.3-0.4-0.5-0.8-0.7-1.2
		c-0.1-0.2-0.1-0.4-0.1-0.6c-0.4,0-0.8,0-1.2,0.1c-0.4,0-0.8,0-1.2,0.1h0c0,0.2,0,0.4,0.1,0.6l0,0c0.2,0.9,0.5,1.6,1,2.3
		c0.2,0.3,0.4,0.5,0.7,0.8c0.9,0.9,2.1,1.4,3.4,1.4h0.1c1.9,0,3.8,0.1,5.7,0.2c0,0,0.1,0,0.1,0c0.3,0,0.6,0,1,0
		c0.2,0,0.3-0.1,0.5-0.1s0.3-0.1,0.5-0.1c0.6-0.2,1.1-0.5,1.7-0.9h0c-0.2,0-0.4-0.1-0.6-0.1l-0.6-0.1c-0.9-0.1-1.6-0.5-2.2-1.1l0,0
		c-1.9-0.2-3.9-0.2-5.8-0.2C146.4,70.1,146.4,70.1,146.4,70.1z"/>
	<path class="st1" d="M143.9,63.3c1,0,1.8,0.3,2.5,0.8c2.1,0,4.2,0.1,6.3,0.3l0,0c0,0,0,0,0.1,0c0.4,0,0.8,0.2,1.1,0.3
		c0.4,0.2,0.8,0.5,1.1,0.9c0.3,0.4,0.5,0.8,0.5,1.3c0,0.2,0,0.4,0,0.6c0.4,0,0.8,0.1,1.2,0.2l0.6,0.1l0.6,0.1h0c0-0.2,0-0.4,0-0.6
		c0-0.4,0-0.9-0.1-1.3c-0.1-0.2-0.1-0.4-0.2-0.6s-0.2-0.4-0.3-0.6c-0.2-0.3-0.4-0.6-0.6-0.9c-0.4-0.5-1-0.9-1.6-1.3
		c-0.2-0.1-0.3-0.2-0.5-0.2c-0.2-0.1-0.3-0.1-0.5-0.2c-0.3-0.1-0.7-0.2-1.1-0.2c0,0-0.1,0-0.1,0c-2.2-0.2-4.3-0.3-6.5-0.3h-0.2
		c-1.5,0-2.8,0.6-3.8,1.6h0C143,63.3,143.5,63.3,143.9,63.3z"/>
	<path class="st1" d="M162.8,68.2c-0.1,0.2-0.1,0.4-0.2,0.5c0.4,0.1,0.8,0.2,1.1,0.3c0.4,0.1,0.8,0.2,1.1,0.3
		c0.1-0.2,0.1-0.4,0.2-0.5c0.2-0.4,0.5-0.8,0.9-1.1s0.8-0.5,1.3-0.5c0.4,0,0.8,0,1.2,0.1l0,0l1.5,0.5l1.5,0.5l1.5,0.5l0.8,0.3
		l0.4,0.1c0.1,0,0.2,0.1,0.4,0.2c0.8-0.2,1.8-0.2,2.7,0.1l1.2,0.5c-0.1-0.3-0.3-0.6-0.5-0.9c-0.1-0.2-0.2-0.3-0.3-0.4
		c-0.1-0.1-0.2-0.3-0.4-0.4c-0.5-0.5-1.1-0.9-1.9-1.2c-0.1-0.1-0.2-0.1-0.4-0.2l-0.4-0.1l-0.8-0.3l-1.5-0.5l-1.5-0.5l-1.6-0.5
		c-0.4-0.1-0.7-0.2-1.1-0.2c-0.2,0-0.4,0-0.5,0c-0.2,0-0.4,0-0.5,0c-0.4,0-0.7,0.1-1,0.2s-0.7,0.2-0.9,0.4c-0.3,0.2-0.6,0.4-0.9,0.6
		C163.5,66.6,163.1,67.4,162.8,68.2L162.8,68.2z"/>
	<path class="st1" d="M158.7,67.4c0.5,0.1,1.1,0.2,1.7,0.3L162,68c0.3-0.8,0.7-1.5,1.3-2.1c-0.8-0.2-1.7-0.3-2.5-0.5l-1.2-0.2
		c-0.2,0-0.4-0.1-0.6-0.1l-0.6-0.1C158.6,65.7,158.7,66.5,158.7,67.4z"/>
	<path class="st1" d="M154.7,66.9c-0.1-0.4-0.3-0.8-0.6-1.1c-0.3-0.3-0.7-0.5-1.1-0.6c-0.3,0.2-0.6,0.6-0.8,0.9
		c-0.2,0.4-0.3,0.8-0.3,1.2c0,0.4,0,0.8,0.2,1.2c0.1,0.4,0.3,0.7,0.6,1c0.2,0.3,0.5,0.5,0.8,0.7l0,0c0.4,0.2,0.8,0.4,1.2,0.4
		l0.5,0.1c0.2,0,0.3,0,0.5,0.1l0.9,0.1c1.4,0.2,2.8,0.4,4.1,0.7l0.5,0.1c0.2,0,0.3,0.1,0.5,0.1l1,0.2l1,0.2c0.2,0,0.3,0.1,0.5,0.1
		l0.5,0.1c0.4,0.1,0.9,0.1,1.3,0c0.3-0.1,0.6-0.2,0.9-0.3c0.3-0.2,0.6-0.5,0.9-0.8s0.5-0.7,0.6-1.1c0.1-0.4,0.2-0.8,0.1-1.2
		c-0.1-0.4-0.2-0.8-0.4-1.1c-0.5-0.1-0.9,0-1.3,0.2s-0.7,0.5-0.9,0.8c0.2,0.2,0.3,0.4,0.2,0.7c-0.1,0.2-0.3,0.4-0.5,0.5
		c-0.1,0-0.2,0-0.3,0c-0.6-0.2-1.3-0.3-1.9-0.5c-0.3-0.1-0.6-0.1-0.9-0.2s-0.6-0.1-0.9-0.2c-0.6-0.1-1.3-0.2-1.9-0.4l-1-0.2l-1-0.2
		l-0.6-0.1l-0.6-0.1l-0.6-0.1l-0.3,0l-0.3,0l-0.5-0.1c-0.1,0-0.2-0.1-0.3-0.1c-0.2-0.1-0.3-0.4-0.3-0.6
		C154.3,67.2,154.5,67,154.7,66.9z"/>
	<path class="st1" d="M171.6,77.1c0.6,0.2,1.3,0.3,1.9,0.3c0.2,0,0.3,0,0.5,0c0.2,0,0.3,0,0.5-0.1c0.3-0.1,0.6-0.2,0.9-0.3
		c0.3-0.1,0.6-0.3,0.9-0.5c0.7-0.5,1.3-1.1,1.8-1.8l0,0c0.1-0.2,0.2-0.3,0.3-0.5c-0.2-0.1-0.4-0.2-0.5-0.2l-0.5-0.2l-1.1-0.5
		c-0.1,0.2-0.2,0.3-0.3,0.5l0,0c-0.2,0.2-0.3,0.4-0.5,0.5c-0.2,0.2-0.4,0.3-0.6,0.4c-0.4,0.2-0.9,0.3-1.3,0.4
		c-0.4,0-0.7-0.1-1.1-0.2c-0.1,0-0.2-0.1-0.3-0.1l-0.3-0.1l-0.7-0.2l-1.4-0.5l-1.4-0.5l-1.4-0.4l0,0c-0.8,0.3-1.6,0.4-2.4,0.2
		l-0.6-0.2l-0.6-0.1c0.2,0.3,0.4,0.5,0.6,0.8c0.2,0.2,0.4,0.5,0.7,0.7c0.1,0.1,0.3,0.2,0.4,0.3c0.1,0.1,0.3,0.2,0.4,0.2
		c0.3,0.2,0.6,0.3,0.9,0.4l1.4,0.4l1.4,0.4l1.3,0.5l0.7,0.2l0.3,0.1C171.4,77,171.5,77,171.6,77.1z"/>
	<path class="st1" d="M177.1,76.9l2.1,1c0.7,0.4,1.4,0.7,2.1,1.1c0-0.8,0.1-1.6,0.5-2.4c-0.5-0.2-1-0.5-1.5-0.8l-1.5-0.7
		C178.4,75.8,177.8,76.4,177.1,76.9z"/>
	<path class="st1" d="M175.6,69.9c-0.4,0-0.7,0.1-1,0.2c-0.4,0.2-0.7,0.4-1,0.7c-0.3,0.3-0.5,0.6-0.6,1c-0.2,0.4-0.2,0.8-0.2,1.2
		c0,0.4,0.1,0.8,0.3,1.1c0.8,0.2,1.7-0.1,2.2-0.8c-0.2-0.2-0.2-0.5-0.1-0.7s0.3-0.4,0.6-0.4c0.1,0,0.2,0,0.3,0l1.8,0.8l0.5,0.2
		c0.2,0.1,0.3,0.1,0.5,0.2l0.9,0.4l0.9,0.4l0.5,0.2c0.2,0.1,0.3,0.2,0.4,0.2l1.8,0.9l0.3,0.1c0.1,0.1,0.2,0.1,0.3,0.2l0.5,0.3
		l1.1,0.6l0.4,0.2c0.1,0.1,0.2,0.1,0.2,0.2c0.1,0.2,0.1,0.5,0,0.7c-0.1,0.2-0.4,0.3-0.6,0.3c-0.2,0.8,0,1.7,0.7,2.3
		c0.4-0.1,0.7-0.2,1.1-0.5c0.3-0.2,0.6-0.5,0.8-0.9s0.4-0.8,0.4-1.1c0.1-0.4,0-0.8-0.1-1.2c-0.1-0.3-0.2-0.6-0.4-0.9l0,0
		c0,0,0,0,0,0c-0.1-0.2-0.3-0.4-0.4-0.5c-0.2-0.2-0.4-0.3-0.6-0.4l-1.8-1c-2.7-1.5-5.4-2.8-8.2-4C176.5,70,176,69.9,175.6,69.9z"/>
	<path class="st1" d="M182.1,79.4c0,0.3,0.1,0.7,0.2,1c0.1,0.3,0.2,0.6,0.3,0.9c0.1,0.2,0.1,0.3,0.2,0.4c0.1,0.1,0.2,0.3,0.2,0.4
		c0.4,0.5,0.8,1,1.3,1.3l0.1,0.1l0.3,0.2c0.1,0.1,0.2,0.1,0.3,0.2l0.6,0.4l1.2,0.8c0.4,0.3,0.8,0.5,1.1,0.8l0.6,0.4
		c0.2,0.1,0.4,0.3,0.6,0.4c0,0,0.1,0,0.1,0.1c0.5,0.4,1.1,0.6,1.7,0.8c0.2,0,0.3,0.1,0.5,0.1c0.2,0,0.3,0,0.5,0.1c0.3,0,0.6,0,0.9,0
		l0,0l-0.9-0.8c-0.7-0.5-1.1-1.3-1.3-2.1l0,0c-0.2-0.2-0.4-0.3-0.6-0.4l-0.6-0.4c-0.4-0.3-0.8-0.6-1.2-0.8l-1.2-0.8l-0.6-0.4
		c-0.1-0.1-0.2-0.1-0.3-0.2l-0.3-0.2c0,0,0,0-0.1,0c-0.3-0.2-0.6-0.4-0.8-0.7c-0.3-0.4-0.4-0.8-0.5-1.3c-0.1-0.5-0.1-0.9,0.1-1.4
		c0.1-0.2,0.1-0.4,0.2-0.5l-1-0.6c-0.3-0.2-0.7-0.4-1-0.6l0,0c-0.1,0.2-0.2,0.3-0.2,0.5l0,0c-0.2,0.4-0.3,0.8-0.3,1.2
		C182.1,78.6,182.1,79,182.1,79.4z"/>
	<path class="st1" d="M187.2,74.4c0.2,0.1,0.4,0.3,0.6,0.4c0.2,0.2,0.3,0.3,0.5,0.5c0.3,0.4,0.5,0.7,0.7,1.1
		c0.5,0.3,0.9,0.6,1.3,0.9l1.3,0.9c0.4,0.3,0.9,0.6,1.3,0.9l0.6,0.5c0.2,0.2,0.4,0.3,0.6,0.5l0,0c0,0,0,0,0,0
		c0.3,0.2,0.5,0.5,0.7,0.8c0.2,0.4,0.4,0.9,0.4,1.4c0,0.2,0,0.5-0.1,0.7c-0.1,0.2-0.1,0.5-0.2,0.7c-0.1,0.2-0.2,0.3-0.3,0.5l0.9,0.8
		l0.5,0.4c0.2,0.1,0.3,0.2,0.5,0.4l0,0c0.1-0.2,0.2-0.3,0.3-0.5c0.2-0.4,0.4-0.8,0.6-1.2c0.1-0.4,0.2-0.8,0.2-1.2c0-0.4,0-0.7,0-1.1
		c0-0.3-0.1-0.7-0.2-1c-0.1-0.2-0.1-0.3-0.2-0.5c-0.1-0.2-0.2-0.3-0.2-0.5c-0.4-0.6-0.8-1.1-1.4-1.6c0,0-0.1-0.1-0.1-0.1
		c-0.2-0.2-0.4-0.3-0.7-0.5l-0.7-0.5c-0.4-0.3-0.9-0.6-1.3-0.9l-1.4-0.9l-0.7-0.5c-0.1-0.1-0.2-0.2-0.3-0.2l-0.3-0.2l-0.1-0.1
		c-0.6-0.4-1.3-0.6-2-0.7c-0.2,0-0.3,0-0.5-0.1c-0.2,0-0.3,0-0.5,0c-0.3,0-0.7,0.1-1,0.1l0,0L187.2,74.4z"/>
	<path class="st1" d="M200.6,88.6L200.6,88.6c-0.2,0.1-0.3,0.2-0.4,0.4l0.2,0.2l0.2,0.2l0.4,0.4l0.8,0.8c0.2-0.1,0.3-0.2,0.5-0.3
		c0.4-0.2,0.9-0.4,1.4-0.4c0.5,0,0.9,0.1,1.4,0.3c0.3,0.2,0.7,0.4,0.9,0.7l0,0l0.3,0.3l0.3,0.3l0.5,0.6l1,1.2l1,1.2l0.5,0.6l0.2,0.3
		l0.2,0.3c0.4,0.1,0.8,0.3,1.2,0.5c0.2,0.1,0.4,0.3,0.5,0.4c0.1,0.1,0.2,0.2,0.2,0.2c0.1,0.1,0.2,0.2,0.2,0.3l0.8,1.1
		c0.1-0.3,0.1-0.7,0.1-1c0-0.2,0-0.4-0.1-0.5c0-0.1,0-0.2,0-0.3c0-0.1,0-0.2-0.1-0.3c-0.2-0.7-0.5-1.4-1-2l-0.2-0.3l-0.2-0.3
		l-0.5-0.6l-1-1.3l-1.1-1.2l-0.5-0.6l-0.3-0.3l-0.3-0.3c-0.5-0.6-1.1-1-1.8-1.3c-0.3-0.2-0.7-0.3-1-0.4c-0.3-0.1-0.7-0.1-1-0.2
		c-0.4,0-0.7,0-1.1,0.1c-0.4,0.1-0.8,0.2-1.2,0.4C201.3,88.1,201,88.3,200.6,88.6z"/>
	<path class="st1" d="M198.8,86.9L200,88c0.7-0.5,1.4-0.9,2.2-1.1l-1.8-1.8l-1.9-1.7c-0.2,0.8-0.5,1.6-1,2.3L198.8,86.9z"/>
	<path class="st1" d="M194.4,83.2c0.3-0.8,0.1-1.7-0.5-2.4c-0.8,0.1-1.5,0.5-2,1.2c-0.5,0.7-0.7,1.5-0.6,2.3c0,0.3,0.1,0.7,0.3,1
		c0,0,0,0,0,0c0.2,0.4,0.5,0.7,0.8,1l1.4,1.2c2.1,1.8,4.2,3.7,6.1,5.7c0.3,0.3,0.7,0.6,1.1,0.7c0.3,0.1,0.6,0.2,1,0.2
		c0.4,0,0.8,0,1.2-0.2s0.7-0.3,1.1-0.6c0.3-0.3,0.6-0.6,0.7-1c0.2-0.4,0.3-0.8,0.3-1.1c-0.7-0.6-1.6-0.7-2.4-0.3
		c0.1,0.2,0,0.5-0.2,0.7c-0.2,0.2-0.5,0.2-0.7,0.2c-0.1,0-0.2-0.1-0.3-0.2c-0.9-0.9-1.8-1.9-2.7-2.7l-0.7-0.7
		c-0.1-0.1-0.2-0.2-0.4-0.3l-0.4-0.3l-1.5-1.3c-0.1-0.1-0.2-0.1-0.2-0.2l-0.2-0.2l-0.5-0.4l-0.9-0.8l-0.3-0.3
		c-0.1-0.1-0.2-0.2-0.2-0.3c-0.1-0.2-0.1-0.5,0.1-0.7C193.9,83.3,194.2,83.2,194.4,83.2z"/>
	<path class="st1" d="M209.3,100c-0.2,0.1-0.3,0.2-0.5,0.3l0,0c-0.5,0.2-0.9,0.2-1.4,0.2c-0.5,0-0.9-0.2-1.3-0.4
		c-0.3-0.2-0.6-0.4-0.8-0.7l-0.2-0.3l-0.2-0.3l-0.5-0.6l-0.9-1.1l-0.9-1.1l-0.5-0.6l-0.2-0.3l-0.2-0.3l0,0c-0.8-0.1-1.6-0.5-2.2-1.1
		l-0.9-0.9c0,0.3,0,0.6,0.1,1s0.1,0.6,0.2,0.9c0.2,0.6,0.5,1.2,1,1.7l0.2,0.3l0.2,0.3l0.5,0.5l0.9,1.1l0.9,1.1l0.4,0.5l0.2,0.3
		l0.2,0.3c0.4,0.5,0.9,1,1.5,1.3c0.1,0,0.1,0.1,0.2,0.1c0.1,0,0.1,0.1,0.2,0.1c0.2,0.1,0.3,0.1,0.4,0.2c0.3,0.1,0.6,0.2,0.9,0.2
		c0.3,0.1,0.7,0.1,1,0.1c0.4,0,0.8-0.1,1.2-0.2c0.4-0.1,0.8-0.2,1.2-0.4l0,0c0.2-0.1,0.3-0.2,0.5-0.3c-0.2-0.3-0.4-0.7-0.7-1
		L209.3,100z"/>
	<path class="st1" d="M211.2,104l-0.2-0.3l-0.5-0.7c-0.8,0.4-1.6,0.6-2.4,0.7l0.6,1l0.3,0.5l0.2,0.2l0.1,0.1l0.1,0.1l1.2,2
		c0.4-0.7,1-1.3,1.7-1.8l-0.8-1.4C211.4,104.2,211.3,104.1,211.2,104z"/>
	<path class="st1" d="M211.6,97.8c-0.1-0.1-0.2-0.2-0.2-0.3c-0.1-0.1-0.2-0.2-0.2-0.2c-0.2-0.2-0.4-0.3-0.6-0.4
		c-0.3-0.2-0.6-0.3-1-0.3c-0.4-0.1-0.8-0.1-1.2,0c-0.4,0.1-0.8,0.3-1.1,0.5c-0.3,0.3-0.6,0.6-0.8,0.9c-0.2,0.3-0.3,0.7-0.4,1.1
		c0.6,0.6,1.5,0.8,2.3,0.5c0-0.2,0.1-0.5,0.3-0.6c0.2-0.2,0.5-0.2,0.7-0.1c0.1,0,0.2,0.1,0.2,0.2l1.1,1.6l0.3,0.4
		c0.1,0.1,0.2,0.3,0.3,0.4l0.5,0.8c0.7,1.1,1.4,2.2,2.1,3.4l1.2,2.1c0.1,0.1,0.2,0.3,0.2,0.4c0.1,0.1,0.1,0.2,0.1,0.3
		c0,0.2-0.2,0.5-0.4,0.6c-0.2,0.1-0.5,0.1-0.7-0.1c-0.6,0.6-0.9,1.5-0.6,2.3c0.2,0.1,0.4,0.1,0.6,0.1c0.2,0,0.4,0,0.6,0
		c0.4,0,0.8-0.1,1.2-0.3c0.4-0.2,0.7-0.4,1-0.7c0.1-0.2,0.2-0.3,0.3-0.5c0.1-0.2,0.2-0.4,0.2-0.5c0.1-0.3,0.2-0.7,0.1-1l0,0
		c0,0,0,0,0,0c0-0.5-0.1-0.9-0.3-1.3c-0.1-0.2-0.2-0.3-0.2-0.5l-0.2-0.4l-0.5-0.9l-0.3-0.5c-0.1-0.2-0.2-0.3-0.3-0.5l-0.6-1l-0.6-1
		l-0.2-0.2l-0.2-0.2l-0.3-0.5l-0.6-1c-0.2-0.3-0.4-0.6-0.6-0.9L211.6,97.8z"/>
	<path class="st1" d="M211.1,108.4c-0.2,0.3-0.3,0.6-0.4,0.9c-0.1,0.3-0.2,0.6-0.2,0.9c0,0.2,0,0.3,0,0.5c0,0.2,0,0.3,0,0.5
		c0,0.6,0.2,1.2,0.5,1.8l0.1,0.1c0.2,0.4,0.4,0.8,0.6,1.3l0.3,0.6c0.1,0.2,0.2,0.4,0.3,0.6l0.5,1.3l0.3,0.7c0.1,0.1,0.1,0.2,0.1,0.3
		l0.1,0.3c0,0,0,0.1,0,0.1c0.2,0.6,0.6,1.1,1,1.6c0.4,0.5,0.9,0.8,1.5,1.1v0l-0.4-1.1c0-0.1-0.1-0.2-0.1-0.3c0-0.1-0.1-0.2-0.1-0.3
		c0-0.2-0.1-0.4-0.1-0.6c0-0.4,0.1-0.8,0.2-1.2l0,0l-0.1-0.3c0-0.1-0.1-0.2-0.1-0.3l-0.3-0.7l-0.6-1.4c-0.1-0.2-0.2-0.5-0.3-0.7
		l-0.3-0.7c-0.2-0.4-0.4-0.9-0.6-1.3c0,0,0,0,0-0.1c-0.2-0.3-0.2-0.7-0.3-1c-0.1-0.9,0.3-1.9,1.1-2.5c0.2-0.1,0.3-0.2,0.5-0.3
		l-1.1-2.1l0,0c-0.2,0.1-0.3,0.2-0.5,0.3l0,0C212,106.9,211.4,107.6,211.1,108.4z"/>
	<path class="st1" d="M217.7,106.2l0.2,0.3c0.1,0.1,0.1,0.2,0.2,0.3c0.4,0.9,0.5,1.8,0.4,2.6c0.2,0.5,0.5,1,0.7,1.4l0.3,0.7
		c0.1,0.2,0.2,0.5,0.3,0.7l0.6,1.5l0.3,0.7c0.1,0.1,0.1,0.2,0.2,0.4l0.1,0.4l0,0c0,0,0,0,0,0.1c0.1,0.4,0.2,0.8,0.2,1.1
		c0,0.2,0,0.5-0.1,0.7c-0.1,0.2-0.2,0.5-0.3,0.7c-0.2,0.4-0.6,0.8-1,1c-0.2,0.1-0.3,0.2-0.5,0.3l0.4,1.1l0.2,0.5
		c0.1,0.2,0.1,0.4,0.2,0.6v0c0.2-0.1,0.4-0.1,0.5-0.2c0.4-0.2,0.8-0.4,1.1-0.7c0.3-0.3,0.6-0.6,0.9-0.9c0.2-0.3,0.4-0.6,0.5-0.9
		c0.3-0.6,0.4-1.3,0.5-2c0-0.7-0.1-1.4-0.3-2.1c0,0,0-0.1,0-0.1l-0.2-0.4c-0.1-0.1-0.1-0.2-0.2-0.4l-0.3-0.8l-0.6-1.5
		c-0.1-0.2-0.2-0.5-0.3-0.7l-0.3-0.7c-0.2-0.5-0.5-1-0.7-1.5l-0.1-0.1c-0.3-0.7-0.8-1.2-1.3-1.7c-0.1-0.1-0.3-0.2-0.4-0.3
		c-0.1-0.1-0.3-0.2-0.4-0.3c-0.3-0.2-0.6-0.3-0.9-0.4l0,0L217.7,106.2z"/>
	<path class="st1" d="M221.9,125.9L221.9,125.9c-0.2,0-0.4,0.1-0.6,0.1c0.2,0.8,0.3,1.5,0.5,2.3c0.2,0,0.4,0,0.6,0
		c0.5,0,1,0.2,1.4,0.4c0.4,0.2,0.8,0.6,1,1c0.2,0.3,0.4,0.7,0.4,1.1l0,0c0.1,0.3,0.1,0.5,0.1,0.8l0.1,0.8l0.2,1.6
		c0.2,1.3,0.3,2.6,0.4,3.9c0.6,0.8,1,1.9,1.1,3.1c0,0.5,0,1.1,0.1,1.7c0.9-1.3,1.4-3,1.3-4.9c-0.1-1.3-0.2-2.7-0.4-4l-0.2-1.6
		l-0.1-0.8c0-0.3-0.1-0.5-0.1-0.8c-0.1-0.8-0.4-1.5-0.8-2.1c-0.1-0.2-0.2-0.3-0.3-0.4c-0.1-0.1-0.2-0.3-0.4-0.4
		c-0.2-0.2-0.5-0.5-0.8-0.7s-0.6-0.4-0.9-0.5C223.6,126,222.7,125.8,221.9,125.9z"/>
	<path class="st1" d="M223.2,121.7l-0.4-1.2c-0.6,0.6-1.2,1.1-2,1.5l0.2,0.8l0.1,0.4c0,0.1,0,0.1,0.1,0.2l0.1,0.2l0.4,1.6
		c0.8-0.1,1.7,0,2.5,0.2l-0.6-2.4c-0.1-0.2-0.1-0.4-0.2-0.6L223.2,121.7z"/>
	<path class="st1" d="M218.8,118c0.2-0.1,0.5,0,0.7,0.1c0.7-0.5,1-1.4,0.8-2.3c-0.7-0.3-1.5-0.4-2.3-0.1c-0.8,0.3-1.4,0.9-1.7,1.6
		c-0.1,0.3-0.2,0.6-0.3,1c0,0,0,0,0,0c0,0.2,0,0.4,0,0.6c0,0.1,0,0.2,0.1,0.3s0.1,0.2,0.1,0.3l0.6,1.8c0.8,2.7,1.6,5.4,2.1,8.1
		c0.1,0.4,0.3,0.8,0.5,1.2c0.2,0.3,0.5,0.5,0.7,0.7c0.6,0.4,1.5,0.7,2.3,0.5s1.5-0.6,2-1.3c-0.3-0.9-1-1.5-1.9-1.5
		c-0.1,0.2-0.3,0.4-0.5,0.5c-0.3,0.1-0.5-0.1-0.6-0.2c-0.1-0.1-0.1-0.2-0.1-0.3c-0.1-0.6-0.3-1.3-0.4-1.9c-0.1-0.3-0.1-0.6-0.2-0.9
		l-0.2-0.9l-0.2-0.9c-0.1-0.3-0.2-0.6-0.2-0.9l-0.5-1.9c-0.1-0.2-0.1-0.4-0.2-0.6l-0.2-0.6l-0.4-1.1l-0.2-0.4c0-0.1,0-0.2,0-0.3
		C218.4,118.3,218.5,118.1,218.8,118z"/>
</g>
</svg>
