<?xml version="1.0" encoding="utf-8"?>
<!-- Generator: Adobe Illustrator 24.1.3, SVG Export Plug-In . SVG Version: 6.00 Build 0)  -->
<svg version="1.1" id="_x2018_ëîé_x5F_1" xmlns="http://www.w3.org/2000/svg" xmlns:xlink="http://www.w3.org/1999/xlink"
	 x="0px" y="0px" viewBox="0 0 2291.04 2808.42" style="enable-background:new 0 0 2291.04 2808.42;" xml:space="preserve">
<style type="text/css">
	.st0{fill-rule:evenodd;clip-rule:evenodd;fill:#B4D6EF;}
	.st1{fill-rule:evenodd;clip-rule:evenodd;fill:#152C44;}
	.st2{fill-rule:evenodd;clip-rule:evenodd;fill:#173E57;}
	.st3{fill-rule:evenodd;clip-rule:evenodd;fill:#1E5678;}
	.st4{fill-rule:evenodd;clip-rule:evenodd;fill:#70AFD4;}
	.st5{fill-rule:evenodd;clip-rule:evenodd;fill:#5A90B0;}
	.st6{fill-rule:evenodd;clip-rule:evenodd;fill:#61D2FF;}
	.st7{fill:none;stroke:#3D6982;stroke-width:6.8396;stroke-linecap:round;stroke-linejoin:round;stroke-miterlimit:22.9256;}
	.st8{fill-rule:evenodd;clip-rule:evenodd;fill:#3D6982;}
	.st9{fill:none;stroke:#3D6982;stroke-width:6.9386;stroke-linecap:round;stroke-linejoin:round;stroke-miterlimit:22.9256;}
	.st10{fill:none;stroke:#3D6982;stroke-width:18.3615;stroke-linecap:round;stroke-linejoin:round;stroke-miterlimit:22.9256;}
	.st11{fill:none;stroke:#3D6982;stroke-width:18.3612;stroke-linecap:round;stroke-linejoin:round;stroke-miterlimit:22.9256;}
	.st12{fill-rule:evenodd;clip-rule:evenodd;fill:#4D7C9B;}
	.st13{fill:none;stroke:#70AFD4;stroke-width:3.8742;stroke-linecap:round;stroke-linejoin:round;stroke-miterlimit:22.9256;}
	.st14{fill:none;stroke:#70AFD4;stroke-width:7.3222;stroke-linecap:round;stroke-linejoin:round;stroke-miterlimit:22.9256;}
	.st15{fill:none;stroke:#70AFD4;stroke-width:2.944;stroke-linecap:round;stroke-linejoin:round;stroke-miterlimit:22.9256;}
	.st16{fill:none;stroke:#70AFD4;stroke-width:6.8168;stroke-linecap:round;stroke-linejoin:round;stroke-miterlimit:22.9256;}
</style>
<g>
	<polygon class="st0" points="0,2808.42 2291.04,2808.42 2291.04,0 0,0 0,2808.42 	"/>
	<polygon class="st1" points="971.59,1987.84 1103.08,1985.66 1114.65,2203.77 1009.71,2205.51 971.59,1987.84 	"/>
	<polygon class="st1" points="1333.56,1987.84 1202.07,1985.66 1190.5,2203.77 1295.44,2205.51 1333.56,1987.84 	"/>
	<polygon class="st2" points="1523.9,2182.74 1486.23,1970.01 815.77,1970.01 788.73,2181.86 1523.9,2182.74 	"/>
	<path class="st1" d="M1517.76,2032.78c-0.52-22.3-11.73-43.51-31.53-62.77H815.77c-19.8,19.27-31.26,40.51-31.78,62.81
		l331.46,29.75l36.25-67.75l38.75,67.75L1517.76,2032.78L1517.76,2032.78z"/>
	<polygon class="st3" points="1151.64,1284.15 1420.96,1401.89 1502.19,1675.15 1508.77,1739.13 1516.94,1807.96 1510.85,1869.88 
		1487.51,1970.01 1152.37,2015.01 815.77,1970.01 785.16,1870.75 791.52,1808.76 778.77,1734.46 784.98,1675.05 866.3,1401.89 
		1151.64,1284.15 	"/>
	<polygon class="st1" points="785.16,1870.75 1510.85,1869.88 1499.18,1919.94 800.46,1920.38 785.16,1870.75 	"/>
	<polygon class="st1" points="1025.7,2314.72 1127,2323.05 1114.65,2203.77 1009.71,2205.51 1025.7,2314.72 	"/>
	<polygon class="st1" points="1279.45,2314.72 1178.15,2323.05 1190.5,2203.77 1295.44,2205.51 1279.45,2314.72 	"/>
	<polygon class="st2" points="1287.8,2314.03 1178.15,2323.05 1176.5,2394.26 1260.67,2394.97 1287.8,2314.03 	"/>
	<polygon class="st2" points="1410.66,2432.43 1415.49,2445.83 1152.57,2441.35 1154.21,2427.18 1176.5,2394.26 1260.67,2394.97 
		1410.66,2432.43 	"/>
	<polygon class="st1" points="1270.66,2388.02 1168.54,2386.03 1168.28,2397.14 1275.93,2400.74 1270.66,2388.02 	"/>
	<polygon class="st1" points="1266.87,2373.33 1173.64,2382.82 1176.86,2399.3 1269.39,2383.14 1266.87,2373.33 	"/>
	<path class="st4" d="M802.06,774.35c-6.62-16-23.17-142-23.17-142l99.29,142H802.06L802.06,774.35z"/>
	<path class="st4" d="M903.06,737.35c-6.62-16-23.16-142-23.16-142l99.29,142H903.06L903.06,737.35z"/>
	<path class="st4" d="M1485.21,774.35c6.62-16,23.17-142,23.17-142l-99.29,142H1485.21L1485.21,774.35z"/>
	<path class="st4" d="M1384.21,737.35c6.62-16,23.17-142,23.17-142l-99.29,142H1384.21L1384.21,737.35z"/>
	<path class="st5" d="M1143.64,603.81c243.22,0,440.39,197.17,440.39,440.4c0,243.23-197.17,440.4-440.39,440.4
		c-243.23,0-440.4-197.17-440.4-440.4C703.24,800.98,900.41,603.81,1143.64,603.81L1143.64,603.81z"/>
	<path class="st6" d="M995.95,1089.53c18.66,0,33.78,15.13,33.78,33.78s-15.13,33.78-33.78,33.78c-18.66,0-33.79-15.13-33.79-33.78
		S977.3,1089.53,995.95,1089.53L995.95,1089.53z"/>
	<path class="st6" d="M1292.58,1089.53c18.66,0,33.78,15.13,33.78,33.78s-15.13,33.78-33.78,33.78s-33.79-15.13-33.79-33.78
		S1273.92,1089.53,1292.58,1089.53L1292.58,1089.53z"/>
	<line class="st7" x1="1072.19" y1="1284.13" x2="1215.09" y2="1284.13"/>
	<path class="st8" d="M1139.49,1185.05c5.45,3.13,5.48,13.33,0.06,22.78c-5.42,9.45-14.24,14.58-19.69,11.46s-5.48-13.33-0.06-22.78
		C1125.22,1187.05,1134.04,1181.92,1139.49,1185.05L1139.49,1185.05z"/>
	<path class="st8" d="M1154.41,1185.05c-5.45,3.13-5.48,13.33-0.06,22.78c5.42,9.45,14.23,14.58,19.69,11.46
		c5.46-3.13,5.48-13.33,0.06-22.78C1168.68,1187.05,1159.87,1181.92,1154.41,1185.05L1154.41,1185.05z"/>
	<path class="st8" d="M995.11,1091.62c9.33,0,16.89,7.56,16.89,16.89s-7.56,16.89-16.89,16.89c-9.33,0-16.89-7.56-16.89-16.89
		S985.78,1091.62,995.11,1091.62L995.11,1091.62z"/>
	<path class="st8" d="M1292.26,1091.62c9.33,0,16.89,7.56,16.89,16.89s-7.56,16.89-16.89,16.89s-16.89-7.56-16.89-16.89
		S1282.93,1091.62,1292.26,1091.62L1292.26,1091.62z"/>
	<line class="st9" x1="1121.62" y1="1303.77" x2="1165.64" y2="1303.77"/>
	<line class="st10" x1="1065.45" y1="1086.88" x2="970.8" y2="1037.43"/>
	<line class="st11" x1="922.66" y1="1059.43" x2="970.8" y2="1037.44"/>
	<polygon class="st2" points="1017.35,2314.03 1127,2323.05 1128.64,2394.26 1044.48,2394.97 1017.35,2314.03 	"/>
	<polygon class="st2" points="894.49,2432.43 889.66,2445.83 1152.57,2441.35 1150.95,2427.18 1128.64,2394.26 1044.48,2394.97 
		894.49,2432.43 	"/>
	<polygon class="st1" points="1034.49,2388.02 1136.61,2386.03 1136.87,2397.14 1029.22,2400.74 1034.49,2388.02 	"/>
	<polygon class="st1" points="1038.28,2373.33 1131.51,2382.82 1128.29,2399.3 1035.75,2383.14 1038.28,2373.33 	"/>
	<line class="st10" x1="1203.27" y1="1082.59" x2="1297.91" y2="1033.15"/>
	<line class="st11" x1="1346.05" y1="1055.15" x2="1297.9" y2="1033.15"/>
	<path class="st5" d="M719,1080.71c44.57,0,80.69,36.13,80.69,80.69s-36.13,80.69-80.69,80.69s-80.7-36.13-80.7-80.69
		S674.44,1080.71,719,1080.71L719,1080.71z"/>
	<path class="st5" d="M1566.3,1087.6c44.57,0,80.7,36.13,80.7,80.69c0,44.57-36.13,80.69-80.7,80.69
		c-44.56,0-80.69-36.13-80.69-80.69C1485.62,1123.73,1521.75,1087.6,1566.3,1087.6L1566.3,1087.6z"/>
	<polygon class="st3" points="1632.46,1433.09 1420.96,1401.89 1181.48,1536.58 1502.36,1675.15 1632.46,1433.09 	"/>
	<polygon class="st3" points="654.81,1433.09 866.3,1401.89 1105.79,1536.58 785.14,1675.05 654.81,1433.09 	"/>
	<polygon class="st2" points="784.98,1675.05 1144.44,1520.24 1502.19,1675.15 1508.77,1739.13 1141.19,1592.23 778.5,1737.04 
		784.98,1675.05 	"/>
	<polygon class="st2" points="791.53,1808.76 1144.43,1653.95 1516.94,1807.96 1510.85,1869.88 1141.23,1725.93 785.16,1870.75 
		791.53,1808.76 	"/>
	<path class="st12" d="M1145.56,1514.76c29.61,0,53.61,23.59,53.61,52.69c0,29.1-24,52.69-53.61,52.69s-53.61-23.59-53.61-52.69
		C1091.95,1538.35,1115.95,1514.76,1145.56,1514.76L1145.56,1514.76z"/>
	<polygon class="st12" points="1144.16,1548.07 1200.2,1629.73 1143.11,1709.88 1087.07,1628.22 1144.16,1548.07 	"/>
	<polygon class="st2" points="770.15,1647.22 551.72,1791.26 549.21,1560.43 681.87,1483.33 770.15,1647.22 	"/>
	<polygon class="st1" points="280.44,1556.64 289.17,1478.61 554.49,1561.83 551.72,1791.26 280.44,1556.64 	"/>
	<path class="st5" d="M304.47,1535.63c-12.21,24.72-42.15,34.86-66.87,22.64c-24.72-12.21-34.86-42.16-22.64-66.87
		c12.21-24.72,42.15-34.86,66.88-22.64C306.55,1480.97,316.68,1510.91,304.47,1535.63L304.47,1535.63z"/>
	<path class="st5" d="M226.56,1493.31c-1.25,6-12.28,8.77-24.62,6.19c-12.35-2.58-21.34-9.53-20.09-15.52
		c1.25-6,12.27-8.77,24.62-6.19C218.82,1480.36,227.81,1487.31,226.56,1493.31L226.56,1493.31z"/>
	<path class="st5" d="M193.79,1486.31c-0.62,3-3.37,4.96-6.13,4.39c-2.76-0.58-4.5-3.47-3.87-6.47c0.63-3,3.38-4.96,6.13-4.38
		C192.69,1480.41,194.42,1483.31,193.79,1486.31L193.79,1486.31z"/>
	<path class="st5" d="M225.25,1512.37c0.41,6.11-9.46,11.75-22.04,12.59c-12.59,0.84-23.12-3.43-23.53-9.54
		c-0.41-6.11,9.46-11.75,22.04-12.59C214.31,1501.98,224.85,1506.25,225.25,1512.37L225.25,1512.37z"/>
	<path class="st5" d="M191.82,1514.44c0.2,3.06-1.91,5.69-4.73,5.87c-2.81,0.19-5.26-2.14-5.47-5.19c-0.2-3.06,1.91-5.69,4.73-5.88
		C189.16,1509.06,191.61,1511.39,191.82,1514.44L191.82,1514.44z"/>
	<path class="st5" d="M230.79,1534.03c1.61,5.91-6.95,13.39-19.12,16.7c-12.17,3.31-23.34,1.21-24.95-4.7
		c-1.61-5.91,6.95-13.39,19.13-16.7C218.01,1526.01,229.18,1528.12,230.79,1534.03L230.79,1534.03z"/>
	<path class="st5" d="M198.42,1542.67c0.8,2.96-0.75,5.95-3.47,6.69c-2.72,0.74-5.58-1.05-6.39-4.01s0.75-5.95,3.47-6.69
		C194.75,1537.92,197.61,1539.72,198.42,1542.67L198.42,1542.67z"/>
	<path class="st5" d="M242.76,1551.06c3.1,4.54-1.97,13.39-11.33,19.77c-9.35,6.38-19.44,7.87-22.54,3.32
		c-3.1-4.54,1.97-13.39,11.32-19.77C229.57,1548.01,239.66,1546.52,242.76,1551.06L242.76,1551.06z"/>
	<path class="st5" d="M282.54,1478.34c-4.14,5.48-16.64,3.02-27.94-5.51c-11.29-8.53-17.08-19.88-12.94-25.36
		c4.14-5.48,16.65-3.02,27.93,5.51C280.89,1461.5,286.68,1472.86,282.54,1478.34L282.54,1478.34z"/>
	<path class="st5" d="M217.84,1567.88c1.55,2.27,1.11,5.27-0.98,6.69c-2.09,1.43-5.04,0.74-6.59-1.53
		c-1.55-2.27-1.11-5.27,0.98-6.69C213.34,1564.93,216.29,1565.61,217.84,1567.88L217.84,1567.88z"/>
	<path class="st5" d="M252.67,1455.55c-2.07,2.74-5.8,3.42-8.32,1.51c-2.53-1.91-2.89-5.68-0.82-8.42c2.07-2.74,5.79-3.42,8.32-1.51
		C254.37,1449.04,254.74,1452.81,252.67,1455.55L252.67,1455.55z"/>
	<polygon class="st3" points="386.95,1608.63 553.94,1607.63 551.72,1791.26 348.07,1664.1 386.95,1608.63 	"/>
	<path class="st4" d="M757.76,851.24c-6.59-16-23.06-142-23.06-142l98.84,142H757.76L757.76,851.24z"/>
	<path class="st4" d="M1529.51,851.24c6.59-16,23.06-142,23.06-142l-98.84,142H1529.51L1529.51,851.24z"/>
	<polygon class="st4" points="1179.28,741.48 1136.25,581.24 1107.99,742.23 1179.28,741.48 	"/>
	<path class="st4" d="M906.19,952.24c-6.62-16-23.17-142-23.17-142l99.29,142H906.19L906.19,952.24z"/>
	<path class="st4" d="M1000.51,998.24c-6.61-16-23.17-142-23.17-142l99.29,142H1000.51L1000.51,998.24z"/>
	<path class="st4" d="M1021.98,834.48c-5.42-13.1-18.96-116.24-18.96-116.24l81.28,116.24H1021.98L1021.98,834.48z"/>
	<path class="st4" d="M1381.09,952.24c6.62-16,23.16-142,23.16-142l-99.29,142H1381.09L1381.09,952.24z"/>
	<path class="st4" d="M1286.76,998.24c6.62-16,23.17-142,23.17-142l-99.29,142H1286.76L1286.76,998.24z"/>
	<path class="st4" d="M1265.29,834.48c5.42-13.1,18.96-116.24,18.96-116.24l-81.28,116.24H1265.29L1265.29,834.48z"/>
	<line class="st13" x1="1103.03" y1="1058.75" x2="1184.24" y2="1058.75"/>
	<line class="st14" x1="1066.89" y1="1023.25" x2="1220.39" y2="1023.25"/>
	<line class="st15" x1="1112.78" y1="1095.25" x2="1174.5" y2="1095.25"/>
	<path class="st16" d="M786.41,1122.82l212.91,130.78 M802.65,1181.73l222.95,136.95 M810.97,1233.84l229.64,139.84 M879.33,1321.25
		l174.25,105.21"/>
	<path class="st16" d="M1500.86,1122.82l-212.91,130.78 M1484.63,1181.73l-222.96,136.95 M1476.3,1233.84l-229.64,139.84
		 M1407.95,1321.25l-174.26,105.21"/>
	<polygon class="st2" points="1517.18,1647.22 1735.61,1791.26 1738.12,1560.43 1605.46,1483.33 1517.18,1647.22 	"/>
	<polygon class="st1" points="2006.89,1556.64 1998.16,1478.61 1732.84,1561.83 1735.61,1791.26 2006.89,1556.64 	"/>
	<path class="st5" d="M1982.87,1535.63c12.21,24.72,42.15,34.86,66.87,22.64c24.72-12.21,34.86-42.16,22.64-66.87
		c-12.21-24.72-42.15-34.86-66.87-22.64C1980.78,1480.97,1970.65,1510.91,1982.87,1535.63L1982.87,1535.63z"/>
	<path class="st5" d="M2060.77,1493.31c1.25,6,12.28,8.77,24.62,6.19c12.35-2.58,21.34-9.53,20.09-15.52
		c-1.25-6-12.27-8.77-24.62-6.19C2068.52,1480.36,2059.52,1487.31,2060.77,1493.31L2060.77,1493.31z"/>
	<path class="st5" d="M2093.54,1486.31c0.63,3,3.37,4.96,6.13,4.39c2.76-0.58,4.5-3.47,3.87-6.47c-0.63-3-3.38-4.96-6.14-4.38
		C2094.64,1480.41,2092.91,1483.31,2093.54,1486.31L2093.54,1486.31z"/>
	<path class="st5" d="M2062.08,1512.37c-0.41,6.11,9.46,11.75,22.05,12.59c12.58,0.84,23.12-3.43,23.52-9.54
		c0.41-6.11-9.46-11.75-22.04-12.59C2073.02,1501.98,2062.48,1506.25,2062.08,1512.37L2062.08,1512.37z"/>
	<path class="st5" d="M2095.52,1514.44c-0.21,3.06,1.91,5.69,4.73,5.87c2.81,0.19,5.26-2.14,5.46-5.19c0.2-3.06-1.91-5.69-4.73-5.88
		C2098.17,1509.06,2095.72,1511.39,2095.52,1514.44L2095.52,1514.44z"/>
	<path class="st5" d="M2056.55,1534.03c-1.61,5.91,6.95,13.39,19.13,16.7c12.16,3.31,23.34,1.21,24.95-4.7
		c1.61-5.91-6.95-13.39-19.13-16.7C2069.33,1526.01,2058.16,1528.12,2056.55,1534.03L2056.55,1534.03z"/>
	<path class="st5" d="M2088.92,1542.67c-0.8,2.96,0.75,5.95,3.47,6.69c2.72,0.74,5.58-1.05,6.39-4.01s-0.75-5.95-3.47-6.69
		C2092.58,1537.92,2089.72,1539.72,2088.92,1542.67L2088.92,1542.67z"/>
	<path class="st5" d="M2044.57,1551.06c-3.1,4.54,1.97,13.39,11.32,19.77c9.34,6.38,19.44,7.87,22.54,3.32
		c3.09-4.54-1.97-13.39-11.32-19.77C2057.77,1548.01,2047.67,1546.52,2044.57,1551.06L2044.57,1551.06z"/>
	<path class="st5" d="M2004.8,1478.34c4.14,5.48,16.64,3.02,27.94-5.51c11.28-8.53,17.08-19.88,12.94-25.36
		c-4.15-5.48-16.65-3.02-27.94,5.51C2006.45,1461.5,2000.65,1472.86,2004.8,1478.34L2004.8,1478.34z"/>
	<path class="st5" d="M2069.5,1567.88c-1.55,2.27-1.11,5.27,0.98,6.69c2.09,1.43,5.04,0.74,6.59-1.53c1.55-2.27,1.11-5.27-0.98-6.69
		C2074,1564.93,2071.04,1565.61,2069.5,1567.88L2069.5,1567.88z"/>
	<path class="st5" d="M2034.67,1455.55c2.07,2.74,5.8,3.42,8.32,1.51c2.53-1.91,2.89-5.68,0.82-8.42s-5.8-3.42-8.32-1.51
		C2032.96,1449.04,2032.6,1452.81,2034.67,1455.55L2034.67,1455.55z"/>
	<polygon class="st3" points="1900.39,1608.63 1733.4,1607.63 1735.61,1791.26 1939.26,1664.1 1900.39,1608.63 	"/>
</g>
</svg>
