<?xml version="1.0" encoding="utf-8"?>
<!-- Generator: Adobe Illustrator 24.2.3, SVG Export Plug-In . SVG Version: 6.00 Build 0)  -->
<svg version="1.1" id="Layer_1" xmlns="http://www.w3.org/2000/svg" xmlns:xlink="http://www.w3.org/1999/xlink" x="0px" y="0px"
	 viewBox="0 0 288 285" style="enable-background:new 0 0 288 285;" xml:space="preserve">
<style type="text/css">
	.st0{fill:#6A0000;}
	.st1{fill:url(#SVGID_1_);}
</style>
<rect class="st0" width="288" height="285"/>
<linearGradient id="SVGID_1_" gradientUnits="userSpaceOnUse" x1="144" y1="216.1745" x2="144" y2="56.7707">
	<stop  offset="0" style="stop-color:#FF2F00"/>
	<stop  offset="9.407699e-03" style="stop-color:#FF3200"/>
	<stop  offset="0.1785" style="stop-color:#FF5F00"/>
	<stop  offset="0.3483" style="stop-color:#FF8500"/>
	<stop  offset="0.5164" style="stop-color:#FFA200"/>
	<stop  offset="0.6821" style="stop-color:#FFB700"/>
	<stop  offset="0.8446" style="stop-color:#FFC400"/>
	<stop  offset="1" style="stop-color:#FFC800"/>
</linearGradient>
<path class="st1" d="M193,147.7c-0.4,0.3-0.7,0.6-1.1,1c-0.2,0.1-0.3,0.3-0.5,0.4c-0.3,0.2-0.6,0.5-0.9,0.7
	c-0.2,0.1-0.3,0.2-0.5,0.3c-0.4,0.3-0.9,0.6-1.3,0.9c2.6-15-0.3-42-16.8-53.5c-0.1,1.2,7,33-8.3,48.3c1.9-5.3,2.1-12,2.1-16.8
	c0-18.2-18.5-22.6-18.5-43.6c0-8.9,5.3-21.3,9.2-28.6c-21,8.2-41.5,24.6-41.5,54.4c0,4.2,0.9,8.6,2,13.3c0.2,0.8,0.3,1.5,0.4,2.3
	c0.6,9.8-7.3,16.4-13.7,14.1l0,0c-0.4-0.2-0.8-0.3-1.3-0.6c0,0,0,0,0,0c-0.6-0.3-1.2-0.8-1.7-1.3c0,0,0,0-0.1-0.1
	c-0.4-0.3-0.7-0.7-1-1.2c0,0,0-0.1-0.1-0.1c-0.1-0.2-0.3-0.4-0.4-0.6c0,0,0-0.1-0.1-0.1c-0.2-0.2-0.3-0.5-0.4-0.7c0,0,0-0.1,0-0.1
	c-0.1-0.2-0.2-0.5-0.4-0.7c0-0.1-0.1-0.1-0.1-0.2c-0.3-0.5-0.5-1.1-0.7-1.8c0-0.1-0.1-0.2-0.1-0.2c-0.1-0.3-0.2-0.5-0.2-0.8
	c0-0.1,0-0.1-0.1-0.2c-0.1-0.3-0.2-0.7-0.3-1c0-0.1,0-0.2,0-0.2c-0.1-0.3-0.1-0.6-0.2-0.9c0-0.1,0-0.2-0.1-0.3
	c-0.1-0.4-0.1-0.8-0.2-1.2c-2.8,4.1-5,8.6-6.6,13.4c-0.3,1.4-0.6,2.8-0.8,4.3c-0.2,1.4-0.4,2.8-0.5,4.2c-0.6,6.3-0.4,12.6,0.6,18.7
	c0.3,2.1,0.8,4.1,1.3,6.1c0.2,0.7,0.3,1.3,0.5,1.9c0.1,0.2,0.1,0.4,0.2,0.6c0.1,0.4,0.3,0.9,0.4,1.3c0.1,0.3,0.2,0.5,0.3,0.7
	c0.1,0.4,0.3,0.8,0.4,1.1c0.1,0.3,0.2,0.5,0.3,0.8c0.1,0.4,0.3,0.7,0.4,1.1c0.1,0.3,0.2,0.5,0.4,0.8c0.1,0.3,0.3,0.7,0.4,1
	c0.1,0.3,0.3,0.5,0.4,0.8c0.2,0.3,0.3,0.6,0.5,1c0.1,0.3,0.3,0.5,0.4,0.8c0.2,0.3,0.3,0.6,0.5,0.9c0.2,0.3,0.3,0.5,0.5,0.8
	c0.2,0.3,0.3,0.6,0.5,0.9c0.2,0.3,0.3,0.5,0.5,0.8c0.2,0.3,0.4,0.6,0.5,0.9c0.2,0.3,0.4,0.5,0.5,0.8c0.2,0.3,0.4,0.6,0.6,0.8
	c0.2,0.3,0.4,0.5,0.6,0.8c0.2,0.3,0.4,0.5,0.6,0.8c0.2,0.3,0.4,0.5,0.6,0.8c0.2,0.3,0.4,0.5,0.6,0.8c0.2,0.3,0.4,0.5,0.6,0.8
	c0.2,0.2,0.4,0.5,0.6,0.7c0.2,0.2,0.4,0.5,0.7,0.7c0.2,0.2,0.4,0.5,0.6,0.7c0.2,0.2,0.5,0.5,0.7,0.7c0.2,0.2,0.4,0.5,0.7,0.7
	c0.2,0.2,0.5,0.5,0.7,0.7c0.2,0.2,0.5,0.4,0.7,0.6c0.2,0.2,0.5,0.5,0.7,0.7c0.2,0.2,0.5,0.4,0.7,0.6c0.3,0.2,0.5,0.4,0.8,0.7
	c0.2,0.2,0.5,0.4,0.7,0.6c0.3,0.2,0.5,0.4,0.8,0.6c0.2,0.2,0.5,0.4,0.7,0.6c0.3,0.2,0.6,0.4,0.8,0.6c0.2,0.2,0.5,0.3,0.7,0.5
	c0.3,0.2,0.6,0.4,0.9,0.6c0.2,0.2,0.5,0.3,0.7,0.5c0.3,0.2,0.6,0.4,0.9,0.6c0.3,0.2,0.5,0.3,0.8,0.5c0.3,0.2,0.6,0.4,0.9,0.5
	c0.3,0.1,0.5,0.3,0.8,0.4c0.3,0.2,0.6,0.3,0.9,0.5c0.3,0.1,0.5,0.3,0.8,0.4c0.3,0.2,0.6,0.3,1,0.5c0.3,0.1,0.5,0.2,0.8,0.4
	c0.3,0.2,0.7,0.3,1,0.5c0.3,0.1,0.5,0.2,0.8,0.3c0.3,0.1,0.7,0.3,1,0.4c0.3,0.1,0.5,0.2,0.8,0.3c0.4,0.1,0.7,0.3,1.1,0.4
	c0.3,0.1,0.5,0.2,0.8,0.3c0.4,0.1,0.7,0.2,1.1,0.4c0.3,0.1,0.5,0.1,0.8,0.2c0.4,0.1,0.8,0.2,1.1,0.3c0.2,0.1,0.5,0.1,0.8,0.2
	c0.4,0.1,0.8,0.2,1.2,0.3c0.2,0.1,0.5,0.1,0.7,0.2c0.4,0.1,0.8,0.2,1.2,0.3c0,0,0,0,0.1,0c0,0,0,0,0,0c0.6,0.1,1.2,0.2,1.8,0.3
	c0.3,0,0.6,0.1,0.9,0.1c-25.7-25.7-25-58.4,7.5-82.6c-4.3,15.9-1.4,28.9,8.9,44.8c7.2-1,17.7-8.3,22.1-17.7
	c0.6,21.8-0.2,43.3-18.5,54.8c1.2-0.3,2.3-0.6,3.5-0.9c0,0,0.1,0,0.1,0c0.4-0.1,0.7-0.2,1.1-0.3c0,0,0.1,0,0.1,0
	c0.4-0.1,0.7-0.2,1.1-0.3c0,0,0.1,0,0.1,0c0.4-0.1,0.7-0.2,1.1-0.4c0,0,0.1,0,0.1,0c1.5-0.6,3-1.2,4.4-1.8c0,0,0.1,0,0.1-0.1
	c0.3-0.1,0.5-0.3,0.8-0.4c0.1-0.1,0.3-0.1,0.4-0.2c0.2-0.1,0.5-0.2,0.7-0.4c0.2-0.1,0.3-0.2,0.5-0.3c0.2-0.1,0.4-0.2,0.6-0.3
	c0.2-0.1,0.4-0.2,0.5-0.3c0.2-0.1,0.4-0.2,0.6-0.3c0.2-0.1,0.4-0.2,0.6-0.3c0.2-0.1,0.4-0.2,0.5-0.3c0.2-0.1,0.4-0.3,0.6-0.4
	c0.2-0.1,0.3-0.2,0.5-0.3c0.2-0.2,0.5-0.3,0.7-0.5c0.1-0.1,0.3-0.2,0.4-0.2c0.4-0.2,0.7-0.5,1.1-0.7c9.8-6.9,17.4-16.9,21.2-28.6
	c1.8-5.6,2.8-11.6,2.8-17.8c0-5.9-0.9-11.5-2.6-16.9c-0.4,0.5-0.8,0.9-1.2,1.4c-0.1,0.1-0.2,0.3-0.4,0.4c-0.3,0.3-0.6,0.6-0.9,1
	c-0.1,0.1-0.3,0.3-0.4,0.4L193,147.7z"/>
</svg>
