<?xml version="1.0" encoding="utf-8"?>
<!-- Generator: Adobe Illustrator 24.1.3, SVG Export Plug-In . SVG Version: 6.00 Build 0)  -->
<svg version="1.1" id="Layer_1" xmlns="http://www.w3.org/2000/svg" xmlns:xlink="http://www.w3.org/1999/xlink" x="0px" y="0px"
	 viewBox="0 0 2291.04 2808.42" style="enable-background:new 0 0 2291.04 2808.42;" xml:space="preserve">
<style type="text/css">
	.st0{fill-rule:evenodd;clip-rule:evenodd;fill:#B4D6EF;}
	.st1{fill-rule:evenodd;clip-rule:evenodd;fill:#FFFFFF;}
	.st2{fill-rule:evenodd;clip-rule:evenodd;fill:#666666;}
	.st3{fill-rule:evenodd;clip-rule:evenodd;fill:#FFDABD;}
	.st4{fill-rule:evenodd;clip-rule:evenodd;fill:#808080;}
	.st5{fill-rule:evenodd;clip-rule:evenodd;fill:#876954;}
	.st6{fill-rule:evenodd;clip-rule:evenodd;fill:#FFE5D1;}
	.st7{fill-rule:evenodd;clip-rule:evenodd;fill:#FFF3BF;}
	.st8{fill-rule:evenodd;clip-rule:evenodd;fill:#EDB68B;}
	.st9{fill:none;stroke:#7D3A07;stroke-width:8.2428;stroke-linecap:round;stroke-linejoin:round;stroke-miterlimit:22.9256;}
	.st10{fill-rule:evenodd;clip-rule:evenodd;fill:#D2C5BC;}
	.st11{fill-rule:evenodd;clip-rule:evenodd;fill:#B3937C;}
	.st12{fill-rule:evenodd;clip-rule:evenodd;fill:#B83F02;stroke:#873423;stroke-width:4.252;stroke-miterlimit:22.9256;}
	.st13{fill-rule:evenodd;clip-rule:evenodd;fill:#B83F02;}
	.st14{fill:none;stroke:#4D4D4D;stroke-width:7.0866;stroke-linecap:round;stroke-miterlimit:22.9256;}
	.st15{fill-rule:evenodd;clip-rule:evenodd;fill:#999999;}
	.st16{fill:none;stroke:#FF99CC;stroke-width:6.654;stroke-linecap:round;stroke-linejoin:round;stroke-miterlimit:22.9256;}
	.st17{fill:none;stroke:#873423;stroke-width:14.4029;stroke-linecap:round;stroke-linejoin:round;stroke-miterlimit:22.9256;}
	.st18{fill:none;stroke:#000000;stroke-width:3.7926;stroke-linecap:round;stroke-linejoin:round;stroke-miterlimit:22.9256;}
	.st19{fill:none;stroke:#000000;stroke-width:3.8848;stroke-linecap:round;stroke-linejoin:round;stroke-miterlimit:22.9256;}
	.st20{fill:none;stroke:#FF99CC;stroke-width:6.5867;stroke-linecap:round;stroke-linejoin:round;stroke-miterlimit:22.9256;}
	.st21{fill-rule:evenodd;clip-rule:evenodd;fill:#FFCFBD;}
	.st22{fill-rule:evenodd;clip-rule:evenodd;fill:#D65413;}
	.st23{fill-rule:evenodd;clip-rule:evenodd;fill:#FFCC00;}
	.st24{fill:none;stroke:#666666;stroke-width:8.5039;stroke-linecap:round;stroke-linejoin:round;stroke-miterlimit:22.9256;}
</style>
<g>
	<polygon class="st0" points="0,2805.69 2291.04,2805.69 2291.04,-2.74 0,-2.74 0,2805.69 	"/>
	<path class="st1" d="M1352.19,1890.18c7.62,0,13.8,6.18,13.8,13.8s-6.18,13.8-13.8,13.8s-13.8-6.18-13.8-13.8
		S1344.57,1890.18,1352.19,1890.18L1352.19,1890.18z"/>
	<path class="st1" d="M974.45,1632c17.23,0,31.2,13.97,31.2,31.2c0,17.23-13.97,31.2-31.2,31.2c-17.23,0-31.2-13.97-31.2-31.2
		C943.25,1645.97,957.21,1632,974.45,1632L974.45,1632z"/>
	<polygon class="st2" points="936.92,1533.21 1312.88,1533.21 1371.91,1556.77 1529.62,1910.51 1592.89,2342.51 688.55,2342.51 
		725.03,1900.14 871.07,1561.51 936.92,1533.21 	"/>
	<path class="st3" d="M1124.46,1420.39c94.36,0,170.86,133.63,170.86,298.48c0,42.29-5.04,82.51-14.12,118.97H967.72
		c-9.08-36.45-14.13-76.68-14.13-118.97C953.6,1554.02,1030.09,1420.39,1124.46,1420.39L1124.46,1420.39z"/>
	<path class="st4" d="M1231.65,1486.46c38.82,54.71,63.66,138.48,63.66,232.4c0,42.29-5.04,82.51-14.12,118.97H967.72
		c-9.08-36.45-14.13-76.68-14.13-118.97c0-93.92,24.84-177.69,63.66-232.4c14.83,68.7,57.21,118.3,107.2,118.3
		C1174.44,1604.76,1216.83,1555.16,1231.65,1486.46L1231.65,1486.46z"/>
	<polygon class="st3" points="1273.74,1949.6 1170.6,1947.89 1161.52,2118.98 1243.84,2120.34 1273.74,1949.6 	"/>
	<polygon class="st5" points="729.29,1941.92 759.69,2302.91 906.5,1934.76 852.71,1904.12 729.29,1941.92 	"/>
	<polygon class="st6" points="858.57,1929.6 827.01,1925.73 859.23,1732.42 914.16,1745.17 858.57,1929.6 	"/>
	<polygon class="st3" points="1228.53,2273.48 1150.82,2272.36 1161.52,2118.98 1243.84,2120.34 1228.53,2273.48 	"/>
	<polygon class="st7" points="1334.22,2298.34 1338.01,2308.86 1131.77,2305.34 1133.05,2294.22 1150.54,2268.4 1216.56,2268.96 
		1334.22,2298.34 	"/>
	<path class="st6" d="M834.2,1915.83c-18.23,5.64-28.44,25-22.8,43.23c5.64,18.23,25,28.44,43.23,22.8
		c18.23-5.64,28.44-25,22.8-43.23C871.79,1920.39,852.43,1910.19,834.2,1915.83L834.2,1915.83z"/>
	<path class="st6" d="M854.59,1973.72c-4.24,0.2-7.34,7.43-6.93,16.15c0.41,8.72,4.18,15.63,8.41,15.43
		c4.24-0.2,7.34-7.43,6.93-16.15C862.59,1980.43,858.83,1973.52,854.59,1973.72L854.59,1973.72z"/>
	<path class="st8" d="M855.79,1996.88c-2.12,0.1-3.76,1.76-3.67,3.71s1.88,3.45,4,3.35c2.12-0.1,3.76-1.76,3.67-3.71
		C859.7,1998.28,857.91,1996.78,855.79,1996.88L855.79,1996.88z"/>
	<path class="st6" d="M841.42,1972.52c-4.13-0.95-9.07,5.18-11.02,13.69c-1.95,8.51-0.19,16.18,3.94,17.13
		c4.13,0.95,9.07-5.18,11.02-13.69C847.32,1981.14,845.56,1973.47,841.42,1972.52L841.42,1972.52z"/>
	<path class="st8" d="M836.34,1995.15c-2.07-0.48-4.1,0.68-4.54,2.59s0.88,3.83,2.95,4.31c2.07,0.47,4.1-0.68,4.54-2.59
		C839.73,1997.56,838.41,1995.63,836.34,1995.15L836.34,1995.15z"/>
	<path class="st6" d="M827.22,1966.37c-3.86-1.75-9.91,3.29-13.51,11.24c-3.6,7.96-3.38,15.82,0.48,17.57
		c3.87,1.75,9.92-3.29,13.51-11.24C831.3,1975.98,831.09,1968.12,827.22,1966.37L827.22,1966.37z"/>
	<path class="st8" d="M817.77,1987.55c-1.93-0.87-4.15-0.14-4.96,1.64c-0.8,1.78,0.11,3.93,2.04,4.8c1.93,0.87,4.15,0.14,4.96-1.64
		C820.61,1990.58,819.7,1988.42,817.77,1987.55L817.77,1987.55z"/>
	<path class="st6" d="M816.89,1956.32c-2.77-2.61-9.37-0.12-14.75,5.57c-5.38,5.69-7.5,12.43-4.74,15.04
		c2.77,2.61,9.37,0.12,14.75-5.57C817.53,1965.67,819.66,1958.94,816.89,1956.32L816.89,1956.32z"/>
	<path class="st6" d="M870.96,1937.09c-4.2,2.23-3.88,11.05,0.71,19.7c4.59,8.65,11.72,13.85,15.92,11.62
		c4.2-2.23,3.89-11.05-0.7-19.7C882.29,1940.07,875.16,1934.86,870.96,1937.09L870.96,1937.09z"/>
	<path class="st8" d="M802.66,1971.51c-1.38-1.31-3.48-1.33-4.68-0.06c-1.2,1.27-1.06,3.37,0.32,4.67c1.38,1.31,3.48,1.33,4.68,0.06
		C804.19,1974.91,804.05,1972.82,802.66,1971.51L802.66,1971.51z"/>
	<path class="st8" d="M883.27,1960.01c-2.1,1.11-2.97,3.59-1.95,5.52c1.03,1.94,3.56,2.6,5.66,1.48c2.1-1.11,2.97-3.59,1.94-5.52
		C887.9,1959.56,885.36,1958.89,883.27,1960.01L883.27,1960.01z"/>
	<line class="st9" x1="1153.79" y1="2155.13" x2="1255.57" y2="2097.64"/>
	<line class="st9" x1="1242.5" y1="2155.13" x2="1156.9" y2="2097.64"/>
	<polygon class="st3" points="989.8,1949.6 1092.95,1947.89 1102.02,2118.98 1019.71,2120.34 989.8,1949.6 	"/>
	<polygon class="st3" points="1035.01,2273.48 1112.72,2272.36 1102.02,2118.98 1019.71,2120.34 1035.01,2273.48 	"/>
	<polygon class="st7" points="929.33,2298.34 925.54,2308.86 1131.77,2305.34 1130.49,2294.22 1113,2268.4 1046.98,2268.96 
		929.33,2298.34 	"/>
	<line class="st9" x1="1109.75" y1="2155.13" x2="1007.96" y2="2097.64"/>
	<line class="st9" x1="1021.04" y1="2155.13" x2="1106.64" y2="2097.64"/>
	<polygon class="st10" points="946.57,1846.23 825.45,2347.75 1443.71,2347.75 1303.23,1846.23 946.57,1846.23 	"/>
	<polygon class="st5" points="1483.29,2302.91 1505.53,2008.49 1509.95,1950.05 1392.31,1906.79 1345.68,1946.96 1483.29,2302.91 	
		"/>
	<polygon class="st6" points="1386.77,1939.2 1421.84,1950.31 1377.54,1732.42 1315.55,1747.12 1386.77,1939.2 	"/>
	<path class="st6" d="M1415.08,1917.04c18.04,6.24,27.6,25.92,21.36,43.96s-25.92,27.6-43.96,21.36s-27.6-25.92-21.36-43.96
		C1377.36,1920.37,1397.04,1910.8,1415.08,1917.04L1415.08,1917.04z"/>
	<path class="st6" d="M1392.79,1974.23c4.23,0.34,7.09,7.67,6.39,16.37c-0.7,8.7-4.69,15.49-8.92,15.15
		c-4.23-0.34-7.09-7.67-6.39-16.37C1384.57,1980.67,1388.56,1973.89,1392.79,1974.23L1392.79,1974.23z"/>
	<path class="st8" d="M1390.82,1997.34c2.12,0.17,3.7,1.88,3.55,3.83c-0.16,1.95-2,3.39-4.11,3.22c-2.11-0.17-3.7-1.88-3.54-3.83
		C1386.87,1998.61,1388.71,1997.17,1390.82,1997.34L1390.82,1997.34z"/>
	<path class="st6" d="M1405.99,1973.47c4.16-0.81,8.89,5.48,10.56,14.05c1.67,8.57-0.35,16.18-4.51,16.99
		c-4.16,0.81-8.89-5.48-10.56-14.05C1399.8,1981.89,1401.82,1974.28,1405.99,1973.47L1405.99,1973.47z"/>
	<path class="st8" d="M1410.32,1996.26c2.08-0.41,4.07,0.82,4.45,2.74c0.38,1.92-1.01,3.8-3.09,4.21c-2.08,0.41-4.07-0.82-4.45-2.74
		C1406.85,1998.55,1408.24,1996.66,1410.32,1996.26L1410.32,1996.26z"/>
	<path class="st6" d="M1420.38,1967.79c3.92-1.62,9.8,3.61,13.13,11.68c3.33,8.07,2.86,15.92-1.06,17.54
		c-3.92,1.62-9.8-3.61-13.13-11.68C1415.99,1977.26,1416.46,1969.41,1420.38,1967.79L1420.38,1967.79z"/>
	<path class="st8" d="M1429.13,1989.27c1.96-0.81,4.15,0,4.9,1.8c0.75,1.81-0.24,3.92-2.2,4.73c-1.96,0.81-4.15,0-4.9-1.8
		C1426.19,1992.2,1427.17,1990.08,1429.13,1989.27L1429.13,1989.27z"/>
	<path class="st6" d="M1431.04,1958.09c2.85-2.52,9.37,0.19,14.56,6.06c5.19,5.87,7.09,12.67,4.24,15.19s-9.37-0.19-14.56-6.06
		C1430.09,1967.41,1428.19,1960.61,1431.04,1958.09L1431.04,1958.09z"/>
	<path class="st6" d="M1377.64,1937.08c4.13,2.37,3.52,11.17-1.36,19.67s-12.17,13.46-16.29,11.09c-4.13-2.37-3.52-11.17,1.36-19.67
		C1366.22,1939.68,1373.52,1934.71,1377.64,1937.08L1377.64,1937.08z"/>
	<path class="st8" d="M1444.76,1973.74c1.43-1.26,3.52-1.22,4.68,0.09c1.16,1.31,0.95,3.4-0.48,4.66c-1.43,1.26-3.52,1.22-4.68-0.09
		C1443.12,1977.09,1443.33,1975,1444.76,1973.74L1444.76,1973.74z"/>
	<path class="st8" d="M1364.59,1959.58c2.06,1.18,2.85,3.68,1.76,5.58c-1.09,1.9-3.65,2.48-5.71,1.3c-2.06-1.18-2.85-3.68-1.76-5.58
		C1359.96,1958.98,1362.52,1958.4,1364.59,1959.58L1364.59,1959.58z"/>
	<path class="st11" d="M996.86,1506.5c43.75,97.41,10.69,137.53,149.24,266.15l151.19,73.58H946.57l-9.65-313.02
		C956.89,1524.31,976.88,1515.41,996.86,1506.5L996.86,1506.5z"/>
	<path class="st10" d="M1252.94,1506.5c-58.62,91.23,0.69,178.52-128.48,245.41l-8.69,94.32h187.46l9.65-313.02L1252.94,1506.5
		L1252.94,1506.5z"/>
	<polygon class="st11" points="1324.45,1783.64 1345.68,1946.96 1392.31,1906.79 1509.95,1950.05 1379.72,1734.42 1312.88,1533.21 
		1306.77,1731.16 1324.45,1783.64 	"/>
	<polygon class="st11" points="909.99,1776.58 906.5,1934.76 852.71,1904.12 729.29,1941.92 857.99,1735.46 936.92,1533.21 
		942.29,1707.22 909.99,1776.58 	"/>
	<polygon class="st2" points="1175.63,2347.75 1119.17,2347.75 1124.43,1754.62 1175.63,2347.75 	"/>
	<polygon class="st4" points="1119.17,2347.75 1069.59,2347.75 1124.46,1751.91 1119.17,2347.75 	"/>
	<path class="st12" d="M1395.22,1026.95c-10.58,1.69-26.55,63.5-2.84,116.64c23.72,53.13,78.95,80.13,88.71,75.78
		c9.77-4.36,26.55-63.5,2.84-116.64C1460.22,1049.59,1405.8,1025.26,1395.22,1026.95L1395.22,1026.95z"/>
	<path class="st12" d="M1413.63,1063.58c6.64,1.06,16.67,39.86,1.78,73.21c-14.88,33.35-49.55,50.3-55.68,47.56
		s-16.66-39.86-1.78-73.21C1372.84,1077.79,1406.99,1062.53,1413.63,1063.58L1413.63,1063.58z"/>
	<path class="st12" d="M1428.96,1161.09c-7.95,1.27-19.96,47.73-2.13,87.67c17.83,39.94,59.35,60.23,66.68,56.96
		c7.34-3.28,19.96-47.73,2.13-87.67C1477.81,1178.11,1436.91,1159.82,1428.96,1161.09L1428.96,1161.09z"/>
	<path class="st12" d="M1413.63,1140.92c6.64,1.06,16.67,39.86,1.78,73.21c-14.88,33.35-49.55,50.3-55.68,47.56
		s-16.66-39.86-1.78-73.21S1406.99,1139.86,1413.63,1140.92L1413.63,1140.92z"/>
	<path class="st12" d="M1428.96,1256.5c-7.95,1.27-19.96,47.73-2.13,87.67c17.83,39.94,59.35,60.23,66.68,56.96
		c7.34-3.28,19.96-47.73,2.13-87.67C1477.81,1273.52,1436.91,1255.24,1428.96,1256.5L1428.96,1256.5z"/>
	<path class="st12" d="M1413.63,1220.59c6.64,1.06,16.67,39.86,1.78,73.21c-14.88,33.35-49.55,50.3-55.68,47.56
		c-6.13-2.73-16.66-39.86-1.78-73.21S1406.99,1219.53,1413.63,1220.59L1413.63,1220.59z"/>
	<path class="st12" d="M1423.69,1338.57c-7.95,1.27-19.96,47.73-2.13,87.67c17.82,39.94,59.35,60.23,66.68,56.96
		c7.34-3.28,19.96-47.73,2.13-87.67C1472.55,1355.59,1431.64,1337.3,1423.69,1338.57L1423.69,1338.57z"/>
	<path class="st12" d="M1413.63,1289.9c6.64,1.06,16.67,39.86,1.78,73.21c-14.88,33.35-49.55,50.3-55.68,47.56
		c-6.13-2.74-16.66-39.86-1.78-73.21C1372.84,1304.11,1406.99,1288.84,1413.63,1289.9L1413.63,1289.9z"/>
	<path class="st12" d="M1413.69,1397.79c-7.85,1.25-19.71,47.15-2.11,86.59c17.61,39.45,58.62,59.49,65.86,56.26
		c7.25-3.24,19.71-47.15,2.11-86.59S1421.54,1396.54,1413.69,1397.79L1413.69,1397.79z"/>
	<path class="st12" d="M1407.7,1379.4c7.85,1.25,19.71,47.15,2.1,86.59c-17.6,39.45-58.61,59.49-65.86,56.25
		c-7.25-3.24-19.71-47.15-2.1-86.59C1359.45,1396.21,1399.85,1378.15,1407.7,1379.4L1407.7,1379.4z"/>
	<path class="st13" d="M1352.14,1231.06c-56.39-52.48-147.64-37.17-203.81,34.2c-56.17,71.37-55.99,171.78,0.4,224.26
		c56.39,52.48,147.64,37.17,203.81-34.2S1408.53,1283.54,1352.14,1231.06L1352.14,1231.06z"/>
	<path class="st13" d="M1128.45,877.59c191.84,7.08,342.38,147.67,336.24,314s-166.64,295.43-358.48,288.35
		c-191.84-7.08-342.38-147.67-336.24-314C776.12,999.61,936.61,870.51,1128.45,877.59L1128.45,877.59z"/>
	<path class="st13" d="M860.5,1231.06c56.39-52.48,147.64-37.17,203.81,34.2c56.17,71.37,55.99,171.78-0.4,224.26
		c-56.39,52.48-147.64,37.17-203.81-34.2C803.93,1383.94,804.11,1283.54,860.5,1231.06L860.5,1231.06z"/>
	<path class="st3" d="M1117.33,907.69c172.67,0,312.64,139.97,312.64,312.64s-139.97,312.64-312.64,312.64
		S804.69,1393,804.69,1220.33S944.66,907.69,1117.33,907.69L1117.33,907.69z"/>
	<path class="st14" d="M1000.07,1271.85c19.26,0,34.88,15.62,34.88,34.88c0,19.26-15.62,34.88-34.88,34.88
		c-19.27,0-34.88-15.62-34.88-34.88C965.19,1287.47,980.8,1271.85,1000.07,1271.85L1000.07,1271.85z"/>
	<path class="st15" d="M1000.07,1271.85c19.26,0,34.88,15.62,34.88,34.88c0,19.26-15.62,34.88-34.88,34.88
		c-19.27,0-34.88-15.62-34.88-34.88C965.19,1287.47,980.8,1271.85,1000.07,1271.85L1000.07,1271.85z"/>
	<polyline class="st16" points="1059.87,1438.38 1116.67,1444.13 1171.96,1438.38 	"/>
	<path class="st17" d="M945.91,1242.34c4.84-1.32,17.22-11.44,22.13-12.36c22.29-4.17,45.3-4.18,69.06,0.1"/>
	<path class="st8" d="M1114.1,1346.31c3.22,1.85,3.24,7.88,0.04,13.46c-3.21,5.59-8.42,8.62-11.64,6.77s-3.24-7.88-0.04-13.46
		C1105.67,1347.49,1110.88,1344.46,1114.1,1346.31L1114.1,1346.31z"/>
	<path class="st8" d="M1122.92,1346.31c-3.22,1.85-3.24,7.88-0.04,13.46c3.21,5.59,8.41,8.62,11.64,6.77
		c3.22-1.85,3.24-7.88,0.04-13.46C1131.36,1347.49,1126.15,1344.46,1122.92,1346.31L1122.92,1346.31z"/>
	<path class="st1" d="M989.91,1286.15c9.63,0,17.44,7.81,17.44,17.44c0,9.63-7.81,17.44-17.44,17.44c-9.63,0-17.44-7.81-17.44-17.44
		C972.47,1293.96,980.28,1286.15,989.91,1286.15L989.91,1286.15z"/>
	<path class="st3" d="M825.64,1285.02c21.62,0,39.14,17.52,39.14,39.14s-17.52,39.14-39.14,39.14c-21.61,0-39.13-17.52-39.13-39.14
		S804.03,1285.02,825.64,1285.02L825.64,1285.02z"/>
	<path class="st3" d="M1413.8,1285.02c21.61,0,39.13,17.52,39.13,39.14s-17.52,39.14-39.13,39.14c-21.62,0-39.14-17.52-39.14-39.14
		S1392.18,1285.02,1413.8,1285.02L1413.8,1285.02z"/>
	<path class="st1" d="M1003.23,1322.58c-2.4,0-4.34-1.94-4.34-4.34c0-2.4,1.95-4.34,4.34-4.34c2.4,0,4.34,1.94,4.34,4.34
		C1007.57,1320.63,1005.63,1322.58,1003.23,1322.58L1003.23,1322.58z"/>
	<line class="st18" x1="962.2" y1="1262.97" x2="976.8" y2="1275.24"/>
	<path class="st19" d="M980.62,1252.57c2.43,4.09,4.87,8.18,7.3,12.27"/>
	<path class="st19" d="M999.04,1248.63c0,4.09,0,8.18,0,12.27"/>
	<path class="st19" d="M1017.46,1252.41c-2.44,4.09-4.87,8.18-7.3,12.27"/>
	<line class="st18" x1="1035.87" y1="1262.65" x2="1021.27" y2="1274.92"/>
	<path class="st14" d="M1237.48,1271.85c19.26,0,34.88,15.62,34.88,34.88c0,19.26-15.62,34.88-34.88,34.88s-34.88-15.62-34.88-34.88
		C1202.6,1287.47,1218.21,1271.85,1237.48,1271.85L1237.48,1271.85z"/>
	<path class="st15" d="M1237.48,1271.85c19.26,0,34.88,15.62,34.88,34.88c0,19.26-15.62,34.88-34.88,34.88s-34.88-15.62-34.88-34.88
		C1202.6,1287.47,1218.21,1271.85,1237.48,1271.85L1237.48,1271.85z"/>
	<path class="st1" d="M1227.32,1286.15c9.63,0,17.44,7.81,17.44,17.44c0,9.63-7.8,17.44-17.44,17.44c-9.63,0-17.44-7.81-17.44-17.44
		C1209.88,1293.96,1217.69,1286.15,1227.32,1286.15L1227.32,1286.15z"/>
	<path class="st1" d="M1240.64,1322.58c-2.4,0-4.34-1.94-4.34-4.34c0-2.4,1.95-4.34,4.34-4.34s4.34,1.94,4.34,4.34
		C1244.98,1320.63,1243.04,1322.58,1240.64,1322.58L1240.64,1322.58z"/>
	<line class="st18" x1="1275.35" y1="1262.97" x2="1260.74" y2="1275.24"/>
	<path class="st19" d="M1256.93,1252.57c-2.44,4.09-4.87,8.18-7.3,12.27"/>
	<path class="st19" d="M1238.51,1248.63c0,4.09,0,8.18,0,12.27"/>
	<path class="st19" d="M1220.09,1252.41c2.43,4.09,4.87,8.18,7.3,12.27"/>
	<line class="st18" x1="1201.67" y1="1262.65" x2="1216.28" y2="1274.92"/>
	<polyline class="st20" points="1151.62,1424.94 1128.88,1416.78 1117.7,1423.8 	"/>
	<path class="st21" d="M1268.42,1358.4c21.62,0,39.14,8.27,39.14,18.48c0,10.21-17.52,18.48-39.14,18.48
		c-21.61,0-39.13-8.27-39.13-18.48C1229.29,1366.68,1246.81,1358.4,1268.42,1358.4L1268.42,1358.4z"/>
	<path class="st21" d="M979.42,1358.4c21.62,0,39.14,8.27,39.14,18.48c0,10.21-17.52,18.48-39.14,18.48
		c-21.61,0-39.13-8.27-39.13-18.48C940.29,1366.68,957.81,1358.4,979.42,1358.4L979.42,1358.4z"/>
	<polyline class="st20" points="1083.78,1424.94 1106.52,1416.78 1117.7,1423.8 	"/>
	<polyline class="st16" points="1094.17,1461.65 1116.67,1463.93 1136.37,1461.88 	"/>
	<path class="st17" d="M1292.24,1242.34c-4.84-1.32-17.22-11.44-22.13-12.36c-22.29-4.17-45.3-4.18-69.06,0.1"/>
	<path class="st13" d="M866.04,999.36l-46.83,106.74c73.3,63.85,179.16,85.42,246.54,47.38c23.41-13.22,39.32-32.03,47.77-54.03
		c8.44,21.99,24.36,40.81,47.77,54.03c70.78,39.97,184.01,14.15,257.37-57.35l-83.62-125.43
		C1290.28,875.59,924.37,860.11,866.04,999.36L866.04,999.36z"/>
	<path class="st13" d="M1145.68,900.58c-54.93,54.02-43.66,145.85,25.16,205.12c68.82,59.27,169.13,63.52,224.06,9.51
		c54.92-54.02,43.66-145.85-25.16-205.12C1300.91,850.82,1200.6,846.56,1145.68,900.58L1145.68,900.58z"/>
	<path class="st13" d="M1083.02,900.58c54.92,54.02,43.66,145.85-25.16,205.12c-68.82,59.27-169.13,63.52-224.06,9.51
		c-54.92-54.02-43.66-145.85,25.16-205.12C927.78,850.82,1028.1,846.56,1083.02,900.58L1083.02,900.58z"/>
	<path class="st22" d="M1059.56,1072.33c-18.22,42.95-70.49,65.9-126.74,52.36c-64.57-15.54-109.93-73.27-101.32-128.94
		c2.92-18.9,11.69-35.12,24.53-47.71c-2.7,6.35-4.65,13.13-5.76,20.3c-8.61,55.67,36.75,113.39,101.31,128.94
		C994.24,1107.54,1034.59,1096.82,1059.56,1072.33L1059.56,1072.33z"/>
	<path class="st22" d="M1165.93,1072.33c18.22,42.95,70.49,65.9,126.74,52.36c64.56-15.54,109.93-73.27,101.31-128.94
		c-2.92-18.9-11.69-35.12-24.53-47.71c2.69,6.35,4.65,13.13,5.76,20.3c8.61,55.67-36.75,113.39-101.32,128.94
		C1231.25,1107.54,1190.9,1096.82,1165.93,1072.33L1165.93,1072.33z"/>
	<polygon class="st23" points="1094.25,1769.71 1140.41,1769.71 1140.41,1778.15 1094.25,1778.15 1094.25,1769.71 	"/>
	<polygon class="st23" points="1094.25,1798.27 1140.41,1798.27 1140.41,1806.71 1094.25,1806.71 1094.25,1798.27 	"/>
	<path class="st23" d="M1094.56,1761.21c6.9,0,12.5,5.71,12.5,12.75s-5.6,12.75-12.5,12.75s-12.5-5.71-12.5-12.75
		S1087.66,1761.21,1094.56,1761.21L1094.56,1761.21z"/>
	<path class="st23" d="M1140.41,1761.21c6.9,0,12.5,5.71,12.5,12.75s-5.6,12.75-12.5,12.75c-6.9,0-12.5-5.71-12.5-12.75
		S1133.51,1761.21,1140.41,1761.21L1140.41,1761.21z"/>
	<path class="st23" d="M1094.56,1790.46c6.9,0,12.5,5.71,12.5,12.75c0,7.04-5.6,12.75-12.5,12.75s-12.5-5.71-12.5-12.75
		C1082.06,1796.17,1087.66,1790.46,1094.56,1790.46L1094.56,1790.46z"/>
	<path class="st23" d="M1140.41,1790.46c6.9,0,12.5,5.71,12.5,12.75c0,7.04-5.6,12.75-12.5,12.75c-6.9,0-12.5-5.71-12.5-12.75
		C1127.91,1796.17,1133.51,1790.46,1140.41,1790.46L1140.41,1790.46z"/>
	<polygon class="st4" points="1032.62,1618.67 720.55,1910.51 871.07,1561.51 976.11,1515.75 1032.62,1618.67 	"/>
	<polygon class="st4" points="1217.55,1618.67 1529.62,1910.51 1379.1,1561.51 1274.05,1515.75 1217.55,1618.67 	"/>
	<path class="st24" d="M1032.62,1618.67l270.6,227.56 M1217.55,1618.67l-270.6,227.56"/>
	<polygon class="st15" points="1032.62,1618.67 871.07,1561.51 912.16,1525.01 976.11,1515.75 1032.62,1618.67 	"/>
	<polygon class="st15" points="1218.55,1618.67 1380.11,1561.51 1339.01,1525.01 1275.06,1515.75 1218.55,1618.67 	"/>
	<path class="st12" d="M1414.08,1482.96c-6.64,1.06-16.67,39.86-1.78,73.21c14.88,33.35,49.55,50.3,55.68,47.56
		c6.13-2.73,16.66-39.86,1.78-73.21C1454.88,1497.17,1420.72,1481.9,1414.08,1482.96L1414.08,1482.96z"/>
	<path class="st12" d="M1425.86,1542.64c-6.57-1.41-29.93,31.16-28.09,67.63c1.84,36.47,28.06,64.79,34.76,64.46
		c6.7-0.34,29.93-31.15,28.09-67.63C1458.78,1570.62,1432.44,1544.05,1425.86,1542.64L1425.86,1542.64z"/>
	<path class="st12" d="M1405.14,1466.57c6.64,1.06,16.66,39.86,1.78,73.21c-14.88,33.35-49.55,50.3-55.68,47.56
		s-16.66-39.86-1.78-73.21C1364.34,1480.78,1398.49,1465.52,1405.14,1466.57L1405.14,1466.57z"/>
	<path class="st12" d="M1401.1,1533.41c6.72-0.22,23.92,35.98,15.63,71.54c-8.29,35.57-39.13,58.78-45.66,57.25
		s-23.92-35.98-15.62-71.54C1363.73,1555.09,1394.38,1533.63,1401.1,1533.41L1401.1,1533.41z"/>
	<path class="st12" d="M1401.37,1625.98c6.63-1.12,28.53,32.44,25.09,68.8c-3.45,36.36-30.88,63.5-37.56,62.86
		s-28.53-32.44-25.08-68.8C1367.25,1652.48,1394.74,1627.09,1401.37,1625.98L1401.37,1625.98z"/>
	<polygon class="st11" points="946.57,1846.23 825.45,2347.75 1033.71,2347.75 1115.77,1846.23 946.57,1846.23 	"/>
	<polygon class="st11" points="1246.35,2342.51 1216.08,2347.75 1176.03,1958.73 1246.35,2342.51 	"/>
</g>
</svg>
