<?xml version="1.0" encoding="utf-8"?>
<!-- Generator: Adobe Illustrator 24.2.3, SVG Export Plug-In . SVG Version: 6.00 Build 0)  -->
<svg version="1.1" id="Layer_1" xmlns="http://www.w3.org/2000/svg" xmlns:xlink="http://www.w3.org/1999/xlink" x="0px" y="0px"
	 viewBox="0 0 288 285" style="enable-background:new 0 0 288 285;" xml:space="preserve">
<style type="text/css">
	.st0{fill:#4671BC;}
	.st1{fill:#353130;}
</style>
<rect class="st0" width="288" height="285"/>
<g>
	<path class="st1" d="M173.2,206.9c-2.5,0.3-5,0.3-7.5,0c-1.3-0.1-2.5-0.4-3.8-0.8c-1.2-0.5-2.5-1-3.2-2c1.1,0.7,2.3,1,3.5,1.1
		c1.2,0.2,2.4,0.2,3.6,0.2c2.2,0,4.4-0.2,6.5-0.4c0.2-2.1,0.3-4.4,0.2-6.5c0-1.2-0.1-2.4-0.3-3.6c-0.2-1.2-0.5-2.4-1.2-3.4
		c1.1,0.7,2.3,1,3.5,1.1c1.2,0.2,2.4,0.2,3.6,0.2c2.2,0,4.4-0.2,6.5-0.4c0.2-2.1,0.3-4.4,0.2-6.5c0-1.2-0.1-2.4-0.3-3.6
		c-0.2-1.2-0.5-2.4-1.2-3.4c1.1,0.7,2.3,1,3.5,1.1c1.2,0.2,2.4,0.2,3.6,0.2c2.2,0,4.4-0.2,6.5-0.4c0.2-2.1,0.3-4.4,0.2-6.5
		c0-1.2-0.1-2.4-0.3-3.6c-0.2-1.2-0.5-2.4-1.2-3.4c1.1,0.7,2.3,1,3.5,1.1c1.2,0.2,2.4,0.2,3.6,0.2c2.2,0,4.4-0.2,6.5-0.4
		c0.2-2.1,0.3-4.4,0.2-6.5c0-1.2-0.1-2.4-0.3-3.6c-0.2-1.2-0.5-2.4-1.2-3.4c1.1,0.7,2.3,1,3.5,1.1c1.2,0.2,2.4,0.2,3.6,0.2
		c2.2,0,4.4-0.2,6.5-0.4c0.2-2.1,0.3-4.4,0.2-6.5c0-1.2-0.1-2.4-0.3-3.6c-0.1-0.7-0.3-1.4-0.5-2l-0.7-1.4c8.5,0.8,13.7-6.7,13.7-6.7
		s-5.7,0.6-13.6,0.3c-4.2-0.1-10.1-0.9-12.3-1.5l-0.1,0c5.6-2.8,10.5-7.9,10.5-7.9s-5.4,0.8-13.6,0.3c-3.1-0.2-7.3-1-8.9-1.3l5.9-7
		c-2.6,0.9-7.5,2.1-13.6,1.3c-4.9-0.7-8.7-2.4-10.9-3.7l-2.9-2.9c5.4-0.1,10.7-0.9,15.7-2.1c-8.3-0.5-16.3-2.5-23.5-5.7l-1.9-1.9
		c5-0.8,9.9-2.3,14.3-4.3c-6.9,0.9-13.6,0.3-20-1.4l-7.6-7.7c-1.4,2-4.2,5.3-8.7,7.3c-4.7,2.1-9.1,1.8-13.1,1.4
		c-6.9-0.5-8.1-2.3-13.8-2.4c-3.5,0-3.8-0.7-11.9,1c-14.7,3.2-13.5,3.1-19.4,5.3c0,0-5.1,6.3-8.3,7.7c-3.3,1.5-4.9,0.1-10,0.6
		c-3.4,0.3-3.9,1.1-8,2.5c-1.2,3.2-3.3,6.6-4.8,8.4c-0.3,0.3-0.8,0.9-1.3,1.7c-1.2,1.5-2.2,2.9-3.1,3.9c4.7,6.2,6,7.1,6.8,7.6
		c1,0.6,3.8,2.3,7.7,2.5c0.3,1.5,1.1,2.8,2.1,3.7c1.2,1,2.4,1.4,3.7,1.6c-1-0.8-1.8-1.8-2.2-2.8c-0.4-1-0.3-2,0.1-2.8
		c0,0,0-0.1,0-0.1c0.5-0.1,1-0.3,1.6-0.5c0.6,1.2,1.5,2.1,2.5,2.8c1.2,0.8,2.5,1,3.8,1c-1.1-0.6-1.9-1.5-2.3-2.4
		c-0.5-1-0.6-1.9-0.3-2.7c0-0.1,0-0.1,0-0.2c0.5-0.2,1.1-0.5,1.7-0.8c0.9,1.2,2.1,2,3.3,2.4c1.3,0.5,2.7,0.5,3.9,0.2
		c-1.2-0.4-2.2-1-2.9-1.9c-0.7-0.8-1-1.6-1-2.4c0.8-0.4,1.5-0.8,2.1-1.1c0.5,0.4,1,0.7,1.5,0.9c0.5,0.2,1.1,0.4,1.7,0.5
		c1.1,0.2,2.3,0.1,3.2-0.2c-1-0.3-1.8-0.9-2.3-1.5c-0.3-0.3-0.5-0.7-0.8-1.1c-0.1-0.1-0.1-0.2-0.1-0.3c2.9-1.5,4.2-2.1,6.5-2.2
		c3.5-0.1,6.1,1.1,7.7,1.8c1.8,0.8,9.1,8.7,9.1,8.7s-0.7,0.6-1.9,1.7l-0.1,0c-0.4,0-0.9,0.2-1.5,0.1c-0.6,0-1.1-0.1-1.7-0.3
		c-1.1-0.3-2.2-1-3-1.9c0.3,1.2,1,2.5,2,3.5c0.4,0.4,0.9,0.8,1.4,1.2c-0.6,0.5-1.3,1.1-1.9,1.7h0c-0.5,0-1,0.2-1.7,0
		c-0.6-0.1-1.2-0.2-1.8-0.4c-1.2-0.4-2.3-1.1-3.3-2.2c0.3,1.4,1.1,2.7,2.2,3.8c0.5,0.5,1.1,0.9,1.6,1.3c-0.8,0.7-1.6,1.4-2.4,2.1
		c-0.4,0-0.9,0.1-1.4,0c-0.7-0.1-1.3-0.2-1.9-0.4c-1.3-0.4-2.4-1.2-3.4-2.3c0.4,1.4,1.2,2.8,2.3,3.9c0.5,0.5,1,0.9,1.6,1.3
		c-0.6,0.5-1.2,1.1-1.8,1.5c-0.1,0-0.1,0-0.2,0c-0.9,0.4-2.1,0.5-3.3,0.1c-1.2-0.3-2.4-1-3.3-2.1c0.4,1.4,1.2,2.7,2.3,3.8
		c0.3,0.3,0.7,0.6,1.1,0.8c-0.5,0.2-1,0.4-1.5,0.6c-0.7,0.1-1.3,0.1-2,0.1c-0.3,0-0.7,0-1-0.1l-0.4-0.1c-0.2,0-0.3-0.1-0.5-0.2
		c-1.3-0.5-2.5-1.5-3.3-3c0,1.6,0.5,3.5,1.8,5c0.1,0.1,0.2,0.2,0.2,0.2c-0.9,0.3-1.8,0.5-2.5,0.7c-0.2,0-0.4-0.1-0.5-0.1l-1-0.2
		c-0.3-0.1-0.7-0.2-0.9-0.3c-0.2,0-0.5-0.1-0.8-0.3c-1.1-0.5-2.1-1.7-2.7-3.1c-0.1,1.5,0.1,3.2,1.1,4.8c0.3,0.4,0.5,0.8,1,1.1l0,0
		c0,0,0,0,0,0c-0.7,1.4,0.1,3,0.9,4.7c0.5,1.1,1.9,3.5,6,6.5c3.7,2.7,8,4.5,8.4,4c0.2-0.4-1.2-1.3-2.4-3.6c-0.9-1.8-1.2-3.6-1.3-4.9
		l8.4,5.5c-0.6-0.8-2.5-2.2-2.3-4.3c0.3-3.9,4.7-5.9,6.1-6.6c0.7-0.3,5.4-2.5,10.5-0.6c5.6,2,8.2,7.4,9.8,10.6
		c2.9,6.1,2.8,11.1,3.7,11c1,0,1.7-5.3,2-8.5c0.2-2.7,0.1-5.1-0.1-7.2l1.3,9.2c1.8,1.6,3.9,4.1,5.2,7.6c2.4,6.4,1.1,12.3,1.1,12.3
		s3.4-5.3,3.7-11.9c0-0.8,0-1.5,0-2.2l1,4.9c1.9,1.9,4.1,4.6,5.5,8.5c2.5,7.3,0.8,13.9,0.8,13.9s3.8-6.2,4.7-14.2
		c0.1-1.3,0.2-2.6,0.2-3.8l0.9,9.9c2.3,1.8,4.9,4.5,6.1,8.3c1.8,5.4,1.1,10.5,1.1,10.5s3.1-2.7,4-5.7c0.4-1.3,0.5-2.5,0.5-3.6
		l0.5,2.6c2.5,2,5.3,5,6.6,9.2c1.8,5.8,0.6,10.8,0.6,10.8s5-6.7,6.1-15.2c0.5-4.2,0.2-7.8-0.1-10.2L173.2,206.9z M122,105.9
		c1.6-0.7,3.4-1.1,5-1.1c1.7-0.1,3.4,0,5.1,0.4c3.4,0.6,6.4,2.6,9.4,3.5c3,1,6.2,1.1,9.4,0.7l1.7-0.2l-0.7,1.6
		c-1.7,3.7-3.8,7.3-6.5,10.5c-2.7,3.2-5.9,5.9-9.6,7.8c-3.7,1.9-7.8,2.9-11.9,2.7c-0.6,0-1.1-0.3-1.5-0.6c-0.4-0.3-0.8-0.6-1.2-1
		c-0.8-0.7-1.5-1.4-2.2-2.1c-1.4-1.4-2.8-3-4.1-4.4c1.5,1.4,2.8,2.9,4.3,4.3c0.7,0.7,1.5,1.4,2.3,2c0.4,0.3,0.8,0.6,1.2,0.9
		c0.4,0.3,0.8,0.5,1.3,0.5c2-0.1,4-0.5,5.9-1.1c1.9-0.5,3.7-1.4,5.4-2.3c3.4-2,6.4-4.7,8.8-7.8c2.1-2.6,3.9-5.6,5.4-8.6
		c-2.9,0.2-5.8-0.1-8.5-1.1c-3.3-1.2-6.1-3-9.1-3.8c-1.5-0.4-3.1-0.6-4.8-0.6c-1.7-0.1-3.2,0.1-4.7,0.7c-3.1,1.1-5.6,3.4-7.7,5.9
		C116.5,109.9,118.9,107.4,122,105.9z M77.4,122.2c-2.1,0.4-3.8,1.6-5.7,3c-0.9,0.7-2,1.4-3.2,1.8c-1.2,0.4-2.5,0.7-3.7,0.6
		c-2.5-0.1-4.8-1.3-6.6-2.7c2.2,0.8,4.5,1.3,6.6,1.2c2.2-0.2,4-1.1,5.8-2.5c0.9-0.6,1.9-1.4,3-1.9c1.1-0.6,2.4-0.9,3.6-1
		c2.5-0.2,4.9,0.6,6.8,2C81.8,122,79.5,121.8,77.4,122.2z M109.4,130.6c-0.8-0.6-1.6-1.3-2.3-1.8c-0.8-0.5-1.7-0.9-2.7-1.4
		c-1.9-0.9-3.7-1.9-5.5-2.8c-1.8-1-3.6-2-5.4-3c-1.8-1.1-3.5-2.1-5.3-3.1c-3.6-1.7-7.6-2.8-11.7-3.4c2.6-0.1,5.3,0.1,7.9,0.7
		c-0.3-0.9-0.5-1.9-0.4-2.9c0.1-0.9,0.5-1.8,1-2.6c0,0,0,0,0.1,0c0-0.1-0.1-0.1-0.1-0.2c-0.2-0.4-0.2-0.9,0-1.2
		c0.1-0.3,0.3-0.6,0.5-0.8c0.8-0.9,1.7-1.5,2.6-2c-1.3,1.5-3.3,4-1,3.6l3.1,0.1l3.2,0.2c2.1,0.2,4.2,0.4,6.3,0.7
		c2.1,0.3,4.2,0.8,6.2,1.5c-2.2,0.2-4.3,0.1-6.4,0.1c-1.3,0-2.5-0.1-3.7-0.1c0.2,0.3,0.2,0.8,0,1.1c-0.8,1.2-1.9,2.2-3.1,3
		c-0.9,0.6-2,1.1-3,1.4c3.5,1.7,6.8,3.6,10.2,5.4l5.4,2.9c0.9,0.5,1.8,0.9,2.8,1.6c0.9,0.6,1.7,1.4,2.4,2.1c3,3,5,6.9,6.1,10.9
		C114.8,136.6,112.4,133.3,109.4,130.6z M130,162.3c0,0.5-0.4,0.9-0.9,0.9c-2.5,0.2-5,0.2-7.5-0.2c-1.2-0.2-2.5-0.5-3.7-0.9
		c-1.2-0.5-2.4-1-3.1-2.1c1,0.7,2.2,1,3.4,1.1c1.2,0.2,2.3,0.3,3.5,0.3c2.1,0,4.2,0,6.3-0.2c0.1-2.1,0.1-4.2,0-6.3
		c-0.1-1.2-0.2-2.4-0.4-3.5c-0.2-1.2-0.5-2.3-1.3-3.3c1,0.7,2.2,1,3.4,1.1c1.2,0.2,2.4,0.3,3.5,0.3c2.1,0,4.2,0,6.3-0.2
		c0.1-2.1,0.1-4.2,0-6.3c-0.1-1.2-0.2-2.4-0.4-3.5c-0.2-1.2-0.5-2.3-1.3-3.3c1,0.7,2.2,1,3.4,1.1c1.2,0.2,2.4,0.3,3.5,0.3
		c2.1,0,4.2,0,6.3-0.2c0.1-2.1,0.1-4.2,0-6.3c-0.1-1.2-0.2-2.4-0.4-3.5c-0.2-1.2-0.5-2.3-1.3-3.3c1,0.7,2.2,1,3.4,1.2
		c1.2,0.2,2.4,0.3,3.5,0.3c2.1,0,4.2,0,6.3-0.2c0.1-2.1,0.1-4.2,0-6.3c-0.1-1.2-0.2-2.4-0.4-3.5c-0.2-1.2-0.5-2.3-1.3-3.3
		c1,0.7,1.6,1.9,2.2,3.1c0.5,1.2,0.8,2.4,1,3.6c0.4,2.5,0.5,4.9,0.4,7.5c0,0.5-0.4,0.9-0.9,0.9c-2.5,0.2-5,0.2-7.5-0.2
		c-1.2-0.2-2.5-0.5-3.6-0.9c-0.8-0.3-1.5-0.7-2.2-1.2c0.5,0.6,0.9,1.4,1.3,2.2c0.5,1.2,0.8,2.4,1,3.6c0.4,2.5,0.5,4.9,0.4,7.5
		c0,0.5-0.4,0.9-0.9,0.9c-2.5,0.2-5,0.2-7.5-0.2c-1.2-0.2-2.5-0.5-3.6-0.9c-0.8-0.3-1.5-0.7-2.2-1.2c0.5,0.6,0.9,1.4,1.3,2.2
		c0.5,1.2,0.8,2.4,1,3.6c0.4,2.5,0.5,4.9,0.4,7.5c0,0.5-0.4,0.9-0.9,0.9c-2.5,0.2-5,0.2-7.5-0.2c-1.2-0.2-2.5-0.5-3.6-0.9
		c-0.8-0.3-1.5-0.7-2.2-1.2c0.5,0.6,0.9,1.4,1.3,2.2c0.5,1.2,0.8,2.4,1,3.6C130.1,157.3,130.1,159.8,130,162.3z M133.4,165.6
		c-1.1-0.5-2.4-1-3.1-2.1c1,0.7,2.2,1,3.4,1.1c1.2,0.2,2.4,0.3,3.5,0.3c2.1,0,4.2,0,6.3-0.2c0.1-2.1,0.1-4.2,0-6.3
		c-0.1-1.2-0.2-2.4-0.4-3.5c-0.2-1.2-0.5-2.3-1.3-3.3c1,0.7,2.2,1,3.4,1.1c1.2,0.2,2.4,0.3,3.5,0.3c2.1,0,4.2,0,6.3-0.2
		c0.1-2.1,0.1-4.2,0-6.3c-0.1-1.2-0.2-2.4-0.4-3.5c-0.2-1.2-0.5-2.3-1.3-3.3c1,0.7,2.2,1,3.4,1.1c1.2,0.2,2.4,0.3,3.5,0.3
		c2.1,0,4.2,0,6.3-0.2c0.1-2.1,0.1-4.2,0-6.3c-0.1-1.2-0.2-2.4-0.4-3.5c-0.2-1.2-0.5-2.3-1.3-3.3c1,0.7,2.2,1,3.4,1.1
		c1.2,0.2,2.4,0.3,3.5,0.3c2.1,0,4.2,0,6.3-0.2c0.1-2.1,0.1-4.2,0-6.3c-0.1-1.2-0.2-2.4-0.4-3.5c-0.2-1.2-0.5-2.3-1.3-3.3
		c1,0.7,1.6,1.9,2.2,3.1c0.5,1.2,0.8,2.4,1,3.6c0.4,2.5,0.5,4.9,0.4,7.4c0,0.5-0.4,0.9-0.9,0.9c-2.5,0.2-5,0.2-7.5-0.2
		c-1.2-0.2-2.5-0.5-3.6-0.9c-0.8-0.3-1.5-0.7-2.2-1.2c0.5,0.6,0.9,1.4,1.3,2.2c0.5,1.2,0.8,2.4,1,3.6c0.4,2.5,0.5,4.9,0.4,7.5
		c0,0.5-0.4,0.9-0.9,0.9c-2.5,0.2-5,0.2-7.5-0.2c-1.2-0.2-2.5-0.5-3.6-0.9c-0.8-0.3-1.5-0.7-2.2-1.2c0.5,0.6,0.9,1.4,1.3,2.2
		c0.5,1.2,0.8,2.4,1,3.6c0.4,2.5,0.5,4.9,0.4,7.5c0,0.5-0.4,0.9-0.9,0.9c-2.5,0.2-5,0.2-7.5-0.2c-1.2-0.2-2.5-0.5-3.6-0.9
		c-0.8-0.3-1.5-0.7-2.2-1.2c0.5,0.6,0.9,1.4,1.3,2.2c0.5,1.2,0.8,2.4,1,3.6c0.4,2.5,0.5,4.9,0.4,7.5c0,0.5-0.4,0.9-0.9,0.9
		c-2.5,0.2-5,0.2-7.5-0.2C135.9,166.3,134.6,166,133.4,165.6z M150.3,182c0,0.5-0.4,0.9-0.9,0.9c-2.5,0.2-5,0.2-7.5-0.2
		c-1.2-0.2-2.5-0.5-3.6-0.9c-1.1-0.5-2.4-1-3.1-2.1c1,0.7,2.2,1,3.4,1.1c1.2,0.2,2.4,0.3,3.5,0.3c2.1,0,4.2,0,6.3-0.2
		c0.1-2.1,0.1-4.2,0-6.3c-0.1-1.2-0.2-2.4-0.4-3.5c-0.2-1.2-0.5-2.3-1.3-3.3c1,0.7,2.2,1,3.4,1.1c1.2,0.2,2.4,0.3,3.5,0.3
		c2.1,0,4.2,0,6.3-0.2c0.1-2.1,0.1-4.2,0-6.3c-0.1-1.2-0.2-2.4-0.4-3.5c-0.2-1.2-0.5-2.3-1.3-3.3c1,0.7,2.2,1,3.4,1.1
		c1.2,0.2,2.4,0.3,3.5,0.3c2.1,0,4.2,0,6.3-0.2c0.1-2.1,0.1-4.2,0-6.3c-0.1-1.2-0.2-2.4-0.4-3.5c-0.2-1.2-0.5-2.3-1.3-3.3
		c1,0.7,2.2,1,3.4,1.1c1.2,0.2,2.4,0.3,3.5,0.3c2.1,0,4.2,0,6.3-0.2c0.1-2.1,0.1-4.2,0-6.3c-0.1-1.2-0.2-2.4-0.4-3.5
		c-0.2-1.2-0.5-2.3-1.3-3.3c1,0.7,2.2,1,3.4,1.1c1.2,0.2,2.4,0.3,3.5,0.3c2.1,0,4.2,0,6.3-0.2c0.1-2.1,0.1-4.2,0-6.3
		c-0.1-1.2-0.2-2.4-0.4-3.5c-0.2-1.2-0.5-2.3-1.3-3.3c1,0.7,1.6,1.9,2.2,3.1c0.5,1.2,0.8,2.4,1,3.6c0.4,2.5,0.5,4.9,0.4,7.5
		c0,0.5-0.4,0.9-0.9,0.9c-2.5,0.2-5,0.2-7.5-0.2c-1.2-0.2-2.5-0.5-3.6-0.9c-0.8-0.3-1.5-0.7-2.2-1.2c0.5,0.6,0.9,1.4,1.3,2.2
		c0.5,1.2,0.8,2.4,1,3.6c0.4,2.5,0.5,4.9,0.4,7.5c0,0.5-0.4,0.9-0.9,0.9c-2.5,0.2-5,0.2-7.5-0.2c-1.2-0.2-2.5-0.5-3.6-0.9
		c-0.8-0.3-1.5-0.7-2.2-1.2c0.5,0.6,0.9,1.4,1.3,2.2c0.5,1.2,0.8,2.4,1,3.6c0.4,2.5,0.5,4.9,0.4,7.5c0,0.5-0.4,0.9-0.9,0.9
		c-2.5,0.2-5,0.2-7.5-0.2c-1.2-0.2-2.5-0.5-3.6-0.9c-0.8-0.3-1.5-0.7-2.2-1.2c0.5,0.6,0.9,1.4,1.3,2.2c0.5,1.2,0.8,2.4,1,3.6
		c0.4,2.5,0.5,4.9,0.4,7.5c0,0.5-0.4,0.9-0.9,0.9c-2.5,0.2-5,0.2-7.5-0.2c-1.2-0.2-2.5-0.5-3.6-0.9c-0.8-0.3-1.5-0.7-2.2-1.2
		c0.5,0.6,0.9,1.4,1.3,2.2c0.5,1.2,0.8,2.4,1,3.6C150.3,177,150.4,179.5,150.3,182z M154.1,188.7c-1.2-0.5-2.5-1-3.2-2
		c1.1,0.7,2.3,1,3.5,1.1c1.2,0.2,2.4,0.2,3.6,0.2c2.2,0,4.4-0.2,6.5-0.4c0.2-2.1,0.3-4.4,0.2-6.5c0-1.2-0.1-2.4-0.3-3.6
		c-0.2-1.2-0.5-2.4-1.2-3.4c1.1,0.7,2.3,1,3.5,1.1c1.2,0.2,2.4,0.2,3.6,0.2c2.2,0,4.4-0.2,6.5-0.4c0.2-2.1,0.3-4.4,0.2-6.5
		c0-1.2-0.1-2.4-0.3-3.6c-0.2-1.2-0.5-2.4-1.2-3.4c1.1,0.7,2.3,1,3.5,1.1c1.2,0.2,2.4,0.2,3.6,0.2c2.2,0,4.4-0.2,6.5-0.4
		c0.2-2.1,0.3-4.4,0.2-6.5c0-1.2-0.1-2.4-0.3-3.6c-0.2-1.2-0.5-2.4-1.2-3.4c1.1,0.7,2.3,1,3.5,1.1c1.2,0.2,2.4,0.2,3.6,0.2
		c2.2,0,4.4-0.2,6.5-0.4c0.2-2.1,0.3-4.4,0.2-6.5c0-1.2-0.1-2.4-0.3-3.6c-0.2-1.2-0.5-2.4-1.2-3.4c1.1,0.8,1.6,2,2.1,3.2
		c0.4,1.2,0.7,2.5,0.9,3.8c0.4,2.5,0.4,5.1,0.2,7.6l-0.1,0.8l-0.8,0.1c-2.6,0.3-5.1,0.3-7.6,0c-1.3-0.1-2.5-0.4-3.8-0.8
		c-0.8-0.3-1.7-0.7-2.4-1.2c0.6,0.7,1,1.5,1.3,2.4c0.4,1.2,0.7,2.5,0.9,3.8c0.4,2.5,0.4,5.1,0.2,7.6l-0.1,0.8l-0.8,0.1
		c-2.6,0.3-5.1,0.3-7.6,0c-1.3-0.1-2.5-0.4-3.8-0.8c-0.8-0.3-1.7-0.7-2.4-1.2c0.6,0.7,1,1.5,1.3,2.4c0.4,1.2,0.7,2.5,0.9,3.8
		c0.4,2.5,0.4,5.1,0.2,7.6l-0.1,0.8l-0.8,0.1c-2.6,0.3-5.1,0.3-7.6,0c-1.3-0.1-2.5-0.4-3.8-0.8c-0.8-0.3-1.7-0.7-2.4-1.2
		c0.6,0.7,1,1.5,1.3,2.4c0.4,1.2,0.7,2.5,0.9,3.8c0.4,2.5,0.4,5.1,0.2,7.6l-0.1,0.8l-0.8,0.1c-2.6,0.3-5.1,0.3-7.6,0
		C156.6,189.4,155.4,189.1,154.1,188.7z"/>
	<path class="st1" d="M185.7,194.3c-2.6,0.3-5.1,0.3-7.6,0c-1.3-0.1-2.5-0.4-3.8-0.8c-0.8-0.3-1.7-0.7-2.4-1.2
		c0.6,0.7,1,1.5,1.3,2.4c0.4,1.2,0.7,2.5,0.9,3.8c0.4,2.5,0.4,5.1,0.2,7.6l-0.1,0.7c3.8,2.8,14.1,1.5,14.1,1.5s1-10.4-1.9-14
		L185.7,194.3z"/>
	<path class="st1" d="M48.2,124.8c0.9-1,2-2.4,2.8-3.5c0.6-0.8,1.1-1.4,1.4-1.8c1.2-1.4,2.7-3.8,3.8-6.3c-0.4,0.1-0.8,0.3-1.3,0.4
		c-7.5,2.1-10.3,1.9-11,3.8c-0.3,0.9,0,1.7,3.9,7C48,124.6,48.1,124.7,48.2,124.8z"/>
	<path class="st1" d="M222.6,156.3c-2.6,0.3-5.1,0.3-7.6,0c-1.3-0.1-2.5-0.4-3.8-0.8c-0.8-0.3-1.7-0.7-2.4-1.2
		c0.6,0.7,1,1.5,1.3,2.4c0.4,1.2,0.7,2.5,0.9,3.8c0.4,2.5,0.4,5.1,0.2,7.6l-0.1,0.7c3.8,2.8,14.1,1.5,14.1,1.5s1-10.4-1.9-14
		L222.6,156.3z"/>
	<path class="st1" d="M87,116.5c0.1-0.3,0.4-0.4,0.7-0.5c1.4-0.2,2.8-0.7,3.9-1.5c1-0.7,1.9-1.5,2.6-2.5c0,0,0.1-0.1,0.1-0.1
		c-0.3,0-0.7,0-1.1-0.1c-2.1-0.2-4.2-0.3-6.3-0.7c0,0,0,0,0,0c0,0.1-0.1,0.2-0.1,0.3c-0.4,0.5-0.6,1.1-0.7,1.8
		c-0.1,1.1,0.2,1.9,0.4,2.3c0.1,0.3,0.1,0.6,0,0.8C86.6,116.4,86.8,116.4,87,116.5z"/>
	<path class="st1" d="M232.3,145.2c-2.9,0-7.3-0.2-9.9-0.9c0.4,1.1,0.7,2.3,0.8,3.5c0.4,2.5,0.4,5.1,0.2,7.6l0,0.3l2.5-0.1
		c2.2-0.4,5.4-1.2,8.9-3c5.3-2.8,9.3-8.6,9.3-8.6S239.7,145.1,232.3,145.2z"/>
	<path class="st1" d="M198,181.6c-2.6,0.3-5.1,0.3-7.6,0c-1.3-0.1-2.5-0.4-3.8-0.8c-0.8-0.3-1.7-0.7-2.4-1.2c0.6,0.7,1,1.5,1.3,2.4
		c0.4,1.2,0.7,2.5,0.9,3.8c0.4,2.5,0.4,5.1,0.2,7.6l-0.1,0.7c3.8,2.8,14.1,1.5,14.1,1.5s1-10.4-1.9-14L198,181.6z"/>
	<path class="st1" d="M210.3,169c-2.6,0.3-5.1,0.3-7.6,0c-1.3-0.1-2.5-0.4-3.8-0.8c-0.8-0.3-1.7-0.7-2.4-1.2c0.6,0.7,1,1.5,1.3,2.4
		c0.4,1.2,0.7,2.5,0.9,3.8c0.4,2.5,0.4,5.1,0.2,7.6l-0.1,0.7c3.8,2.8,14.1,1.5,14.1,1.5s1-10.4-1.9-14L210.3,169z"/>
</g>
</svg>
