<?xml version="1.0" encoding="utf-8"?>
<!-- Generator: Adobe Illustrator 24.2.3, SVG Export Plug-In . SVG Version: 6.00 Build 0)  -->
<svg version="1.1" id="Layer_1" xmlns="http://www.w3.org/2000/svg" xmlns:xlink="http://www.w3.org/1999/xlink" x="0px" y="0px"
	 viewBox="0 0 288 285" style="enable-background:new 0 0 288 285;" xml:space="preserve">
<style type="text/css">
	.st0{fill:#FF0000;}
</style>
<rect width="288" height="285"/>
<g>
	<path class="st0" d="M225.2,123.5c-1.7-2.5-3.4-5.7-3.6-7.6c-0.2-2.3,1.7-5.4,7-2.3c2.7,1.5,4.9,6.5,4.9,6.5
		c-2.1-19-13.7-29.8-25.6-29.9c-12.8-0.2-14.4-5.9-16.2-11.6c-1.8-5.6,1.9-12.8,1.9-12.8s-5.5,5.3-7.3,12.4c-1.1,4.4-1.6,9.6,0,15.3
		c1.7,6.1,6.4,16.7,10.6,17.9c2.5,0.8,0.5-7,5.6-4.3c8.1,4.3,3.6,12.8-1.4,17.3c-2.8,2.5-9,5.4-11,3.3c-5.3-5.5-0.9-13.3-4.6-19.5
		c-6.5-8.6-13.3-13.5-9.1-28.2c1-3.6,0.6-5.5,0.1-8.7c-0.6-3.8-3.7-6.2-4.6-6.9c-0.9-0.7-2.8-2.1-5-2.5c0.3-0.3,0.6-0.7,0.9-1
		c0.8-1.1,1.6-2.2,2.3-3.4c0.7-1.2,1.2-2.4,1.6-3.7c0.4-1.3,0.6-2.6,1-3.9c-0.5,1.2-0.9,2.5-1.5,3.7c-0.6,1.2-1.3,2.3-2.1,3.3
		c-0.8,1-1.7,2-2.6,2.9c-0.9,0.9-1.9,1.8-2.9,2.4l0,0c0,0-0.1,0.1-0.1,0.1c0,0,0,0,0,0.1c-0.7,0.4-1.2,1-3.1,1.6
		c-2.5,0.8-4.2,0.6-4.9,1.8c-0.4,0.8,0.1,1.1-0.3,1.8c-0.9,1.8-3.8,1.5-6.8,2.9C146.7,71,146,72,146,72s0.7,0.9,1.6,1.7
		c-1.1,0.6-1.7,1.1-1.7,1.1c-0.1,0.1-0.2,0.1-0.2,0.2c-0.6,0.8-2,2.9-1.4,5.2c0.8,2.9,3.3,5.4,7.2,4.3c0.5-0.1,0.9-0.3,1.2-0.4
		c0,0,0,0,0,0c1.2-0.4,1.9,0,2.2,0.3c0.2,0.2,0.3,0.4,0.4,0.6c0.3,0.7,0,1.4-0.4,1.9c-0.5,0.5-1.1,0.8-1.8,1.1
		c0.7,0.1,1.5,0.1,2.4-0.1c0.6-0.2,1.4-0.6,1.9-1.4c0.1-0.1,0.3-0.5,0.3-0.5c0.1-0.6,0-1.3-0.2-1.9c-0.2-0.5-0.6-1-1-1.4
		c-0.2-0.2-0.5-0.4-0.8-0.5c1-0.8,1.8-1.4,4.2-1.4c1,0,1.9,0.4,2.4,1.2c0.4,0.6,0.5,1.6,0.1,2.3c0,0,0,0.1-0.1,0.1
		c-0.1,0.2-0.3,0.4-0.6,0.6c-0.5,0.4-1.1,0.6-1.8,0.8c0.6,0.3,1.4,0.4,2.2,0.3c0.4-0.1,0.8-0.2,1.2-0.4c0.2-0.1,0.4-0.3,0.6-0.5
		c0.2-0.1,0.6-0.7,0.8-1.4c0.2-1-0.1-2.1-0.6-3.1c-0.9-1.4-2.4-2.2-4.2-2.2c-3.3,0-4.6,1.1-5.8,2.1c-0.6,0.5-1.2,1-2.1,1.4l0,0l0,0
		c-0.3,0.1-0.6,0.2-1,0.3c-3.3,0.8-4.3-1.9-4.5-2.8c-0.3-1.3,0.5-2.6,0.9-3.1c0.2-0.1,0.8-0.5,1.5-0.9c0.4,0.9,0.8,1.4,1.2,1.5
		c1,0.4,2.3-1.7,4-2.8c2.4-1.5,2.9,0.4,5.7-1c2.8-1.3,3.3-3.2,5.1-3.1c1.4,0.1,2.4,1.2,2.7,1.5c2.5,2.9,3.2,8.1,0.6,11.8
		c-3,4.3-4.6,9.3-3,16.4c1.4,6.4,12.2,13.5,3.8,19c-1.8,1.2-10.9-13-13.5-18.9c-2.4-5.4-7.9-4.1-14.5-21.9c-1.5-4.1-0.4-4.7-3.1-9.9
		c-1.5-2.8-3.5-6.5-7.5-7.9c-0.3-0.1-1.2-0.4-2.4-0.5c1.1-1.1,2.2-2.4,3-3.8c1.6-2.5,2.8-5.3,3.3-8.1c-0.9,2.8-2.4,5.3-4.2,7.5
		c-1.6,1.9-3.5,3.5-5.6,4.7c-0.3,0.1-0.6,0.2-0.9,0.3c-1.8,0.8-1.6,0.8-3.5,1.5c-2.9,1.1-2.8,1-5,1.7c-1.2,0.4-0.7,2.6-1.9,3.3
		c-1.2,0.6-2.2,0.4-5,1.1c-2,0.5-4.4,2.4-4.4,2.4s0.5,1.4,1.9,2.1c-0.8,0.5-1.5,1.1-2,1.6l-0.2,0.2c-1.3,1.2-2.4,3.3-2.6,5
		c-0.1,1.4,0.2,2.3,0.4,3c0.2,0.7,0.4,1.2,0.1,2.1c-0.2,0.8-0.7,1.4-1.5,1.6c-0.8,0.3-1.7,0.1-2.4-0.4c-0.7-0.5-1.2-1.4-1.1-2.4
		c0-0.2,0.1-1.1,0.2-1.4c0.1-0.6,0.5-1.3,1.2-1.8c-0.9,0-1.8,0.3-2.7,1c-0.7,0.7-0.9,1.6-0.9,2.1c-0.1,1.7,0.9,3.4,2.1,4.3
		c0.9,0.6,1.9,0.9,2.9,0.9c0.6,0,1.1-0.1,1.6-0.3c1.4-0.5,2.5-1.7,2.8-3.1c0.1-0.2,0.1-0.4,0.1-0.6c0.9,0.6,2.2,1.1,3.9,1.2
		c3.3,0.2,6.1-1.4,8.4-2.9c1.7-1.1,3.3-2,4.9-2.3c1.3-0.2,4.3-0.3,5.6,1.7c0.6,0.9,0.8,2.3,0.5,3.5c-0.2,0.8-0.6,1.5-1.2,1.8
		c-0.6,0.3-1.6,0.5-2.2,0.4c-0.4,0-1-0.4-1.5-0.9c-0.4-0.5-0.6-1.3-0.6-2.1c-0.4,0.7-0.7,1.6-0.5,2.5c0.1,0.8,1.1,2.6,2.7,2.6
		c0.1,0,0.5,0,0.7,0c0.9,0,1.7-0.2,2.4-0.6c1.1-0.6,1.9-1.7,2.3-3.2c0.5-1.8,0.2-3.8-0.7-5.2c-1.9-3.1-6.1-2.9-7.8-2.7
		c-2.1,0.3-4,1.4-5.8,2.6c-2.3,1.4-4.4,2.8-7.1,2.6c-2.9-0.2-4-1.5-4.7-3.4c0-0.1,0-0.3,0-0.4c0.1-1.2,0.9-2.7,1.8-3.5l0.2-0.2
		c0.6-0.6,1.3-1.2,2.4-1.8c0,0.8,0.1,1.8,0.3,1.9c0.5,0.4,1.5-0.1,3.7-1.1c2.2-1,3.3-1.5,4.2-1.7c2.2-0.4,2.4,0.4,4.4,0.1
		c3.4-0.5,4.1-3.1,6.4-2.8c1.4,0.2,2.4,1.3,3.5,2.7c2.6,3.3,3.3,6.8,3.6,8.2c1.1,5,3.1,15,5.8,22.3c4.9,13.1,15,17.3,14.2,18.2
		c-0.6,0.8-7.2-0.6-11.2-4c-6.1-5-5.9-8.9-11.6-15.9c-2.9-3.5-6.6-7.9-12.6-10.4c-4.2-1.7-9.2-1.6-19.3-1.4
		c-9.9,0.2-12.1,1.3-13.5,2.2c-1.5,1-2.2,3.1-7.7,8.1c-0.9-4.7-2.7-9.2-5.3-13.1c2.4,5,3.6,10.4,3.4,15.8c-0.6,1.6-0.6,3.1-0.6,3.1
		c1.1,1.9,1.6,1.4,1.9,2.6c0.5,2.2-2.2,4.5-1.9,11.7c0,0,2.8-0.6,3.1-0.8l0.5-0.2c0,0.7,0.1,1.4,0.1,2.1c0.2,2.1,0.6,3.7,1,5.1
		c0.5,1.9,0.9,3.4,0.7,5.8c-0.2,2-0.4,4.4-2.2,6.1c-1.4,1.3-4.3,2.7-6.7,1.2c-2.1-1.3-2.7-4.2-1.9-6.2c0.5-1.4,1.9-3,3.7-2.9
		c0,0,2.2,0.2,3.5,1.4c0-0.6-0.2-1.2-0.5-1.8c-0.2-0.4-0.5-0.8-0.9-1.1c-0.4-0.3-1.8-0.8-1.8-0.7c0,0,0,0,0,0
		c-3.1-0.3-5.2,2.1-6,4.3c-1.2,3.3,0,7.1,2.8,8.9c1.1,0.7,2.3,1,3.4,1c2.2,0,4.5-1.1,6-2.5c2.5-2.3,2.7-5.3,2.9-7.6
		c0.1-0.7,0.1-1.3,0.1-1.8c2,2.9,4.3,4.8,5.8,5.6c2.1,1.1,4.4,1,6.7,0.9c3.7-0.1,6.8-0.2,9.3,3.9c1.4,2.3,0.2,5.5-1.7,7.3
		c-2,1.9-5,1.6-7.1,0.5c0,0-2.5-1.7-2.2-4.3c0,0,0.1-0.6,0.1-1.3c0-0.8,0.2-1.6,0.7-2.4c-0.9,0.3-1.7,1-2.4,1.9
		c-0.3,0.5-0.6,1.5-0.6,1.6c0,0,0,0,0,0c-0.3,3.6,2.6,6,3.3,6.4c1.4,0.8,3,1.2,4.5,1.2c2,0,3.8-0.7,5.2-2c2.5-2.5,4.1-6.7,2.1-10
		c-3.2-5.2-7.5-5.1-11.3-4.9c-2.1,0.1-4.1,0.1-5.6-0.7c-1.9-1-6.5-5.3-8.4-12.1c-0.1-0.3-0.1-0.7-0.1-1c-0.1-0.9-0.1-1.7-0.1-2.6
		l0.2-0.1c0.6,0.5,1.6,0.9,2.1-0.1c0.3-0.7,0.2-1.8,0.3-4.1c0.1-1.1,0.3-5.1,2.6-6.3c1-0.5,1.3,0.1,2.7-0.4c1.7-0.7,3.2-2.4,3.6-4.4
		c0.3-1.7-0.4-2.4,0.3-3.3c0.7-1.1,2.8-2.8,5.4-2.9c10.1-0.4,15.2-0.5,17.1,1c1.6,1.2,4,4.1,5.9,8.4c3.6,7.9,1.7,12.1,4.5,16.5
		c1,1.6,1.7,3.8,3.9,7.1l0,0c-1.7,0.2-4.6,0.7-6.4,1.5c-2.3,1-3.2,2.4-4.3,2c-1.1-0.3-1.4-2.2-1.7-3.4c-1.5-6.3-5.8-6-7.9-12.1
		c-1.8-5.2-0.2-9.8-2.4-10.6c-0.9-0.3-1.4-0.2-2.3-1.1c-1.4-1.4-1.5-2.3-2.8-2.4c-0.3,0-0.8,0-1.1,0.2c-0.3,0.1-0.5,0.3-0.7,0.4
		c-0.3,0.2-0.6,0.4-0.8,0.6l-1.4,1.2l-1.4,1.1l-0.7,0.6c-0.2,0.1-0.7,0.5-0.9,0.8c-0.9,1.3-0.9,2.7-0.7,4c0.2,1.3,0.5,2.4,1,3.6
		c-0.2-1.2-0.3-2.4-0.2-3.6c0.1-1.1,0.5-2.3,1.2-2.9c0.2-0.2,0.2-0.1,0.6-0.3l0.9-0.4l1.7-0.8l1.5-0.8c0.1,0.1,0.3,0.1,0.3,0.2
		c0.1,0.1,0.2,0.3,0.2,0.5c0,0.1-0.1,0.1-0.1,0.1c-0.3,0.4-0.9,0.9-1.5,1.3s-1.3,0.8-2,1.2l-0.3,0.1c-0.2,0.1-0.3,0.3-0.3,0.4
		c-0.1,0.7-0.2,1.2-0.1,1.8c0,0.6,0.1,1.2,0.2,1.7c0.2,1.1,0.7,2.2,1.3,3.1c-0.3-1.1-0.4-2.1-0.3-3.2c0.1-0.5,0.1-1,0.3-1.5
		c0.1-0.3,0.2-0.6,0.3-0.9c0.7-0.1,1.4-0.3,2.1-0.5c0.4-0.1,0.8-0.3,1.2-0.5c0.3,0,0.5,0.1,0.6,0.3c0.1,0.2,0,0.4-0.1,0.6
		c-0.3,0.1-0.6,0.3-0.9,0.5c-0.6,0.4-1,1-1.2,1.7c-0.5,1.3,0,2.7,0.7,3.5c-0.5-1.1-0.4-2.3,0.3-3c0.3-0.4,0.7-0.6,1.1-0.8
		c0.2-0.1,0.4-0.1,0.5-0.1c0.3,0.1,0.5,0.1,0.7,0.1v0c0.6,0.4,0.6,1.8,0.9,4c0.2,1.1,1.2,3.5,1.5,4.1c0.9,6.4,2.4,10,3.8,12.1
		c1.2,2,2.5,3.1,3.4,6c0.5,1.6,0.6,2.7,1.5,3.1c1.1,0.5,1.9-0.9,4.4-1.4c2.4-0.5,3.1,0.4,5.3-0.2c1.5-0.4,3.7-1.2,4.3-1.7l0,0
		c-0.4,0.7-0.7,1.4-1.1,2.2c-1.9,4.1-3,10.1-3.3,10.3c-2,1.6-6.8,1-10.3,1.1c-9.8,0.3-10.3,4.1-19.2,3c-2.4-0.3-4.4-1.4-5.6-3.4
		c-0.8-1.2-0.9-2.5-1.9-2.7c-0.9-0.2-1.3,0.7-2.9,1.5c-2.7,1.4-4.2,0.1-5.6,1.5c-0.4,0.4-0.8,1.4-1.5,3.3c-0.6,1.4-0.8,2.1-0.8,2.7
		c0,0.6,0,2.3,2.1,4.3c0,0-0.7-3.3,0-4.4s1.1-1.4,2-1.9c0.9-0.5,2-1.5,2-1.5c0,0.6,0,1.4-0.4,2.3c-0.5,1-1,1.1-1.3,2
		c-0.4,1.3,0.4,2.5,0.7,2.9c0.8,1.2,1.9,1.7,2.4,1.9c0,0-2.3-3.1-0.9-4.1c0.1,1.1,0.5,2.4,2.5,3.2c1.1,0.5,2.6,0.6,2.6,0.6
		c-0.5-0.4-1.1-0.9-1.8-1.6c-1.3-1.3-1.3-1.6-1.3-1.9c0.1-0.6,0.7-0.6,1.2-1.5c0.6-1.1,0.1-1.9,0.5-2.1c0.6-0.4,1.8,1.6,4.4,2.6
		c1.9,0.7,2.7,0.2,4.4,1.3c1.1,0.7,2,1.3,2.8,1.5c1.5,0.5,1.8-0.9,3.7-1.6c0.8-0.3,5.1,2.6,11.3,1.7c3.4-0.5,8.3-2.3,12.3-1.6
		c1.4,0.3,1.5-2,2.5-3.8c1.6-2.8,3.8-3.4,5.8-5c2.1-1.6,4.6-6.8,5.6-13c0.9,1.6,2.5,3.8,5.1,5.4c0.8,0.4,1.6,1,2.2,1.8
		c0.6,0.8,1,1.6,1.4,2.5c0.6,1.8,1.1,3.6,1.7,5.3c1.1,3.4,2.7,6.6,4.8,9.6c1,1.5,2.1,2.8,3.4,4c1.3,1.3,2.7,2.4,4,3.8
		c2.7,2.8,4.2,6.4,5.1,10c0.3,0.7,1.4,0.7,1.7,0.7c3,0.2,7.3,2.3,8.6,3.9c2.4,3.1-1.1,11.8-7.4,15.7c-0.7,0.4-7.3,4.5-12.8,2.2
		c-1.1-0.5-3.1-0.9-3.1-0.9s-5.6,3.9-3,10.6c0,0,1.1-4.1,2.5-5.2c1.5-1.2,3.4-1.1,3.4-1.1c-1.4,0.9-2.3,2.7-1.8,5.5
		c0,0,1.1-2.3,2.1-3.1c1.2-0.9,2-0.9,2-0.9s-0.4,1.4-0.3,2.2c0.2,1,1,1.5,1,1.5c0.3-3.3,3.6-3.8,5.6-4c5-0.6,7.7,1,10-1
		c0.4-0.3,1.3-1.6,3.1-4.1c0.8-1.1,1.6-2.2,1.8-2.6c3-4.4,0.9-9.5,3.6-16.2c1.7-4.2,3.9-5.9,3.1-7.2c-1.1-1.7-5.5,0.5-7.9-2
		c-1.1-1.2-1.2-2.8-1.3-3.9c-0.3-4.3,4.4-12,7.7-12c3.1,0,5.5,5.5,6.4,7.4c3.9,8.8,2.3,25.8-6.4,37.2c-14.5,19-46.3,19.3-66.7,13.3
		c-27.8-8.2-50.7-32.8-56.2-63.1c-3.1-17-0.4-34.3,6.3-48.9c0,0,2.4-5.5,2.8-8.2c0.4-2.6-0.8-6.7-0.8-6.7
		c-10.5,14.4-16.6,32.2-16.6,51.4c0,7.9,1,15.5,3,22.7l-0.1-0.2c-0.9,3.2-1.5,7-1.1,10.7c0.7,6.4,3.8,11.5,3.8,11.5
		s-0.6-2.2-0.2-5.5c0.3-2.1,0.9-3.8,1.5-4.9c4.3,10.2,10.5,19.4,18.1,27.1l-0.4-0.4c0.4,3,1.4,7.3,4.1,11.5c3,4.7,7.2,7.3,7.2,7.3
		s-1.9-2.3-2.5-5.8c-0.3-1.9,0-3.6,0.3-4.8l-0.3-0.3c14.4,11.3,32.4,18.2,51.9,18.6l-0.3,0c2.4,1.7,6.3,3.9,11.4,4.7
		c6.1,1,11.3-0.8,11.3-0.8s-3.8,0.3-7.7-1.9c-1.4-0.8-2.4-1.7-3.1-2.5l-0.6,0c11.2-1.1,21.8-4.3,31.3-9.2v0c4-2.8,7.3-5.8,9.9-8.8
		c2.2,0,6.6-0.5,10.1-2.9c4.7-3.2,6.1-8.5,6.1-8.5s-2.8,4-7.2,4.4c-1.4,0.1-2.6-0.2-3.6-0.5l-0.1,0.1c3-4.9,4.4-9.1,5.2-11.5
		c3.6-11.3,4.1-29.4-3.3-44.9c-2.6-5.4-6.7-11.7-4.4-14.6c1.9-2.3,6.7-1.2,8.5-0.8c8.2,1.9,15.9,8.8,19.5,17.7
		c5.8,14.4-1.4,28.5-0.4,28.7c1,0.3,10.4-17,9.2-35.6C231.2,135,229.6,130.1,225.2,123.5z"/>
	<path class="st0" d="M134.3,189.9c-1.8,1.8-1.3,5-2.8,7c-5.3,6.9-18.7,3.3-19.6,3.1c-2.9-0.6-5.3-0.8-6.5-0.1
		c-1,0.6,0.4,5.7,0.7,7.6c0,0,2-1.6,1.1-4.7c2.2-1.1,8.4,1.8,8.4,1.8c-1.1,0-1.8-0.1-4.2-0.3c-2-0.1-2.7,0-2.9,0.4
		c-0.2,0.4,0.3,1.2,0.6,2.4c0.3,1,0.2,1.8,0.2,2.4c0,0,0.9-0.8,1.2-1.4c0.4-0.8,0.5-1.5,0.5-1.5l3.8,0.4c0,0-1.6,0.8-1.2,2.1
		c0.4,1.3,2.2,2.4,2.2,2.4c-1.6-6.4,11.5-1.7,15-3.9c3.3-2.1,6.2-6.2,8.4-7.9c2.1-1.6,3-0.6,5.3-2.2c2.5-1.8,1.8-3.2,4.6-5.8
		c0.8-0.8,0.7-0.4,5.1-3.6c2.7-1.9,4-2.9,3.8-3.4c-0.3-0.7-2.6,0.1-3.8-1.2c-0.4-0.5-0.3-1-0.5-2.6c-0.4-3.6-1.1-4.2-0.7-5.3
		c0.2-0.4,3.1-2,5.7-2.8c-0.7-0.6-1.4-1.2-2.2-1.8c-1.4-1.3-2.7-2.8-3.8-4.3c-1.1-1.6-2-3.2-2.8-5c-0.8-1.8-1.4-3.6-1.8-5.4
		c-0.1-0.5-0.2-1-0.3-1.5c-2.3,0.9-7.2,3.3-9.5,5.7c-1.9,1.9-4.4,7.5-4.4,7.5s8.1,8.3,6.8,14.1C139.7,187,135.2,189,134.3,189.9z"/>
	<path class="st0" d="M79.1,92.4c0,0,8.1-9.4,14.6-13.9s9.4-5.8,9.4-5.8l-1.7-2.6l8-7.5C97,67.7,86,75.4,77.1,85.2
		c0,0,1.3,2.9,1.5,3.9C78.8,90.1,79.1,92.4,79.1,92.4z"/>
	<path class="st0" d="M148.1,62.7c3.4,0.2,5.2,0.6,5.2,0.6s3.1-0.6,4.6-1.7s3.1-3.2,3.1-3.2c-6.1-1.3-12.4-2-18.9-2
		c-2.3,0-4.6,0.1-6.8,0.3l4.1,6.1C139.4,62.7,144.8,62.5,148.1,62.7z"/>
	<path class="st0" d="M213.7,183.2c0-13.8,2.6-17.1,1.4-28.1c-0.9-7.9-5.2-12.9-6.7-15.5c0,0-2-1.1-3.9-1.7c-1.6-0.5-4.7-1-4.7-1
		s10.5,10.2,11.2,20.7s-0.3,20.3,0.3,26.6c1.6,18.1,11.7,19.8,14.5,27.2c-1.2-3.2-2.9-5.2-4.4-6.9
		C216.9,199.3,213.7,192.9,213.7,183.2z"/>
</g>
</svg>
