<?xml version="1.0" encoding="utf-8"?>
<!-- Generator: Adobe Illustrator 24.1.3, SVG Export Plug-In . SVG Version: 6.00 Build 0)  -->
<svg version="1.1" id="_x2018_ëîé_x5F_1" xmlns="http://www.w3.org/2000/svg" xmlns:xlink="http://www.w3.org/1999/xlink"
	 x="0px" y="0px" viewBox="0 0 2291.04 2808.42" style="enable-background:new 0 0 2291.04 2808.42;" xml:space="preserve">
<style type="text/css">
	.st0{fill-rule:evenodd;clip-rule:evenodd;fill:#8FB4CF;}
	.st1{fill-rule:evenodd;clip-rule:evenodd;fill:#B4D6EF;}
	.st2{fill-rule:evenodd;clip-rule:evenodd;fill:#333333;}
	.st3{fill-rule:evenodd;clip-rule:evenodd;fill:#1A1A1A;}
	.st4{fill:none;stroke:#610E0E;stroke-width:2.36;stroke-linecap:round;stroke-linejoin:round;stroke-miterlimit:22.9256;}
	.st5{fill:none;stroke:#610E0E;stroke-width:2.3601;stroke-linecap:round;stroke-linejoin:round;stroke-miterlimit:22.9256;}
	.st6{fill-rule:evenodd;clip-rule:evenodd;}
	.st7{fill:none;stroke:#000000;stroke-width:4.7207;stroke-linecap:round;stroke-linejoin:round;stroke-miterlimit:22.9256;}
	.st8{fill-rule:evenodd;clip-rule:evenodd;fill:#D5DDDE;}
	.st9{fill-rule:evenodd;clip-rule:evenodd;fill:#A87C39;}
	.st10{fill-rule:evenodd;clip-rule:evenodd;fill:#FFDABD;}
	.st11{fill:none;stroke:#000000;stroke-width:5.0763;stroke-linecap:round;stroke-linejoin:round;stroke-miterlimit:22.9256;}
	.st12{fill:none;stroke:#BA9B6D;stroke-width:30.6314;stroke-linecap:round;stroke-linejoin:round;stroke-miterlimit:22.9256;}
	.st13{fill-rule:evenodd;clip-rule:evenodd;fill:#C98E60;}
	.st14{fill:none;stroke:#D65940;stroke-width:9.4401;stroke-linecap:round;stroke-linejoin:round;stroke-miterlimit:22.9256;}
	.st15{fill:none;stroke:#D65940;stroke-width:4.7207;stroke-linecap:round;stroke-linejoin:round;stroke-miterlimit:22.9256;}
	.st16{fill:none;stroke:#D65940;stroke-width:4.7203;stroke-linecap:round;stroke-linejoin:round;stroke-miterlimit:22.9256;}
	.st17{fill-rule:evenodd;clip-rule:evenodd;fill:#FFFFFF;}
	.st18{fill:none;stroke:#BA9B6D;stroke-width:30.6313;stroke-linecap:round;stroke-linejoin:round;stroke-miterlimit:22.9256;}
	.st19{fill:none;stroke:#000000;stroke-width:5.0765;stroke-linecap:round;stroke-linejoin:round;stroke-miterlimit:22.9256;}
	.st20{fill-rule:evenodd;clip-rule:evenodd;fill:#333333;stroke:#DED4C8;stroke-width:0.216;stroke-miterlimit:22.9256;}
	.st21{fill-rule:evenodd;clip-rule:evenodd;fill:#BA9B6D;}
	.st22{fill-rule:evenodd;clip-rule:evenodd;fill:#EDB68B;}
	.st23{fill-rule:evenodd;clip-rule:evenodd;fill:#AD2138;}
	.st24{fill-rule:evenodd;clip-rule:evenodd;fill:#691422;}
	.st25{fill-rule:evenodd;clip-rule:evenodd;fill:#9FAAAB;}
	.st26{fill-rule:evenodd;clip-rule:evenodd;fill:#B3B3B3;}
</style>
<g>
	<polygon class="st0" points="0,2342.51 2291.04,2342.51 2291.04,2808.42 0,2808.42 0,2342.51 	"/>
	<polygon class="st1" points="0,2808.42 2291.04,2808.42 2291.04,0 0,0 0,2808.42 	"/>
	<path class="st2" d="M726.85,1831.03l75.75,59.8L697.9,2038.81l-67.69-7.83C626.84,1959.88,661.07,1893.49,726.85,1831.03
		L726.85,1831.03z"/>
	<polygon class="st3" points="1310.23,2227.5 1187.87,2232.97 1170.37,2364.97 1249.38,2366.28 1310.23,2227.5 	"/>
	<polygon class="st3" points="985.8,2234.27 1106.95,2234.05 1121.2,2364.97 1042.2,2366.28 985.8,2234.27 	"/>
	<polygon class="st3" points="674.89,1821.01 872.33,1758.08 895.71,2067.3 674.89,1821.01 	"/>
	<polygon class="st3" points="1609.09,1821.01 1411.66,1758.08 1388.28,2067.3 1609.09,1821.01 	"/>
	<path class="st3" d="M1144.82,1637c204.75-2.02,371.2,171.54,376.51,390.66c5.31,219.12-11.12,108-31.13,155.71H799.44
		c-20.01-47.71-31.13-100.36-31.13-155.71C768.32,1811.91,940.07,1639.02,1144.82,1637L1144.82,1637z"/>
	<path class="st2" d="M1461.48,2291.53c-0.43-35.94-9.73-58.7-26.16-89.75H854.34c-16.43,31.05-25.73,53.82-26.16,89.75H1461.48
		L1461.48,2291.53z"/>
	<path class="st3" d="M1521.31,2266.32c-0.51-22.93-11.57-44.74-31.1-64.55H799.44c-19.53,19.81-30.59,41.62-31.1,64.55H1521.31
		L1521.31,2266.32z"/>
	<line class="st4" x1="817.3" y1="2048.14" x2="890.05" y2="1975.41"/>
	<line class="st5" x1="817.31" y1="1975.41" x2="890.05" y2="2048.14"/>
	<line class="st4" x1="817.3" y1="1902.69" x2="795.67" y2="1881.06"/>
	<line class="st4" x1="817.3" y1="2048.14" x2="773.43" y2="2092"/>
	<line class="st4" x1="1472.04" y1="2193.59" x2="1494.99" y2="2170.64"/>
	<line class="st4" x1="1472.04" y1="2193.6" x2="1513.64" y2="2235.19"/>
	<line class="st5" x1="1472.04" y1="2266.32" x2="1510.14" y2="2228.23"/>
	<polygon class="st6" points="1138.33,2266.32 1150.74,2266.32 1150.74,1842.89 1138.33,1842.89 1138.33,2266.32 	"/>
	<polygon class="st6" points="799.44,2183.37 1490.21,2183.37 1490.21,2201.77 799.44,2201.77 799.44,2183.37 	"/>
	<path class="st6" d="M1097.23,1858.1c7.43,0,13.45,6.02,13.45,13.45c0,7.43-6.02,13.45-13.45,13.45s-13.45-6.02-13.45-13.45
		C1083.79,1864.12,1089.8,1858.1,1097.23,1858.1L1097.23,1858.1z"/>
	<path class="st6" d="M1192.42,1858.1c7.43,0,13.45,6.02,13.45,13.45c0,7.43-6.02,13.45-13.45,13.45c-7.43,0-13.45-6.02-13.45-13.45
		C1178.97,1864.12,1184.99,1858.1,1192.42,1858.1L1192.42,1858.1z"/>
	<path class="st6" d="M1097.23,1927.81c7.43,0,13.45,6.02,13.45,13.45c0,7.43-6.02,13.45-13.45,13.45s-13.45-6.02-13.45-13.45
		C1083.79,1933.83,1089.8,1927.81,1097.23,1927.81L1097.23,1927.81z"/>
	<path class="st6" d="M1192.42,1927.81c7.43,0,13.45,6.02,13.45,13.45c0,7.43-6.02,13.45-13.45,13.45
		c-7.43,0-13.45-6.02-13.45-13.45C1178.97,1933.83,1184.99,1927.81,1192.42,1927.81L1192.42,1927.81z"/>
	<path class="st6" d="M1097.23,1997.17c7.43,0,13.45,6.02,13.45,13.45c0,7.43-6.02,13.45-13.45,13.45s-13.45-6.02-13.45-13.45
		C1083.79,2003.19,1089.8,1997.17,1097.23,1997.17L1097.23,1997.17z"/>
	<path class="st6" d="M1192.42,1997.17c7.43,0,13.45,6.02,13.45,13.45c0,7.43-6.02,13.45-13.45,13.45
		c-7.43,0-13.45-6.02-13.45-13.45C1178.97,2003.19,1184.99,1997.17,1192.42,1997.17L1192.42,1997.17z"/>
	<path class="st6" d="M1097.23,2064.4c7.43,0,13.45,6.02,13.45,13.45c0,7.43-6.02,13.45-13.45,13.45s-13.45-6.02-13.45-13.45
		C1083.79,2070.42,1089.8,2064.4,1097.23,2064.4L1097.23,2064.4z"/>
	<path class="st6" d="M1192.42,2064.4c7.43,0,13.45,6.02,13.45,13.45c0,7.43-6.02,13.45-13.45,13.45c-7.43,0-13.45-6.02-13.45-13.45
		C1178.97,2070.42,1184.99,2064.4,1192.42,2064.4L1192.42,2064.4z"/>
	<line class="st7" x1="1097.23" y1="1871.55" x2="1192.23" y2="1946.93"/>
	<line class="st7" x1="1193.43" y1="1873.11" x2="1096.03" y2="1945.37"/>
	<line class="st7" x1="1097.23" y1="1942.52" x2="1192.23" y2="2017.9"/>
	<line class="st7" x1="1193.43" y1="1944.08" x2="1096.03" y2="2016.34"/>
	<line class="st7" x1="1097.23" y1="2009.15" x2="1192.23" y2="2084.53"/>
	<line class="st7" x1="1193.43" y1="2010.71" x2="1096.03" y2="2082.97"/>
	<line class="st7" x1="1097.23" y1="2078.02" x2="1192.23" y2="2153.4"/>
	<line class="st7" x1="1193.43" y1="2079.58" x2="1096.03" y2="2151.84"/>
	<path class="st6" d="M1097.23,2140.83c7.43,0,13.45,6.02,13.45,13.45c0,7.43-6.02,13.45-13.45,13.45s-13.45-6.02-13.45-13.45
		C1083.79,2146.85,1089.8,2140.83,1097.23,2140.83L1097.23,2140.83z"/>
	<path class="st6" d="M1192.42,2140.83c7.43,0,13.45,6.02,13.45,13.45c0,7.43-6.02,13.45-13.45,13.45
		c-7.43,0-13.45-6.02-13.45-13.45C1178.97,2146.85,1184.99,2140.83,1192.42,2140.83L1192.42,2140.83z"/>
	<path class="st8" d="M1126.78,2171.33h38.92c7.2,0,13.1,5.89,13.1,13.09v24.05c0,7.2-5.89,13.09-13.1,13.09h-38.92
		c-7.2,0-13.09-5.89-13.09-13.09v-24.05C1113.69,2177.23,1119.58,2171.33,1126.78,2171.33L1126.78,2171.33z M1149.07,2192.57h16.27
		v-3.18c0-4.23-3.46-7.68-7.68-7.68h-8.59V2192.57L1149.07,2192.57z M1165.35,2201.77h-16.27v9.43h8.59c4.23,0,7.68-3.46,7.68-7.68
		V2201.77L1165.35,2201.77z M1136.33,2211.2v-29.49h-1.52c-4.23,0-7.68,3.46-7.68,7.68v14.12c0,4.23,3.46,7.68,7.68,7.68H1136.33
		L1136.33,2211.2z"/>
	<path class="st9" d="M676.98,1544.08c22.51,0,41.46,15.27,47.05,36.01c0.55-0.02,1.12-0.02,1.68-0.02
		c34.46,0,62.39,27.93,62.39,62.39c0,12.91-3.92,24.91-10.64,34.86l0.1,0c19.68,0,35.63,15.95,35.63,35.63
		c0,19.68-15.95,35.63-35.63,35.63c-19.68,0-35.63-15.95-35.63-35.63c0-3.72,0.57-7.32,1.63-10.69c-5.66,1.69-11.65,2.6-17.85,2.6
		c-34.46,0-62.39-27.93-62.39-62.39c0-0.95,0.02-1.89,0.07-2.83c-20.3-5.88-35.15-24.61-35.15-46.81
		C628.24,1565.9,650.07,1544.08,676.98,1544.08L676.98,1544.08z M1554.56,1557.37c26.88,0,48.67,21.79,48.67,48.67
		c0,26.88-21.79,48.67-48.67,48.67c-5.1,0-10.02-0.79-14.64-2.24c0.04,0.7,0.07,1.41,0.07,2.13c0,14.92-9.17,27.7-22.19,33
		c3.44,5.48,5.43,11.96,5.43,18.9c0,19.68-15.95,35.63-35.63,35.63c-19.68,0-35.63-15.95-35.63-35.63c0-14.92,9.18-27.7,22.19-33
		c-3.44-5.48-5.42-11.96-5.42-18.9c0-19.68,15.95-35.63,35.63-35.63c1.12,0,2.22,0.05,3.31,0.15c-1.16-4.16-1.78-8.55-1.78-13.08
		C1505.89,1579.16,1527.68,1557.37,1554.56,1557.37L1554.56,1557.37z"/>
	<path class="st10" d="M1136.59,937.39c250.11,0,452.87,202.76,452.87,452.87c0,250.11-202.76,452.87-452.87,452.87
		c-250.12,0-452.87-202.76-452.87-452.87C683.72,1140.15,886.48,937.39,1136.59,937.39L1136.59,937.39z"/>
	<path class="st6" d="M984.73,1436.87c19.19,0,34.74,15.55,34.74,34.74c0,19.19-15.55,34.74-34.74,34.74
		c-19.19,0-34.74-15.55-34.74-34.74C949.99,1452.42,965.54,1436.87,984.73,1436.87L984.73,1436.87z"/>
	<path class="st6" d="M1289.75,1436.87c19.19,0,34.74,15.55,34.74,34.74c0,19.19-15.55,34.74-34.74,34.74
		c-19.19,0-34.74-15.55-34.74-34.74C1255.01,1452.42,1270.56,1436.87,1289.75,1436.87L1289.75,1436.87z"/>
	<line class="st11" x1="1084.27" y1="1636.98" x2="1189.63" y2="1636.98"/>
	<line class="st12" x1="1356.32" y1="1425.66" x2="1248.55" y2="1404.67"/>
	<line class="st12" x1="914.55" y1="1425.66" x2="1022.33" y2="1404.67"/>
	<path class="st13" d="M1132.33,1490.33c5.61,3.22,5.64,13.7,0.06,23.43c-5.58,9.72-14.64,15-20.25,11.78
		c-5.61-3.22-5.64-13.7-0.06-23.43C1117.66,1492.39,1126.72,1487.12,1132.33,1490.33L1132.33,1490.33z"/>
	<path class="st13" d="M1147.68,1490.33c-5.61,3.22-5.64,13.7-0.06,23.43c5.57,9.72,14.64,15,20.25,11.78s5.64-13.7,0.06-23.43
		C1162.35,1492.39,1153.29,1487.12,1147.68,1490.33L1147.68,1490.33z"/>
	<path class="st14" d="M934.18,1640.18c35.96-76.84,72.97-127.84,196.53-167.8c128.47-41.56,167.78-73.28,202.63-132.27"/>
	<path class="st15" d="M914.31,1614.68c-0.53,8.61,32.55,12.63,29.9,19.12"/>
	<path class="st16" d="M945.83,1563.77c-0.7,8.59,32.25,13.25,29.48,19.68"/>
	<path class="st16" d="M988.23,1521.7c-0.87,8.57,31.95,13.87,29.06,20.23"/>
	<path class="st16" d="M1039.3,1490.77c-1.04,8.54,31.66,14.49,28.63,20.79"/>
	<path class="st16" d="M1094.6,1468.31c-1.21,8.52,31.36,15.11,28.21,21.35"/>
	<path class="st16" d="M1150.84,1448.28c-1.37,8.5,31.06,15.73,27.79,21.9"/>
	<path class="st16" d="M1205.45,1424.11c-1.54,8.47,30.76,16.35,27.37,22.46"/>
	<path class="st16" d="M1255.36,1391.37c-1.71,8.45,30.46,16.96,26.95,23.02"/>
	<path class="st15" d="M1294.58,1346.35c-1.88,8.42,30.16,17.58,26.53,23.58"/>
	<path class="st17" d="M967.36,1454.24c9.59,0,17.37,7.78,17.37,17.37c0,9.59-7.78,17.37-17.37,17.37s-17.37-7.78-17.37-17.37
		C949.99,1462.02,957.76,1454.24,967.36,1454.24L967.36,1454.24z"/>
	<path class="st17" d="M1272.92,1454.24c9.59,0,17.37,7.78,17.37,17.37c0,9.59-7.78,17.37-17.37,17.37
		c-9.59,0-17.37-7.78-17.37-17.37C1255.55,1462.02,1263.33,1454.24,1272.92,1454.24L1272.92,1454.24z"/>
	<line class="st18" x1="1052.81" y1="1425.66" x2="1022.32" y2="1404.67"/>
	<line class="st18" x1="1218.05" y1="1425.66" x2="1248.54" y2="1404.67"/>
	<line class="st19" x1="1120.72" y1="1657.18" x2="1153.18" y2="1657.18"/>
	<path class="st20" d="M1508.7,2160.11l58.89,39.49c32.97-53.22,68.7-107.59,61.29-186.76c0.82-50.57-33.11-100.6-63.99-142.52
		l-55.01,61.35l28.75,88.16L1508.7,2160.11L1508.7,2160.11z"/>
	<path class="st2" d="M834.77,2035l-51.34,65.42c-63.2,1.1-115.96-18.68-153.22-69.44l53.96-72.67L834.77,2035L834.77,2035z"/>
	<path class="st21" d="M1136.59,1843.13c-230.76,0-421.2-172.59-449.29-395.72h66.82c26.37,129.13,181.6,230.14,324.56,252.68
		c8.68-16.92,31.33-28.99,57.91-28.99c26.58,0,49.23,12.07,57.91,28.99c142.96-22.53,298.2-123.54,324.56-252.68h66.82
		C1557.79,1670.55,1367.35,1843.13,1136.59,1843.13L1136.59,1843.13z"/>
	<path class="st9" d="M1130.94,807.55c42.89,0,82.11,15.73,112.2,41.73c18.44-7.12,38.47-11.03,59.43-11.03
		c88.03,0,159.94,68.94,164.72,155.77c39.1,10.36,69.77,41.42,79.57,80.74c53.43,7.57,94.53,53.48,94.53,109
		c0,16.64-3.7,32.41-10.3,46.55c45.92,14.49,79.22,57.43,79.22,108.14c0,49.36-31.54,91.34-75.56,106.91
		c0.7,4.59,1.05,9.29,1.05,14.07c0,34.14-18.3,63.99-45.62,80.31c0.26,2.24,0.4,4.52,0.4,6.83c0,27.29-18.73,50.2-44.04,56.59
		c-1.66,19.6-18.09,34.98-38.12,34.98c-21.13,0-38.26-17.13-38.26-38.26c0-10.13,3.94-19.33,10.36-26.18
		c-4.27-8.11-6.69-17.34-6.69-27.14c0-7.01,1.23-13.72,3.5-19.95c-17.57-17-28.5-40.82-28.5-67.19c0-32.99,17.09-61.98,42.89-78.62
		c-5.28-13.09-8.19-27.38-8.19-42.36c0-18.17,4.28-35.34,11.88-50.56c-34.28-11.81-60.89-40.06-70.43-75.34
		c-33.44-4.08-62.31-22.96-79.86-49.9c-13.58,3.61-27.84,5.55-42.56,5.55c-37.28,0-71.65-12.37-99.28-33.21
		c-21.99,10.23-46.5,15.95-72.35,15.95c-5.04,0-10.04-0.22-14.97-0.65c0.01,0.53,0.02,1.07,0.02,1.6
		c0,43.44-35.21,78.65-78.65,78.65c-10.18,0-19.91-1.93-28.84-5.46c-10.73,7.89-23.98,12.56-38.32,12.56
		c-2.14,0-4.25-0.11-6.34-0.31c4.22,8.51,6.6,18.1,6.6,28.25c0,35.18-28.52,63.69-63.7,63.69c-12.92,0-24.93-3.85-34.97-10.45
		c-10.25,8.58-22.94,14.35-36.88,16.1c0.14,1.4,0.21,2.82,0.21,4.26c0,22.99-18.09,41.75-40.8,42.84
		c-2.97,13.49-12.3,24.6-24.69,30.03c2.55,8.52,3.93,17.55,3.93,26.9c0,29.55-13.7,55.9-35.1,73.05
		c6.7,8.81,10.67,19.79,10.67,31.71c0,8.41-1.98,16.36-5.51,23.41c6.14,6.79,9.88,15.78,9.88,25.66c0,21.13-17.13,38.26-38.26,38.26
		s-38.26-17.13-38.26-38.26l0.01-0.44c-19.21-7.78-32.77-26.62-32.77-48.63c0-6,1.01-11.77,2.87-17.14
		c-35.45-13.31-60.68-47.52-60.68-87.62c0-38.39,23.13-71.38,56.2-85.81c-36.72-18.76-61.86-56.96-61.86-101.03
		c0-56.37,41.14-103.13,95.04-111.9c-6.69-16.87-10.37-35.26-10.37-54.51c0-81.73,66.25-147.98,147.97-147.98
		c5.01,0,9.96,0.25,14.85,0.74c22.83-40.26,66.06-67.44,115.65-67.44c16.61,0,32.5,3.05,47.15,8.62
		C1022.17,836.03,1073.23,807.55,1130.94,807.55L1130.94,807.55z"/>
	<polygon class="st2" points="1018.04,2323.79 1121.63,2332.31 1123.18,2399.58 1043.67,2400.25 1018.04,2323.79 	"/>
	<polygon class="st2" points="901.98,2435.64 897.41,2448.3 1145.79,2444.06 1144.25,2430.68 1123.18,2399.58 1043.67,2400.25 
		901.98,2435.64 	"/>
	<polygon class="st6" points="1034.23,2393.68 1130.71,2391.81 1130.95,2402.3 1029.26,2405.7 1034.23,2393.68 	"/>
	<polygon class="st6" points="1037.82,2379.81 1125.88,2388.77 1122.84,2404.34 1035.43,2389.08 1037.82,2379.81 	"/>
	<polygon class="st2" points="1273.53,2323.79 1169.95,2332.31 1168.39,2399.58 1247.9,2400.25 1273.53,2323.79 	"/>
	<polygon class="st2" points="1389.6,2435.64 1394.16,2448.3 1145.79,2444.06 1147.33,2430.68 1168.39,2399.58 1247.9,2400.25 
		1389.6,2435.64 	"/>
	<polygon class="st6" points="1257.34,2393.68 1160.86,2391.81 1160.62,2402.3 1262.31,2405.7 1257.34,2393.68 	"/>
	<polygon class="st6" points="1253.75,2379.81 1165.69,2388.77 1168.73,2404.34 1256.14,2389.08 1253.75,2379.81 	"/>
	<path class="st10" d="M1568.19,2170.73c10.69,26.26-1.94,56.21-28.2,66.9c-26.26,10.69-56.21-1.94-66.9-28.2s1.94-56.21,28.2-66.9
		S1557.5,2144.46,1568.19,2170.73L1568.19,2170.73z"/>
	<path class="st10" d="M1482.48,2201.8c3.76,5.05-1.63,15.43-12.03,23.17c-10.4,7.74-21.89,9.92-25.65,4.87
		c-3.76-5.05,1.63-15.43,12.03-23.17C1467.23,2198.93,1478.72,2196.75,1482.48,2201.8L1482.48,2201.8z"/>
	<path class="st22" d="M1454.74,2222.24c1.88,2.53,1.52,5.98-0.81,7.71c-2.33,1.73-5.74,1.09-7.62-1.44
		c-1.88-2.53-1.52-5.98,0.81-7.71C1449.45,2219.07,1452.86,2219.71,1454.74,2222.24L1454.74,2222.24z"/>
	<path class="st10" d="M1496.25,2215.81c4.98,3.85,2.59,15.3-5.35,25.55c-7.94,10.26-18.41,15.45-23.39,11.59
		c-4.98-3.86-2.59-15.3,5.35-25.55C1480.79,2217.14,1491.27,2211.95,1496.25,2215.81L1496.25,2215.81z"/>
	<path class="st22" d="M1475.04,2242.95c2.49,1.93,3.07,5.35,1.3,7.65c-1.78,2.3-5.24,2.59-7.73,0.67c-2.49-1.93-3.07-5.35-1.3-7.65
		C1469.09,2241.32,1472.54,2241.03,1475.04,2242.95L1475.04,2242.95z"/>
	<path class="st10" d="M1516.69,2226.33c5.64,2.79,5.56,14.48-0.2,26.11s-14.99,18.78-20.64,15.99c-5.65-2.79-5.56-14.48,0.19-26.11
		C1501.8,2230.69,1511.04,2223.54,1516.69,2226.33L1516.69,2226.33z"/>
	<path class="st22" d="M1501.26,2257.14c2.82,1.4,4.07,4.64,2.78,7.24s-4.62,3.58-7.44,2.18c-2.82-1.4-4.07-4.64-2.78-7.24
		C1495.1,2256.71,1498.44,2255.74,1501.26,2257.14L1501.26,2257.14z"/>
	<path class="st10" d="M1537.96,2228.74c5.61,0.72,8.96,10.65,7.49,22.2c-1.47,11.54-7.21,20.32-12.82,19.61
		c-5.61-0.71-8.96-10.65-7.49-22.2C1526.62,2236.8,1532.36,2228.02,1537.96,2228.74L1537.96,2228.74z"/>
	<path class="st10" d="M1509.15,2148.52c1.39,6.93-9.04,14.87-23.3,17.74c-14.26,2.87-26.95-0.42-28.34-7.35
		c-1.4-6.93,9.04-14.87,23.3-17.74C1495.07,2138.3,1507.76,2141.59,1509.15,2148.52L1509.15,2148.52z"/>
	<path class="st22" d="M1533.9,2259.39c2.8,0.36,4.81,2.74,4.48,5.32c-0.33,2.58-2.87,4.39-5.67,4.03c-2.8-0.36-4.81-2.74-4.48-5.32
		C1528.56,2260.83,1531.1,2259.03,1533.9,2259.39L1533.9,2259.39z"/>
	<path class="st22" d="M1471.23,2155.96c0.7,3.46-1.32,6.79-4.51,7.43c-3.19,0.64-6.34-1.65-7.04-5.11
		c-0.7-3.46,1.32-6.79,4.52-7.43C1467.38,2150.21,1470.54,2152.49,1471.23,2155.96L1471.23,2155.96z"/>
	<path class="st8" d="M959.09,1937.6c0.25,42.1-29.99,77.27-70.02,84.57l0.66,114.12l44.87-0.26l0.12,21.54l-119.65,0.7l-0.13-21.54
		l44.87-0.26l-0.66-114.12c-40.11-6.84-70.75-41.65-71-83.75l-0.62-106.83l170.93-0.99L959.09,1937.6L959.09,1937.6z
		 M821.66,2152.93l106.41-0.62l-0.01-2.14l-106.41,0.62L821.66,2152.93L821.66,2152.93z M882.03,2025.02l4.7-0.03l0.67,114.1
		l-4.7,0.03L882.03,2025.02L882.03,2025.02z M864.79,2037.3l9.4-0.05l0.62,106.83l53.2-0.31l0.03,4.06l-106.41,0.62l-0.03-4.06
		l43.8-0.25L864.79,2037.3L864.79,2037.3z M794.14,1940.45l-0.17-29.26l8.54-0.05l-0.34-58.12l25.64-0.15l0.34,58.12l124.79-0.73
		l0.17,29.26c0.26,43.9-35.13,79.7-79.03,79.95C830.19,2019.73,794.4,1984.35,794.14,1940.45L794.14,1940.45z"/>
	<path class="st23" d="M794.14,1940.45l-0.17-29.26l158.98-0.92l0.17,29.26c0.26,43.9-35.13,79.7-79.03,79.95
		C830.19,2019.73,794.4,1984.35,794.14,1940.45L794.14,1940.45z"/>
	<path class="st17" d="M802.65,1934.42l-0.47-81.4l25.64-0.15l0.43,73.71c0.19,32.97,20.48,70.29,49.17,86.73
		C835.92,2010.87,802.9,1976.58,802.65,1934.42L802.65,1934.42z"/>
	<path class="st24" d="M951.26,1933.56l-0.05-8.65l-25.64,0.15l0.01,0.96c0.19,32.97-19.66,70.52-48.16,87.29
		C918.88,2010.39,951.5,1975.71,951.26,1933.56L951.26,1933.56z"/>
	<polygon class="st17" points="864.79,2037.3 874.2,2037.24 874.82,2144.08 865.42,2144.13 864.79,2037.3 	"/>
	<polygon class="st17" points="821.64,2148.45 928.04,2147.83 928.02,2143.77 821.61,2144.39 821.64,2148.45 	"/>
	<polygon class="st25" points="882.03,2025.02 886.73,2024.99 887.4,2139.09 882.7,2139.12 882.03,2025.02 	"/>
	<polygon class="st25" points="821.66,2152.93 928.07,2152.31 928.06,2150.18 821.65,2150.8 821.66,2152.93 	"/>
	<path class="st10" d="M795.85,2099.02c10.16,26.47,39.86,39.68,66.33,29.52c26.46-10.17,39.68-39.86,29.52-66.33
		c-10.17-26.47-39.86-39.68-66.33-29.52C798.89,2042.85,785.68,2072.55,795.85,2099.02L795.85,2099.02z"/>
	<path class="st10" d="M879.63,2063.07c0.71,6.26,11.74,10.14,24.63,8.67c12.89-1.47,22.76-7.73,22.04-13.99
		c-0.71-6.26-11.74-10.14-24.63-8.67C888.78,2050.54,878.92,2056.81,879.63,2063.07L879.63,2063.07z"/>
	<path class="st22" d="M913.84,2059c0.36,3.13,2.98,5.4,5.87,5.07c2.88-0.33,4.93-3.13,4.58-6.26c-0.36-3.13-2.99-5.4-5.87-5.07
		C915.53,2053.07,913.48,2055.87,913.84,2059L913.84,2059z"/>
	<path class="st10" d="M879.16,2082.7c-1,6.22,8.58,12.93,21.38,14.98c12.8,2.06,24-1.32,24.99-7.54c1-6.22-8.57-12.93-21.38-14.98
		C891.35,2073.11,880.16,2076.48,879.16,2082.7L879.16,2082.7z"/>
	<path class="st22" d="M913.2,2088c-0.5,3.11,1.42,6,4.29,6.46c2.87,0.46,5.59-1.69,6.09-4.8c0.5-3.11-1.42-6-4.29-6.46
		C916.43,2082.74,913.7,2084.89,913.2,2088L913.2,2088z"/>
	<path class="st10" d="M871.45,2104.36c-2.21,5.9,5.85,14.37,18,18.91c12.14,4.54,23.79,3.45,25.99-2.45
		c2.21-5.9-5.85-14.37-18-18.91C885.29,2097.36,873.65,2098.46,871.45,2104.36L871.45,2104.36z"/>
	<path class="st22" d="M903.78,2116.28c-1.11,2.95,0.2,6.17,2.92,7.18c2.72,1.02,5.82-0.55,6.92-3.5c1.1-2.95-0.2-6.17-2.92-7.18
		C907.98,2111.76,904.88,2113.33,903.78,2116.28L903.78,2116.28z"/>
	<path class="st10" d="M857.57,2120.67c-3.6,4.36,0.75,13.9,9.72,21.31c8.97,7.42,19.16,9.89,22.76,5.54
		c3.6-4.36-0.75-13.9-9.72-21.32C871.37,2118.79,861.18,2116.31,857.57,2120.67L857.57,2120.67z"/>
	<path class="st10" d="M823.72,2042.44c3.72,6.01,16.76,4.67,29.13-3c12.36-7.66,19.37-18.74,15.65-24.75
		c-3.72-6.01-16.76-4.67-29.13,3C827.01,2025.35,820,2036.43,823.72,2042.44L823.72,2042.44z"/>
	<path class="st22" d="M881.5,2140.25c-1.8,2.18-1.63,5.29,0.37,6.95c2.01,1.66,5.09,1.24,6.89-0.94c1.8-2.18,1.63-5.29-0.37-6.95
		C886.39,2137.65,883.3,2138.07,881.5,2140.25L881.5,2140.25z"/>
	<path class="st22" d="M856.47,2021.93c1.86,3,5.61,4.05,8.38,2.33c2.77-1.71,3.5-5.54,1.64-8.54c-1.86-3-5.61-4.05-8.38-2.33
		C855.35,2015.1,854.61,2018.93,856.47,2021.93L856.47,2021.93z"/>
	<path class="st21" d="M1136.59,1530.62c85.7,0,155.18,64.59,155.18,144.26s-69.48,144.26-155.18,144.26
		s-155.18-64.59-155.18-144.26S1050.89,1530.62,1136.59,1530.62L1136.59,1530.62z M1136.59,1605.71c41.09,0,74.4,30.97,74.4,69.16
		s-33.31,69.17-74.4,69.17s-74.4-30.97-74.4-69.17S1095.5,1605.71,1136.59,1605.71L1136.59,1605.71z"/>
	<path class="st21" d="M1136.59,1664.07c41.09,0,74.4,30.97,74.4,69.16s-33.31,69.17-74.4,69.17s-74.4-30.97-74.4-69.17
		S1095.5,1664.07,1136.59,1664.07L1136.59,1664.07z"/>
	<path class="st26" d="M1404.48,1908.7c7.15,6.72,7.88,17.71,1.96,25.3c1.08,1.13,2.07,2.87,2.72,4.93c1.27,4.08,0.7,7.88-1.28,8.5
		c-1.98,0.62-4.62-2.18-5.89-6.26c-0.29-0.92-0.48-1.82-0.58-2.67c-0.68,0.41-1.38,0.78-2.09,1.1c0.3,1.26,0.46,2.71,0.41,4.26
		c-0.14,4.76-2.13,8.56-4.44,8.49c-2.31-0.07-4.07-3.98-3.93-8.74c0.02-0.82,0.1-1.6,0.23-2.35c-0.56,0-1.12-0.02-1.67-0.07
		c-0.05,0.92-0.19,1.89-0.42,2.89c-1.08,4.64-3.78,7.97-6.03,7.44c-2.25-0.52-3.2-4.71-2.13-9.34c0.08-0.34,0.17-0.68,0.27-1.01
		l-13.78,18.98c5.02,2.91,10.85,4.58,17.07,4.58c9.4,0,17.91-3.81,24.07-9.97c6.16-6.16,9.97-14.67,9.97-24.07
		c0-9.4-3.81-17.91-9.97-24.07c-6.16-6.16-14.67-9.97-24.07-9.97c-9.4,0-17.91,3.81-24.07,9.97c-6.16,6.16-9.97,14.67-9.97,24.07
		c0,8.61,3.19,16.47,8.46,22.46l14.5-24.39c-0.79-2.23-1.16-4.57-1.09-6.91c-3.1,1.32-5.89,1.35-6.99-0.17
		c-1.52-2.1,0.74-6.34,5.06-9.48c2.56-1.86,5.27-2.92,7.37-3.03C1385.35,1901.93,1397.02,1901.68,1404.48,1908.7L1404.48,1908.7z
		 M1354.45,1961.36l-56.8,95.49l64.77-89.24c6.55,4,14.25,6.31,22.49,6.31c11.94,0,22.74-4.84,30.56-12.66
		c7.82-7.82,12.66-18.63,12.66-30.56s-4.84-22.74-12.66-30.56c-7.82-7.82-18.63-12.66-30.56-12.66c-11.93,0-22.74,4.84-30.57,12.66
		c-7.82,7.82-12.66,18.63-12.66,30.56c0,11.94,4.84,22.74,12.66,30.56L1354.45,1961.36L1354.45,1961.36z"/>
</g>
</svg>
