<?xml version="1.0" encoding="utf-8"?>
<!-- Generator: Adobe Illustrator 24.2.3, SVG Export Plug-In . SVG Version: 6.00 Build 0)  -->
<svg version="1.1" id="Layer_1" xmlns="http://www.w3.org/2000/svg" xmlns:xlink="http://www.w3.org/1999/xlink" x="0px" y="0px"
	 viewBox="0 0 288 285" style="enable-background:new 0 0 288 285;" xml:space="preserve">
<style type="text/css">
	.st0{fill:#353130;}
	.st1{fill-rule:evenodd;clip-rule:evenodd;fill:#70AFD4;}
	.st2{fill-rule:evenodd;clip-rule:evenodd;fill:#5A90B0;}
	.st3{fill-rule:evenodd;clip-rule:evenodd;fill:#61D2FF;}
	.st4{fill:none;stroke:#3D6982;stroke-width:5;stroke-linecap:round;stroke-linejoin:round;stroke-miterlimit:22.9256;}
	.st5{fill-rule:evenodd;clip-rule:evenodd;fill:#3D6982;}
	.st6{fill:none;stroke:#3D6982;stroke-width:9;stroke-linecap:round;stroke-linejoin:round;stroke-miterlimit:22.9256;}
	.st7{fill:none;stroke:#3D6982;stroke-width:10;stroke-linecap:round;stroke-linejoin:round;stroke-miterlimit:22.9256;}
	.st8{fill:none;stroke:#70AFD4;stroke-width:3;stroke-linecap:round;stroke-linejoin:round;stroke-miterlimit:22.9256;}
	.st9{fill:none;stroke:#70AFD4;stroke-width:4;stroke-linecap:round;stroke-linejoin:round;stroke-miterlimit:22.9256;}
	.st10{fill:none;stroke:#70AFD4;stroke-width:2;stroke-linecap:round;stroke-linejoin:round;stroke-miterlimit:22.9256;}
</style>
<rect y="0.6" class="st0" width="288" height="285"/>
<g>
	<rect x="107.4" y="169.4" width="59.4" height="58.8"/>
	<path class="st1" d="M75.4,91.8c-1.4-3.3-4.8-29.3-4.8-29.3l20.5,29.3H75.4L75.4,91.8z"/>
	<path class="st1" d="M96.2,84.1c-1.4-3.3-4.8-29.3-4.8-29.3l20.5,29.3H96.2L96.2,84.1z"/>
	<path class="st1" d="M216.2,91.8c1.4-3.3,4.8-29.3,4.8-29.3l-20.5,29.3H216.2L216.2,91.8z"/>
	<path class="st1" d="M195.4,84.1c1.4-3.3,4.8-29.3,4.8-29.3l-20.5,29.3H195.4L195.4,84.1z"/>
	<path class="st2" d="M145.8,56.6c50.1,0,90.8,40.6,90.8,90.8s-40.6,90.8-90.8,90.8c-50.1,0-90.8-40.6-90.8-90.8
		S95.6,56.6,145.8,56.6L145.8,56.6z"/>
	<path class="st3" d="M115.3,156.7c3.8,0,7,3.1,7,7s-3.1,7-7,7c-3.8,0-7-3.1-7-7S111.5,156.7,115.3,156.7L115.3,156.7z"/>
	<path class="st3" d="M176.5,156.7c3.8,0,7,3.1,7,7s-3.1,7-7,7c-3.8,0-7-3.1-7-7S172.6,156.7,176.5,156.7L176.5,156.7z"/>
	<line class="st4" x1="131.1" y1="196.9" x2="160.5" y2="196.9"/>
	<path class="st5" d="M144.9,176.4c1.1,0.6,1.1,2.7,0,4.7c-1.1,1.9-2.9,3-4.1,2.4c-1.1-0.6-1.1-2.7,0-4.7
		C142,176.8,143.8,175.8,144.9,176.4L144.9,176.4z"/>
	<path class="st5" d="M148,176.4c-1.1,0.6-1.1,2.7,0,4.7c1.1,1.9,2.9,3,4.1,2.4c1.1-0.6,1.1-2.7,0-4.7
		C150.9,176.8,149.1,175.8,148,176.4L148,176.4z"/>
	<path class="st5" d="M115.2,157.2c1.9,0,3.5,1.6,3.5,3.5s-1.6,3.5-3.5,3.5s-3.5-1.6-3.5-3.5C111.7,158.7,113.2,157.2,115.2,157.2
		L115.2,157.2z"/>
	<path class="st5" d="M176.4,157.2c1.9,0,3.5,1.6,3.5,3.5s-1.6,3.5-3.5,3.5s-3.5-1.6-3.5-3.5C172.9,158.7,174.5,157.2,176.4,157.2
		L176.4,157.2z"/>
	<line class="st4" x1="141.2" y1="204" x2="150.3" y2="204"/>
	<line class="st6" x1="129.7" y1="156.2" x2="110.2" y2="146"/>
	<line class="st7" x1="100.2" y1="150.5" x2="110.2" y2="146"/>
	<line class="st6" x1="160.4" y1="155.3" x2="179.9" y2="145.1"/>
	<line class="st6" x1="192.5" y1="150.5" x2="182.5" y2="146"/>
	<path class="st2" d="M58.2,154.9c9.2,0,16.6,7.4,16.6,16.6s-7.4,16.6-16.6,16.6s-16.6-7.4-16.6-16.6S49.1,154.9,58.2,154.9
		L58.2,154.9z"/>
	<path class="st2" d="M232.9,156.3c9.2,0,16.6,7.4,16.6,16.6c0,9.2-7.4,16.6-16.6,16.6c-9.2,0-16.6-7.4-16.6-16.6
		C216.3,163.8,223.7,156.3,232.9,156.3L232.9,156.3z"/>
	<path class="st1" d="M66.2,107.6c-1.4-3.3-4.8-29.3-4.8-29.3l20.4,29.3L66.2,107.6L66.2,107.6z"/>
	<path class="st1" d="M225.3,107.6c1.4-3.3,4.8-29.3,4.8-29.3l-20.4,29.3L225.3,107.6L225.3,107.6z"/>
	<polygon class="st1" points="153.1,85 144.3,52 138.4,85.1 	"/>
	<path class="st1" d="M96.8,128.4c-1.4-3.3-4.8-29.3-4.8-29.3l20.5,29.3H96.8L96.8,128.4z"/>
	<path class="st1" d="M116.3,137.9c-1.4-3.3-4.8-29.3-4.8-29.3l20.5,29.3H116.3L116.3,137.9z"/>
	<path class="st1" d="M120.7,104.2c-1.1-2.7-3.9-24-3.9-24l16.8,24H120.7L120.7,104.2z"/>
	<path class="st1" d="M194.7,128.4c1.4-3.3,4.8-29.3,4.8-29.3L179,128.4H194.7L194.7,128.4z"/>
	<path class="st1" d="M175.3,137.9c1.4-3.3,4.8-29.3,4.8-29.3l-20.5,29.3H175.3L175.3,137.9z"/>
	<path class="st1" d="M170.9,104.2c1.1-2.7,3.9-24,3.9-24l-16.8,24H170.9L170.9,104.2z"/>
	<line class="st8" x1="137.4" y1="150.4" x2="154.2" y2="150.4"/>
	<line class="st9" x1="130" y1="143.1" x2="161.6" y2="143.1"/>
	<line class="st10" x1="139.4" y1="157.9" x2="152.1" y2="157.9"/>
	<path class="st8" d="M72.1,163.6l43.9,27 M75.5,175.7l46,28.2 M77.2,186.5l47.3,28.8 M91.3,204.5l35.9,21.7"/>
	<path class="st8" d="M219.4,163.6l-43.9,27 M216.1,175.7l-46,28.2 M214.4,186.5L167,215.3 M200.3,204.5l-35.9,21.7"/>
</g>
</svg>
